<svg width="360" height="794" viewBox="0 0 360 794" fill="none" xmlns="http://www.w3.org/2000/svg">
<g clip-path="url(#clip0_2266_15161)">
<rect width="360" height="794" fill="#FAFF00" fill-opacity="0.2"/>
<path d="M-12.8239 578.844C-37.5906 562.682 -57.2608 601.152 -64 622.407V654.606C-43.1505 655.658 7.64658 657.131 44.0385 654.606C89.5284 651.449 81.9467 590.84 69.3106 569.374C56.6746 547.908 18.1345 599.047 -12.8239 578.844Z" fill="#CDCD73" fill-opacity="0.13"/>
<path d="M177.803 103.934C195.462 61.5614 135.663 17.6561 103.557 1H-64V237.849C-53.298 241.847 -32.0946 237.649 -32.8972 188.88C-33.9006 127.919 33.323 110.93 50.3797 124.921C67.4364 138.912 155.73 156.901 177.803 103.934Z" fill="#CDCD73" fill-opacity="0.13"/>
<path d="M205.619 342.527C193.619 296.127 251.285 268.527 281.619 260.527C300.62 167.527 402.617 210.527 419.617 251.527C436.617 292.527 428.617 495.527 366.617 502.527C304.617 509.527 307.617 444.527 328.617 394.527C349.617 344.527 305.617 350.527 290.617 378.527C275.617 406.527 220.619 400.527 205.619 342.527Z" fill="#CDCD73" fill-opacity="0.13"/>
</g>
<defs>
<clipPath id="clip0_2266_15161">
<rect width="360" height="794" fill="white"/>
</clipPath>
</defs>
</svg>
