<svg width="360" height="640" viewBox="0 0 360 640" fill="none" xmlns="http://www.w3.org/2000/svg">
<g clip-path="url(#clip0_3779_9029)">
<rect width="360" height="640" fill="white"/>
<path d="M335.724 572.447C313.701 574.056 312.021 553.006 313.934 542.281C313.068 541.85 310.827 540.998 308.795 541.028C306.255 541.065 304.658 541.48 303.025 542.09C301.393 542.701 298.563 544.306 293.716 546.958C288.869 549.61 288.416 555.91 285.913 558.488C283.41 561.066 286.091 565.209 291.191 574.358C296.291 583.507 304.149 594.179 313.176 604.561C322.204 614.942 342.436 611.28 344.244 611.918C346.052 612.556 392.592 577.272 379.206 573.483C365.821 569.695 363.252 570.436 335.724 572.447Z" fill="#C8C8C8" fill-opacity="0.15"/>
<path d="M17.1223 371.471C39.0709 373.886 36.9033 394.89 33.0759 405.091C33.8498 405.671 35.8985 406.916 37.9024 407.256C40.4073 407.68 42.0525 407.562 43.7689 407.258C45.4853 406.953 48.5593 405.888 53.8069 404.16C59.0545 402.432 60.6441 396.319 63.5729 394.238C66.5018 392.157 64.6177 387.596 61.2628 377.673C57.908 367.75 52.1164 355.829 45.1231 343.982C38.1298 332.136 17.5684 332.065 15.9066 331.109C14.2448 330.154 -37.9257 356.406 -25.45 362.561C-12.9743 368.716 -10.3134 368.453 17.1223 371.471Z" fill="#C8C8C8" fill-opacity="0.15"/>
<path d="M216.981 -7.55305C194.958 -5.94448 193.278 -26.9938 195.191 -37.7195C194.325 -38.1497 192.084 -39.0025 190.052 -38.9724C187.511 -38.9348 185.915 -38.5202 184.282 -37.9096C182.65 -37.2991 179.82 -35.6935 174.973 -33.0418C170.126 -30.3901 169.672 -24.09 167.17 -21.5122C164.667 -18.9343 167.348 -14.7915 172.448 -5.64206C177.547 3.50735 185.406 14.1794 194.433 24.5606C203.46 34.9417 223.693 31.2801 225.501 31.9178C227.308 32.5556 273.849 -2.72812 260.463 -6.51678C247.078 -10.3054 244.509 -9.56376 216.981 -7.55305Z" fill="#C8C8C8" fill-opacity="0.15"/>
<path d="M7.89203 598.051C15.6677 577.385 35.481 584.687 44.4157 590.922C45.1696 590.316 46.8835 588.639 47.7085 586.782C48.7397 584.46 49.0328 582.837 49.1633 581.099C49.2938 579.36 49.023 576.118 48.6485 570.606C48.2739 565.094 42.745 562.04 41.4544 558.687C40.1637 555.334 35.2787 556.03 24.834 556.822C14.3892 557.615 1.40515 560.273 -11.8048 564.114C-25.0147 567.956 -30.1762 587.859 -31.5132 589.232C-32.8502 590.606 -20.3379 647.653 -11.2847 637.09C-2.23163 626.528 -1.82757 623.885 7.89203 598.051Z" fill="#C8C8C8" fill-opacity="0.15"/>
<path d="M344.158 405.785C332.761 424.697 314.602 413.92 306.947 406.167C306.096 406.627 304.106 407.964 302.958 409.641C301.522 411.737 300.939 413.28 300.496 414.966C300.052 416.652 299.73 419.889 299.098 425.378C298.466 430.866 303.349 434.873 304.009 438.405C304.67 441.936 309.6 442.138 320.015 443.254C330.431 444.37 343.681 444.112 357.369 442.732C371.057 441.352 379.744 422.716 381.308 421.608C382.873 420.5 380.921 362.13 370.101 370.874C359.281 379.618 358.404 382.144 344.158 405.785Z" fill="#C8C8C8" fill-opacity="0.15"/>
<path d="M-2.01931 83.447C-24.0417 85.0555 -25.7218 64.0062 -23.8091 53.2805C-24.6754 52.8503 -26.9161 51.9975 -28.9484 52.0276C-31.4886 52.0652 -33.0851 52.4798 -34.7178 53.0904C-36.3505 53.7009 -39.1801 55.3065 -44.027 57.9582C-48.8738 60.6099 -49.3276 66.91 -51.8302 69.4878C-54.3328 72.0657 -51.6524 76.2085 -46.5525 85.3579C-41.4525 94.5073 -33.5938 105.179 -24.5667 115.561C-15.5396 125.942 4.69332 122.28 6.50086 122.918C8.30842 123.556 54.8486 88.2719 41.4631 84.4832C28.0775 80.6946 25.5087 81.4362 -2.01931 83.447Z" fill="#C8C8C8" fill-opacity="0.15"/>
</g>
<defs>
<clipPath id="clip0_3779_9029">
<rect width="360" height="640" fill="white"/>
</clipPath>
</defs>
</svg>
