<svg width="1280" height="720" viewBox="0 0 1280 720" fill="none" xmlns="http://www.w3.org/2000/svg">
<path d="M1231.17 532.825C1153.03 538.533 1147.07 463.848 1153.86 425.793C1150.78 424.267 1142.83 421.241 1135.62 421.348C1126.61 421.481 1120.95 422.952 1115.15 425.118C1109.36 427.285 1099.32 432.981 1082.12 442.39C1064.93 451.798 1063.32 474.151 1054.44 483.298C1045.56 492.444 1055.07 507.143 1073.16 539.606C1091.26 572.068 1119.14 609.933 1151.17 646.766C1183.2 683.599 1254.99 670.608 1261.4 672.87C1267.81 675.133 1432.94 549.944 1385.45 536.502C1337.95 523.06 1328.84 525.691 1231.17 532.825Z" fill="#C8C8C8" fill-opacity="0.15"/>
<path d="M743.169 52.8253C665.033 58.5326 659.071 -16.1516 665.858 -54.2071C662.784 -55.7334 654.834 -58.7592 647.624 -58.6524C638.611 -58.5189 632.946 -57.0479 627.153 -54.8817C621.36 -52.7155 611.321 -47.0189 594.124 -37.6104C576.927 -28.202 575.317 -5.84895 566.437 3.29754C557.558 12.444 567.068 27.1429 585.163 59.6056C603.258 92.0683 631.141 129.933 663.17 166.766C695.199 203.599 766.986 190.608 773.4 192.87C779.813 195.133 944.94 69.9444 897.448 56.502C849.955 43.0596 840.84 45.6912 743.169 52.8253Z" fill="#C8C8C8" fill-opacity="0.15"/>
<path d="M68.0031 799.858C95.5916 726.532 165.89 752.442 197.591 774.563C200.266 772.412 206.347 766.464 209.274 759.874C212.933 751.636 213.973 745.877 214.436 739.709C214.899 733.542 213.938 722.039 212.609 702.482C211.28 682.924 191.664 672.088 187.084 660.191C182.505 648.295 165.173 650.763 128.114 653.576C91.0554 656.388 44.9872 665.82 -1.88242 679.449C-48.7521 693.077 -67.0653 763.695 -71.809 768.568C-76.5527 773.441 -32.1583 975.848 -0.0372939 938.371C32.0837 900.895 33.5173 891.517 68.0031 799.858Z" fill="#C8C8C8" fill-opacity="0.15"/>
<path d="M32.8374 253.825C-45.2993 259.533 -51.2606 184.848 -44.4741 146.793C-47.5479 145.267 -55.4981 142.241 -62.7085 142.348C-71.7215 142.481 -77.3859 143.952 -83.1788 146.118C-88.9716 148.285 -99.0115 153.981 -116.208 163.39C-133.405 172.798 -135.015 195.151 -143.895 204.298C-152.774 213.444 -143.264 228.143 -125.169 260.606C-107.074 293.068 -79.1909 330.933 -47.1622 367.766C-15.1335 404.599 56.6542 391.608 63.0675 393.87C69.4808 396.133 234.608 270.944 187.115 257.502C139.623 244.06 130.508 246.691 32.8374 253.825Z" fill="#C8C8C8" fill-opacity="0.15"/>
</svg>
