<svg width="360" height="720" viewBox="0 0 360 720" fill="none" xmlns="http://www.w3.org/2000/svg">
<g clip-path="url(#clip0_2266_14852)">
<rect width="360" height="720" fill="white"/>
<path d="M223.878 632.181C205.478 695.381 243.544 717.181 264.878 720.181H487.878V578.181C479.545 567.514 452.278 552.581 409.878 578.181C356.878 610.181 325.878 605.181 327.878 556.181C329.878 507.181 246.878 553.181 223.878 632.181Z" fill="#D6B6FF"/>
<path d="M-23 172.001C-43.8 203.201 -82.3333 124.334 -99 81.0007V0.000696182C-49.6667 -8.9993 46.4 -21.5993 36 0.000696182C25.6 21.6007 100.333 40.334 139 47.0007C173 67.0007 85 140.001 49 108.001C13 76.0007 3 133.001 -23 172.001Z" fill="#D6B6FF"/>
<path d="M-74.2217 628.181C-91.0217 676.981 -67.2217 709.848 -53.2217 720.181H158.778C223.778 691.181 139.778 643.181 126.778 662.181C113.778 681.181 23.7783 681.181 30.7783 634.181C37.7783 587.181 -53.2217 567.181 -74.2217 628.181Z" fill="#D6B6FF"/>
<path d="M234.844 71C196.444 55 207.511 17 217.844 0H438.844C511.844 62 337.844 71 311.844 49C285.844 27 282.844 91 234.844 71Z" fill="#D6B6FF"/>
</g>
<defs>
<clipPath id="clip0_2266_14852">
<rect width="360" height="720" fill="white"/>
</clipPath>
</defs>
</svg>
