<svg width="1280" height="720" viewBox="0 0 1280 720" fill="none" xmlns="http://www.w3.org/2000/svg">
<g clip-path="url(#clip0_2266_12116)">
<rect width="1280" height="720" fill="white"/>
<path d="M1018 632.181C999.599 695.381 1037.67 717.181 1059 720.181H1282V578.181C1273.67 567.514 1246.4 552.581 1204 578.181C1151 610.181 1120 605.181 1122 556.181C1124 507.181 1041 553.181 1018 632.181Z" fill="#FFCCFA"/>
<path d="M76 172.001C55.2 203.201 16.6667 124.334 0 81.0007V0.000696182C49.3333 -8.9993 145.4 -21.5993 135 0.000696182C124.6 21.6007 199.333 40.334 238 47.0007C272 67.0007 184 140.001 148 108.001C112 76.0007 102 133.001 76 172.001Z" fill="#FFCCFA"/>
<path d="M159.778 628.181C142.978 676.981 166.778 709.848 180.778 720.181H392.778C457.778 691.181 373.778 643.181 360.778 662.181C347.778 681.181 257.778 681.181 264.778 634.181C271.778 587.181 180.778 567.181 159.778 628.181Z" fill="#FFCCFA"/>
<path d="M881 71C842.6 55 853.667 17 864 0H1085C1158 62 984 71 958 49C932 27 929 91 881 71Z" fill="#FFCCFA"/>
</g>
<defs>
<clipPath id="clip0_2266_12116">
<rect width="1280" height="720" fill="white"/>
</clipPath>
</defs>
</svg>
