<svg width="141" height="96" viewBox="0 0 141 96" fill="none" xmlns="http://www.w3.org/2000/svg">
<path d="M21.9375 50.3438H10.25L10.1875 43.5312H19.8438C21.5521 43.5312 22.9375 43.3229 24 42.9062C25.0833 42.4896 25.875 41.8854 26.375 41.0938C26.875 40.2812 27.125 39.2812 27.125 38.0938C27.125 36.7396 26.875 35.6458 26.375 34.8125C25.875 33.9792 25.0833 33.375 24 33C22.9375 32.6042 21.5625 32.4062 19.875 32.4062H13.9375V70H3.75V24.5H19.875C22.6042 24.5 25.0417 24.75 27.1875 25.25C29.3333 25.75 31.1562 26.5208 32.6562 27.5625C34.1771 28.6042 35.3333 29.9062 36.125 31.4688C36.9167 33.0312 37.3125 34.875 37.3125 37C37.3125 38.8542 36.8958 40.5833 36.0625 42.1875C35.25 43.7917 33.9375 45.0938 32.125 46.0938C30.3125 47.0938 27.8854 47.6354 24.8438 47.7188L21.9375 50.3438ZM21.5312 70H7.65625L11.3438 62.125H21.5312C23.0938 62.125 24.3646 61.875 25.3438 61.375C26.3229 60.875 27.0417 60.1979 27.5 59.3438C27.9583 58.4896 28.1875 57.5312 28.1875 56.4688C28.1875 55.2188 27.9688 54.1354 27.5312 53.2188C27.1146 52.3021 26.4479 51.5938 25.5312 51.0938C24.6354 50.5938 23.4375 50.3438 21.9375 50.3438H12.8125L12.875 43.5312H24.0312L26.4062 46.2188C29.3021 46.1562 31.6146 46.625 33.3438 47.625C35.0938 48.6042 36.3542 49.8958 37.125 51.5C37.8958 53.1042 38.2812 54.8021 38.2812 56.5938C38.2812 59.5521 37.6458 62.0312 36.375 64.0312C35.1042 66.0104 33.2188 67.5 30.7188 68.5C28.2396 69.5 25.1771 70 21.5312 70ZM54.1562 44.0625V70H44.4062V36.1875H53.5625L54.1562 44.0625ZM64.25 35.9375L64.0938 45.0312C63.6771 44.9688 63.1354 44.9167 62.4688 44.875C61.8021 44.8125 61.2292 44.7812 60.75 44.7812C59.5 44.7812 58.4167 44.9375 57.5 45.25C56.6042 45.5417 55.8542 45.9792 55.25 46.5625C54.6667 47.1458 54.2292 47.875 53.9375 48.75C53.6458 49.6042 53.5 50.5938 53.5 51.7188L51.6562 50.8125C51.6562 48.5833 51.875 46.5417 52.3125 44.6875C52.75 42.8333 53.3854 41.2292 54.2188 39.875C55.0521 38.5 56.0729 37.4375 57.2812 36.6875C58.4896 35.9375 59.8646 35.5625 61.4062 35.5625C61.9062 35.5625 62.4167 35.5938 62.9375 35.6562C63.4583 35.7188 63.8958 35.8125 64.25 35.9375ZM78.5312 36.1875V70H68.75V36.1875H78.5312ZM68.1562 27.4375C68.1562 26.0208 68.6562 24.8646 69.6562 23.9688C70.6562 23.0521 71.9688 22.5938 73.5938 22.5938C75.2188 22.5938 76.5312 23.0521 77.5312 23.9688C78.5521 24.8646 79.0625 26.0208 79.0625 27.4375C79.0625 28.8333 78.5521 29.9896 77.5312 30.9062C76.5312 31.8021 75.2188 32.25 73.5938 32.25C71.9688 32.25 70.6562 31.8021 69.6562 30.9062C68.6562 29.9896 68.1562 28.8333 68.1562 27.4375ZM101.5 70.625C98.8125 70.625 96.4062 70.1979 94.2812 69.3438C92.1562 68.4896 90.3542 67.3125 88.875 65.8125C87.4167 64.2917 86.3021 62.5417 85.5312 60.5625C84.7604 58.5833 84.375 56.4688 84.375 54.2188V53.0312C84.375 50.5104 84.7292 48.1875 85.4375 46.0625C86.1458 43.9375 87.1771 42.0938 88.5312 40.5312C89.9062 38.9479 91.5938 37.7292 93.5938 36.875C95.5938 36 97.875 35.5625 100.438 35.5625C102.833 35.5625 104.969 35.9583 106.844 36.75C108.719 37.5208 110.302 38.6354 111.594 40.0938C112.885 41.5312 113.865 43.2708 114.531 45.3125C115.219 47.3333 115.562 49.6042 115.562 52.125V56.125H88.3125V49.8438H106V49.0938C106 47.9062 105.781 46.8646 105.344 45.9688C104.927 45.0729 104.302 44.3854 103.469 43.9062C102.656 43.4062 101.625 43.1562 100.375 43.1562C99.1875 43.1562 98.1979 43.4062 97.4062 43.9062C96.6146 44.4062 95.9792 45.1146 95.5 46.0312C95.0417 46.9271 94.7083 47.9792 94.5 49.1875C94.2917 50.375 94.1875 51.6562 94.1875 53.0312V54.2188C94.1875 55.5312 94.3646 56.7292 94.7188 57.8125C95.0729 58.8958 95.5938 59.8229 96.2812 60.5938C96.9688 61.3646 97.8021 61.9688 98.7812 62.4062C99.7604 62.8438 100.875 63.0625 102.125 63.0625C103.667 63.0625 105.135 62.7708 106.531 62.1875C107.927 61.5833 109.135 60.6458 110.156 59.375L114.719 64.5938C114.031 65.5938 113.062 66.5625 111.812 67.5C110.583 68.4167 109.104 69.1667 107.375 69.75C105.646 70.3333 103.688 70.625 101.5 70.625ZM132.469 70H122.656V33.3125C122.656 30.7083 123.167 28.5208 124.188 26.75C125.229 24.9792 126.698 23.6354 128.594 22.7188C130.49 21.8021 132.729 21.3438 135.312 21.3438C136.208 21.3438 137.042 21.4062 137.812 21.5312C138.604 21.6354 139.375 21.7812 140.125 21.9688V29.25C139.729 29.1458 139.323 29.0729 138.906 29.0312C138.49 28.9896 137.99 28.9688 137.406 28.9688C136.365 28.9688 135.469 29.1354 134.719 29.4688C133.99 29.7812 133.427 30.2708 133.031 30.9375C132.656 31.5833 132.469 32.375 132.469 33.3125V70ZM139.156 36.1875V43.0312H117.719V36.1875H139.156Z" fill="#333333"/>
<path d="M91 29H108" stroke="#333333" stroke-width="3" stroke-linecap="round"/>
</svg>
