<svg width="381" height="96" viewBox="0 0 381 96" fill="none" xmlns="http://www.w3.org/2000/svg">
<path d="M18.1562 70H8.15625L8.21875 62.125H18.1562C20.4271 62.125 22.3438 61.6042 23.9062 60.5625C25.4688 59.5 26.6562 57.9375 27.4688 55.875C28.2812 53.7917 28.6875 51.2604 28.6875 48.2812V46.1875C28.6875 43.9375 28.4583 41.9583 28 40.25C27.5417 38.5208 26.8646 37.0729 25.9688 35.9062C25.0729 34.7396 23.9583 33.8646 22.625 33.2812C21.3125 32.6979 19.8021 32.4062 18.0938 32.4062H7.96875V24.5H18.0938C21.1771 24.5 23.9896 25.0208 26.5312 26.0625C29.0938 27.1042 31.3021 28.5938 33.1562 30.5312C35.0312 32.4688 36.4792 34.7604 37.5 37.4062C38.5208 40.0521 39.0312 43 39.0312 46.25V48.2812C39.0312 51.5104 38.5208 54.4583 37.5 57.125C36.4792 59.7708 35.0312 62.0625 33.1562 64C31.3021 65.9167 29.1042 67.3958 26.5625 68.4375C24.0208 69.4792 21.2188 70 18.1562 70ZM13.9375 24.5V70H3.75V24.5H13.9375ZM60.6875 70.625C58 70.625 55.5938 70.1979 53.4688 69.3438C51.3438 68.4896 49.5417 67.3125 48.0625 65.8125C46.6042 64.2917 45.4896 62.5417 44.7188 60.5625C43.9479 58.5833 43.5625 56.4688 43.5625 54.2188V53.0312C43.5625 50.5104 43.9167 48.1875 44.625 46.0625C45.3333 43.9375 46.3646 42.0938 47.7188 40.5312C49.0938 38.9479 50.7812 37.7292 52.7812 36.875C54.7812 36 57.0625 35.5625 59.625 35.5625C62.0208 35.5625 64.1562 35.9583 66.0312 36.75C67.9062 37.5208 69.4896 38.6354 70.7812 40.0938C72.0729 41.5312 73.0521 43.2708 73.7188 45.3125C74.4062 47.3333 74.75 49.6042 74.75 52.125V56.125H47.5V49.8438H65.1875V49.0938C65.1875 47.9062 64.9688 46.8646 64.5312 45.9688C64.1146 45.0729 63.4896 44.3854 62.6562 43.9062C61.8438 43.4062 60.8125 43.1562 59.5625 43.1562C58.375 43.1562 57.3854 43.4062 56.5938 43.9062C55.8021 44.4062 55.1667 45.1146 54.6875 46.0312C54.2292 46.9271 53.8958 47.9792 53.6875 49.1875C53.4792 50.375 53.375 51.6562 53.375 53.0312V54.2188C53.375 55.5312 53.5521 56.7292 53.9062 57.8125C54.2604 58.8958 54.7812 59.8229 55.4688 60.5938C56.1562 61.3646 56.9896 61.9688 57.9688 62.4062C58.9479 62.8438 60.0625 63.0625 61.3125 63.0625C62.8542 63.0625 64.3229 62.7708 65.7188 62.1875C67.1146 61.5833 68.3229 60.6458 69.3438 59.375L73.9062 64.5938C73.2188 65.5938 72.25 66.5625 71 67.5C69.7708 68.4167 68.2917 69.1667 66.5625 69.75C64.8333 70.3333 62.875 70.625 60.6875 70.625ZM90.9062 63.0938L97.9688 36.1875H108.219L97 70H90.8438L90.9062 63.0938ZM86.3438 36.1875L93.375 63.125L93.4375 70H87.2812L76.0625 36.1875H86.3438ZM127.312 70.625C124.625 70.625 122.219 70.1979 120.094 69.3438C117.969 68.4896 116.167 67.3125 114.688 65.8125C113.229 64.2917 112.115 62.5417 111.344 60.5625C110.573 58.5833 110.188 56.4688 110.188 54.2188V53.0312C110.188 50.5104 110.542 48.1875 111.25 46.0625C111.958 43.9375 112.99 42.0938 114.344 40.5312C115.719 38.9479 117.406 37.7292 119.406 36.875C121.406 36 123.688 35.5625 126.25 35.5625C128.646 35.5625 130.781 35.9583 132.656 36.75C134.531 37.5208 136.115 38.6354 137.406 40.0938C138.698 41.5312 139.677 43.2708 140.344 45.3125C141.031 47.3333 141.375 49.6042 141.375 52.125V56.125H114.125V49.8438H131.812V49.0938C131.812 47.9062 131.594 46.8646 131.156 45.9688C130.74 45.0729 130.115 44.3854 129.281 43.9062C128.469 43.4062 127.438 43.1562 126.188 43.1562C125 43.1562 124.01 43.4062 123.219 43.9062C122.427 44.4062 121.792 45.1146 121.312 46.0312C120.854 46.9271 120.521 47.9792 120.312 49.1875C120.104 50.375 120 51.6562 120 53.0312V54.2188C120 55.5312 120.177 56.7292 120.531 57.8125C120.885 58.8958 121.406 59.8229 122.094 60.5938C122.781 61.3646 123.615 61.9688 124.594 62.4062C125.573 62.8438 126.688 63.0625 127.938 63.0625C129.479 63.0625 130.948 62.7708 132.344 62.1875C133.74 61.5833 134.948 60.6458 135.969 59.375L140.531 64.5938C139.844 65.5938 138.875 66.5625 137.625 67.5C136.396 68.4167 134.917 69.1667 133.188 69.75C131.458 70.3333 129.5 70.625 127.312 70.625ZM156.406 22V70H146.625V22H156.406ZM162.031 53.4375V52.7812C162.031 50.3021 162.385 48.0208 163.094 45.9375C163.802 43.8333 164.844 42.0104 166.219 40.4688C167.594 38.9271 169.281 37.7292 171.281 36.875C173.281 36 175.573 35.5625 178.156 35.5625C180.781 35.5625 183.094 36 185.094 36.875C187.115 37.7292 188.812 38.9271 190.188 40.4688C191.562 42.0104 192.604 43.8333 193.312 45.9375C194.021 48.0208 194.375 50.3021 194.375 52.7812V53.4375C194.375 55.8958 194.021 58.1771 193.312 60.2812C192.604 62.3646 191.562 64.1875 190.188 65.75C188.812 67.2917 187.125 68.4896 185.125 69.3438C183.125 70.1979 180.823 70.625 178.219 70.625C175.635 70.625 173.333 70.1979 171.312 69.3438C169.292 68.4896 167.594 67.2917 166.219 65.75C164.844 64.1875 163.802 62.3646 163.094 60.2812C162.385 58.1771 162.031 55.8958 162.031 53.4375ZM171.812 52.7812V53.4375C171.812 54.7708 171.917 56.0208 172.125 57.1875C172.354 58.3542 172.719 59.375 173.219 60.25C173.719 61.125 174.375 61.8125 175.188 62.3125C176.021 62.7917 177.031 63.0312 178.219 63.0312C179.406 63.0312 180.406 62.7917 181.219 62.3125C182.031 61.8125 182.688 61.125 183.188 60.25C183.688 59.375 184.042 58.3542 184.25 57.1875C184.479 56.0208 184.594 54.7708 184.594 53.4375V52.7812C184.594 51.4688 184.479 50.2396 184.25 49.0938C184.042 47.9271 183.688 46.8958 183.188 46C182.688 45.1042 182.021 44.4062 181.188 43.9062C180.375 43.4062 179.365 43.1562 178.156 43.1562C176.99 43.1562 176 43.4062 175.188 43.9062C174.375 44.4062 173.719 45.1042 173.219 46C172.719 46.8958 172.354 47.9271 172.125 49.0938C171.917 50.2396 171.812 51.4688 171.812 52.7812ZM209.281 42.6875V83H199.531V36.1875H208.625L209.281 42.6875ZM230.375 52.7188V53.375C230.375 55.8333 230.094 58.1146 229.531 60.2188C228.969 62.3021 228.125 64.125 227 65.6875C225.896 67.25 224.531 68.4688 222.906 69.3438C221.281 70.1979 219.396 70.625 217.25 70.625C215.208 70.625 213.438 70.1979 211.938 69.3438C210.458 68.4688 209.208 67.2604 208.188 65.7188C207.188 64.1562 206.375 62.375 205.75 60.375C205.146 58.3542 204.677 56.1979 204.344 53.9062V52.625C204.677 50.1875 205.156 47.9271 205.781 45.8438C206.406 43.7604 207.219 41.9583 208.219 40.4375C209.219 38.8958 210.458 37.6979 211.938 36.8438C213.417 35.9896 215.177 35.5625 217.219 35.5625C219.344 35.5625 221.229 35.9688 222.875 36.7812C224.521 37.5938 225.896 38.7604 227 40.2812C228.125 41.7812 228.969 43.5833 229.531 45.6875C230.094 47.7917 230.375 50.1354 230.375 52.7188ZM220.594 53.375V52.7188C220.594 51.3438 220.49 50.0833 220.281 48.9375C220.073 47.7708 219.74 46.7604 219.281 45.9062C218.823 45.0312 218.219 44.3542 217.469 43.875C216.719 43.3958 215.802 43.1562 214.719 43.1562C213.552 43.1562 212.562 43.3438 211.75 43.7188C210.938 44.0938 210.281 44.6458 209.781 45.375C209.281 46.0833 208.917 46.9583 208.688 48C208.479 49.0417 208.365 50.2292 208.344 51.5625V55C208.365 56.5625 208.583 57.9583 209 59.1875C209.438 60.3958 210.115 61.3438 211.031 62.0312C211.969 62.6979 213.219 63.0312 214.781 63.0312C215.885 63.0312 216.802 62.7917 217.531 62.3125C218.281 61.8125 218.875 61.1146 219.312 60.2188C219.771 59.3229 220.094 58.2917 220.281 57.125C220.49 55.9583 220.594 54.7083 220.594 53.375ZM245.344 43.2812V70H235.594V36.1875H244.75L245.344 43.2812ZM244.094 51.9062L241.625 51.9688C241.625 49.5938 241.906 47.4167 242.469 45.4375C243.052 43.4375 243.896 41.6979 245 40.2188C246.104 38.7396 247.469 37.5938 249.094 36.7812C250.74 35.9688 252.635 35.5625 254.781 35.5625C256.281 35.5625 257.646 35.7917 258.875 36.25C260.104 36.6875 261.156 37.3854 262.031 38.3438C262.927 39.2812 263.615 40.5104 264.094 42.0312C264.573 43.5312 264.812 45.3333 264.812 47.4375V70H255.062V48.625C255.062 47.125 254.875 45.9896 254.5 45.2188C254.146 44.4271 253.625 43.8854 252.938 43.5938C252.25 43.3021 251.427 43.1562 250.469 43.1562C249.427 43.1562 248.5 43.3854 247.688 43.8438C246.896 44.2812 246.229 44.8958 245.688 45.6875C245.146 46.4792 244.74 47.4062 244.469 48.4688C244.219 49.5312 244.094 50.6771 244.094 51.9062ZM263.812 51.4062L260.719 51.6562C260.719 49.3646 260.99 47.2396 261.531 45.2812C262.073 43.3229 262.885 41.625 263.969 40.1875C265.052 38.7292 266.396 37.5938 268 36.7812C269.625 35.9688 271.51 35.5625 273.656 35.5625C275.24 35.5625 276.677 35.7917 277.969 36.25C279.281 36.7083 280.406 37.4479 281.344 38.4688C282.302 39.4896 283.042 40.8333 283.562 42.5C284.083 44.1458 284.344 46.1667 284.344 48.5625V70H274.531V48.5625C274.531 47.0833 274.344 45.9583 273.969 45.1875C273.615 44.4167 273.094 43.8854 272.406 43.5938C271.74 43.3021 270.938 43.1562 270 43.1562C268.958 43.1562 268.052 43.375 267.281 43.8125C266.51 44.2292 265.865 44.8125 265.344 45.5625C264.823 46.2917 264.438 47.1562 264.188 48.1562C263.938 49.1562 263.812 50.2396 263.812 51.4062ZM306.812 70.625C304.125 70.625 301.719 70.1979 299.594 69.3438C297.469 68.4896 295.667 67.3125 294.188 65.8125C292.729 64.2917 291.615 62.5417 290.844 60.5625C290.073 58.5833 289.688 56.4688 289.688 54.2188V53.0312C289.688 50.5104 290.042 48.1875 290.75 46.0625C291.458 43.9375 292.49 42.0938 293.844 40.5312C295.219 38.9479 296.906 37.7292 298.906 36.875C300.906 36 303.188 35.5625 305.75 35.5625C308.146 35.5625 310.281 35.9583 312.156 36.75C314.031 37.5208 315.615 38.6354 316.906 40.0938C318.198 41.5312 319.177 43.2708 319.844 45.3125C320.531 47.3333 320.875 49.6042 320.875 52.125V56.125H293.625V49.8438H311.312V49.0938C311.312 47.9062 311.094 46.8646 310.656 45.9688C310.24 45.0729 309.615 44.3854 308.781 43.9062C307.969 43.4062 306.938 43.1562 305.688 43.1562C304.5 43.1562 303.51 43.4062 302.719 43.9062C301.927 44.4062 301.292 45.1146 300.812 46.0312C300.354 46.9271 300.021 47.9792 299.812 49.1875C299.604 50.375 299.5 51.6562 299.5 53.0312V54.2188C299.5 55.5312 299.677 56.7292 300.031 57.8125C300.385 58.8958 300.906 59.8229 301.594 60.5938C302.281 61.3646 303.115 61.9688 304.094 62.4062C305.073 62.8438 306.188 63.0625 307.438 63.0625C308.979 63.0625 310.448 62.7708 311.844 62.1875C313.24 61.5833 314.448 60.6458 315.469 59.375L320.031 64.5938C319.344 65.5938 318.375 66.5625 317.125 67.5C315.896 68.4167 314.417 69.1667 312.688 69.75C310.958 70.3333 309 70.625 306.812 70.625ZM335.188 43.4062V70H325.406V36.1875H334.594L335.188 43.4062ZM333.906 51.9062L331.469 51.9688C331.469 49.4271 331.781 47.1458 332.406 45.125C333.031 43.1042 333.917 41.3854 335.062 39.9688C336.229 38.5312 337.615 37.4375 339.219 36.6875C340.844 35.9375 342.635 35.5625 344.594 35.5625C346.177 35.5625 347.625 35.7917 348.938 36.25C350.25 36.7083 351.375 37.4479 352.312 38.4688C353.271 39.4688 354 40.8021 354.5 42.4688C355 44.1146 355.25 46.1458 355.25 48.5625V70H345.438V48.5312C345.438 47.1146 345.24 46.0208 344.844 45.25C344.448 44.4792 343.865 43.9375 343.094 43.625C342.344 43.3125 341.427 43.1562 340.344 43.1562C339.198 43.1562 338.219 43.3854 337.406 43.8438C336.594 44.2812 335.927 44.8958 335.406 45.6875C334.885 46.4792 334.5 47.4062 334.25 48.4688C334.021 49.5312 333.906 50.6771 333.906 51.9062ZM378.812 36.1875V43.0312H358.75V36.1875H378.812ZM363.344 27.8125H373.125V59.4062C373.125 60.3438 373.24 61.0625 373.469 61.5625C373.698 62.0625 374.073 62.4167 374.594 62.625C375.115 62.8125 375.781 62.9062 376.594 62.9062C377.177 62.9062 377.677 62.8854 378.094 62.8438C378.51 62.8021 378.896 62.75 379.25 62.6875V69.75C378.417 70.0208 377.531 70.2292 376.594 70.375C375.656 70.5417 374.635 70.625 373.531 70.625C371.427 70.625 369.604 70.2812 368.062 69.5938C366.542 68.9062 365.375 67.8229 364.562 66.3438C363.75 64.8438 363.344 62.8958 363.344 60.5V27.8125Z" fill="#333333"/>
<path d="M170 29H187" stroke="#333333" stroke-width="3" stroke-linecap="round"/>
</svg>
