<svg width="309" height="96" viewBox="0 0 309 96" fill="none" xmlns="http://www.w3.org/2000/svg">
<path d="M34.6875 62.125V70H10.4688V62.125H34.6875ZM13.9375 24.5V70H3.75V24.5H13.9375ZM31.5625 42.8125V50.4375H10.4688V42.8125H31.5625ZM34.7188 24.5V32.4062H10.4688V24.5H34.7188ZM57.1875 60.5938C57.1875 59.9688 56.9896 59.4167 56.5938 58.9375C56.2188 58.4583 55.5312 58.0208 54.5312 57.625C53.5521 57.2292 52.1667 56.8333 50.375 56.4375C48.6875 56.0833 47.1146 55.625 45.6562 55.0625C44.1979 54.4792 42.9271 53.7812 41.8438 52.9688C40.7604 52.1354 39.9167 51.1562 39.3125 50.0312C38.7083 48.8854 38.4062 47.5833 38.4062 46.125C38.4062 44.7083 38.7083 43.3646 39.3125 42.0938C39.9375 40.8229 40.8333 39.6979 42 38.7188C43.1875 37.7396 44.625 36.9688 46.3125 36.4062C48.0208 35.8438 49.9583 35.5625 52.125 35.5625C55.1042 35.5625 57.6771 36.0312 59.8438 36.9688C62.0104 37.8854 63.6771 39.1771 64.8438 40.8438C66.0104 42.4896 66.5938 44.375 66.5938 46.5H56.8438C56.8438 45.625 56.6771 44.8646 56.3438 44.2188C56.0104 43.5729 55.5 43.0729 54.8125 42.7188C54.125 42.3438 53.2188 42.1562 52.0938 42.1562C51.2188 42.1562 50.4479 42.3125 49.7812 42.625C49.1354 42.9167 48.625 43.3229 48.25 43.8438C47.8958 44.3646 47.7188 44.9688 47.7188 45.6562C47.7188 46.1354 47.8229 46.5729 48.0312 46.9688C48.2604 47.3438 48.6042 47.6979 49.0625 48.0312C49.5417 48.3438 50.1562 48.625 50.9062 48.875C51.6771 49.125 52.6146 49.3646 53.7188 49.5938C56.0729 50.0312 58.2188 50.6458 60.1562 51.4375C62.1146 52.2292 63.6771 53.3229 64.8438 54.7188C66.0312 56.1146 66.625 57.9583 66.625 60.25C66.625 61.75 66.2812 63.125 65.5938 64.375C64.9271 65.625 63.9583 66.7188 62.6875 67.6562C61.4167 68.5938 59.8958 69.3229 58.125 69.8438C56.3542 70.3646 54.3542 70.625 52.125 70.625C48.9375 70.625 46.2396 70.0521 44.0312 68.9062C41.8229 67.7604 40.1562 66.3229 39.0312 64.5938C37.9271 62.8438 37.375 61.0521 37.375 59.2188H46.5312C46.5729 60.3438 46.8542 61.2604 47.375 61.9688C47.9167 62.6771 48.6146 63.1979 49.4688 63.5312C50.3229 63.8438 51.2812 64 52.3438 64C53.4062 64 54.2917 63.8542 55 63.5625C55.7083 63.2708 56.25 62.875 56.625 62.375C57 61.8542 57.1875 61.2604 57.1875 60.5938ZM89.25 36.1875V43.0312H69.1875V36.1875H89.25ZM73.7812 27.8125H83.5625V59.4062C83.5625 60.3438 83.6771 61.0625 83.9062 61.5625C84.1354 62.0625 84.5104 62.4167 85.0312 62.625C85.5521 62.8125 86.2188 62.9062 87.0312 62.9062C87.6146 62.9062 88.1146 62.8854 88.5312 62.8438C88.9479 62.8021 89.3333 62.75 89.6875 62.6875V69.75C88.8542 70.0208 87.9688 70.2292 87.0312 70.375C86.0938 70.5417 85.0729 70.625 83.9688 70.625C81.8646 70.625 80.0417 70.2812 78.5 69.5938C76.9792 68.9062 75.8125 67.8229 75 66.3438C74.1875 64.8438 73.7812 62.8958 73.7812 60.5V27.8125ZM104.219 36.1875V70H94.4375V36.1875H104.219ZM93.8438 27.4375C93.8438 26.0208 94.3438 24.8646 95.3438 23.9688C96.3438 23.0521 97.6562 22.5938 99.2812 22.5938C100.906 22.5938 102.219 23.0521 103.219 23.9688C104.24 24.8646 104.75 26.0208 104.75 27.4375C104.75 28.8333 104.24 29.9896 103.219 30.9062C102.219 31.8021 100.906 32.25 99.2812 32.25C97.6562 32.25 96.3438 31.8021 95.3438 30.9062C94.3438 29.9896 93.8438 28.8333 93.8438 27.4375ZM121.031 43.2812V70H111.281V36.1875H120.438L121.031 43.2812ZM119.781 51.9062L117.312 51.9688C117.312 49.5938 117.594 47.4167 118.156 45.4375C118.74 43.4375 119.583 41.6979 120.688 40.2188C121.792 38.7396 123.156 37.5938 124.781 36.7812C126.427 35.9688 128.323 35.5625 130.469 35.5625C131.969 35.5625 133.333 35.7917 134.562 36.25C135.792 36.6875 136.844 37.3854 137.719 38.3438C138.615 39.2812 139.302 40.5104 139.781 42.0312C140.26 43.5312 140.5 45.3333 140.5 47.4375V70H130.75V48.625C130.75 47.125 130.562 45.9896 130.188 45.2188C129.833 44.4271 129.312 43.8854 128.625 43.5938C127.938 43.3021 127.115 43.1562 126.156 43.1562C125.115 43.1562 124.188 43.3854 123.375 43.8438C122.583 44.2812 121.917 44.8958 121.375 45.6875C120.833 46.4792 120.427 47.4062 120.156 48.4688C119.906 49.5312 119.781 50.6771 119.781 51.9062ZM139.5 51.4062L136.406 51.6562C136.406 49.3646 136.677 47.2396 137.219 45.2812C137.76 43.3229 138.573 41.625 139.656 40.1875C140.74 38.7292 142.083 37.5938 143.688 36.7812C145.312 35.9688 147.198 35.5625 149.344 35.5625C150.927 35.5625 152.365 35.7917 153.656 36.25C154.969 36.7083 156.094 37.4479 157.031 38.4688C157.99 39.4896 158.729 40.8333 159.25 42.5C159.771 44.1458 160.031 46.1667 160.031 48.5625V70H150.219V48.5625C150.219 47.0833 150.031 45.9583 149.656 45.1875C149.302 44.4167 148.781 43.8854 148.094 43.5938C147.427 43.3021 146.625 43.1562 145.688 43.1562C144.646 43.1562 143.74 43.375 142.969 43.8125C142.198 44.2292 141.552 44.8125 141.031 45.5625C140.51 46.2917 140.125 47.1562 139.875 48.1562C139.625 49.1562 139.5 50.2396 139.5 51.4062ZM184.469 61.9375V47.4375C184.469 46.4167 184.312 45.5417 184 44.8125C183.688 44.0833 183.198 43.5104 182.531 43.0938C181.865 42.6771 181 42.4688 179.938 42.4688C179.042 42.4688 178.26 42.625 177.594 42.9375C176.948 43.25 176.448 43.6979 176.094 44.2812C175.76 44.8646 175.594 45.5833 175.594 46.4375H165.844C165.844 44.9167 166.188 43.5 166.875 42.1875C167.562 40.875 168.542 39.7188 169.812 38.7188C171.104 37.7188 172.646 36.9479 174.438 36.4062C176.229 35.8438 178.24 35.5625 180.469 35.5625C183.115 35.5625 185.469 36.0104 187.531 36.9062C189.615 37.7812 191.26 39.1042 192.469 40.875C193.677 42.625 194.281 44.8333 194.281 47.5V61.6562C194.281 63.6979 194.396 65.3021 194.625 66.4688C194.875 67.6146 195.229 68.6146 195.688 69.4688V70H185.844C185.385 69.0208 185.042 67.8125 184.812 66.375C184.583 64.9167 184.469 63.4375 184.469 61.9375ZM185.688 49.375L185.75 54.75H180.906C179.823 54.75 178.885 54.8854 178.094 55.1562C177.323 55.4271 176.698 55.8021 176.219 56.2812C175.74 56.7396 175.385 57.2812 175.156 57.9062C174.948 58.5104 174.844 59.1771 174.844 59.9062C174.844 60.5938 175.01 61.2188 175.344 61.7812C175.677 62.3229 176.135 62.75 176.719 63.0625C177.302 63.375 177.979 63.5312 178.75 63.5312C180.021 63.5312 181.104 63.2812 182 62.7812C182.917 62.2812 183.625 61.6771 184.125 60.9688C184.625 60.2396 184.875 59.5625 184.875 58.9375L187.219 63C186.844 63.8333 186.385 64.6979 185.844 65.5938C185.302 66.4688 184.615 67.2917 183.781 68.0625C182.948 68.8125 181.938 69.4271 180.75 69.9062C179.583 70.3854 178.177 70.625 176.531 70.625C174.406 70.625 172.479 70.1979 170.75 69.3438C169.021 68.4688 167.635 67.2708 166.594 65.75C165.573 64.2292 165.062 62.4792 165.062 60.5C165.062 58.7292 165.385 57.1562 166.031 55.7812C166.677 54.4062 167.646 53.2396 168.938 52.2812C170.25 51.3229 171.896 50.6042 173.875 50.125C175.854 49.625 178.167 49.375 180.812 49.375H185.688ZM217.875 36.1875V43.0312H197.812V36.1875H217.875ZM202.406 27.8125H212.188V59.4062C212.188 60.3438 212.302 61.0625 212.531 61.5625C212.76 62.0625 213.135 62.4167 213.656 62.625C214.177 62.8125 214.844 62.9062 215.656 62.9062C216.24 62.9062 216.74 62.8854 217.156 62.8438C217.573 62.8021 217.958 62.75 218.312 62.6875V69.75C217.479 70.0208 216.594 70.2292 215.656 70.375C214.719 70.5417 213.698 70.625 212.594 70.625C210.49 70.625 208.667 70.2812 207.125 69.5938C205.604 68.9062 204.438 67.8229 203.625 66.3438C202.812 64.8438 202.406 62.8958 202.406 60.5V27.8125ZM232.844 36.1875V70H223.062V36.1875H232.844ZM222.469 27.4375C222.469 26.0208 222.969 24.8646 223.969 23.9688C224.969 23.0521 226.281 22.5938 227.906 22.5938C229.531 22.5938 230.844 23.0521 231.844 23.9688C232.865 24.8646 233.375 26.0208 233.375 27.4375C233.375 28.8333 232.865 29.9896 231.844 30.9062C230.844 31.8021 229.531 32.25 227.906 32.25C226.281 32.25 224.969 31.8021 223.969 30.9062C222.969 29.9896 222.469 28.8333 222.469 27.4375ZM238.469 53.4375V52.7812C238.469 50.3021 238.823 48.0208 239.531 45.9375C240.24 43.8333 241.281 42.0104 242.656 40.4688C244.031 38.9271 245.719 37.7292 247.719 36.875C249.719 36 252.01 35.5625 254.594 35.5625C257.219 35.5625 259.531 36 261.531 36.875C263.552 37.7292 265.25 38.9271 266.625 40.4688C268 42.0104 269.042 43.8333 269.75 45.9375C270.458 48.0208 270.812 50.3021 270.812 52.7812V53.4375C270.812 55.8958 270.458 58.1771 269.75 60.2812C269.042 62.3646 268 64.1875 266.625 65.75C265.25 67.2917 263.562 68.4896 261.562 69.3438C259.562 70.1979 257.26 70.625 254.656 70.625C252.073 70.625 249.771 70.1979 247.75 69.3438C245.729 68.4896 244.031 67.2917 242.656 65.75C241.281 64.1875 240.24 62.3646 239.531 60.2812C238.823 58.1771 238.469 55.8958 238.469 53.4375ZM248.25 52.7812V53.4375C248.25 54.7708 248.354 56.0208 248.562 57.1875C248.792 58.3542 249.156 59.375 249.656 60.25C250.156 61.125 250.812 61.8125 251.625 62.3125C252.458 62.7917 253.469 63.0312 254.656 63.0312C255.844 63.0312 256.844 62.7917 257.656 62.3125C258.469 61.8125 259.125 61.125 259.625 60.25C260.125 59.375 260.479 58.3542 260.688 57.1875C260.917 56.0208 261.031 54.7708 261.031 53.4375V52.7812C261.031 51.4688 260.917 50.2396 260.688 49.0938C260.479 47.9271 260.125 46.8958 259.625 46C259.125 45.1042 258.458 44.4062 257.625 43.9062C256.812 43.4062 255.802 43.1562 254.594 43.1562C253.427 43.1562 252.438 43.4062 251.625 43.9062C250.812 44.4062 250.156 45.1042 249.656 46C249.156 46.8958 248.792 47.9271 248.562 49.0938C248.354 50.2396 248.25 51.4688 248.25 52.7812ZM285.5 43.4062V70H275.719V36.1875H284.906L285.5 43.4062ZM284.219 51.9062L281.781 51.9688C281.781 49.4271 282.094 47.1458 282.719 45.125C283.344 43.1042 284.229 41.3854 285.375 39.9688C286.542 38.5312 287.927 37.4375 289.531 36.6875C291.156 35.9375 292.948 35.5625 294.906 35.5625C296.49 35.5625 297.938 35.7917 299.25 36.25C300.562 36.7083 301.688 37.4479 302.625 38.4688C303.583 39.4688 304.312 40.8021 304.812 42.4688C305.312 44.1146 305.562 46.1458 305.562 48.5625V70H295.75V48.5312C295.75 47.1146 295.552 46.0208 295.156 45.25C294.76 44.4792 294.177 43.9375 293.406 43.625C292.656 43.3125 291.74 43.1562 290.656 43.1562C289.51 43.1562 288.531 43.3854 287.719 43.8438C286.906 44.2812 286.24 44.8958 285.719 45.6875C285.198 46.4792 284.812 47.4062 284.562 48.4688C284.333 49.5312 284.219 50.6771 284.219 51.9062Z" fill="#333333"/>
<path d="M171 29H188" stroke="#333333" stroke-width="3" stroke-linecap="round"/>
</svg>
