<svg width="98" height="181" viewBox="0 0 98 181" fill="none" xmlns="http://www.w3.org/2000/svg">
<g clip-path="url(#clip0_2339_27783)">
<path d="M14.7061 24.6866C14.7061 24.8019 14.7061 25.0327 14.5912 25.148C14.2465 25.6095 14.2465 25.8402 13.787 26.3016C13.3274 26.6477 12.753 26.8784 12.1785 26.8784C12.0636 26.8784 12.0636 26.8784 11.9488 26.7631C11.8339 26.6477 11.8339 26.5323 11.8339 26.417C11.8339 25.7248 11.719 24.9173 11.3743 24.2251C11.2594 23.9944 11.1445 23.6483 11.1445 23.4176C11.1445 23.1869 11.3743 22.8408 11.6041 22.8408C11.8339 22.8408 11.9488 22.9562 12.0636 23.1869C12.4083 23.7637 12.4083 24.5712 12.9827 25.0327C13.0976 25.0327 13.0976 25.148 13.2125 25.148H13.3274C13.5572 24.9173 13.6721 24.8019 13.9019 24.5712C14.3614 24.3405 14.5912 24.3405 14.7061 24.6866Z" fill="#FFD8AE"/>
<path d="M31.5941 19.8412C31.5941 20.1872 31.5941 20.418 31.4792 20.764C31.4792 21.2255 31.3643 21.6869 31.2494 22.033C31.1345 22.4944 30.7898 22.8405 30.3303 22.9559C29.8707 23.0712 29.4112 22.9559 29.0665 22.7252C28.7218 22.4944 28.3772 22.1484 28.1474 21.9176C28.0325 21.8023 27.9176 21.6869 27.8027 21.4562C27.8027 21.3408 27.8027 21.1101 27.9176 20.9948C28.2623 20.764 28.7218 21.4562 29.0665 21.3408C29.1814 20.764 29.2963 20.1872 29.641 19.6104C29.7558 19.2644 29.9856 18.9183 30.3303 18.8029C30.6749 18.5722 31.0196 18.5722 31.3643 18.8029C31.5941 19.149 31.5941 19.4951 31.5941 19.8412Z" fill="#FFD8AE"/>
<path d="M38.6023 54.3339C38.8321 54.3339 38.947 54.3339 39.1768 54.3339C39.4066 55.026 40.3257 55.7182 39.8661 56.295C39.4066 56.8718 35.1557 56.6411 34.5812 56.295C34.2366 56.0643 34.9259 55.6028 35.2706 55.4875C35.6152 55.3721 36.0748 55.3721 36.4195 55.2568C36.7641 55.1414 37.1088 54.7953 37.4535 54.5646C37.7981 54.2185 38.1428 54.3339 38.6023 54.3339Z" fill="#6E6877"/>
<path d="M54.1127 53.9879C53.8829 54.7954 53.1936 56.0644 53.768 56.6412C54.2276 57.1026 58.2487 57.218 58.3636 56.6412C58.4785 56.0644 55.9509 55.1415 55.6063 54.7954C55.1467 54.2186 54.6872 53.8726 54.1127 53.9879Z" fill="#6E6877"/>
<path d="M55.8359 53.6416C55.8359 53.757 56.1805 54.7952 56.0656 54.9106C55.4912 55.4874 53.7679 55.4874 53.653 55.1413C53.1934 54.4491 52.8488 52.2573 52.619 51.4498C51.9297 49.4886 51.1254 47.6429 50.2063 45.7971C49.4021 44.4128 48.3681 43.0285 47.2192 41.7595C47.1043 41.6441 46.7597 41.6441 46.6448 41.7595C44.9215 43.836 43.8875 46.1432 42.7386 48.4504C41.7046 50.6422 40.7855 52.8341 39.5217 55.1413C39.177 55.9488 37.3388 55.4874 36.9941 55.0259C37.4537 52.488 39.0621 50.4115 39.5217 47.8736C39.6366 47.1814 39.6366 46.4893 39.7515 45.9125C39.8664 45.2203 40.0961 44.5281 40.3259 43.836C41.0152 41.9902 41.5897 40.1445 42.279 38.4141C45.381 38.6448 48.2532 38.5294 51.3552 38.5294C52.2743 38.5294 53.4232 43.6053 53.653 44.2974C54.8019 47.4122 54.9168 50.6422 55.8359 53.6416Z" fill="#3F3F3F"/>
<path d="M38.947 20.0718C38.8321 20.0718 38.8321 20.0718 38.7173 19.9565C37.4535 19.6104 36.0748 16.7264 36.7641 16.1496C37.3386 15.5728 38.0279 17.4186 38.7173 17.88C38.8321 17.88 38.8321 17.9954 38.947 17.9954C39.2917 17.9954 39.4066 17.4186 39.7513 17.3032C39.981 17.1878 40.2108 17.4186 40.3257 17.5339C40.4406 17.7646 40.4406 17.9954 40.3257 18.1107C40.0959 18.9182 39.6364 19.7258 38.947 20.0718Z" fill="#FFD8AE"/>
<path d="M58.8234 15.9197C59.0532 15.9197 59.1681 15.8043 59.3978 15.5736C59.7425 15.1122 59.8574 14.5354 60.2021 14.1893C60.5467 13.7278 61.2361 13.4971 61.5807 13.9586C61.9254 14.3046 61.6956 14.9968 61.351 15.3429C60.8914 16.1504 60.317 16.8426 59.6276 17.5347C59.5127 17.6501 59.3978 17.7654 59.1681 17.8808C58.8234 18.1115 58.3639 18.1115 57.9043 17.8808C57.9043 17.0733 57.9043 16.2658 58.0192 15.5736C58.0192 15.4582 58.0192 15.3429 58.1341 15.2275C58.249 15.1122 58.4787 15.2275 58.5936 15.3429C58.7085 15.5736 58.8234 15.689 58.8234 15.9197Z" fill="#FFD8AE"/>
<path d="M62.614 26.878C62.1544 26.878 61.8097 26.6473 61.58 26.4166C61.2353 25.3783 60.8906 24.3401 60.8906 23.3019C60.8906 23.0711 60.8906 22.8404 61.1204 22.7251C61.3502 22.6097 61.58 22.9558 61.8097 23.1865C62.1544 23.7633 62.3842 24.2247 62.7288 24.8015C62.8437 24.9169 62.8437 25.0323 62.9586 25.0323C63.1884 25.1476 63.8777 24.3401 64.2224 24.3401C65.0266 24.4555 64.5671 25.0323 64.2224 25.263C63.8777 25.8398 63.3033 26.878 62.614 26.878Z" fill="#FFD8AE"/>
<path d="M82.0306 21.8029C82.1455 21.6875 82.3753 21.6875 82.4902 21.6875C82.8348 21.8029 82.9497 22.1489 82.9497 22.495C82.9497 22.8411 82.9497 23.1872 82.7199 23.5333C82.4902 23.8793 82.2604 24.1101 81.9157 24.2254C81.6859 24.4561 81.3413 24.5715 81.1115 24.8022C80.6519 25.1483 80.0775 25.379 79.6179 25.0329C79.1584 24.2254 78.3542 22.9565 79.0435 22.3797C79.1584 22.2643 79.2733 22.3797 79.3882 22.3797C79.6179 22.8411 79.5031 23.4179 79.8477 23.764C79.9626 23.8793 80.0775 23.8793 80.1924 23.764C80.9966 23.3025 81.1115 22.1489 82.0306 21.8029Z" fill="#FFD8AE"/>
<path d="M64.9125 180.076C65.9465 178.461 63.9934 175.462 63.1892 174.078C61.0063 169.809 56.6406 166.81 52.045 166.002C49.5175 165.541 46.875 165.079 44.2326 165.426C39.4073 166.118 35.2713 169.578 33.0884 173.962C32.8586 174.539 32.5139 175.116 32.2842 175.693C31.8246 176.615 30.7906 178.577 31.5948 179.499C32.3991 180.307 35.5011 180.422 36.6499 180.538C38.1435 180.653 63.8785 181.691 64.9125 180.076Z" fill="#F9E65D"/>
<path d="M56.0661 141.661C54.9172 141.431 53.8832 141.2 52.7343 140.969C52.045 140.854 51.3557 140.738 50.5514 140.623C49.977 140.623 49.2877 140.623 48.7132 140.623C45.9559 140.738 43.1986 140.854 40.671 141.892C39.9817 142.238 39.7519 142.7 39.7519 143.507C39.5221 151.467 39.5221 161.157 40.671 169.002C41.1306 172.001 54.3428 171.309 56.2959 169.002C56.5256 168.656 57.1001 160.58 57.1001 156.773C56.9852 153.543 57.215 150.313 57.5596 147.199C57.6745 146.16 57.7894 145.007 57.6745 143.968C57.4448 142.93 57.1001 141.777 56.0661 141.661Z" fill="#EDCA37"/>
<path d="M71.6904 36.9149C70.5415 35.4152 68.3587 35.1845 67.2098 33.8002C66.2907 32.5312 66.4055 30.6854 67.3247 29.4165C67.7842 28.7243 68.8182 27.6861 69.5075 27.34C70.6564 26.7632 72.6095 26.7632 73.7584 27.5707C75.0222 28.3782 74.3329 30.3394 75.252 31.3776C75.9413 32.1851 76.9753 32.3005 77.8944 32.8773C79.2731 33.8002 79.388 35.8766 78.4689 37.261C77.5497 38.6453 75.8264 39.2221 74.218 39.1067C73.8733 39.1067 73.4138 38.9914 73.0691 38.7606C72.4946 38.2992 72.15 37.4917 71.6904 36.9149Z" fill="#C788BD"/>
<path d="M15.6254 48.7969C15.5106 48.6816 15.5106 48.5662 15.5106 48.4508C15.1659 47.9894 14.3617 47.6433 13.7872 47.7587C13.6723 47.7587 13.5575 47.7587 13.5575 47.874C13.5575 47.874 13.4426 47.9894 13.4426 48.1048C13.0979 49.143 12.8681 50.2966 12.983 51.4502C12.983 51.7963 13.0979 52.2577 13.5575 52.2577C13.9021 52.2577 14.017 51.9117 14.1319 51.5656C14.3617 50.5273 14.8212 49.6044 15.6254 48.7969Z" fill="#6E6877"/>
<path d="M27.688 56.2952C28.722 56.4105 29.756 56.4105 30.6751 56.2952C30.79 56.2952 31.0198 56.2952 31.1347 56.1798C31.2496 56.0645 31.2496 55.8337 31.1347 55.603C31.0198 55.4877 30.79 55.3723 30.6751 55.3723C29.9858 55.1416 29.2964 54.9109 28.4922 54.7955C28.0327 54.6801 27.5731 54.6801 27.1136 54.7955C26.9987 55.0262 26.8838 55.2569 26.8838 55.603C26.8838 55.8337 26.9987 56.1798 27.2285 56.2952C27.4582 56.2952 27.5731 56.2952 27.688 56.2952Z" fill="#6E6877"/>
<path d="M64.6825 44.875C65.3718 45.1057 66.0611 45.3364 66.7505 45.5672C66.9802 47.0668 65.6016 48.6819 64.4527 49.6048C64.2229 49.7201 64.108 49.8355 63.9931 50.0662C63.8782 50.2969 63.8782 50.5276 63.7634 50.8737C63.5336 52.9502 62.3847 53.4116 61.6954 55.6035C61.6954 55.7188 61.8102 56.2957 61.6954 56.411C61.5805 56.8725 58.7083 56.7571 58.1338 56.7571C58.0189 56.2956 58.7083 55.9496 59.1678 55.7188C59.8571 55.3728 60.3167 54.6806 60.6614 53.8731C60.8911 53.0656 61.006 52.3734 61.2358 51.5659C61.8102 49.028 63.074 46.8361 64.6825 44.875Z" fill="#6E6877"/>
<path d="M76.7457 50.7578C77.2052 50.9885 77.6648 53.1804 78.469 52.7189C79.1583 52.3729 78.5839 51.1039 78.5839 50.2964C78.5839 49.8349 78.469 49.3735 78.1243 49.0274C77.5499 48.4506 76.6308 48.7967 75.9415 49.1428C74.5628 49.7196 73.0692 50.0657 71.6906 50.0657C72.0352 49.3735 72.265 48.566 72.265 47.7585C72.265 47.297 72.265 46.7202 71.9203 46.3741C71.6906 46.1434 71.3459 46.0281 71.0012 45.9127C70.3119 45.7973 69.5077 45.7973 68.8184 45.9127C68.8184 47.4124 68.8184 49.0274 68.9332 50.5271C68.9332 50.9885 68.9332 51.45 69.163 51.7961C69.7375 52.6036 70.8864 52.6036 71.9203 52.4882C72.9543 52.2575 73.9883 51.9114 75.0223 51.5653C75.367 51.3346 76.401 50.5271 76.7457 50.7578Z" fill="#6E6877"/>
<path d="M56.7556 56.6417C46.6454 56.7571 36.5352 56.1803 26.425 56.0649C22.6336 56.0649 18.8423 55.9496 14.9361 55.9496C11.7192 55.9496 8.38745 55.6035 5.17057 55.7189C2.98769 55.8342 3.33235 59.9872 3.33235 64.2555C3.33235 80.2906 3.21746 81.7902 3.56213 93.6723C3.67702 99.9018 3.67702 113.976 13.2128 126.781C19.187 134.741 26.7696 139.816 32.629 142.008C38.718 144.315 46.5305 144.2 53.194 144.085C57.6747 143.969 63.7638 142.239 70.4273 136.471C74.908 132.664 79.2737 128.05 81.2268 122.512C87.4308 104.516 86.3968 91.4805 87.7755 76.599C88.5797 68.5238 88.0053 60.3333 87.7755 58.2568C87.7755 57.68 87.6606 57.1032 87.3159 56.7571C86.9713 56.5264 86.3968 56.5264 85.8224 56.5264C81.4566 56.6417 60.8916 56.6417 56.7556 56.6417Z" fill="#F9E65D"/>
<path d="M28.9522 42.3369C26.6544 42.5676 24.3566 42.5676 22.0589 42.3369C21.0249 43.6059 21.3695 45.4516 21.0249 46.9513C20.91 47.4128 20.6802 47.9896 20.2206 48.2203C19.9909 48.3356 19.7611 48.451 19.5313 48.451C18.2675 48.5664 16.8889 48.2203 15.6251 47.8742C15.2804 47.7588 14.9358 47.7588 14.706 47.9896C14.5911 48.1049 14.5911 48.3356 14.5911 48.451C14.4762 49.1432 14.4762 49.72 14.3613 50.4121C14.3613 50.5275 14.3613 50.7582 14.3613 50.8736C14.4762 51.1043 14.5911 51.1043 14.8209 51.2196C16.6591 51.7964 18.6122 51.7964 20.5653 51.7964C21.2546 51.7964 21.944 51.7964 22.4035 51.335C22.7482 51.1043 22.8631 50.6428 22.978 50.2968C23.3226 49.3739 24.1269 47.0667 25.1609 46.6052C26.5395 46.0284 27.114 47.7588 27.4586 48.6817C27.8033 49.3739 28.148 49.72 27.9182 50.7582C27.6884 51.6811 27.2289 53.7576 26.9991 54.9112C26.9991 55.1419 27.114 55.3726 27.3437 55.3726L29.5266 55.488C29.7564 55.488 29.9862 55.3726 30.1011 55.0265L31.0202 51.9118C31.25 50.9889 31.4797 50.066 31.3648 49.2585C31.25 48.7971 31.1351 48.3356 30.9053 47.8742C30.3308 45.6824 29.7564 44.1827 28.9522 42.3369Z" fill="#3F3F3F"/>
<path d="M21.7137 42.5679C21.5988 42.5679 21.5988 42.4525 21.5988 42.4525C21.5988 40.7221 21.0243 38.8764 19.9903 37.4921C19.5308 36.9153 19.0712 36.3385 18.267 36.1077C17.5777 35.9924 16.6586 35.7617 16.0841 35.5309C15.5097 35.3002 14.9352 34.7234 14.5906 34.262C13.5566 33.3391 12.7523 32.0701 12.4077 30.6858C12.4077 30.5705 11.4886 26.7636 12.2928 26.4175C12.6375 26.1868 13.6715 26.1868 13.6715 26.4175C13.9012 27.6864 14.131 29.1861 15.7394 31.0319C16.199 31.6087 18.7266 33.3391 19.4159 33.4545C20.2201 33.6852 21.0243 33.4545 21.5988 32.8777C22.403 31.9548 24.3561 31.9548 25.2752 32.7623C25.7348 33.1084 27.9176 34.0313 28.4921 32.4162C29.5261 29.5322 29.641 26.0714 29.1814 23.072C29.1814 22.9567 29.1814 22.8413 29.4112 22.726C29.9856 22.4952 30.5601 22.3799 31.1345 22.3799C31.2494 22.3799 31.3643 22.4952 31.3643 22.6106C31.709 24.5717 32.0536 26.5328 32.1685 28.3786C32.2834 30.3397 32.3983 32.4162 31.2494 34.0313C30.7899 34.7234 30.1005 35.3002 29.641 35.9924C29.1814 36.9153 29.2963 37.9535 29.1814 38.8764C29.1814 39.7993 29.1814 40.8375 29.2963 41.7604C29.2963 41.9911 29.1814 42.3372 28.9516 42.3372C26.539 43.0293 24.0114 43.1447 21.7137 42.5679Z" fill="#930012"/>
<path d="M24.8161 35.5307C24.7012 35.1846 24.4714 34.7232 24.2417 34.3771C23.897 34.031 23.4374 33.9157 23.0928 34.1464C23.0928 35.3 23.3226 36.4536 23.6672 37.6072C23.897 38.4147 24.1268 39.3376 24.2417 40.1451C24.3565 40.4912 24.3565 40.8373 24.5863 41.068C24.8161 41.4141 25.965 42.337 26.1948 42.337C26.4245 42.337 26.5394 41.7602 26.6543 41.4141C26.6543 41.2987 26.7692 41.1834 26.7692 41.068C26.7692 40.9526 26.7692 40.7219 26.6543 40.6066C25.965 38.9915 25.3905 37.2611 24.8161 35.5307Z" fill="#3F3F3F"/>
<path d="M22.059 31.4931C21.7143 31.4931 21.4846 31.8392 21.4846 32.0699C21.1399 32.3007 20.9101 32.8775 21.025 33.2235C21.1399 33.5696 21.3697 33.9157 21.7143 34.1464C22.2888 34.4925 22.9781 34.7232 23.5526 34.6079C24.2419 34.4925 24.8163 34.0311 25.0461 33.4543C25.3908 32.7621 25.0461 31.8392 24.4717 31.3778C23.7823 30.9163 22.6334 30.9163 22.059 31.4931Z" fill="#3F3F3F"/>
<path d="M51.93 38.5295C51.3555 36.3376 52.2746 33.915 53.4235 31.9539C54.6873 29.9928 56.1809 28.2624 57.3297 26.1859C58.4786 23.9941 59.0531 21.4562 59.6275 19.0336C59.7424 18.5722 59.7424 18.2261 59.6275 17.88C59.2829 17.3032 58.5935 17.3032 58.0191 17.6493C57.5595 17.9954 57.2149 18.5722 56.8702 19.0336C55.3766 21.9176 53.7682 24.8016 52.2746 27.6856C51.93 28.3778 51.4704 29.1853 50.6662 29.5314C49.9769 29.8774 48.5982 29.7621 48.4833 28.8392C47.4493 28.8392 45.9558 29.416 45.0367 29.3006C43.658 29.0699 43.0836 26.4166 42.624 25.3784C41.9347 23.5326 41.0156 21.8022 40.556 19.9565C40.3262 19.149 39.8667 18.5722 38.8327 18.6875C38.2582 18.8029 37.454 19.149 37.6838 19.8411C38.1433 21.9176 39.2922 23.648 40.2113 25.4938C41.1304 27.2242 41.59 29.3006 41.7049 31.2618C41.9347 33.7997 41.1304 36.453 42.0496 38.8755C44.0027 39.1063 46.1855 39.2216 48.1387 39.1063C48.4833 39.1063 48.828 39.1063 49.1727 38.9909C49.9769 38.8755 50.6662 38.8755 51.4704 38.7602C51.7002 38.7602 52.0449 38.7602 51.93 38.5295Z" fill="#D20109"/>
<path d="M46.6446 27.8009C46.5297 27.9163 46.3 27.9163 46.1851 28.0316C45.7255 28.2623 45.8404 28.9545 45.9553 29.5313C46.0702 29.9927 46.5297 30.4542 46.9893 30.6849C47.2191 30.8003 47.5637 30.8003 47.7935 30.8003C48.0233 30.8003 48.2531 30.8003 48.368 30.6849C48.4828 30.5696 48.5977 30.4542 48.7126 30.2235C49.0573 29.5313 48.9424 28.8391 48.5977 28.2623C48.5977 28.147 48.4828 28.147 48.368 28.0316C48.368 27.8009 48.2531 27.6855 48.1382 27.6855C47.6786 27.6855 47.1042 27.8009 46.6446 27.8009Z" fill="#3F3F3F"/>
<path d="M46.7598 31.2623C46.4151 32.5313 45.0364 36.3381 45.1513 36.5689C45.3811 37.1457 46.53 38.53 46.8746 38.53C47.3342 38.53 48.4831 36.7996 48.4831 36.4535C48.3682 35.8767 47.6789 30.9162 47.9086 30.1087C47.564 29.878 47.6789 29.5319 47.3342 29.7626C46.8746 30.1087 46.9895 30.4548 46.7598 31.2623Z" fill="#3F3F3F"/>
<path d="M72.0355 49.374C72.1504 49.374 72.2653 49.1432 72.2653 49.0279C73.4142 46.9514 73.4142 42.7984 72.4951 40.6066C72.3802 40.3759 72.2653 40.2605 72.1504 40.0298C71.9206 39.7991 71.576 39.6837 71.1164 39.6837C70.0824 39.5684 69.0484 39.5684 68.0144 39.5684C67.6698 39.5684 67.44 39.5684 67.0953 39.6837C66.7507 39.7991 66.406 40.1452 66.1762 40.3759C65.0273 41.6448 64.2231 43.0292 63.1891 45.5671C62.9593 46.2592 62.27 47.4128 62.3849 48.105C65.6018 49.4893 69.6229 49.8354 71.6909 49.2586C71.8058 49.374 71.9206 49.4893 72.0355 49.374Z" fill="#3F3F3F"/>
<path d="M72.6095 40.9519C72.7244 39.2215 73.2988 37.4911 74.3328 35.9914C74.7924 35.4146 75.3668 34.8378 75.8264 34.261C77.7795 32.0692 79.1581 29.4159 80.1921 26.7626C80.4219 26.3012 80.5368 25.7244 80.5368 25.2629C80.4219 24.8015 79.8475 24.3401 79.3879 24.4554C77.6646 27.3394 75.8264 30.1081 73.9882 32.8767C73.6435 33.3382 73.2988 33.6842 72.3797 33.6842C72.1499 33.6842 71.9202 32.7614 72.035 32.2999C72.1499 31.4924 70.6564 31.377 70.4266 32.1846C70.1968 32.9921 69.5075 33.4535 68.7033 33.6842C68.1288 33.915 67.2097 33.6842 66.7502 33.2228C66.2906 32.7614 65.946 32.2999 65.7162 31.7231C65.2566 30.4542 64.7971 29.0698 64.2226 27.8009C63.878 26.878 63.1886 25.0322 61.81 26.0705C61.0057 26.6473 61.6951 27.9162 61.9248 28.6084C62.3844 30.1081 63.1886 31.4924 64.1077 32.7614C64.6822 33.4535 65.9459 36.3375 66.0608 37.0297C66.1757 38.0679 66.2906 39.2215 66.5204 40.2598C68.3586 40.8366 70.5415 40.8366 72.6095 40.9519Z" fill="#930012"/>
<path d="M69.8525 30.2239C69.6228 30.916 69.6228 31.8389 70.1972 32.4157C70.6568 32.8771 71.5759 32.8771 72.0354 32.4157C72.1503 32.3003 72.2652 32.0696 72.3801 31.9543C72.7248 31.3775 73.0694 30.8007 73.1843 30.2239C73.2992 29.5317 73.0694 28.8395 72.495 28.4935C71.9205 28.1474 71.2312 28.3781 70.7716 28.7242C70.3121 29.0703 70.0823 29.6471 69.8525 30.2239Z" fill="#FFD8AE"/>
<path d="M21.9436 27.5703C19.3012 28.3778 21.1394 31.954 21.9436 32.7615C22.2883 33.1076 22.633 33.4536 23.2074 33.4536C23.7819 33.4536 24.3563 33.2229 24.5861 32.7615C24.9308 32.3 25.0456 31.7232 25.1605 31.1464C25.3903 30.1082 25.2754 28.7239 24.4712 28.0317C23.7819 27.5703 22.7479 27.2242 21.9436 27.5703Z" fill="#FFD8AE"/>
<path d="M49.4018 24.8017C48.8274 24.2249 47.9083 24.2249 47.2189 24.6864C46.7594 25.0325 46.4147 25.4939 46.1849 25.9553C45.8403 26.7629 45.7254 27.6857 46.1849 28.3779C46.7594 29.0701 47.9083 29.1854 48.7125 28.6086C49.5167 28.1472 49.8614 27.1089 49.8614 26.3014C49.7465 25.7246 49.7465 25.1478 49.4018 24.8017Z" fill="#FFD8AE"/>
<path d="M52.619 168.079C55.4912 168.079 55.4912 163.58 52.619 163.58C49.7468 163.58 49.7468 168.079 52.619 168.079Z" fill="white"/>
<path d="M44.2322 75.2147C41.9344 71.9847 38.7176 70.1389 34.6964 71.1771C30.7902 72.1 28.1478 75.3301 26.0798 78.5602C22.2885 84.4436 19.5312 92.7495 19.646 99.7865C20.1056 118.129 42.7387 132.318 59.6273 126.319C69.7375 122.743 75.1372 112.822 76.2861 102.555C77.435 92.8648 73.1841 82.4824 66.061 75.9069C58.4784 68.9853 47.1044 65.8706 37.224 68.9853C28.4925 71.7539 22.6331 79.5984 20.7949 88.3658C18.9567 97.1332 20.68 106.823 25.85 114.206C29.4116 119.167 34.4667 123.089 40.4409 124.82C46.9895 126.665 53.1935 124.589 58.2486 120.436C68.129 112.245 71.4608 98.056 65.1419 86.7508C58.8231 75.5608 44.8066 69.5621 33.3178 77.0605C23.2076 83.7514 19.5312 98.4021 26.4245 108.554C32.8582 117.898 46.8746 121.936 55.2615 112.591C60.8911 106.477 62.3846 96.7871 61.2357 88.7119C60.0868 80.406 52.734 72.4461 43.7726 75.0994C36.5347 77.2912 32.5136 85.8279 30.2158 92.4034C28.0329 98.7482 26.4245 107.977 31.7093 113.284C34.9262 116.398 39.6367 116.629 43.428 114.668C46.9895 112.822 49.2873 108.9 50.666 105.324C53.4233 98.4021 53.8829 88.0197 46.53 83.7514C44.3471 82.4824 41.8195 82.9439 39.9813 84.5589C36.7644 87.3276 35.156 91.7112 34.0071 95.7488C32.7433 100.594 32.6285 105.324 34.5816 109.823C36.8793 115.129 43.3131 115.129 46.8746 111.438C49.5171 108.785 51.0106 104.862 52.1595 101.286C53.1935 98.1714 54.1126 94.3645 53.0786 91.1344C51.3553 85.0204 44.3471 85.3664 40.326 88.7119C37.5687 91.0191 36.4198 95.6335 35.6156 98.9789C34.8113 102.555 33.8922 106.939 34.9262 110.515C35.7304 113.168 38.8324 115.475 41.5898 114.322C45.7258 112.707 48.3682 109.361 50.5511 105.554C52.5042 102.094 54.2275 98.056 54.802 94.1338C55.2615 91.7112 54.5722 89.2887 52.2744 87.9044C50.3213 86.7508 47.2193 86.8661 45.7258 88.7119C41.8195 93.557 37.1091 99.5557 38.6027 106.131C39.292 109.015 42.5089 110.63 45.1513 109.938C48.0235 109.131 49.5171 106.131 48.9426 103.363C48.9426 104.055 49.0575 104.055 49.0575 103.478C49.0575 104.632 49.2873 103.132 49.2873 102.901C49.0575 103.363 49.1724 103.247 49.4022 102.555C49.632 101.978 49.9766 101.401 50.3213 100.94C50.7809 100.017 51.4702 99.2096 52.0446 98.2868C52.3893 97.8253 52.734 97.3639 53.0786 96.9025C52.5042 97.71 53.3084 96.5564 53.4233 96.441C50.4362 94.7106 47.3342 92.8648 44.3471 91.1344C43.8875 93.7877 42.8535 96.441 42.0493 98.2868C41.36 99.6711 40.5558 101.055 39.6367 102.44C39.292 103.017 39.1771 103.017 39.5218 102.67C39.292 102.901 39.0622 103.132 38.8324 103.478C38.6027 103.709 38.3729 103.939 38.1431 104.17C39.1771 103.247 37.224 104.401 38.8324 103.824C41.0153 105.093 43.3131 106.362 45.496 107.631C45.3811 107.17 45.2662 106.362 45.496 107.977C45.496 107.516 45.496 106.939 45.496 106.477C45.496 106.016 45.496 105.554 45.6109 105.093C45.7258 104.516 45.7258 104.401 45.6109 105.093C45.6109 104.747 45.7258 104.401 45.7258 104.055C45.9555 102.786 46.1853 101.632 46.53 100.363C46.7598 99.6711 46.8746 98.9789 47.1044 98.4021C47.2193 98.0561 47.3342 97.8253 47.4491 97.4792C47.2193 98.0561 47.2193 98.0561 47.4491 97.4792C47.6789 97.1332 47.7938 96.7871 48.0235 96.441C48.3682 95.9796 48.2533 95.9796 47.7938 96.7871C48.2533 96.3257 48.0235 96.441 47.3342 97.1332C48.2533 96.441 46.9895 97.1332 46.53 97.2485C44.462 97.0178 43.1982 96.0949 42.6238 94.2492C42.7387 94.826 42.7387 94.5952 42.6238 93.6724C42.6238 94.0184 42.6238 94.3645 42.6238 94.826C42.5089 95.4028 42.6238 95.4028 42.6238 94.5952C42.6238 94.826 42.5089 95.172 42.5089 95.4028C42.2791 96.441 42.0493 97.5946 41.7047 98.6329C41.5898 99.0943 40.6707 101.286 41.2451 100.133C40.7855 101.171 40.326 102.209 39.7515 103.132C39.6367 103.247 38.7176 104.632 39.5218 103.593C39.4069 103.824 39.1771 104.055 38.9473 104.17C39.6367 103.709 39.6367 103.709 39.1771 103.939C40.7855 103.132 42.394 103.247 43.8875 104.516C44.3471 105.093 44.3471 105.093 44.0024 104.516C44.2322 105.093 43.7726 102.786 44.0024 104.401C43.6578 101.632 44.1173 100.479 44.9215 97.5946C45.0364 97.0178 45.2662 96.441 45.496 95.8642C45.7258 95.2874 45.7258 95.1721 45.6109 95.6335C45.7258 95.2874 45.9555 94.9413 46.0704 94.5952C46.4151 94.0184 46.7598 93.4416 47.1044 92.8648C46.4151 93.7877 47.4491 92.5188 47.6789 92.4034C45.496 92.6341 43.3131 92.9802 41.1302 93.2109C42.1642 93.7877 40.2111 92.4034 41.1302 93.2109C42.0493 94.0185 40.4409 92.1727 41.1302 93.2109C41.36 93.4417 41.8195 94.5953 41.2451 93.2109C41.36 93.557 41.4749 93.9031 41.5898 94.2492C41.7047 94.5952 41.8195 95.8642 41.7047 94.3645C41.7047 94.826 41.8195 95.1721 41.8195 95.6335C41.8195 96.0949 41.8195 96.5564 41.8195 96.9025C41.8195 97.2485 41.8195 97.4793 41.7047 97.8253C41.8195 97.1332 41.8195 97.1332 41.7047 97.71C41.5898 98.6328 41.36 99.5557 41.1302 100.363C41.0153 100.825 40.9004 101.286 40.6707 101.632C40.2111 103.017 41.1302 100.594 40.5558 101.978C40.2111 102.786 39.7515 103.478 39.292 104.17C38.4878 105.324 39.9813 103.363 39.1771 104.285C38.8324 104.632 38.4878 104.978 38.1431 105.324C39.1771 104.401 38.4878 105.093 38.1431 105.208C37.1091 105.785 39.292 104.862 38.258 105.093C37.1091 105.439 39.6367 104.978 38.4878 104.978C39.8664 104.978 39.1771 105.093 38.6027 104.978C39.9813 105.439 39.4069 105.324 38.9473 104.978C40.2111 105.785 39.6367 105.439 39.292 105.093C40.326 106.247 39.7516 105.67 39.5218 105.208C39.0622 104.401 39.9813 106.477 39.5218 105.093C39.4069 104.747 39.4069 104.401 39.292 104.055C39.5218 105.67 39.4069 104.401 39.292 104.055C39.292 103.247 39.292 102.44 39.292 101.632C39.292 101.401 39.5218 100.017 39.292 101.401C39.4069 100.94 39.4069 100.479 39.5218 100.133C39.7516 99.0943 39.9813 98.056 40.326 97.0178C40.5558 96.0949 40.9004 95.1721 41.2451 94.3645C41.2451 94.2492 41.9344 92.7495 41.36 93.9031C41.5898 93.4416 41.7047 93.0956 41.9344 92.6341C42.7387 90.9037 43.7726 89.1733 44.8066 87.5583C45.6109 86.4047 44.1173 88.4812 44.9215 87.4429C45.1513 87.0968 45.3811 86.8661 45.7258 86.6354C45.9555 86.4047 46.3002 86.174 46.53 85.9432C47.4491 85.1357 45.496 86.6354 46.53 85.9432C46.7598 85.7125 47.1044 85.5972 47.3342 85.4818C45.9555 86.174 46.6449 85.7125 47.1044 85.5972C48.1384 85.2511 45.7258 85.7125 46.7598 85.5972C47.1044 85.5972 47.3342 85.5972 47.6789 85.5972C46.9895 85.4818 46.8746 85.4818 47.4491 85.5972C47.7938 85.7125 48.2533 85.8279 48.598 85.9432C47.3342 85.4818 48.3682 85.8279 48.598 86.0586C48.9426 86.174 49.7469 86.9815 48.7129 86.0586C48.9426 86.2893 49.2873 86.52 49.5171 86.8661C50.3213 87.789 48.8277 85.8279 49.5171 86.9815C49.7469 87.3276 49.8617 87.6736 50.0915 88.0197C50.666 89.1733 49.632 86.8661 50.2064 88.1351C50.4362 88.5965 50.5511 89.1733 50.666 89.7501C50.7809 90.2116 50.8957 90.5576 50.8957 91.0191C51.1255 92.4034 50.7809 89.8655 50.8957 91.2498C51.0106 92.1727 51.0106 92.9802 51.0106 93.9031C51.0106 94.826 50.8957 95.7489 50.7809 96.6717C50.666 98.1714 51.0106 95.5181 50.666 97.0178C50.5511 97.5946 50.4362 98.1714 50.3213 98.7482C50.0915 99.5557 49.8617 100.479 49.632 101.286C49.5171 101.748 49.4022 102.094 49.1724 102.44C49.632 101.171 49.1724 102.44 49.0575 102.67C48.7129 103.363 48.3682 104.055 47.9086 104.632C47.6789 104.862 46.9895 105.901 47.9086 104.632C47.6789 104.978 47.3342 105.324 46.9895 105.554C45.9555 106.593 47.3342 105.439 46.1853 106.131C46.1853 106.131 44.5769 106.939 45.3811 106.593C44.8066 107.054 44.2322 107.169 43.6578 107.285C44.6918 107.054 43.0833 107.285 42.9684 107.285C42.8535 107.285 41.1302 107.054 42.2791 107.285C41.7047 107.169 41.2451 107.054 40.6707 106.823C39.0622 106.362 41.4749 107.285 39.8664 106.477C39.1771 106.131 38.6027 105.785 37.9133 105.324C38.6027 105.785 37.224 104.747 37.224 104.747C36.7644 104.401 36.4198 103.939 36.0751 103.478C35.7304 103.017 35.156 102.209 34.6964 101.286C33.8922 99.7865 33.6624 97.5946 33.7773 95.172C34.122 91.3652 37.1091 87.3276 40.9004 85.4818C44.8066 83.5207 49.1724 85.3664 52.3893 88.3658C56.1806 91.942 57.9039 96.3257 57.4444 101.286C57.0997 105.67 53.6531 110.284 49.9766 113.399C48.3682 114.783 46.7598 114.899 44.9215 114.899C44.2322 114.899 43.1982 114.553 42.0493 114.206C41.1302 113.86 39.8664 113.168 38.7176 112.361C37.9133 111.784 37.1091 111.092 36.3049 110.284C35.2709 109.246 35.156 109.131 34.5816 108.208C34.0071 107.4 33.5476 106.593 33.088 105.67C32.8582 105.208 32.6285 104.747 32.5136 104.401C32.9731 105.439 32.2838 103.709 32.1689 103.478C31.8242 102.555 31.5945 101.632 31.3647 100.709C31.2498 100.248 31.1349 99.7864 31.02 99.325C31.02 99.0943 30.7902 97.5946 30.9051 98.8636C30.6753 96.7871 30.6753 94.7106 30.9051 92.6341C30.7902 93.9031 30.9051 92.4034 31.02 92.1727C31.1349 91.7112 31.2498 91.2498 31.3647 90.7884C31.5945 89.8655 31.8242 88.9426 32.1689 88.1351C32.2838 87.9044 32.8582 86.52 32.2838 87.6736C32.5136 87.2122 32.6285 86.8661 32.8582 86.4047C33.3178 85.4818 33.8922 84.5589 34.5816 83.7514C33.8922 84.7896 34.6964 83.636 34.8113 83.5207C35.156 83.1746 35.3858 82.8285 35.7304 82.5978C36.0751 82.2517 36.4198 82.021 36.7644 81.6749C35.8453 82.4824 36.9942 81.5596 37.1091 81.4442C37.9133 80.8674 38.7176 80.5213 39.5218 80.0599C38.3729 80.6367 39.8664 79.9445 39.9813 79.9445C40.5558 79.7138 41.2451 79.5984 41.8195 79.3677C41.9344 79.3677 43.5429 79.0216 42.394 79.2523C42.9684 79.137 43.428 79.137 44.0024 79.137C45.1513 79.0216 46.3002 79.137 47.4491 79.2523C48.0235 79.2523 48.8277 79.4831 49.9766 79.7138C50.5511 79.8292 51.1255 80.0599 51.5851 80.1752C51.8149 80.2906 53.6531 80.9828 52.8489 80.6367C56.87 82.4824 59.7422 85.0204 61.6953 88.1351C63.993 91.7112 65.1419 95.2874 65.2568 98.9789C65.4866 103.247 64.4526 106.939 62.3846 110.63C62.1548 110.976 60.8911 112.822 61.4655 112.13C60.8911 112.938 60.0868 113.63 59.3975 114.206C58.2486 115.245 60.2017 113.63 58.9379 114.553C58.5933 114.783 58.1337 115.014 57.7891 115.245C57.4444 115.475 56.9848 115.706 56.5253 115.937C57.6742 115.36 56.2955 116.052 56.0657 116.052C52.8489 117.206 49.8617 117.09 46.8746 116.514C45.9555 116.283 45.0364 116.052 44.1173 115.706C43.6578 115.591 43.1982 115.36 42.7387 115.245C43.7727 115.706 42.2791 115.014 42.1642 115.014C40.326 114.206 38.7175 113.053 37.1091 111.899C38.0282 112.591 36.6496 111.553 36.6496 111.438C36.3049 111.092 35.9602 110.746 35.5007 110.4C34.8113 109.707 34.122 109.015 33.4327 108.208C33.3178 108.092 33.2029 107.977 33.088 107.862C33.5476 108.554 33.4327 108.323 32.5136 107.054C33.2029 107.862 32.2838 106.593 32.1689 106.593C31.5945 105.785 31.1349 104.978 30.6753 104.055C30.6753 103.939 29.986 102.555 30.4456 103.478C30.2158 103.017 30.1009 102.555 29.986 102.094C29.6413 101.171 29.5265 100.248 29.2967 99.325C29.5265 100.709 29.2967 98.9789 29.2967 98.5175C29.2967 97.8253 29.2967 97.1332 29.4116 96.441C29.4116 96.0949 29.5265 95.6335 29.5265 95.2874C29.6413 93.9031 29.4116 96.3257 29.5265 94.9413C29.6413 94.0185 29.8711 93.2109 29.986 92.4034C30.3307 90.5576 30.9051 88.8272 31.4796 87.0968C32.3987 84.4436 33.8922 81.2135 35.9602 79.3677C36.19 79.137 36.4198 78.7909 36.6496 78.5602C36.4198 78.9063 36.4198 78.9063 36.7644 78.6755C36.19 79.2523 36.9942 78.5602 37.1091 78.4448C37.224 78.3295 38.1431 77.9834 37.4538 78.2141C37.6835 78.0988 38.4878 78.0987 37.7984 78.0987C37.6836 78.0987 40.4409 77.522 39.292 77.7527C38.7176 77.868 39.7515 77.7527 39.7515 77.7527C40.4409 77.7527 41.1302 77.9834 41.8195 78.2141C43.5429 78.5602 45.2662 76.5991 44.2322 75.2147Z" fill="#EDCA37"/>
<path d="M66.6357 115.36C67.325 114.668 68.0143 114.552 68.7036 113.745C69.393 112.937 70.1972 112.245 70.7716 111.438C72.1503 109.592 73.2992 107.515 74.2183 105.439C75.8267 101.747 76.9756 97.9405 77.665 94.0182C79.0436 85.8277 78.5841 77.5217 78.4692 69.2158C78.3543 62.4096 67.5548 62.6403 68.1292 69.2158C68.8185 76.5989 69.7376 84.0973 69.5079 91.4803C69.393 94.9411 68.8185 98.4019 67.8994 101.863C67.4399 103.824 66.7505 105.67 66.1761 107.631C65.8314 108.669 65.6017 109.707 65.4868 110.745C65.257 111.899 65.257 113.053 65.0272 114.091C64.4528 115.475 65.7165 116.167 66.6357 115.36Z" fill="white"/>
<path d="M38.0286 96.7866C40.9009 95.7484 43.0837 93.0951 45.1517 91.0186C47.5644 88.7114 49.7473 86.4042 51.7004 83.7509C49.2877 83.0588 46.8751 82.482 44.4624 81.7898C44.8071 87.3271 45.2666 92.8644 45.6113 98.2863C46.0709 104.17 45.956 110.053 46.3006 115.936C46.5304 121.589 54.8024 121.589 55.0322 115.936C55.2619 110.053 54.6875 104.17 54.2279 98.2863C53.7684 92.4029 52.9642 86.5196 52.0451 80.7516C51.4706 77.1754 46.6453 77.2908 45.0369 79.8287C43.4284 82.2513 41.4753 84.3277 39.5222 86.5196C37.4542 88.7114 35.0415 91.2493 34.8118 94.3641C34.6969 95.9791 36.5351 97.3634 38.0286 96.7866Z" fill="#F9E65D"/>
<path d="M23.552 18.5722C22.2882 17.534 20.45 18.1108 19.1862 17.0725C17.6927 15.9189 17.6927 13.4964 16.8885 11.9967C15.5098 9.22804 11.144 6.34404 7.92716 7.72836C7.23782 7.95908 7.23782 8.88196 7.92716 9.22804C9.88026 9.9202 11.7185 9.45876 13.5567 10.7277C15.5098 11.8813 15.7396 14.4192 16.6587 16.3804C17.5778 18.5722 21.2542 20.8794 23.4371 19.149C23.552 18.9183 23.6669 18.6876 23.552 18.5722Z" fill="#F9E65D"/>
<path d="M11.8333 20.88C10.9142 18.6881 9.3058 17.0731 7.00803 16.8424C5.85914 16.727 3.33159 17.6499 2.41248 16.6116C2.06782 16.1502 1.49337 16.0348 1.03382 16.3809C0.689152 16.6116 0.689152 17.1884 0.91893 17.5345C2.06782 19.3803 4.2507 18.9188 6.08892 18.6881C7.58247 18.4574 8.73136 18.9188 9.76535 19.9571C10.3398 20.4185 10.9142 20.9953 11.8333 20.88C11.8333 20.9953 11.8333 20.88 11.8333 20.88Z" fill="#F9E65D"/>
<path d="M45.8406 16.9575C48.8277 17.1882 49.4021 13.7274 49.7468 11.4202C49.9766 9.45907 49.6319 6.92115 51.0106 5.30611C52.2743 3.92178 53.8828 3.46034 54.687 1.61458C55.2614 0.460981 53.5381 -0.69262 52.8488 0.576341C51.4701 3.22962 48.3681 3.69106 48.0235 7.03651C47.7937 9.68979 48.7128 15.1117 45.7257 16.3807C45.381 16.496 45.4959 16.8421 45.8406 16.9575Z" fill="#F9E65D"/>
<path d="M39.292 8.99729C39.292 8.65121 39.6367 8.30513 39.7515 7.95905C39.9813 7.49761 40.0962 7.03617 40.326 6.57473C40.5558 5.88256 41.36 4.84432 41.2451 4.15216C41.2451 3.80608 41.0153 3.46 40.6707 3.57536C39.6367 3.69072 39.4069 5.1904 39.0622 5.99792C38.7175 7.15153 38.7175 7.95905 39.0622 8.99729C39.0622 9.22801 39.292 9.11265 39.292 8.99729Z" fill="#F9E65D"/>
<path d="M66.7506 19.6108C69.3931 19.8415 70.4271 17.6497 71.4611 15.5732C72.2653 14.0735 73.2993 12.6892 74.9077 12.1124C76.4013 11.5356 78.0097 11.5356 79.5032 11.0741C80.9968 10.6127 80.3075 8.19014 78.8139 8.76694C76.4013 9.57446 73.7588 9.80518 71.8057 11.6509C69.6228 13.7274 69.7377 18.1111 66.6357 19.034C66.406 19.1494 66.4059 19.6108 66.7506 19.6108Z" fill="#F9E65D"/>
<path d="M83.8689 30.5701C85.2475 32.4159 87.89 31.7237 89.4984 30.3394C90.6473 29.4165 90.992 28.0322 91.9111 26.994C92.9451 25.8404 95.8173 26.6479 97.1959 26.6479C98.3448 26.6479 98.3448 24.9175 97.1959 24.8021C95.3577 24.6868 92.7153 24.11 91.1068 25.4943C89.0389 27.34 88.1197 31.9544 84.2135 30.1087C83.8689 29.878 83.6391 30.3394 83.8689 30.5701Z" fill="#F9E65D"/>
<path d="M85.5922 36.9148C86.5113 36.5687 87.5453 38.1837 88.3495 38.5298C89.2686 38.8759 91.4515 38.6452 91.1068 37.1455C90.9919 36.5687 90.1877 36.7994 89.843 36.9148C89.2686 37.1455 88.809 37.0301 88.2346 36.6841C87.2006 36.1073 86.5113 35.7612 85.4773 36.4533C85.3624 36.6841 85.4773 37.0301 85.5922 36.9148Z" fill="#F9E65D"/>
<path d="M11.3739 36.4529C10.7995 34.6072 9.42083 34.8379 8.04217 35.8761C7.23795 36.4529 6.66351 37.1451 5.97418 37.9526C5.28484 38.8755 4.59551 38.7601 3.44663 38.6448C2.29774 38.6448 2.29774 40.3752 3.44663 40.4905C4.7104 40.6059 6.08906 40.4905 6.89328 39.3369C7.46773 38.5294 9.88039 35.0686 10.9144 36.6837C11.1442 36.6837 11.3739 36.5683 11.3739 36.4529Z" fill="#F9E65D"/>
<path d="M2.41274 30.5696C3.10207 30.5696 3.10207 29.416 2.41274 29.416C1.60852 29.416 1.60852 30.5696 2.41274 30.5696Z" fill="#F9E65D"/>
<path d="M5.28469 25.1482C5.1698 24.9175 5.39958 25.1482 5.1698 25.4943C5.39958 25.0329 5.05492 24.4561 4.59536 24.4561C4.02092 24.4561 3.67625 25.1482 4.13581 25.6097L4.2507 25.725C4.13581 25.6097 4.2507 25.725 4.2507 25.8404C4.82514 26.3018 5.51447 25.725 5.28469 25.1482Z" fill="#F9E65D"/>
<path d="M6.20456 29.0703C6.31945 28.955 6.31945 28.8396 6.31945 28.6089C6.31945 28.3782 5.97479 28.1475 5.74501 28.1475C5.28546 28.1475 5.05568 28.6089 5.28546 29.0703C5.40034 29.5318 5.97479 29.5318 6.20456 29.0703Z" fill="#F9E65D"/>
<path d="M0.57458 26.0706C1.26391 26.0706 1.26391 24.917 0.57458 24.917C-0.114752 24.917 -0.22964 26.0706 0.57458 26.0706Z" fill="#F9E65D"/>
<path d="M26.3097 9.57402C26.4246 9.57402 26.5395 9.57402 26.6544 9.57402C26.8842 9.57402 26.9991 9.45866 26.9991 9.22794C26.9991 9.11258 26.9991 8.99722 26.9991 8.88186C26.9991 8.30506 26.3097 8.07434 25.9651 8.42042C25.5055 8.88186 25.8502 9.68938 26.3097 9.57402Z" fill="#F9E65D"/>
<path d="M28.4928 13.2659C29.297 13.2659 29.297 12.1123 28.4928 12.1123C27.6886 12.1123 27.6886 13.2659 28.4928 13.2659Z" fill="#F9E65D"/>
<path d="M30.446 7.95924C30.3311 7.84388 30.3311 7.84388 30.2162 7.72852C30.1013 7.72852 29.9865 7.72852 29.8716 7.72852C29.7567 7.72852 29.7567 7.84388 29.6418 7.95924C29.2971 8.30532 29.6418 8.88212 29.9865 8.88212C30.446 8.99748 30.7907 8.30532 30.446 7.95924Z" fill="#F9E65D"/>
<path d="M25.6199 3.57572C25.505 3.57572 25.505 3.57572 25.6199 3.57572C25.1604 3.345 24.5859 3.57572 24.5859 4.15252C24.5859 4.61396 25.0455 4.84468 25.505 4.72932C25.505 4.72932 25.505 4.72932 25.6199 4.72932C26.0795 4.4986 26.0795 3.69108 25.6199 3.57572Z" fill="#F9E65D"/>
<path d="M31.2502 4.72966C31.1353 4.72966 31.1353 4.72966 31.2502 4.72966C30.7906 4.6143 30.3311 4.96038 30.3311 5.30646C30.3311 5.7679 30.7906 5.99862 31.1353 5.88326C31.4799 5.88326 31.7097 5.65254 31.7097 5.30646C31.8246 4.96038 31.5948 4.72966 31.2502 4.72966Z" fill="#F9E65D"/>
<path d="M65.8317 8.18999C66.7508 8.18999 66.7508 6.80566 65.8317 6.80566C65.0275 6.80566 65.0275 8.18999 65.8317 8.18999Z" fill="#F9E65D"/>
<path d="M69.3926 7.26709C69.1628 7.26709 69.048 7.15173 68.8182 7.26709C68.7033 7.26709 68.5884 7.38245 68.3586 7.49781C68.2437 7.61317 68.2437 7.95925 68.3586 8.07461C68.4735 8.18997 68.5884 8.30533 68.8182 8.30533C69.048 8.42069 69.1628 8.30533 69.3926 8.30533C69.8522 8.18997 69.8522 7.38245 69.3926 7.26709Z" fill="#F9E65D"/>
<path d="M59.6277 3.5753C59.5129 3.5753 59.5129 3.5753 59.398 3.5753C59.0533 3.45994 58.5938 3.69066 58.5938 4.1521C58.5938 4.61354 58.9384 4.84426 59.398 4.7289C59.5129 4.7289 59.5129 4.7289 59.6277 4.7289C60.2022 4.61354 60.2022 3.69066 59.6277 3.5753Z" fill="#F9E65D"/>
<path d="M63.5334 10.959C63.6483 10.959 63.6483 10.959 63.7632 10.959C64.2228 10.8437 64.2228 10.1515 63.7632 10.0361C63.6483 10.0361 63.6483 10.0361 63.5334 10.0361C63.1888 10.0361 62.959 10.1515 62.959 10.4976C62.959 10.8437 63.1888 11.0744 63.5334 10.959Z" fill="#F9E65D"/>
<path d="M65.7167 2.0762C65.7167 1.96084 65.7167 1.96084 65.7167 1.84548C65.9465 0.9226 64.453 0.9226 64.5678 1.84548C64.5678 1.96084 64.5678 1.96084 64.5678 2.0762C64.7976 2.653 65.6018 2.653 65.7167 2.0762Z" fill="#F9E65D"/>
<path d="M76.7462 15.2269H76.6313C76.7462 15.2269 76.7462 15.3423 76.7462 15.2269C76.8611 15.3423 76.8611 15.3423 76.7462 15.2269C76.5164 15.1115 76.2866 15.2269 76.0569 15.4576C75.942 15.573 75.942 15.8037 76.0569 15.9191C76.1718 16.1498 76.5164 16.1498 76.7462 16.1498C76.7462 16.1498 76.7462 16.1498 76.8611 16.1498C76.7462 16.1498 76.7462 16.1498 76.6313 16.2651H76.7462C77.3207 16.1498 77.3207 15.3423 76.7462 15.2269Z" fill="#F9E65D"/>
<path d="M81.2267 13.6125C81.2267 13.7279 80.9969 13.8432 80.8821 13.8432C81.2267 13.9586 81.5714 13.6125 81.5714 13.2664C81.5714 12.9203 81.2267 12.5743 80.8821 12.6896C80.4225 12.9203 80.3076 13.1511 80.3076 13.6125C80.3076 13.8432 80.5374 13.9586 80.7672 13.9586C80.997 14.0739 81.2267 13.8432 81.2267 13.6125Z" fill="#F9E65D"/>
<path d="M83.7544 18.8037C83.6395 18.8037 83.6395 18.8037 83.5246 18.8037C83.18 18.8037 82.9502 19.0344 82.9502 19.3805C82.9502 19.6112 83.18 19.9573 83.5246 19.9573C83.6395 19.9573 83.6395 19.9573 83.7544 19.9573C84.4438 19.842 84.4438 18.9191 83.7544 18.8037Z" fill="#F9E65D"/>
<path d="M93.7489 31.2622C93.7489 31.2622 93.7489 31.3776 93.8638 31.4929C93.8638 31.1469 93.5192 30.8008 93.1745 30.8008C92.7149 30.8008 92.3703 31.2622 92.4852 31.7237C92.6 31.9544 92.7149 32.1851 93.0596 32.3005C92.9447 32.3005 92.9447 32.1851 92.8298 32.1851C92.9447 32.3005 93.0596 32.3005 93.0596 32.4158C93.1745 32.4158 93.2894 32.4158 93.4043 32.3005C93.5192 32.3005 93.5192 32.1851 93.5192 32.0697C93.4043 32.1851 93.2894 32.1851 93.1745 32.3005C93.4043 32.1851 93.634 32.0697 93.7489 31.7237C93.5192 31.839 93.2894 31.839 93.1745 31.9544C93.1745 31.9544 93.1745 31.9544 93.2894 31.9544C93.634 32.1851 94.0936 31.6083 93.7489 31.2622Z" fill="#F9E65D"/>
<path d="M83.9836 41.8753C84.0985 41.8753 84.0985 41.8753 84.2133 41.8753C84.558 41.8753 84.9027 41.7599 84.9027 41.4138C84.9027 41.2985 84.9027 41.1831 84.9027 41.1831C84.7878 40.837 84.4431 40.7217 84.2133 40.7217C84.0985 40.7217 84.0985 40.7217 83.9836 40.7217C83.4091 40.837 83.4091 41.7599 83.9836 41.8753Z" fill="#F9E65D"/>
<path d="M86.2811 42.9132C86.3959 42.7979 86.6257 42.7979 86.7406 42.7979C86.9704 42.6825 86.9704 42.5672 87.0853 42.4518C87.2002 42.2211 86.9704 41.875 86.7406 41.875C86.6257 41.875 86.5108 41.875 86.3959 41.875C86.2811 41.9904 86.1662 41.9904 86.0513 42.1057C85.5917 42.4518 85.8215 43.144 86.2811 42.9132Z" fill="#F9E65D"/>
<path d="M82.6052 44.1826C82.4903 44.1826 82.4903 44.1826 82.3754 44.1826C81.6861 44.1826 81.6861 45.3362 82.3754 45.2209C82.4903 45.2209 82.4903 45.2209 82.6052 45.2209C83.1796 45.1055 83.1796 44.1826 82.6052 44.1826Z" fill="#F9E65D"/>
<path d="M31.4795 12.9203C31.4795 13.151 31.4795 13.3817 31.4795 13.4971C31.5944 13.8432 31.939 13.8432 32.0539 13.4971C32.1688 13.2664 32.0539 13.0357 32.0539 12.9203C32.1688 12.4589 31.4795 12.4589 31.4795 12.9203Z" fill="#FFB294"/>
<path d="M19.4165 6.69036C19.4165 6.69036 19.4165 6.57499 19.4165 6.45963C19.6463 5.76747 18.2676 5.76747 18.6123 6.57499C18.6123 6.57499 18.6123 6.69036 18.7272 6.69036C18.8421 7.03644 19.3016 7.03644 19.4165 6.69036C19.8761 5.76747 18.3825 5.76747 18.6123 6.45963C18.6123 6.57499 18.6123 6.575 18.6123 6.69036C18.8421 7.03644 19.3016 7.03644 19.4165 6.69036Z" fill="#FFB294"/>
<path d="M19.6462 8.42082C19.9909 8.42082 19.9909 7.84402 19.6462 7.84402C19.3015 7.72866 19.3015 8.42082 19.6462 8.42082Z" fill="#FFB294"/>
<path d="M21.3697 5.76758C21.2548 5.76758 21.2548 5.76758 21.1399 5.76758C20.7952 5.76758 20.5654 5.88294 20.5654 6.22902C20.5654 6.5751 20.9101 6.80582 21.1399 6.69046C21.2548 6.69046 21.2548 6.69046 21.3697 6.69046C21.7143 6.5751 21.7143 5.88294 21.3697 5.76758Z" fill="#FFB294"/>
<path d="M13.3273 5.19046C13.9018 5.19046 13.9018 4.26758 13.3273 4.26758C12.7529 4.26758 12.7529 5.19046 13.3273 5.19046Z" fill="#FFB294"/>
<path d="M53.0785 11.3048C53.7679 11.3048 53.7679 10.2666 53.0785 10.2666C52.3892 10.2666 52.3892 11.3048 53.0785 11.3048Z" fill="#FFB294"/>
<path d="M55.4914 9.57422C55.3765 9.57422 55.3765 9.57422 55.2617 9.57422C54.8021 9.57422 54.8021 10.2664 55.2617 10.2664C55.3765 10.2664 55.3765 10.2664 55.4914 10.2664C55.951 10.2664 55.951 9.57422 55.4914 9.57422Z" fill="#FFB294"/>
<path d="M54.5724 13.3809C55.1469 13.3809 55.1469 12.458 54.5724 12.458C53.998 12.458 53.998 13.3809 54.5724 13.3809Z" fill="#FFB294"/>
<path d="M73.7583 6.92088C73.7583 7.03624 73.7583 7.03624 73.7583 7.1516C73.7583 7.49768 74.3328 7.49768 74.3328 7.1516C74.3328 7.03624 74.3328 7.03624 74.3328 6.92088C74.4477 6.34408 73.6434 6.34408 73.7583 6.92088Z" fill="#FFB294"/>
<path d="M76.746 7.26748C77.3205 7.26748 77.3205 6.45996 76.746 6.45996C76.2865 6.45996 76.2865 7.26748 76.746 7.26748Z" fill="#FFB294"/>
<path d="M36.0754 3.11445C36.6498 3.11445 36.6498 2.19156 36.0754 2.19156C35.5009 2.0762 35.5009 3.11445 36.0754 3.11445Z" fill="#FFB294"/>
<path d="M5.39956 43.7212C5.28467 43.7212 5.0549 43.8365 4.94001 43.9519C5.28467 44.0673 5.51445 43.8365 5.62934 43.6058C5.62934 43.8365 5.62934 43.6058 5.62934 43.4905C5.62934 43.3751 5.62934 43.3751 5.62934 43.2597C5.62934 43.1444 5.51445 43.029 5.39956 42.9137C5.16979 42.7983 4.94001 42.7983 4.71023 43.029C4.59534 43.2597 4.59534 43.6058 4.82512 43.8365C4.82512 43.7212 4.71023 43.6058 4.71023 43.6058C4.71023 43.7212 4.71023 43.7212 4.71023 43.8365C4.82512 44.298 5.39956 44.1826 5.39956 43.7212Z" fill="#FFB294"/>
<path d="M7.92727 44.0672C7.92727 43.9518 7.92727 43.8364 7.92727 43.7211C7.81238 43.2596 7.12305 43.2596 7.12305 43.7211C7.12305 43.8364 7.12305 43.9518 7.12305 44.0672C7.12305 44.644 7.92727 44.644 7.92727 44.0672Z" fill="#FFB294"/>
<path d="M7.92727 41.5293C7.69749 41.5293 7.5826 41.5293 7.35282 41.6447C7.23794 41.76 7.12305 41.9907 7.12305 42.1061C7.12305 41.9907 7.12305 42.2215 7.12305 42.2215C7.12305 42.3368 7.23794 42.3368 7.23794 42.4522C7.35282 42.5675 7.5826 42.5675 7.69749 42.4522C7.81238 42.3368 7.81238 42.3368 7.81238 42.2215C7.69749 42.3368 7.5826 42.3368 7.46771 42.4522C7.5826 42.4522 7.5826 42.4522 7.69749 42.3368C7.81238 42.3368 7.81238 42.2215 7.81238 42.2215C7.69749 42.3368 7.69749 42.3368 7.69749 42.3368C7.81238 42.3368 8.04216 42.2215 8.04216 42.1061C8.27193 41.8754 8.15704 41.6447 7.92727 41.5293Z" fill="#FFB294"/>
<path d="M9.30583 46.3742C9.99516 46.3742 9.99516 45.3359 9.30583 45.3359C8.73139 45.4513 8.73139 46.3742 9.30583 46.3742Z" fill="#FFB294"/>
<path d="M13.5568 43.9513C14.2461 43.9513 14.2461 42.9131 13.5568 42.9131C12.9824 42.9131 12.9824 43.9513 13.5568 43.9513Z" fill="#FFB294"/>
<path d="M78.3547 43.0293C78.9291 43.0293 78.9291 42.1064 78.3547 42.1064C77.7802 42.1064 77.7802 43.0293 78.3547 43.0293Z" fill="#FFB294"/>
<path d="M85.2473 27.455C85.8218 27.455 85.8218 26.6475 85.2473 26.6475C84.6729 26.6475 84.7878 27.455 85.2473 27.455Z" fill="#FFB294"/>
<path d="M87.4301 26.6477C88.1194 26.6477 88.1194 25.4941 87.4301 25.4941C86.7408 25.4941 86.7408 26.6477 87.4301 26.6477Z" fill="#FFB294"/>
<path d="M85.5925 24.8024C85.9371 24.8024 85.9371 24.2256 85.5925 24.2256C85.2478 24.2256 85.2478 24.8024 85.5925 24.8024Z" fill="#FFB294"/>
<path d="M44.2321 11.5354C44.2321 11.5354 44.2321 11.6508 44.1172 11.6508C44.1172 11.6508 44.1172 11.6508 44.2321 11.5354C44.347 11.42 44.347 11.3047 44.2321 11.1893C44.2321 11.1893 44.2321 11.1893 44.1172 11.074C44.1172 11.1893 44.2321 11.1893 44.2321 11.3047C44.1172 10.7279 43.313 10.7279 43.1981 11.3047C42.9684 11.9968 44.0024 12.2276 44.2321 11.5354Z" fill="#FFB294"/>
<path d="M45.1515 13.1505C45.8409 13.1505 45.8409 12.1123 45.1515 12.1123C44.5771 12.1123 44.5771 13.1505 45.1515 13.1505Z" fill="#FFB294"/>
<path d="M46.7602 4.96012C47.4495 4.96012 47.4495 3.92188 46.7602 3.92188C46.0708 3.92188 46.0708 4.96012 46.7602 4.96012Z" fill="#FFB294"/>
<path d="M48.4831 2.88357C48.9427 2.88357 48.9427 2.19141 48.4831 2.19141C48.1384 2.19141 48.1384 2.88357 48.4831 2.88357Z" fill="#FFB294"/>
<path d="M45.6106 1.15296C45.7255 1.15296 45.8404 1.0376 45.9552 0.922239C46.0701 0.806879 46.0701 0.691519 45.9552 0.576158C45.8404 0.460798 45.7255 0.345438 45.6106 0.345438C45.3808 0.230078 45.0361 0.460798 45.0361 0.806879C45.0361 1.15296 45.3808 1.26832 45.6106 1.15296Z" fill="#FFB294"/>
<path d="M21.1395 14.6498C22.5181 14.6498 22.5181 12.458 21.1395 12.458C19.7608 12.458 19.7608 14.6498 21.1395 14.6498Z" fill="#C788BD"/>
<path d="M11.1443 16.1498C12.523 16.1498 12.523 13.958 11.1443 13.958C9.76569 14.0734 9.76569 16.1498 11.1443 16.1498Z" fill="#C788BD"/>
<path d="M17.1183 23.1868C17.1183 23.1868 17.1183 23.3022 17.0034 23.3022C17.1183 23.3022 17.1183 23.3022 17.1183 23.1868C17.2332 23.0715 17.2332 22.9561 17.1183 22.8408C17.1183 22.8408 17.1183 22.8408 17.0034 22.7254L17.1183 22.8408C17.0034 22.61 17.0034 22.4947 16.7736 22.3793C16.5438 22.264 16.1992 22.4947 16.0843 22.7254C15.9694 22.9561 16.1992 23.3022 16.4289 23.4176C16.7736 23.6483 17.0034 23.4176 17.1183 23.1868Z" fill="#C788BD"/>
<path d="M5.17009 34.0308C5.28498 34.0308 5.39987 34.0308 5.62964 34.0308C5.97431 34.0308 6.31898 33.6847 6.31898 33.3386C6.31898 32.9926 5.97431 32.6465 5.62964 32.6465C5.51476 32.6465 5.39987 32.6465 5.17009 32.6465C4.59565 32.8772 4.59565 33.9154 5.17009 34.0308Z" fill="#C788BD"/>
<path d="M34.8111 10.6125C36.0749 10.6125 36.0749 8.65137 34.8111 8.65137C33.5473 8.65137 33.5473 10.6125 34.8111 10.6125Z" fill="#C788BD"/>
<path d="M65.8316 15.8036C67.0954 15.8036 67.0954 13.8425 65.8316 13.8425C64.5678 13.7272 64.5678 15.8036 65.8316 15.8036Z" fill="#C788BD"/>
<path d="M61.9247 6.92143C62.8438 6.92143 62.8438 5.53711 61.9247 5.53711C61.0056 5.53711 61.0056 6.92143 61.9247 6.92143Z" fill="#C788BD"/>
<path d="M54.2274 6.34443C54.2274 6.34443 54.2274 5.99835 54.2274 6.22907C54.2274 6.11371 54.2274 5.99835 54.2274 5.88299C54.2274 5.76763 54.1125 5.65227 53.9976 5.53691L53.8827 5.42155C53.7678 5.42155 53.8827 5.42155 53.8827 5.42155C53.653 5.07547 53.0785 5.19083 52.8487 5.42155C52.5041 5.76763 52.619 6.22907 52.9636 6.45979C53.1934 6.69051 53.653 6.57515 53.8827 6.34443C53.7678 6.45979 53.5381 6.45979 53.4232 6.57515C53.5381 6.57515 53.5381 6.57515 53.3083 6.45979C53.5381 6.57515 53.5381 6.57515 53.4232 6.45979C53.3083 6.34443 53.3083 6.34443 53.1934 6.22907V6.11371C53.1934 6.34443 53.3083 6.57515 53.5381 6.69051C53.7678 6.80587 54.2274 6.69051 54.2274 6.34443Z" fill="#C788BD"/>
<path d="M72.495 20.0719C73.4141 20.0719 73.4141 18.5723 72.495 18.5723C71.5759 18.6876 71.5759 20.0719 72.495 20.0719Z" fill="#C788BD"/>
<path d="M78.9287 18.6883C79.8478 18.2269 79.1585 16.7272 78.2393 17.304C77.4351 17.7654 78.1245 19.1498 78.9287 18.6883Z" fill="#C788BD"/>
<path d="M75.8266 22.3792C76.6308 22.3792 76.6308 21.2256 75.8266 21.2256C75.1372 21.2256 75.1372 22.3792 75.8266 22.3792Z" fill="#C788BD"/>
<path d="M90.1881 22.3792C90.8775 22.3792 90.8775 21.2256 90.1881 21.2256C89.3839 21.2256 89.3839 22.3792 90.1881 22.3792Z" fill="#C788BD"/>
<path d="M89.728 41.9902C89.6131 42.1055 89.4982 42.2209 89.3833 42.4516C89.4982 42.4516 89.6131 42.4516 89.6131 42.3362C89.3833 42.3362 89.2684 42.4516 89.4982 42.4516C89.8429 42.4516 90.1875 42.1055 90.1875 41.7594C90.1875 41.298 89.728 40.9519 89.2684 41.0673C89.0387 41.0673 88.9238 41.1826 88.8089 41.298C88.5791 41.5287 88.5791 41.8748 88.694 42.1055C88.694 42.1055 88.694 42.1055 88.694 42.2209C88.694 42.1055 88.694 41.9902 88.5791 41.9902C88.5791 42.1055 88.5791 42.1055 88.5791 42.2209C88.5791 42.4516 88.9238 42.567 89.0387 42.567C89.4982 42.4516 89.728 42.2209 89.728 41.9902Z" fill="#C788BD"/>
<path d="M85.9371 47.0667C86.6265 47.0667 86.6265 45.9131 85.9371 45.9131C85.1329 45.9131 85.1329 47.0667 85.9371 47.0667Z" fill="#C788BD"/>
<path d="M11.1448 40.2606C11.7192 40.2606 11.7192 39.4531 11.1448 39.4531C10.5704 39.4531 10.6852 40.2606 11.1448 40.2606Z" fill="#C788BD"/>
<path d="M3.21661 36.9144C3.79106 36.9144 4.25061 36.4529 4.25061 35.8761C4.25061 35.2993 3.79106 34.8379 3.21661 34.8379C2.64217 34.8379 2.18262 35.2993 2.18262 35.8761C2.18262 36.4529 2.64217 36.9144 3.21661 36.9144Z" fill="#C788BD"/>
<path d="M26.1944 15.689C26.1944 15.8043 26.1944 16.0351 26.3093 16.1504C26.4242 16.4965 26.9986 16.4965 27.1135 16.1504C27.2284 16.0351 27.2284 15.8043 27.2284 15.689C27.2284 15.4583 26.9986 15.2275 26.7689 15.2275C26.4242 15.2275 26.0795 15.4583 26.1944 15.689Z" fill="#C788BD"/>
</g>
<defs>
<clipPath id="clip0_2339_27783">
<rect width="98" height="181" fill="white"/>
</clipPath>
</defs>
</svg>
