<svg width="194" height="156" viewBox="0 0 194 156" fill="none" xmlns="http://www.w3.org/2000/svg">
<path d="M36.8388 155.436C38.5196 156.423 40.2005 155.859 42.5817 154.168C76.6193 131.057 111.357 109.214 147.076 88.6395C149.037 87.5121 153.379 84.5528 154.079 86.2438C155.2 88.7804 156.881 92.4444 158.001 95.1219C158.281 95.6855 158.562 96.3902 158.842 96.9538C159.682 98.2221 160.943 101.886 162.624 102.168C164.445 102.45 174.39 80.7479 176.211 77.3658C182.934 64.401 187.416 53.4091 193.019 43.4037C193.58 42.4172 194.14 41.4308 194.14 40.3034C194.14 39.1761 193.299 38.0487 190.638 37.6259C179.852 35.653 169.067 33.6801 158.141 31.9891C147.916 30.4389 137.411 29.7343 127.185 28.0433C126.765 27.9023 126.205 27.9023 125.785 27.9023C123.684 28.3251 126.765 32.8346 127.185 33.962C128.446 36.7804 129.567 39.7397 130.827 42.5582C131.107 43.2628 131.388 43.9674 130.967 44.5311C130.687 44.8129 130.407 45.0948 129.987 45.2357C90.0662 63.1327 49.025 77.5067 9.38461 95.2628C7.98389 95.8265 6.72324 96.5311 5.74273 97.6584C3.78172 100.054 7.4236 104.564 8.40411 106.536C10.3651 110.482 12.1861 114.287 14.1471 118.233C15.4077 120.77 16.6684 123.306 18.0691 125.702C19.3297 127.816 20.5904 129.929 21.851 132.043C24.2323 135.848 27.0337 139.653 29.1348 143.74C30.9557 147.122 32.4965 150.645 34.8778 153.604C35.5781 154.45 36.2785 155.154 36.8388 155.436Z" fill="#1E1E1E"/>
<path d="M81.5225 105.409C82.3629 105.831 83.3435 106.254 84.324 106.113C85.3045 105.972 86.285 105.268 86.285 104.281C86.285 104.14 86.285 103.999 86.1449 103.858C86.0048 103.718 85.8648 103.577 85.7247 103.436C83.7637 102.449 81.6626 101.745 79.4214 101.463C78.7211 101.322 78.0207 101.322 77.4604 101.04C76.7601 102.59 76.3398 104.14 76.3398 105.831C76.7601 106.113 77.3203 106.113 77.7406 105.69C78.1608 105.268 78.1608 104.422 78.7211 104.14C79.0012 103.999 79.4214 104.14 79.7016 104.281C80.2619 104.704 80.8222 105.127 81.5225 105.409Z" fill="#6E6877"/>
<path d="M35.0183 120.769C35.2985 120.629 35.5786 120.629 35.8587 120.629C36.279 120.629 37.1194 120.629 37.2595 121.051C37.3995 121.474 37.3995 121.897 37.5396 122.179C37.6797 122.46 37.9598 122.601 38.0999 122.742C39.0804 123.447 39.9208 124.152 40.7613 124.997C40.9013 125.138 41.1815 125.42 41.3216 125.702C41.4616 125.984 41.3216 126.265 41.1815 126.406C41.0414 126.547 40.7613 126.547 40.6212 126.547C39.2205 126.406 37.8198 125.984 36.6992 125.279C35.9988 124.856 35.4385 124.292 34.7382 123.729C34.5981 123.588 34.458 123.447 34.3179 123.306C34.1779 123.165 34.1779 122.883 34.3179 122.742C34.458 121.897 34.7382 121.051 35.2985 120.347L35.0183 120.769Z" fill="#3F3F3F"/>
<path d="M80.1217 100.899C80.822 95.826 81.2423 90.7528 81.3823 85.5387C81.5224 83.5658 78.4408 82.2975 76.7599 81.5929C73.9585 80.4655 70.8769 80.0428 67.9354 79.62C64.8538 79.1973 63.8733 78.9154 62.7527 82.1566C62.6127 82.7203 62.7527 83.0021 63.1729 83.5658C63.5932 83.9886 64.0134 84.4113 64.5737 84.6932C67.9354 86.3842 71.7173 87.3707 75.4993 87.3707C76.3397 89.4845 74.7989 91.7393 74.7989 93.994C74.7989 96.5306 76.7599 98.9263 76.4798 101.463C76.4798 101.886 76.3397 102.449 76.6199 102.731C76.7599 103.013 77.1802 103.013 77.4603 103.013C78.861 103.154 79.9816 102.308 80.1217 100.899Z" fill="#FFD8AE"/>
<path d="M65.6942 91.4578C64.9939 91.4578 64.1534 90.8941 63.7332 90.6122C62.3325 89.7667 61.2119 88.3575 60.0913 87.0892C58.4105 85.2572 57.0097 83.2843 54.7686 82.4388C54.0682 82.157 53.2278 82.016 52.5274 81.7342C51.4069 81.1705 50.5664 79.9022 50.2863 78.6339C50.0061 77.3656 50.0061 76.0973 50.2863 74.6881C50.1462 74.4063 50.5664 74.1244 50.5664 73.8426C52.6675 73.138 54.6285 72.0106 56.4495 70.7423C56.8697 70.4605 57.2899 70.0377 57.8502 69.7559C58.2704 69.474 58.8307 70.0377 59.391 69.8968C63.8733 74.97 70.5967 76.3792 76.6199 79.3385C76.9 79.4794 77.1801 79.6204 77.3202 79.9022C77.6004 80.4659 77.0401 81.1705 76.6199 81.5933C73.6783 84.2708 70.7368 87.0892 67.6552 89.7667C67.0949 90.3304 66.9549 91.1759 66.2545 91.4578C65.9744 91.4578 65.8343 91.4578 65.6942 91.4578Z" fill="#3F3F3F"/>
<path d="M97.7708 80.8887C97.7708 80.8887 97.7708 81.0296 97.7708 80.8887C97.4907 81.1705 97.0705 81.5933 96.7903 81.7342C96.6503 81.8751 96.5102 81.8751 96.5102 82.016C96.3701 82.157 96.3701 82.2979 96.3701 82.4388C96.3701 83.0025 96.3701 83.5662 96.3701 84.1299C96.3701 84.4117 96.3701 84.6935 96.5102 84.9754C96.7903 85.68 97.7708 85.5391 98.4712 85.68C99.5918 85.9618 100.432 86.9483 101.273 87.7938C102.253 88.6393 103.374 89.203 104.494 89.6258C104.915 89.7667 105.335 89.344 105.335 88.9212C105.335 88.6393 105.055 88.3575 104.774 88.0757C103.234 86.5255 101.693 84.5526 100.712 82.5797C100.292 81.8751 100.292 81.3114 99.5918 81.0296C99.1716 80.7477 97.9109 81.0296 97.7708 80.8887Z" fill="#6E6877"/>
<path d="M80.8217 67.7828C82.2224 70.1785 85.304 71.024 88.1055 70.7422C90.9069 70.4603 93.4282 69.192 96.0896 68.4874C96.3697 68.4874 96.5098 68.3465 96.7899 68.4874C97.0701 68.6284 97.2102 68.9102 97.2102 69.192C97.7705 71.3059 96.6499 73.5606 96.0896 75.6744C95.5293 77.6473 95.5293 79.7612 95.8094 81.875C95.8094 82.1568 95.9495 82.4387 96.0896 82.7205C96.3697 83.0023 96.6499 83.0023 97.0701 83.0023C98.3307 83.0023 99.4513 83.1433 100.712 83.1433C102.113 78.3519 103.373 73.4197 104.634 68.6284C104.914 67.7828 105.054 66.7964 105.054 65.9509C104.774 63.6961 102.393 63.4143 100.572 63.2734C97.7705 62.9915 94.969 62.9915 92.3076 62.8506C89.086 62.8506 85.8643 62.7097 83.343 64.8235C82.6427 65.3872 81.8022 66.0918 81.1019 66.6555C80.9618 66.7964 80.6816 66.9373 80.6816 67.2192C80.6816 67.3601 80.6816 67.501 80.8217 67.7828Z" fill="#3F3F3F"/>
<path d="M121.303 78.0696C123.544 78.3514 126.625 78.6333 128.866 79.3379C129.147 79.4788 129.427 79.4788 129.707 79.4788C129.987 79.4788 130.267 79.197 130.267 78.9151C130.267 78.6333 130.127 78.4924 129.987 78.2105C128.866 76.8013 126.905 76.8013 125.365 75.9558C124.244 75.2512 124.524 74.2647 123.264 73.8419C122.423 73.5601 120.882 73.2783 119.902 73.5601C119.902 74.2647 118.641 77.6468 121.303 78.0696Z" fill="#6E6877"/>
<path d="M102.813 51.1543C102.253 52.9863 102.673 55.1001 104.074 56.5093C105.475 57.9185 107.576 58.3413 109.257 57.7776C109.677 57.6367 109.957 57.4958 110.377 57.4958C110.797 57.4958 111.218 57.4958 111.638 57.6367C112.899 57.9186 114.299 58.2004 115.56 58.4822C117.101 58.7641 118.642 59.1868 119.902 60.0324C120.042 61.4416 119.902 62.9917 119.622 64.4009C119.062 67.2194 119.062 70.0378 119.342 72.7153C119.482 73.4199 119.622 74.1245 120.182 74.4064C120.462 74.5473 120.743 74.6882 121.163 74.6882C122.283 74.8291 123.264 74.97 124.384 75.111C124.945 71.7288 125.645 68.3467 126.486 65.1055C126.766 63.8372 127.186 62.428 127.886 61.3007C128.727 60.0324 129.847 58.4822 129.287 57.073C129.007 56.5093 128.587 56.0866 128.166 55.8047C125.225 53.55 121.863 51.718 118.361 50.5906C116.54 50.027 114.579 49.4633 113.179 48.195C112.899 47.9131 112.758 47.6313 112.338 47.4904C112.058 47.3494 111.638 47.4904 111.358 47.4904C108.416 48.195 105.335 49.4633 102.813 51.1543Z" fill="#3F3F3F"/>
<path d="M102.393 6.76378C101.973 6.34101 101.553 5.91825 101.553 5.21364C101.553 3.80443 102.533 1.97245 103.374 0.985998C103.654 0.563234 104.074 0.14047 104.634 -0.000451542C105.195 -0.141373 105.755 0.14047 105.895 0.563234C106.035 0.845077 105.895 0.985998 105.895 1.26784C105.755 2.11337 105.615 3.09982 105.475 3.94535C105.475 4.08627 105.475 4.08627 105.475 4.22719C105.475 4.36811 105.755 4.50903 106.035 4.50903C106.315 4.50903 106.455 4.50903 106.735 4.50903C106.875 4.50903 107.016 4.50903 107.156 4.50903C107.436 4.64996 107.576 4.9318 107.436 5.21364C107.296 5.49548 107.156 5.77733 106.875 5.91825C106.455 6.34101 106.035 6.62286 105.615 6.9047C104.494 7.75023 104.074 7.89115 102.953 7.18654C102.813 7.04562 102.673 6.9047 102.393 6.76378Z" fill="#FFD8AE"/>
<path d="M95.3893 22.6874C95.2492 21.701 95.1091 20.5736 95.3893 19.5872C95.5294 18.8826 95.8095 18.037 96.0896 17.3324C97.6304 13.2457 99.3113 9.15898 100.992 5.21318C101.132 4.93133 101.412 4.64949 101.833 4.79041C101.973 4.79041 102.113 4.93133 102.393 4.93133C103.373 5.3541 104.354 5.91778 105.334 6.34055C105.755 6.48147 104.494 7.74976 104.354 7.89068C103.233 10.5682 102.393 13.3866 101.552 16.0641C100.992 17.8961 99.4514 19.869 99.8716 21.9828C100.432 23.9557 101.693 26.0695 102.813 27.7606C106.735 33.8202 111.778 39.3162 113.739 46.2213C113.879 46.6441 114.019 47.2078 113.739 47.6305C113.599 47.9124 113.319 48.0533 113.178 48.1942C110.097 50.5899 106.315 51.8582 102.533 53.1265C100.852 53.6901 100.152 48.3351 99.7315 47.2078C98.8911 44.953 98.4709 42.5574 97.9106 40.1617C96.6499 34.5248 95.9496 28.6061 95.3893 22.6874Z" fill="#930012"/>
<path d="M130.828 43.8258C130.548 43.9667 130.548 43.5439 130.688 43.2621C131.668 42.5575 132.509 41.7119 133.489 41.0073C133.909 40.7255 134.33 40.4437 134.89 40.3027C135.45 40.3027 135.87 40.7255 135.87 41.1483C135.73 41.8529 134.75 42.1347 134.75 42.6984C135.17 42.8393 135.59 42.8393 136.01 42.9802C136.851 43.1212 137.271 43.2621 137.971 43.8258C138.532 44.5304 138.812 45.5168 138.392 46.2214C138.112 46.7851 137.411 47.067 136.711 47.2079C136.01 47.2079 135.45 47.067 134.75 46.7851C133.629 46.3624 132.649 45.6577 131.668 44.9531C131.388 44.8122 131.108 44.5304 130.968 44.2485C130.688 43.9667 130.548 43.9667 130.828 43.8258Z" fill="#FFD8AE"/>
<path d="M100.011 26.6335C99.5912 27.9018 99.5912 29.452 100.292 30.7203C101.132 32.1295 102.673 32.8341 104.214 32.975C104.774 32.975 105.474 32.975 106.034 32.8341C107.295 32.4113 108.136 31.0021 108.696 29.7338C109.256 28.3246 109.536 26.7745 109.116 25.3653C108.556 23.1105 106.315 22.4059 104.354 22.6878C102.253 22.8287 100.572 24.6606 100.011 26.6335Z" fill="#FFD8AE"/>
<path d="M107.855 26.211C107.855 25.7883 108.416 25.5064 108.696 25.7883C109.396 26.211 110.096 26.4929 110.797 26.7747C110.937 26.7747 111.077 26.9156 111.077 26.9156C111.777 27.1975 111.637 28.043 111.077 28.1839C110.237 28.4658 109.256 28.7476 108.416 29.1704C107.995 29.3113 107.575 29.0294 107.575 28.6067C107.715 27.9021 107.715 27.0565 107.855 26.211Z" fill="#FFB294"/>
<path d="M72.4173 51.7181C72.4173 52 72.5574 52.1409 72.5574 52.4227C73.6779 57.355 75.3588 63.2737 79.2808 66.7967C79.561 67.0786 79.8411 67.2195 80.1213 67.3604C80.6816 67.5013 81.522 67.2195 82.0823 66.9376C85.7242 65.2466 86.2844 65.2466 89.366 63.6964C89.6462 63.5555 90.0664 63.1328 90.3465 62.9918C90.4866 62.8509 87.5451 59.4688 86.5646 57.6368C85.8642 56.5095 85.5841 55.2412 85.1639 53.9729C84.0433 50.0271 85.444 45.3767 83.2029 41.9945C81.6621 39.458 75.2187 38.8943 72.2772 40.1626C71.9971 40.3035 71.857 40.3035 71.5769 40.5853C71.1566 40.8672 71.1566 41.4309 71.0166 41.8536C70.4563 45.3767 71.7169 48.4769 72.4173 51.7181Z" fill="#930012"/>
<path d="M78.5805 40.303C78.5805 40.7257 78.4404 41.0076 78.1603 41.2894C77.1798 41.994 75.4989 42.135 74.0982 41.2894C73.678 40.8667 74.6585 39.4575 74.0982 39.0347C73.5379 38.6119 73.1177 38.1892 72.6975 37.6255C72.1372 36.9209 71.717 36.2163 71.717 35.3707C71.5769 33.8206 72.6975 32.2705 73.8181 31.284C75.3589 29.8748 78.4404 30.0157 79.9812 31.4249C81.382 32.8341 81.382 36.4981 79.7011 37.6255C79.4209 37.7664 79.2809 37.9073 79.0007 38.0482C78.4404 38.471 78.5805 39.5984 78.5805 40.303Z" fill="#FFD8AE"/>
<path d="M79.4206 33.2567C79.7008 32.9749 82.6423 35.2296 82.3621 35.6524C81.8019 36.4979 79.8408 36.2161 79.4206 36.0751C79.0004 35.9342 79.0004 33.5386 79.4206 33.2567Z" fill="#FFB294"/>
<path d="M97.0706 58.3414C97.2106 58.0596 97.3507 57.7778 97.6309 57.7778C99.0316 57.355 100.853 57.9187 101.833 58.9051C102.393 59.4688 102.814 60.4553 102.393 61.019C102.253 61.1599 101.973 61.3008 101.833 61.4417C101.413 61.7236 100.853 62.0054 100.292 62.1463C99.7319 62.2872 99.1717 62.1463 98.7514 61.7236C98.1911 61.1599 98.3312 60.3143 97.7709 59.7507C97.4908 59.4688 97.2106 59.3279 97.0706 59.187C96.6504 58.7642 96.9305 58.6233 97.0706 58.3414Z" fill="#FFD8AE"/>
<path d="M52.2474 47.9131C50.0063 49.3223 49.3059 50.4497 48.4655 52.9863C48.0453 54.2546 48.0453 55.6638 48.1853 56.9321C48.4655 58.7641 48.1853 60.4551 48.3254 62.2871C48.7456 66.092 49.0258 70.0378 49.446 73.8427C49.446 74.1245 49.446 74.4064 49.7261 74.6882C49.8662 74.8291 50.1463 74.97 50.4265 74.97C52.1074 75.111 53.7882 74.6882 55.4691 74.2654C57.0099 73.8427 58.5507 73.4199 60.0915 72.8562C60.3716 72.8562 60.5117 72.7153 60.7918 72.5744C61.4922 72.1516 61.3521 71.0242 61.2121 70.3196C60.7918 67.6421 60.9319 64.9646 61.3521 62.428C62.0525 59.0459 63.3131 55.5229 61.9124 52.4226C61.072 50.5906 59.251 49.1814 57.5702 48.0541C57.0099 47.6313 56.3095 47.2085 55.6092 47.0676C54.7687 46.7858 53.5081 47.0676 52.2474 47.9131Z" fill="#D20109"/>
<path d="M53.0878 44.8124C52.3874 43.685 51.8271 42.4167 51.8271 41.0075C51.8271 40.4438 51.8271 39.8801 52.1073 39.4574C52.3874 39.0346 52.6676 38.8937 53.0878 38.6118C54.9087 37.6254 57.1499 38.0481 58.5506 39.4574C58.8308 39.8801 59.1109 40.162 59.3911 40.5847C59.5311 40.8666 59.6712 41.1484 59.8113 41.5712C59.9513 42.4167 59.8113 43.2622 59.3911 43.9668C59.251 44.2487 58.9708 44.5305 58.6907 44.8124C58.1304 45.517 57.8503 46.5034 57.8503 47.4899C57.8503 47.9126 57.5701 48.1945 57.1499 48.3354C56.5896 48.4763 55.8892 48.4763 55.329 48.6173C54.9087 48.6173 54.4885 48.7582 54.2084 48.4763C53.9282 48.1945 53.7882 47.7717 53.9282 47.349C53.9282 46.9262 54.0683 46.5034 54.0683 46.0807C53.6481 45.517 53.3679 45.2351 53.0878 44.8124Z" fill="#FFD8AE"/>
<path d="M58.2704 43.403C57.9902 43.1211 57.7101 41.2892 58.1303 41.1482C58.9707 40.8664 60.3715 41.8528 61.352 42.4165C61.492 42.5574 61.6321 42.6984 61.6321 42.8393C61.6321 42.9802 61.492 42.9802 61.352 42.9802C60.2314 43.2621 59.1108 43.9667 58.2704 43.403Z" fill="#FFB294"/>
<path d="M52.5274 36.9205C51.6869 36.2159 50.5664 35.9341 49.5858 36.3568C48.6053 36.7796 47.7649 37.7661 47.905 38.8934C48.045 39.598 48.4653 40.3026 48.8855 40.8663C49.1656 41.1482 49.4458 41.43 49.7259 41.5709C50.4263 41.8528 51.1266 41.5709 51.6869 41.2891C52.5274 40.8663 53.3678 40.1617 53.5079 39.1753C53.6479 38.1888 53.2277 37.4842 52.5274 36.9205Z" fill="#3F3F3F"/>
<path d="M57.71 48.8997C58.6905 48.477 59.9512 48.8997 60.9317 49.3225C62.3324 49.8862 63.5931 50.4499 64.8537 51.2954C66.1144 52 67.2349 52.9864 68.4956 53.691C71.4371 55.1003 74.9389 54.8184 78.1606 53.9729C78.8609 53.832 79.7014 53.5501 80.4017 53.691C81.1021 53.832 81.9425 54.3957 81.9425 55.1003C82.0826 56.0867 80.962 56.9322 80.1216 57.355C72.9779 60.7371 65.414 59.8916 58.8306 55.523C57.71 54.8184 55.8891 53.832 55.749 52.2818C55.749 51.2954 56.7295 49.4634 57.71 48.8997Z" fill="#930012"/>
<path d="M79.0011 55.5223C79.0011 55.3814 79.0011 55.2404 78.861 55.0995C78.7209 54.1131 79.2812 53.1266 79.5613 52.2811C79.7014 51.8583 79.9816 51.4355 80.2617 51.5765C80.6819 51.7174 80.6819 52.422 80.9621 52.8448C81.2422 53.1266 81.6624 53.2675 82.0826 53.2675C82.5029 53.2675 82.9231 52.9857 83.2032 52.9857C83.7635 52.8448 84.3238 52.8448 84.8841 52.9857C85.1642 52.9857 85.4444 53.1266 85.7245 53.1266C86.565 53.5494 86.705 54.9586 85.8646 55.5223C85.5844 55.6632 85.4444 55.8041 85.1642 55.8041C84.1837 56.086 83.2032 56.5087 82.3628 56.7906C81.9426 56.9315 81.5224 57.0724 81.1021 57.0724C80.1216 56.9315 79.1411 56.5087 79.0011 55.5223Z" fill="#FFD8AE"/>
<path d="M50.9867 115.415C50.2864 115.133 49.586 115.133 48.8856 115.415C48.4654 115.555 48.4654 116.26 48.3254 116.824C48.1853 117.669 48.0452 118.515 47.9051 119.36C47.9051 119.642 47.7651 119.924 48.0452 120.206C48.1853 120.347 48.3253 120.488 48.4654 120.488C50.5665 121.615 52.5275 122.742 54.6286 124.011C55.329 124.433 56.1694 124.856 57.1499 124.856C57.7102 124.011 57.9903 122.883 57.43 122.038C57.29 121.756 57.1499 121.615 57.0098 121.474C56.0293 120.065 55.0488 118.797 53.9282 117.387C53.2279 116.542 51.9672 115.696 50.9867 115.415Z" fill="#6E6877"/>
<path d="M36.6988 122.602C37.1191 122.461 37.3992 122.038 37.3992 121.615C37.8194 116.401 38.5198 111.328 38.3797 106.114C38.3797 105.55 38.3797 104.846 37.9595 104.282C37.6794 103.718 37.1191 103.436 36.5588 103.295C34.1775 102.168 31.9364 101.745 29.5552 100.477C28.7147 100.054 27.7342 99.6315 26.7537 99.3496C26.4736 99.4905 26.4736 99.6315 26.1934 99.7724C26.0534 99.7724 25.9133 99.9133 25.7732 100.054C24.6526 101.182 23.6721 102.309 22.9718 103.718C22.8317 103.859 23.1118 103.859 23.2519 104.141C25.7732 106.678 29.6952 107.382 33.057 108.228C33.4772 108.369 33.8974 108.65 34.1775 109.073C34.5978 109.919 33.8974 110.623 33.4772 111.187C31.9364 113.16 32.4967 115.978 33.057 118.374C33.3371 119.642 33.6173 121.192 33.8974 122.602C34.0375 123.165 34.5978 123.588 35.2981 123.447C35.7183 123.024 36.2786 122.883 36.6988 122.602Z" fill="#FFD8AE"/>
<path d="M12.1866 60.3139C11.4863 59.1865 10.3657 58.0592 9.10504 57.6364C7.70432 57.2136 6.16352 57.6364 5.32309 58.7638C4.90287 59.4684 4.7628 60.173 4.62273 61.0185C4.34258 62.8505 4.06244 64.6825 4.7628 66.3735C5.04295 67.0781 5.46316 67.6418 5.88338 68.2055C6.3036 68.7692 6.58374 69.3329 7.00396 69.8966C7.00396 69.8966 7.00396 70.0375 7.14403 70.1784C7.2841 70.3193 7.56425 70.3193 7.70432 70.3193C9.10504 70.3193 10.7859 70.0375 12.0466 69.3329C11.3462 68.4873 10.5058 67.36 10.0855 66.2326C9.94547 65.9508 9.94547 65.6689 10.0855 65.3871C10.2256 65.2462 10.3657 65.1052 10.6458 64.9643C11.2061 64.8234 11.7664 64.6825 12.1866 64.2597C12.7469 63.8369 12.887 62.9914 12.887 62.2868C12.887 61.5822 12.6068 60.8776 12.1866 60.3139Z" fill="#FFD8AE"/>
<path d="M7.42383 95.5446C7.5639 95.6855 7.84404 95.6855 8.12419 95.5446C9.38484 95.4037 10.9256 95.8264 11.9061 96.531C12.8866 97.2356 13.8671 98.2221 13.8671 99.4904C13.8671 99.9131 13.7271 100.336 13.4469 100.618C13.0267 101.041 12.4664 101.181 12.0462 101.181C11.4859 101.181 10.7856 101.322 10.3653 101.041C9.80506 100.759 9.38484 100.195 8.96462 99.4904C8.12419 98.2221 7.42383 96.9538 7.42383 95.5446Z" fill="#FFD8AE"/>
<path d="M5.46294 56.9315C6.86367 56.5087 9.38497 56.2269 10.9258 57.2133C11.9063 57.777 12.7467 58.9044 12.6066 59.0453C11.7662 59.7499 8.12432 60.1727 7.84417 60.5954C7.7041 60.8773 7.98424 65.6686 8.6846 67.2187C6.30338 68.628 3.64201 69.6144 0.980634 70.319C0.420345 68.9098 0.140201 67.3597 0.000128658 65.9504C-0.280016 61.5819 1.96114 57.777 5.46294 56.9315Z" fill="#3F3F3F"/>
<path d="M46.504 77.0839C46.9242 77.3657 47.4845 77.2248 48.0448 77.3657C48.7452 77.5066 49.3055 77.9294 49.5856 78.634C49.8658 79.1977 50.0058 79.9023 50.0058 80.6069C50.0058 80.7478 50.0058 80.8887 49.8657 81.0297C49.7257 81.1706 49.5856 81.3115 49.4455 81.4524C49.1654 81.5933 48.7452 81.8752 48.465 81.8752C48.0448 82.0161 47.6246 81.8752 47.3444 81.5933C47.0643 81.3115 46.9242 80.7478 46.6441 80.325C46.3639 80.0432 45.9437 79.9023 45.5235 79.7614C45.1033 79.7614 44.6831 79.7614 44.2629 79.7614C44.1228 79.7614 43.9827 79.7614 43.8426 79.6204C43.5625 79.4795 43.5625 79.1977 43.5625 78.9158C43.5625 78.634 43.7026 77.7885 43.9827 77.6475C44.543 77.0839 45.8037 76.6611 46.504 77.0839Z" fill="#FFD8AE"/>
<path d="M40.9014 81.5929C39.6408 81.0293 38.1 81.1702 36.8393 81.8748C35.1584 82.5794 33.1974 84.1295 32.9173 85.9615C32.6371 87.6526 34.1779 89.2027 35.1584 90.6119C37.9599 94.1349 41.8819 96.8124 46.2241 98.0807C46.6444 98.2217 47.0646 98.3626 47.3447 98.6444C47.6249 98.9263 47.6249 99.2081 47.7649 99.6309C48.8855 104.845 47.6249 110.341 47.0646 115.696C47.0646 116.401 47.0646 117.246 47.6249 117.669C47.905 117.951 48.3252 117.951 48.7454 117.951C50.4263 117.951 52.1072 118.092 53.788 118.092C54.0682 118.092 54.2083 118.092 54.3483 117.951C54.6285 117.81 54.6285 117.528 54.7686 117.105C56.1693 110.341 56.1693 103.295 58.5505 96.9534C58.6906 96.5306 58.9707 95.9669 58.9707 95.5442C58.9707 94.5577 58.4104 93.7122 57.57 93.0076C56.7296 92.4439 55.8891 92.162 54.9086 91.7393C50.2862 89.9073 46.0841 86.9479 42.8624 83.284C42.3021 82.5794 41.7418 81.8748 40.9014 81.5929Z" fill="#3F3F3F"/>
<path d="M25.7734 111.891C19.6102 110.2 15.4081 103.859 15.1279 97.3762C15.1279 96.9534 15.6882 90.471 15.1279 90.612C17.6492 89.9074 19.4702 89.6255 21.8514 88.9209C25.4933 92.8667 30.6759 96.1079 35.1583 99.0672C35.4384 99.3491 35.8586 99.49 35.9987 99.9128C36.1388 100.476 35.8586 100.899 35.5785 101.322C33.1972 104.563 30.6759 107.804 28.1546 111.046C27.8745 111.327 27.7344 111.609 27.3142 111.75C26.894 112.173 26.3337 112.032 25.7734 111.891Z" fill="#3F3F3F"/>
<path d="M132.089 45.5176C129.007 45.3767 125.925 45.0949 122.984 44.954C120.463 44.813 117.941 44.6721 115.56 43.9675C114.159 43.5447 112.759 42.9811 111.358 42.4174C109.397 41.5718 107.576 40.7263 105.615 40.0217C104.915 39.7399 104.214 39.458 103.794 38.8943C103.234 38.3306 103.234 37.767 103.374 37.0624C103.514 35.935 103.934 34.6667 104.915 34.2439C106.455 33.5393 108.416 34.3848 109.957 35.2304C112.338 36.4987 113.879 39.0353 116.4 40.1626C117.381 40.5854 118.502 40.8672 119.622 41.0082C123.264 41.7128 126.906 42.1355 130.548 42.4174C131.108 42.4174 131.528 42.5583 131.948 42.8401C132.789 43.2629 132.369 44.5312 132.089 45.5176Z" fill="#D20109"/>
<path d="M85.5842 51.5771C83.7633 50.4498 73.398 43.9674 79.281 41.5717C80.2615 41.149 81.3821 41.149 82.3626 41.4308C84.0435 41.9945 85.4442 43.1219 86.5648 44.5311C87.6853 45.9403 91.7474 51.9999 93.0081 52.7045C95.3893 54.2547 97.7705 55.9457 100.152 57.4958C100.432 57.6368 100.432 58.0595 100.152 58.3414C100.012 58.4823 99.7315 58.6232 99.5915 58.7641C99.0312 59.1869 98.3308 59.4687 97.6305 59.6097C96.0897 59.8915 94.829 58.7641 93.5684 57.9186C89.2261 54.2546 86.0045 51.859 85.5842 51.5771Z" fill="#D20109"/>
<path d="M33.3371 54.3957C31.3761 53.6911 27.7343 53.9729 26.0534 55.3821C24.5126 56.7914 24.2325 59.0461 23.9523 60.8781C23.1119 67.9242 23.9523 75.6748 28.5747 81.1708C29.4151 82.2981 30.5357 83.2846 31.096 84.5529C31.3761 85.1166 31.5162 85.9621 32.2166 86.2439C32.6368 86.3849 33.1971 86.2439 33.6173 86.103C36.4187 84.9756 39.2202 83.8483 42.0216 82.58C41.4613 81.4526 40.901 80.1843 40.3408 79.0569C38.3797 74.8293 36.4187 70.6017 36.4187 65.9513C36.4187 63.8374 36.839 61.7236 36.5588 59.6098C36.4187 57.355 35.2982 55.1003 33.3371 54.3957Z" fill="#930012"/>
<path d="M33.7579 48.8992C34.4582 47.6309 34.3182 45.9398 33.3377 44.8124C32.4972 43.6851 30.9564 42.9805 29.5557 43.1214C28.9954 43.1214 28.5752 43.4032 28.0149 43.5441C27.3145 43.826 26.6142 44.2488 26.0539 44.8124C25.0734 45.7989 24.6532 47.349 25.0734 48.7582C25.3535 49.7447 26.194 50.7311 27.1745 51.1539C28.0149 51.5767 28.4351 52.5631 28.4351 52.845C28.4351 53.4086 28.4351 53.9723 28.5752 54.6769C28.5752 54.8179 28.5752 54.9588 28.7153 55.0997C28.8553 55.2406 28.9954 55.2406 29.1355 55.2406C29.8358 55.3815 30.6763 55.3815 31.3766 55.3815C31.5167 55.3815 31.7969 55.3815 31.9369 55.2406C32.077 55.0997 32.2171 54.9588 32.2171 54.8179C32.4972 53.9723 31.9369 52.9859 32.2171 51.9994C32.3571 51.5767 32.4972 51.2948 32.6373 51.013C33.0575 50.1675 33.4777 49.4628 33.7579 48.8992Z" fill="#FFD8AE"/>
<path d="M32.7773 47.0672C32.7773 46.6444 32.9174 46.3626 33.3376 46.2217C33.7578 46.2217 35.4387 47.3491 35.7189 47.9127C35.8589 48.0537 35.0185 48.1946 34.7384 48.1946C34.1781 48.1946 33.7579 48.1946 33.1976 48.1946H33.0575L32.9174 48.0537C32.7773 47.9127 32.7773 47.49 32.7773 47.0672Z" fill="#FFB294"/>
<path d="M12.4664 68.0651C13.4469 68.3469 14.4274 69.0515 15.2679 69.4743C16.6686 70.3198 18.0693 71.1654 19.0498 72.5746C21.0108 75.5339 20.4506 79.3388 21.1509 82.7209C21.7112 85.1166 23.6722 88.7805 23.5321 90.6125C23.3921 92.8673 15.9682 93.5719 15.6881 93.5719C14.9877 93.4309 14.7076 91.0353 14.7076 90.3307C14.4274 88.3578 14.5675 86.103 13.587 84.271C13.1668 83.4255 12.4664 82.7209 11.9061 82.1572C9.94514 80.3252 7.14369 78.2114 5.6029 75.9567C4.20217 73.7019 6.72347 69.3334 6.86355 69.3334C7.98412 69.7561 9.24477 70.038 10.3654 69.3334C10.7856 69.0515 11.2058 68.6288 11.3459 68.0651C11.2058 67.6423 12.0462 67.9242 12.4664 68.0651Z" fill="#930012"/>
<path d="M40.4813 76.3793C39.921 75.8156 39.3607 75.2519 38.8004 74.8291C38.2401 74.4064 37.6798 73.8427 37.1195 73.4199C35.0184 71.7289 32.9174 69.8969 31.2365 67.7831C29.5556 65.6692 28.295 63.1327 27.8748 60.4552C27.8748 59.8915 27.7347 59.4687 27.8748 58.905C28.0148 57.7776 28.8553 56.7912 29.8358 56.5093C30.6762 56.2275 31.6567 56.2275 32.3571 56.7912C33.0574 57.214 33.4776 57.9186 33.8979 58.4822C35.4387 60.737 36.4192 62.428 37.3997 65.2465C37.6798 66.092 37.96 67.3603 38.3802 68.0649C38.6603 68.6286 39.2206 68.9104 39.6408 69.3332C42.1621 71.447 44.2632 74.2654 46.2242 76.943C46.3643 77.0839 46.3643 77.2248 46.3643 77.3657C46.3643 77.6476 46.2242 77.7885 45.9441 77.9294C45.3838 78.3522 44.8235 78.7749 44.2632 79.1977C43.7029 79.6205 43.4228 79.7614 43.0026 79.3386C42.3022 78.3522 41.4618 77.2248 40.4813 76.3793Z" fill="#D20109"/>
<path d="M8.40431 79.0561C9.10467 77.7878 10.0852 75.2512 9.38482 73.7011C8.68445 72.1509 6.30323 71.4463 4.90251 72.4328C3.922 73.2783 3.50178 74.8285 2.94149 76.0967C1.82092 79.197 0.980484 82.2973 0.280123 85.3976C0.140051 85.9612 -2.11447e-05 86.6659 0.140051 87.2295C0.280123 88.0751 0.560268 88.9206 0.980484 89.6252C2.80142 92.8664 5.18265 95.9667 7.84402 98.6442C8.54438 98.0805 9.24474 97.6577 9.94511 97.094C10.0852 96.9531 10.3653 96.8122 10.3653 96.6713C10.5054 96.3894 10.2252 95.9667 10.0852 95.6848C8.26424 93.0073 6.86352 90.3298 5.60287 87.5114C5.32272 86.8068 4.90251 85.9612 5.04258 85.1157C5.18265 84.1293 5.74294 83.2837 6.30323 82.4382C7.14366 81.4518 7.84402 80.1835 8.40431 79.0561Z" fill="#D20109"/>
</svg>
