<svg width="178" height="145" viewBox="0 0 178 145" fill="none" xmlns="http://www.w3.org/2000/svg">
<path d="M145.373 122.042C144.769 122.042 144.285 122.163 143.681 122.283C142.835 124.217 141.869 125.788 141.144 127.842C140.902 128.688 140.66 129.654 140.902 130.621C141.144 131.225 141.506 131.708 141.989 132.071C143.077 133.158 144.527 134.246 145.373 135.454C148.032 139.2 149.482 141.496 150.569 142.342C150.932 142.704 150.69 141.738 151.173 141.738C151.657 141.738 152.382 141.979 152.382 141.496C152.503 141.013 152.019 139.925 151.778 139.442C149.602 136.179 149.482 135.333 147.306 132.071C147.065 131.708 145.01 129.171 144.89 128.808C144.769 128.446 144.769 127.963 144.769 127.6C144.89 125.546 145.977 123.613 146.944 121.8C146.461 121.679 146.098 122.042 145.373 122.042Z" fill="#FFD8AE"/>
<path d="M163.982 121.196C163.741 121.075 163.62 121.196 163.378 121.196C162.653 121.196 161.807 121.317 161.082 121.559C160.84 122.646 160.72 123.734 160.84 124.821C160.84 125.305 160.961 125.909 161.203 126.271C161.445 126.634 161.807 126.875 162.049 127.117C166.157 130.138 170.266 133.28 174.133 136.542C174.254 136.663 174.496 136.784 174.737 136.905C174.979 136.905 175.1 136.784 175.221 136.663C175.825 136.3 176.429 135.817 176.429 135.213C176.429 134.367 175.341 133.642 174.858 133.038C174.133 132.313 173.408 131.588 172.683 130.863C171.595 129.655 170.387 128.446 169.058 127.48C168.091 126.755 166.52 125.909 165.795 124.821C165.191 123.855 165.312 122.646 164.586 121.68C164.466 121.559 164.224 121.317 163.982 121.196Z" fill="#FFD8AE"/>
<path d="M159.27 110.804C158.786 109.958 158.182 109.233 157.578 108.508C156.611 107.421 155.524 106.454 154.315 105.488C153.228 104.642 152.14 103.796 150.811 103.312C147.911 104.038 144.889 104.763 141.989 105.488C141.506 105.608 141.023 105.729 140.66 106.092C140.177 106.575 140.418 110.442 140.297 111.892C139.693 116.846 139.693 121.196 140.418 126.15C140.539 126.875 140.297 128.325 141.023 128.083C148.877 125.788 157.94 123.975 166.037 123.25C166.158 123.25 166.278 123.129 166.278 122.887C166.037 121.317 161.686 114.55 159.27 110.804Z" fill="#3F3F3F"/>
<path d="M149.481 140.892C150.448 140.53 152.381 140.167 152.623 140.771C152.985 141.496 153.469 142.221 153.348 143.067C153.106 143.309 152.623 143.43 152.26 143.551C150.448 143.913 148.635 144.155 146.822 144.276C146.46 144.276 145.976 144.276 145.856 143.913C145.735 143.551 145.976 143.188 146.339 142.946C146.822 142.705 147.306 142.584 147.789 142.342C148.272 142.221 148.756 141.859 148.998 141.376C149.118 141.255 149.118 141.013 149.239 140.892C149.239 140.892 149.36 140.892 149.481 140.892Z" fill="#3F3F3F"/>
<path d="M175.583 140.046C175.22 140.529 174.979 141.013 174.495 141.375C174.012 141.738 173.408 141.859 172.924 141.738C172.804 141.134 173.287 140.409 173.529 139.804C173.77 139.2 173.77 139.2 173.77 138.596C173.77 138.113 173.891 137.267 173.649 136.421C173.529 135.938 175.22 134.729 175.945 134.367C176.187 134.246 176.429 134.246 176.55 134.367C177.154 134.85 177.879 135.334 178.241 136.059C178.483 136.904 177.395 137.871 176.912 138.596C176.187 138.959 175.945 139.442 175.583 140.046Z" fill="#3F3F3F"/>
<path d="M115.162 95.2167C114.195 94.4917 114.195 92.3167 114.316 91.2292C114.437 89.5375 114.679 87.6042 115.404 86.0334C115.766 85.3084 119.633 86.5167 120.479 84.7042C120.841 83.9792 120.479 77.2125 119.875 76.6084C118.666 75.4 116.129 76.6084 115.041 75.2792C114.679 74.9167 114.558 74.3125 114.558 73.8292C114.316 72.6209 114.195 71.4125 113.954 70.0834C113.833 69.6 113.833 68.9959 114.074 68.6334C114.558 68.0292 115.645 68.0292 115.766 67.1834C115.887 66.4584 115.162 65.3709 114.92 64.6459C114.679 63.9209 114.558 63.075 114.195 62.35C113.712 61.2625 112.745 58.6042 111.295 58.3625C111.053 58.3625 110.812 58.4834 110.691 58.6042C109.966 59.0875 109.241 59.5709 108.636 60.0542C108.395 60.175 108.153 60.2959 107.911 60.4167C107.428 60.5375 107.066 60.175 106.703 59.8125C106.099 59.2084 105.374 58.725 104.77 58.1209C104.407 57.7584 103.924 57.3959 103.682 56.9125C103.44 56.4292 103.319 55.825 103.561 55.3417C103.924 54.7375 104.649 54.1334 104.286 53.4084C103.924 52.8042 102.715 52.0792 102.232 51.5959C100.419 50.025 98.2441 49.9042 95.9481 49.9042C95.5855 49.9042 95.223 49.9042 94.9813 50.1459C94.7397 50.3875 94.6188 50.6292 94.6188 50.8709C94.2563 51.9584 93.6521 53.2875 92.4437 53.4084C91.9603 53.4084 91.5978 53.4084 91.1144 53.2875C90.0268 53.0459 88.9392 52.6834 88.0934 52.0792C87.1266 51.475 86.4016 50.6292 86.2807 49.5417C86.1599 48.575 86.5224 47.3667 85.7974 46.7625C85.4348 46.4 84.9515 46.4 84.4681 46.2792C82.6555 46.0375 80.8428 46.1584 79.1511 46.4C78.426 46.5209 77.701 46.7625 77.2176 47.3667C76.6134 48.4542 77.4593 50.025 76.6134 50.75C76.3717 50.9917 76.0092 51.1125 75.7675 51.1125C74.4382 51.475 73.109 51.8375 71.7797 52.2C71.4172 52.3209 71.1755 52.4417 70.813 52.3209C70.4504 52.3209 70.2088 52.2 70.0879 51.8375C69.7254 50.8709 69.242 50.025 68.7587 49.1792C68.6378 48.9375 68.517 48.8167 68.2753 48.6959C68.0336 48.575 67.7919 48.6959 67.5502 48.8167C65.6168 49.5417 63.8041 50.6292 62.1124 51.9584C61.8707 52.2 61.629 52.3209 61.5082 52.6834C61.3873 53.1667 61.7498 53.5292 61.9915 53.8917C62.4749 54.375 62.8374 54.9792 63.3208 55.4625C63.4416 55.5834 63.5625 55.7042 63.5625 55.9459C63.5625 56.1875 63.4416 56.3084 63.1999 56.4292C62.2332 57.275 61.1456 58 60.1789 58.8459C60.058 58.9667 59.9372 59.0875 59.6955 59.0875C59.4538 59.0875 59.333 58.9667 59.2122 58.8459C58.7288 58.3625 58.1246 58 57.6412 57.5167C57.1578 57.0334 56.4328 56.55 55.8286 56.6709C55.2244 56.7917 54.8618 57.275 54.4993 57.8792C53.5326 59.3292 52.6867 60.7792 51.72 62.2292C51.3574 62.8334 50.6324 63.8 50.7532 64.525C50.9949 65.6125 52.8075 65.4917 53.6534 65.7334C54.3785 65.975 54.9827 66.7 54.8619 67.3042C54.4993 68.875 54.1368 70.5667 53.5326 72.1375C53.1701 73.1042 52.5659 74.0709 51.72 74.675C50.6324 75.2792 49.1823 75.0375 47.9739 75.4C47.7322 75.4 47.4905 75.5209 47.3697 75.7625C47.2488 76.0042 47.128 76.2459 47.128 76.4875C46.6446 78.5417 46.6446 80.7167 46.8863 82.8917C47.0071 83.4959 47.128 84.1 47.6113 84.4625C48.0947 84.825 48.8198 84.5834 49.424 84.5834C50.0282 84.4625 50.6324 84.4625 51.3574 84.4625C51.72 84.4625 51.9616 84.4625 52.2033 84.7042C52.445 84.9459 52.5659 85.3084 52.6867 85.55C53.0492 86.6375 53.4117 87.725 53.7743 88.9334C54.1368 90.0209 54.3785 91.2292 53.6534 92.075C53.0492 92.8 52.0825 92.9209 51.2366 93.1625C50.3907 93.4042 49.3031 93.7667 49.1823 94.6125C49.0614 95.0959 49.1823 95.4584 49.3031 95.9417C49.7865 97.2709 50.8741 98.3584 51.8408 99.325C52.8075 100.292 53.6534 101.258 54.6202 102.104C54.9827 102.467 57.5204 99.5667 58.3663 99.5667C59.8164 99.5667 62.9583 103.192 62.4749 104.158C62.2332 104.642 60.4206 106.817 60.4206 107.3C60.4206 108.267 61.2665 108.871 61.9915 109.354C63.3208 110.079 64.5292 111.046 65.9793 111.408C66.5835 111.65 67.5502 111.771 68.1545 111.529C69.1212 111.167 68.6378 110.321 69.0003 109.475C69.3629 108.75 70.2088 108.629 71.0547 108.629C72.3839 108.629 73.5923 108.992 74.8008 109.354C75.8883 109.596 77.0968 109.958 77.701 110.925C78.1843 111.65 77.5801 112.254 77.701 112.979C77.8218 113.463 78.1843 113.825 78.6677 114.067C79.1511 114.308 79.6344 114.308 80.1178 114.308C81.5679 114.308 82.8972 113.946 84.3473 113.946C84.9515 113.946 85.4348 114.067 86.039 113.946C86.6432 113.825 87.1266 113.463 87.2475 112.979C87.3683 112.496 87.1266 111.892 87.0058 111.408C86.8849 110.925 86.7641 110.2 87.2475 109.958C88.4559 109.113 89.7851 108.992 91.2352 108.871C92.8062 108.75 94.498 108.75 95.4647 110.079C95.9481 110.683 96.0689 111.408 96.6731 111.771C97.2773 112.133 98.0024 112.013 98.6066 111.771C99.6942 111.529 100.661 111.167 101.748 110.925C102.353 110.804 102.957 110.563 103.319 110.321C103.803 109.958 104.165 109.354 103.924 108.75C103.803 108.146 103.078 107.663 103.319 107.058C103.44 106.817 103.561 106.575 103.803 106.454C105.011 105.488 106.34 104.763 107.67 104.038C109.241 103.192 109.966 103.433 111.295 104.4C112.02 104.883 113.108 105.367 113.833 104.883C114.074 104.642 114.316 104.4 114.437 104.158C115.283 102.708 116.129 101.258 116.975 99.9292C117.337 99.4459 117.579 98.8417 117.7 98.2375C117.82 97.6334 117.7 96.9084 117.216 96.5459C116.612 95.7 115.766 95.7 115.162 95.2167Z" fill="#3F3F3F"/>
<path d="M84.1064 75.8831C82.1729 75.279 80.4811 75.7623 79.031 77.0915C77.8226 78.2998 77.3392 79.9915 78.0643 81.5623C78.5477 82.6498 79.5144 83.4956 80.602 83.979C82.0521 84.5831 83.8647 84.4623 85.194 83.4956C86.5232 82.529 87.2483 80.9581 87.1274 79.2665C86.8857 77.5748 85.6773 76.3665 84.1064 75.8831Z" fill="white"/>
<path d="M96.9149 10.5128C97.5192 9.78784 98.365 9.18368 99.3318 8.82118C99.936 8.57951 100.661 8.21701 101.386 8.21701C103.199 8.09618 104.891 9.54618 105.616 11.2378C106.341 12.9295 106.341 14.742 106.461 16.6753C106.461 18.6087 106.461 20.4212 106.582 22.3545C106.582 22.8378 106.582 23.442 106.341 23.9253C105.978 24.5295 105.253 24.7712 104.649 24.892C102.111 25.3753 99.4526 25.0128 97.2775 23.8045C97.0358 23.6837 96.7941 23.5628 96.6733 23.3212C96.5524 23.0795 96.4316 22.8378 96.4316 22.4753C95.9482 19.9378 95.9482 17.4003 96.0691 14.8628C95.8274 13.292 95.9482 11.7212 96.9149 10.5128Z" fill="#D20109"/>
<path d="M93.4104 46.279C94.1355 45.9165 94.498 44.9499 95.2231 44.4665C95.9481 43.9832 96.794 43.8624 97.6399 43.9832C98.4858 44.104 99.2109 44.4665 100.057 44.7082C100.298 44.829 100.54 44.9499 100.661 45.0707C100.782 45.3124 100.661 45.554 100.661 45.9165C100.54 46.279 100.54 46.7624 100.54 47.1249C100.54 47.8499 101.144 48.3332 101.869 48.3332C103.078 48.3332 104.286 48.2124 105.495 47.9707C105.857 47.8499 106.22 47.8499 106.461 47.6082C106.945 47.1249 106.824 46.279 106.824 45.554C106.703 44.829 106.824 43.9832 107.428 43.7415C108.274 43.4999 109.241 43.1374 110.207 42.8957C110.449 42.8957 110.691 42.7749 110.812 42.7749C111.295 42.8957 111.658 43.2582 111.899 43.6207C112.262 43.9832 112.624 44.3457 113.108 44.2249C113.349 44.2249 113.47 43.9832 113.712 43.8624C114.92 42.7749 116.008 41.5665 116.733 40.2374C116.854 39.9957 116.975 39.754 116.975 39.5124C116.975 39.029 116.612 38.5457 116.25 38.304C115.645 37.9415 114.92 37.6999 114.558 37.0957C114.316 36.7332 114.316 36.0082 114.437 35.6457C114.679 35.0415 114.799 34.5582 114.92 33.954C114.92 33.7124 115.041 33.3499 115.162 33.1082C115.645 32.3832 116.733 32.8665 117.458 31.8999C117.82 31.5374 117.7 30.9332 117.7 30.329C117.458 29.1207 117.216 26.3415 116.733 26.2207C116.129 26.0999 115.645 26.2207 115.041 26.3415C114.558 26.5832 114.195 26.5832 113.954 26.5832C113.591 26.4624 112.383 24.1665 112.624 23.3207C112.745 22.8374 113.108 22.4749 113.349 22.1124C113.712 21.629 114.074 21.1457 114.316 20.5415C114.558 20.0582 114.316 19.5749 113.954 19.3332C112.866 18.8499 111.658 18.3665 110.57 18.1249C109.966 18.004 109.362 18.2457 109.12 18.8499C108.878 19.454 108.516 19.9374 107.911 20.2999C107.549 20.5415 107.066 20.7832 106.703 20.7832C105.374 20.7832 104.77 19.3332 104.77 18.1249C104.77 17.1582 105.011 16.0707 104.165 15.5874C103.924 15.3457 103.561 15.3457 103.199 15.3457C102.232 15.3457 101.386 15.4665 100.419 15.5874C100.178 15.7082 99.8151 15.7082 99.5734 15.9499C98.9692 16.554 99.9359 17.5207 99.8151 18.3665C99.8151 18.9707 99.2109 19.454 98.6066 19.5749C98.0024 19.6957 97.3982 19.6957 96.794 19.5749C96.5523 19.5749 96.3106 19.454 96.069 19.3332C95.9481 19.2124 95.8273 18.9707 95.8273 18.8499C95.4648 18.1249 95.2231 17.3999 94.8605 16.6749C94.7397 16.554 94.7397 16.3124 94.6189 16.3124C94.498 16.1915 94.3772 16.3124 94.2563 16.3124C92.6854 16.554 91.1145 17.279 89.906 18.2457C89.4227 18.2457 89.4227 18.8499 89.5435 19.2124C89.6643 19.5749 90.0269 19.9374 90.3894 20.179C90.7519 20.5415 90.9936 20.904 90.8728 21.3874C90.8728 21.7499 90.5102 21.9915 90.2686 22.2332C89.5435 22.9582 88.5768 23.804 87.4892 23.4415C87.1267 23.3207 86.7641 22.9582 86.2808 22.9582C85.5557 22.8374 84.8307 23.5624 84.4682 24.1665C83.6223 25.3749 82.7764 26.8249 82.7764 28.3957C83.8639 29.1207 85.0724 29.4832 86.1599 30.0874C87.2475 30.8124 87.1267 31.2957 86.885 32.8665C86.6433 34.0749 85.314 33.7124 84.2265 34.1957C84.1056 34.3165 83.8639 34.3165 83.8639 34.4374C83.7431 34.5582 83.7431 34.7999 83.7431 35.0415C83.8639 36.3707 83.8639 37.3374 84.4682 38.5457C84.9515 39.3915 85.5557 40.8415 86.5225 40.5999C87.0058 40.479 87.9726 39.6332 88.5768 39.5124C89.0601 39.3915 90.1477 40.8415 89.906 41.3249C89.7852 41.5665 89.5435 41.6874 89.3018 41.929C88.6976 42.4124 88.6976 43.379 89.0601 43.9832C89.4227 44.5874 90.1477 45.0707 90.7519 45.4332C91.3561 45.7957 92.3229 46.3999 93.0479 46.279C93.2896 46.279 93.4104 46.279 93.4104 46.279Z" fill="#930012"/>
<path d="M102.958 28.1541C102.595 27.9124 102.112 27.6707 101.749 27.6707C100.541 27.4291 99.3323 27.5499 98.2447 28.2749C97.7614 28.6374 97.1572 28.9999 96.7946 29.4832C96.3113 30.2082 96.1904 31.2957 96.1904 32.1416C96.1904 32.7457 96.3113 33.4707 96.553 34.0749C97.3989 35.7666 100.178 36.3707 101.87 35.8874C103.078 35.5249 104.287 34.7999 105.012 33.7124C105.737 32.6249 105.858 31.1749 105.254 30.0874C104.77 29.2416 103.803 28.6374 102.958 28.1541Z" fill="white"/>
<path d="M4.47133 124.942C3.98796 124.58 3.5046 124.338 2.90039 124.338C2.6587 124.7 2.29618 124.7 1.93365 124.821C1.08776 125.063 0.241868 125.788 0.000184536 126.634C-0.120657 127.359 0.121026 128.084 0.483552 128.688C0.846077 129.292 1.45029 129.655 2.0545 130.138C4.35049 131.95 8.57995 135.938 8.94248 135.455C9.54669 134.609 8.94248 133.521 8.7008 132.555C8.09659 130.38 7.37154 128.325 6.04228 126.513C5.67975 125.909 5.07554 125.425 4.47133 124.942Z" fill="#3F3F3F"/>
<path d="M58.7291 137.992C58.2458 137.388 57.5207 137.025 56.7957 136.784C55.7081 136.421 54.7414 136.179 53.5329 136.059C53.1704 136.059 52.8079 136.059 52.5662 136.3C52.4454 136.421 52.4454 136.663 52.3245 136.904C52.2037 137.992 51.962 139.079 51.7203 140.167C51.4786 141.013 51.3578 141.979 52.0828 142.463C52.3245 142.584 52.5662 142.584 52.8079 142.704C56.4332 143.188 60.0584 143.792 63.5628 144.759C64.167 144.879 64.6504 145 65.2546 144.879C65.8588 144.759 66.2213 144.154 66.1005 143.55C65.9797 143.188 65.6171 143.067 65.3754 142.825C63.2003 141.738 60.7835 141.013 59.4542 139.079C59.2125 138.717 58.9708 138.354 58.7291 137.992Z" fill="#3F3F3F"/>
<path d="M60.0588 138.596C60.7838 133.158 62.5964 128.083 63.5632 122.646C63.8049 121.679 63.9257 120.592 63.8049 119.625C63.684 118.537 63.0798 117.571 62.5964 116.483C59.4545 110.683 55.1042 105.608 50.8748 100.654C50.2706 99.9291 49.5455 99.0833 48.8205 98.4791C47.9746 97.7541 46.887 97.3916 45.9203 97.0291C42.8992 95.9416 39.5156 95.7 36.3738 96.3041C34.8028 96.5458 33.8361 96.9083 32.7485 98.1166C31.6609 99.0833 30.815 100.292 30.09 101.5C28.7607 103.554 27.5523 105.729 25.7397 107.421C24.7729 108.267 23.5645 109.112 23.0812 110.321C22.5978 111.408 22.8395 112.737 21.9936 113.583C21.3894 114.308 20.3018 114.429 19.3351 114.55C14.3806 115.396 10.3928 118.9 6.16331 121.679C4.7132 122.646 3.02142 123.25 1.93384 124.7C1.813 124.942 1.93384 125.183 2.05469 125.304C3.02142 126.392 4.109 127.479 5.19657 128.446C5.67994 128.929 6.16331 129.412 6.88836 129.654C7.13004 129.775 7.37173 129.775 7.61341 129.775C8.58014 129.775 8.94267 128.446 9.78856 128.083C14.9848 126.029 18.9725 121.679 24.2896 119.867C25.9814 119.262 29.7275 118.658 30.4525 116.725C30.5734 116.362 30.6942 115.879 30.815 115.396C31.0567 114.792 31.5401 114.308 31.9026 113.946C33.111 112.737 34.4403 111.408 35.6487 110.079C37.4613 108.267 39.274 106.454 40.9658 104.642C41.2074 104.4 41.8116 104.4 42.0533 104.521C44.1076 110.321 47.4912 116 52.8082 119.021C53.2916 119.262 53.775 119.504 54.1375 119.867C54.7417 120.471 54.9834 121.437 54.9834 122.283C55.3459 127.479 51.5998 132.312 52.0832 137.508C52.0832 137.629 52.0832 137.871 52.204 137.992C52.204 138.112 52.3249 138.233 52.3249 138.233C52.4457 138.354 52.5666 138.475 52.8082 138.475C54.2584 138.837 55.8293 138.958 57.4002 138.958C58.1253 138.958 58.8503 139.079 59.6962 139.079C59.8171 139.079 59.9379 139.079 60.0588 138.958C60.0588 138.958 60.0588 138.837 60.1796 138.717C60.0588 138.717 60.0588 138.837 60.0588 138.596Z" fill="#6E6877"/>
<path d="M50.9952 99.4462C48.82 99.8087 46.524 100.05 44.3489 100.171C40.482 100.292 36.7359 99.6879 33.1106 98.4795C32.3856 98.4795 32.2647 97.7545 32.3856 97.0295C32.3856 96.3045 32.8689 95.7004 33.2314 95.0962C35.1649 91.8337 36.1316 88.0879 36.0108 84.2212C35.89 82.5295 35.6483 80.8379 35.6483 79.1462C35.5274 76.2462 36.2525 73.3462 37.5818 70.8087C38.4276 69.2379 39.5152 67.7879 41.0862 67.0629C42.6571 66.3379 44.7114 66.4587 45.9198 67.667C46.2824 68.0295 46.524 68.392 46.6449 68.8754C48.095 71.5337 48.82 74.4337 48.82 77.4545C48.82 78.7837 48.6992 80.1129 48.9409 81.442C49.0617 82.4087 49.4243 83.2545 49.7868 84.1004C51.3577 88.3295 52.0828 92.8004 52.9287 97.2712C53.0495 97.7545 53.0495 98.3587 52.8078 98.7212C52.4453 99.4462 51.7202 99.4462 50.9952 99.4462Z" fill="#930012"/>
<path d="M119.271 124.459C115.404 124.7 111.416 124.459 107.549 123.854C105.737 123.492 103.561 123.009 102.716 121.317C102.111 120.109 102.232 118.659 103.078 117.571C103.924 116.484 105.374 116.121 106.703 116.484C107.066 116.604 107.428 116.725 107.67 117.088C108.395 117.813 108.395 119.021 109.241 119.746C109.604 119.625 109.724 119.021 109.845 118.659C110.208 117.692 111.174 117.088 112.141 117.088C113.108 117.209 114.075 117.934 114.195 118.9C114.195 119.142 114.316 119.504 114.558 119.504C114.921 119.625 115.041 119.142 115.162 118.9C115.646 117.692 116.854 116.363 118.425 116.967C119.633 117.45 119.029 119.021 119.633 119.988C120.721 119.142 121.809 118.538 123.138 118.659C123.863 118.659 124.709 118.9 125.071 119.504C125.555 120.109 125.555 120.954 125.313 121.559C125.071 122.284 124.588 122.767 123.984 123.25C122.654 124.217 120.963 124.459 119.271 124.459Z" fill="#DDDBA4"/>
<path d="M129.059 88.5712C129.542 89.9004 130.63 90.8671 131.959 91.5921C133.168 92.3171 134.497 92.8004 135.826 93.1629C136.189 92.0754 136.31 90.7462 135.464 90.1421C134.255 89.1754 135.343 86.6379 134.86 85.1879C134.376 83.6171 133.409 82.4087 132.08 81.5629C130.63 80.7171 127.972 80.3546 127.609 81.9254C126.884 85.1879 128.817 88.0879 129.059 88.5712Z" fill="#FFD8AE"/>
<path d="M141.989 89.4165C140.781 88.8124 139.451 88.2082 138.122 88.329C136.793 88.329 135.343 89.054 134.859 90.3832C134.618 91.1082 134.618 91.954 134.739 92.679C134.859 94.0082 134.98 95.3374 134.98 96.6665C134.98 97.1499 135.101 97.6332 135.343 97.8749C135.947 98.7207 137.035 98.8415 138.243 98.3582C138.364 98.3582 139.331 99.204 140.056 100.775C141.627 104.521 139.693 105.971 140.66 106.937C142.593 106.575 144.648 105.729 146.581 105.367C148.152 105.125 149.723 104.762 151.052 104.037C151.173 103.917 151.294 103.796 151.415 103.675C151.656 103.192 151.052 102.708 150.69 102.346C149.36 101.379 148.394 99.929 148.152 98.3582C147.789 97.3915 144.527 90.7457 141.989 89.4165Z" fill="#930012"/>
<path d="M152.865 88.088C152.503 87.6047 152.261 87.1213 151.898 86.638C152.261 86.2755 152.261 85.913 152.744 85.6713C156.611 82.8922 161.324 80.7172 163.62 76.6088C164.224 75.6422 164.345 74.5547 163.983 73.4672C163.862 73.1047 163.62 72.3797 164.103 72.2588C164.466 72.138 164.829 72.863 165.312 72.7422C165.554 71.8963 165.674 70.9297 166.279 70.2047C166.883 69.4797 168.575 69.7213 169.058 70.5672C170.146 72.2588 167.487 75.2797 166.762 77.0922C165.433 80.2338 164.587 81.563 162.17 83.9797C159.753 86.3963 156.732 88.2088 153.469 89.0547C153.228 88.5713 153.107 88.3297 152.865 88.088Z" fill="#FFD8AE"/>
<path d="M103.561 6.88759C104.286 6.40426 105.132 5.80009 105.253 4.95426C105.374 4.59176 106.582 1.08759 102.353 0.120923C101.145 -0.120744 100.057 8.92635e-05 99.0902 0.725089C98.6069 1.08759 98.1235 1.57092 97.8818 2.17509C97.3984 2.90009 97.2776 3.86676 97.5193 4.71259C97.761 5.43759 98.3652 5.92092 99.4528 6.64592C100.057 7.12926 100.057 8.21676 100.057 8.94176C100.057 9.06259 100.057 9.18342 100.178 9.18342C100.299 9.30426 100.299 9.30426 100.419 9.30426C100.903 9.54592 101.386 9.66676 101.87 9.66676C102.353 9.66676 102.836 9.42509 103.078 8.94176C103.32 8.33759 102.957 7.37092 103.561 6.88759Z" fill="#FFD8AE"/>
<path d="M102.353 4.59183C102.353 4.1085 102.232 3.746 102.111 3.26267C101.99 3.021 101.748 2.77933 101.507 3.021C101.265 3.62517 101.023 4.22933 101.023 4.8335C101.386 4.8335 101.748 4.8335 101.99 4.8335C102.111 4.8335 102.232 4.8335 102.232 4.8335C102.353 4.71267 102.353 4.71267 102.353 4.59183Z" fill="#FFB294"/>
<path d="M129.18 86.1538C129.301 86.5163 129.059 86.8788 128.817 86.8788C127.971 87.1205 127.246 86.9997 126.401 86.9997C126.159 86.9997 125.917 86.758 126.038 86.3955C126.159 85.9122 126.521 85.5497 126.884 85.1872C127.246 84.7038 127.609 83.7372 127.971 83.858C128.334 84.0997 129.18 86.1538 129.18 86.1538Z" fill="#FFB294"/>
<path d="M82.6561 27.0671C82.6561 27.4296 82.6561 27.7921 82.7769 28.1546C83.0186 29.2421 83.8645 30.088 84.8312 30.4505C84.952 30.4505 84.9521 30.4505 85.0729 30.4505C85.1937 30.4505 85.1937 30.3296 85.1937 30.3296C85.5563 29.8463 85.5563 29.2421 85.4354 28.638C85.3146 28.0338 85.1937 27.5505 85.3146 26.9463C85.6771 26.9463 86.1605 27.0671 86.523 27.0671C86.7647 27.0671 87.0064 27.0671 87.1272 26.9463C87.248 26.8255 87.248 26.463 87.1272 26.3421C87.0064 26.2213 86.7647 26.1005 86.6438 25.9796C85.7979 25.6171 84.9521 25.1338 84.1062 25.1338C83.6228 25.1338 83.0186 25.3755 82.6561 25.8588C82.5352 26.3421 82.5352 26.7046 82.6561 27.0671Z" fill="#FFD8AE"/>
<path d="M116.613 29.6045C116.613 29.7253 116.613 29.8462 116.734 29.967L116.854 30.0878C117.217 30.3295 117.7 30.2087 118.063 29.967C118.425 29.7253 118.667 29.3628 118.909 29.0003C119.392 28.1545 119.755 27.067 119.875 26.1003C119.996 25.617 119.996 25.2545 119.634 24.892C119.392 24.6503 119.15 24.5295 118.788 24.4087C118.425 24.2878 117.942 24.167 117.579 24.167C117.338 24.167 117.096 24.2878 116.854 24.4087C116.492 24.5295 116.008 24.7712 115.646 25.0128C115.283 25.2545 114.921 25.617 114.921 26.1003C114.921 26.2212 114.921 26.2212 114.921 26.342C115.042 26.4628 115.042 26.4628 115.163 26.4628C115.646 26.4628 116.129 26.4628 116.613 26.342C116.734 26.342 116.854 26.342 116.975 26.4628C116.975 26.4628 117.096 26.5837 117.096 26.7045C117.096 27.1878 116.854 27.6712 116.734 28.2753C116.613 28.517 116.492 29.1212 116.613 29.6045Z" fill="#FFD8AE"/>
<path d="M68.6384 30.3296C68.7593 30.6921 69.001 31.1755 69.3635 31.0546C69.6052 30.2088 69.726 29.363 70.2094 28.5171C70.9344 27.4296 72.9887 26.463 74.318 27.0671C74.8014 27.3088 75.1639 27.6713 75.5264 28.1546C76.3723 29.1213 76.7348 30.2088 76.614 31.538C76.3723 33.2296 75.043 34.6796 73.4721 35.4046C71.9012 36.1296 70.2094 36.3713 68.3967 36.4921C65.134 36.8546 61.8713 37.2171 58.6086 37.5796C57.8835 37.7005 57.0376 37.7005 56.3126 37.4588C55.7084 37.338 55.225 36.9755 54.8625 36.613C54.2583 36.1296 53.5332 35.4046 53.2915 34.6796C52.929 33.2296 54.1374 31.7796 55.5875 31.1755C57.1585 30.5713 59.0919 30.6921 60.542 31.538C60.7837 31.6588 61.1462 31.9005 61.3879 31.6588C61.5088 31.538 61.5088 31.4171 61.5088 31.2963C61.6296 30.3296 61.7504 29.2421 62.4755 28.3963C63.3214 27.3088 64.8923 27.0671 66.1008 27.4296C67.3092 27.913 68.2759 29.0005 68.6384 30.3296Z" fill="#DDDBA4"/>
<path d="M147.668 19.2123C147.668 19.454 147.668 19.8165 147.789 20.0582C147.91 20.2998 148.152 20.5415 148.393 20.5415C148.635 20.5415 148.756 20.2998 148.877 20.179C149.602 19.5748 150.448 19.3332 151.294 19.454C151.656 19.454 152.019 19.6957 152.381 19.9373C152.744 20.2998 152.865 20.904 152.744 21.5082C152.623 22.1123 152.26 22.4748 151.898 22.9582C150.327 24.6498 148.031 25.3748 145.856 25.7373C140.901 26.5832 135.584 26.0998 130.871 24.2873C129.421 23.6832 127.609 22.8373 126.884 21.3873C126.279 20.179 126.884 18.6082 128.092 18.004C128.575 17.7623 131.717 17.6415 131.596 18.4873C131.717 17.3998 132.442 16.3123 133.53 16.0707C134.497 15.829 135.222 16.1915 135.826 16.9165C135.947 17.0373 137.276 19.0915 137.397 18.9707C137.88 17.8832 138.726 17.0373 139.814 16.7957C140.297 16.6748 140.78 16.554 141.264 16.6748C142.351 17.0373 142.835 18.3665 143.197 19.454C143.681 18.729 144.285 18.004 145.251 17.7623C146.218 17.3998 147.427 18.2457 147.668 19.2123Z" fill="#DDDBA4"/>
<path d="M165.07 46.5213C166.037 46.038 166.52 44.8296 167.487 44.8296C168.212 44.8296 168.574 45.4338 168.937 46.038C169.662 47.1255 170.145 48.3338 170.508 49.5421C170.629 49.7838 170.629 50.1463 170.508 50.388C170.387 50.6296 170.145 50.7505 169.904 50.8713C168.816 51.4755 167.608 51.838 166.641 52.563C166.52 52.6838 166.278 52.8046 166.278 52.9255C166.158 53.1671 166.158 53.5296 166.278 53.8921C166.52 54.6171 167.003 57.0338 167.487 57.1546C167.97 57.2755 168.574 57.0338 169.058 56.913C170.508 56.5505 170.87 57.638 170.87 58.9671C170.749 60.1755 170.749 61.5046 170.629 62.713C170.629 62.8338 170.629 62.9546 170.629 62.9546C170.508 63.0755 170.266 63.1963 170.145 63.1963C169.541 63.1963 168.937 63.0755 168.333 63.3171C167.608 63.6796 167.608 64.7671 167.245 65.3713C166.883 66.0963 166.762 66.9421 166.762 67.788C166.762 68.0296 166.762 68.1505 167.003 68.3921C167.124 68.513 167.245 68.513 167.487 68.6338C168.212 68.8755 168.937 69.6005 168.695 70.3255C168.574 70.5671 168.454 70.8088 168.212 71.0505C167.487 72.0171 166.762 72.863 165.916 73.8296C165.795 74.0713 165.553 74.313 165.312 74.313C164.587 74.4338 164.224 73.588 163.499 73.3463C163.016 73.2255 162.411 73.588 162.049 73.9505C161.324 74.6755 160.478 75.4005 159.753 76.1255C159.632 76.2463 159.632 76.2463 159.511 76.3671C159.511 76.488 159.511 76.7296 159.632 76.8505C160.115 77.5755 160.84 78.3005 160.72 79.1463C160.72 79.6296 160.357 79.9921 159.874 80.3546C159.511 80.5963 159.028 80.7171 158.544 80.838C157.94 80.9588 157.457 81.2005 156.853 81.3213C156.128 81.563 155.282 81.6838 154.678 81.2005C154.315 80.838 154.073 80.3546 153.832 79.9921C153.59 79.5088 152.986 79.0255 152.502 79.0255C151.656 79.388 150.69 79.8713 149.844 80.2338C149.36 80.4755 148.877 80.7171 148.877 81.2005C148.877 81.6838 149.24 82.0463 149.36 82.4088C149.481 82.8921 149.24 83.2546 148.877 83.6171C148.515 83.8588 148.152 83.9796 147.669 84.1005C146.098 84.463 144.527 84.5838 142.956 84.3421C142.714 84.3421 142.473 84.2213 142.352 84.1005C142.11 83.8588 142.11 83.6171 142.11 83.3755C142.11 82.6505 142.11 82.0463 141.747 81.4421C141.506 80.838 140.902 80.3546 140.177 80.3546C139.451 80.3546 138.847 79.9921 138.243 79.8713C137.639 79.6296 136.793 79.6296 136.31 80.113C135.826 80.5963 135.826 81.4421 135.343 81.9255C135.222 82.0463 135.101 82.1671 134.98 82.1671C134.859 82.1671 134.859 82.1671 134.739 82.1671C133.289 81.563 131.838 80.9588 130.267 80.3546C129.663 80.113 128.938 79.7505 128.817 79.1463C128.697 78.663 128.938 78.0588 129.301 77.6963C129.542 77.3338 129.784 76.9713 130.026 76.488C130.147 76.3671 130.267 76.1255 130.267 76.0046C130.267 75.763 130.147 75.6421 130.026 75.5213C129.422 74.7963 128.576 73.9505 127.609 74.0713C127.005 74.1921 126.521 74.6755 125.917 75.038C125.434 75.4005 124.709 75.6421 124.225 75.1588C123.259 74.1921 122.413 73.2255 121.567 72.138C121.204 71.6546 120.721 71.0505 120.842 70.4463C120.842 69.6005 121.688 68.9963 122.413 68.513C122.896 68.1505 123.38 67.9088 123.863 67.5463C123.984 67.4255 124.105 67.3046 124.225 67.1838C124.346 67.063 124.225 66.8213 124.225 66.7005C124.105 65.8546 123.742 65.0088 123.017 64.5255C122.413 64.0421 121.567 64.2838 120.842 64.6463C120.117 65.0088 119.271 65.2505 118.667 64.7671C118.425 64.5255 118.304 64.163 118.183 63.8005C117.942 62.9546 117.821 61.988 117.579 61.1421C117.458 60.538 117.337 59.9338 117.458 59.4505C117.7 58.7255 118.304 58.2421 119.029 58.0005C119.754 57.7588 120.479 57.638 121.204 57.3963C121.688 57.2755 122.171 57.0338 122.413 56.5505C122.775 55.9463 122.413 55.2213 122.05 54.6171C121.929 54.3755 121.809 54.1338 121.567 54.013C121.204 53.7713 120.842 53.8921 120.479 54.013C119.875 54.1338 119.392 54.1338 118.788 54.1338C118.667 54.1338 118.425 54.1338 118.304 54.013C118.183 53.8921 118.062 53.6505 118.062 53.5296C118.425 51.4755 118.425 49.7838 118.425 48.0921C118.425 47.6088 118.425 47.0046 118.908 46.6421C119.029 46.5213 119.15 46.5213 119.271 46.5213C120.117 46.4005 122.534 47.2463 123.259 46.5213C123.863 45.9171 125.192 43.863 125.313 42.6546C125.434 41.8088 124.709 41.2046 124.105 40.6005C123.621 40.1171 123.259 39.3921 123.984 38.6671C125.555 37.0963 129.905 36.2505 130.147 36.4921C130.509 36.7338 130.63 37.2171 130.751 37.5796C130.872 37.9421 131.113 38.4255 131.476 38.5463C131.838 38.6671 132.201 38.6671 132.563 38.5463C133.651 38.3046 134.98 37.8213 135.101 36.7338C135.222 35.7671 134.497 34.8005 135.101 34.0755C135.222 33.8338 135.585 33.713 135.826 33.5921C137.276 32.988 138.847 32.5046 140.418 32.3838C140.66 32.3838 141.022 32.3838 141.264 32.3838C141.747 32.5046 142.11 33.1088 142.231 33.5921C142.473 34.3171 142.593 35.4046 143.318 35.7671C144.164 36.1296 145.614 35.6463 146.46 35.6463C146.823 35.6463 147.065 35.6463 147.306 35.4046C148.152 34.9213 147.79 33.8338 148.756 33.3505C150.327 32.5046 153.227 33.713 154.436 34.8005C155.161 35.5255 155.403 36.3713 154.919 37.2171C154.436 37.9421 154.194 37.9421 155.04 38.4255C155.644 38.788 156.49 39.2713 157.215 39.2713C158.544 39.2713 158.544 37.5796 159.632 37.2171C160.72 36.9755 162.411 38.063 163.016 38.9088C164.224 40.238 164.707 40.963 164.466 41.688C164.345 42.1713 163.016 43.3796 162.774 43.5005C162.532 43.6213 162.411 43.9838 162.411 44.3463C162.411 44.7088 162.532 44.9505 162.774 45.1921C163.378 45.7963 164.224 47.0046 165.07 46.5213Z" fill="#D20109"/>
<path d="M139.814 60.8997C140.902 62.4706 142.835 63.1956 144.769 62.9539C147.065 62.5914 149.361 60.7789 149.361 58.3622C149.361 55.4622 147.065 52.8039 144.164 53.0456C142.956 53.1664 141.506 53.5289 140.66 54.2539C138.727 55.8247 138.485 59.0872 139.814 60.8997Z" fill="white"/>
<path d="M129.301 77.2124C128.697 77.4541 128.334 78.5416 128.576 79.1457C128.817 79.8707 129.422 80.3541 130.147 80.3541C130.63 80.3541 131.597 80.2332 131.959 79.8707C132.563 79.3874 132.322 78.2999 132.08 77.8166C131.838 77.5749 131.234 76.4874 129.301 77.2124Z" fill="#3F3F3F"/>
<path d="M133.168 80.8376C134.255 81.9251 134.255 83.6167 134.134 83.8584C132.322 83.4959 127.367 82.7709 127.247 82.1667C127.126 81.4417 127.972 79.5084 130.509 79.5084C131.355 79.3876 132.443 80.1126 133.168 80.8376Z" fill="#3F3F3F"/>
<path d="M152.019 85.0667C152.381 84.9458 152.744 84.9458 152.985 85.1875C153.227 85.3083 153.348 85.6708 153.469 85.9125C153.831 86.7583 154.073 87.6042 154.194 88.5708C154.194 88.8125 154.315 89.175 154.194 89.4167C154.073 89.7792 153.71 89.9 153.348 90.1417C149.964 91.5917 146.822 92.4375 143.076 92.8C142.351 92.9208 140.539 92.9208 139.814 92.8C138.726 92.5583 137.276 92.5583 137.034 90.2625C137.034 89.7792 137.034 88.8125 138.363 88.3292C139.814 87.725 141.989 87.725 144.406 87.4833C145.856 87.3625 147.306 86.8792 148.635 86.3958C149.723 85.9125 150.81 85.3083 152.019 85.0667Z" fill="#D20109"/>
<path d="M63.2002 81.4417C63.2002 80.5958 63.9252 80.5958 64.6503 80.2333C65.2545 79.9917 65.617 79.3875 65.9796 78.9042C66.3421 78.4208 66.8255 77.9375 67.5505 77.9375C67.913 78.7833 66.7046 79.5083 66.8254 80.3542C67.3088 80.9583 68.1547 80.9583 69.0006 80.9583C69.7257 80.8375 70.5715 80.7167 71.2966 80.8375C72.0216 80.9583 72.7467 81.6833 72.6259 82.4083C72.505 82.8917 72.0217 83.375 71.5383 83.4958C69.7257 84.3417 67.6713 83.9792 65.7379 83.4958C65.2545 83.375 64.6503 83.2542 64.1669 83.0125C63.5627 82.8917 63.2002 82.0458 63.2002 81.4417C63.2002 81.5625 63.2002 81.4417 63.2002 81.4417Z" fill="#FFD8AE"/>
<path d="M63.9257 80.354C64.6507 80.7165 65.4966 82.529 65.3758 83.254C65.1341 84.2206 63.4423 84.0998 62.7173 84.2206C58.9712 84.8248 55.2251 85.429 51.479 85.6706C50.9956 85.6706 50.5122 85.6706 50.1497 85.5498C49.7872 85.3081 49.4247 85.0665 49.183 84.704C48.5788 83.8581 47.8537 83.1331 47.2495 82.2873C45.9202 80.5956 44.591 79.0248 43.2617 77.3331C42.7784 76.729 42.1741 76.004 41.9325 75.279C41.5699 74.554 41.3283 73.9498 41.5699 73.2248C41.6908 72.4998 42.0533 71.8956 42.5367 71.2915C42.6575 71.1706 42.7784 71.0498 42.8992 71.0498C43.02 71.0498 43.1409 71.0498 43.2617 71.1706C45.316 70.929 46.7661 72.379 47.8537 74.1915C48.9413 76.004 49.5455 78.0581 50.9956 79.5081C51.3581 79.8706 51.8415 80.2331 52.3249 80.4748C52.8082 80.5956 53.2916 80.7165 53.775 80.7165C56.5543 80.8373 59.4545 80.5956 62.2339 80.2331C62.5964 80.2331 63.3215 80.1123 63.9257 80.354Z" fill="#D20109"/>
<path d="M48.337 61.9879C47.7328 62.592 47.1285 63.0754 46.6452 63.6795C46.2827 64.1629 46.1618 64.767 46.041 65.3712C45.9201 65.8545 45.7993 66.4587 45.6784 66.942C45.6784 67.1837 45.5576 67.4254 45.4368 67.5462C45.1951 67.667 45.0742 67.667 44.8325 67.667C44.1075 67.7879 43.2616 67.667 42.5366 67.4254C42.2949 67.3045 41.9323 67.1837 41.9323 66.942C41.8115 66.7004 42.0532 66.3379 42.174 66.0962C42.7782 65.1295 42.7782 63.8004 42.7782 62.7129C42.6574 60.9004 42.4157 59.0879 42.8991 57.2754C43.3824 55.5837 44.7117 53.892 46.5243 53.7712C48.337 53.6504 49.9079 55.2212 50.2704 57.0337C50.5121 58.8462 49.6662 60.6587 48.337 61.9879Z" fill="#FFD8AE"/>
<path d="M49.4247 59.0875C49.7872 60.175 50.1498 61.1417 50.2706 62.35V62.4709L50.1498 62.5917C49.4247 62.7125 48.8205 61.625 47.9746 61.7459C48.0955 60.7792 48.3371 59.8125 48.6997 58.9667C48.8205 58.6042 49.183 57.8792 49.4247 59.0875Z" fill="#FFB294"/>
<path d="M84.952 25.4964C85.6771 25.013 85.6771 23.9255 85.6771 23.0797C85.6771 22.113 85.7979 21.1464 86.1604 20.1797C86.6438 18.7297 87.6105 17.5214 88.6981 16.4339C90.1482 14.9839 91.9608 13.7755 93.8943 13.6547C94.7402 13.6547 95.8278 13.7755 96.5528 13.1714C97.3987 12.5672 97.7612 10.8755 97.7612 9.90885C97.7612 9.78802 97.7612 9.54635 97.6404 9.42552C97.5196 9.30469 97.2779 9.30469 97.0362 9.30469C93.0484 9.66719 88.5773 11.238 85.7979 14.0172C83.0185 16.7964 81.5684 21.2672 82.0518 25.2547C82.0518 25.738 82.1727 26.2214 82.656 26.3422C83.1394 26.5839 83.6227 26.1005 84.1061 25.8589C84.3478 25.738 84.7103 25.738 84.952 25.4964Z" fill="#930012"/>
<path d="M118.908 16.3125C117.941 14.0167 115.766 11.8417 113.47 10.875C110.691 9.66667 107.791 9.0625 104.77 9.0625C104.286 9.0625 103.924 9.425 103.924 9.90833C103.924 10.7542 104.045 11.7208 104.649 12.325C105.374 12.9292 106.582 12.8083 107.549 12.8083C109.483 12.8083 112.02 13.775 113.591 14.9833C115.041 16.3125 115.887 17.7625 116.25 19.6958C116.733 22.7167 116.371 24.1667 116.975 24.7708C117.216 25.0125 117.941 25.0125 118.304 25.1333C118.787 25.2542 119.271 25.4958 119.875 25.6167C119.996 25.6167 120.237 25.4958 120.237 25.375C120.358 23.925 120.237 19.4542 118.908 16.3125Z" fill="#930012"/>
<path d="M94.3774 30.9334C94.8608 30.9334 95.1024 30.5709 95.1024 30.2084C95.1024 29.7251 94.7399 29.4834 94.3774 29.4834C93.894 29.4834 93.6523 29.8459 93.6523 30.2084C93.6523 30.6917 94.0149 30.9334 94.3774 30.9334Z" fill="#DDD366"/>
<path d="M93.1687 31.9004C93.4104 31.9004 93.4104 31.9004 93.1687 31.9004C92.927 31.9004 92.8061 31.9004 92.6853 32.0212C92.4436 32.1421 92.3228 32.3837 92.3228 32.6254C92.2019 32.9879 92.4436 33.4712 92.927 33.5921C93.2895 33.7129 93.7729 33.4712 93.8937 32.9879C93.8937 32.6254 93.8937 32.3837 93.652 32.1421C93.652 32.2629 93.7729 32.3837 93.7729 32.3837C93.652 32.1421 93.5312 31.9004 93.1687 31.9004Z" fill="#DDD366"/>
<path d="M91.5981 36.1297C92.5648 36.1297 92.5648 34.6797 91.5981 34.6797C90.6314 34.6797 90.6314 36.1297 91.5981 36.1297Z" fill="#DDD366"/>
<path d="M90.3899 38.7874C91.4775 38.7874 91.4775 37.0957 90.3899 37.0957C89.3023 37.0957 89.3023 38.7874 90.3899 38.7874Z" fill="#DDD366"/>
<path d="M89.302 41.0835C90.2687 41.0835 90.2687 39.5127 89.302 39.5127C88.2144 39.5127 88.2144 41.0835 89.302 41.0835Z" fill="#DDD366"/>
<path d="M88.3352 43.6211C89.4228 43.6211 89.4228 41.8086 88.3352 41.8086C87.2476 41.9294 87.2476 43.6211 88.3352 43.6211Z" fill="#DDD366"/>
<path d="M86.885 46.1585C87.9726 46.1585 87.9726 44.4668 86.885 44.4668C85.7974 44.4668 85.7974 46.1585 86.885 46.1585Z" fill="#DDD366"/>
<path d="M86.1604 48.8167C86.6437 48.8167 87.0062 48.4542 87.0062 47.9708C87.0062 47.4875 86.6437 47.125 86.1604 47.125C85.677 47.125 85.3145 47.4875 85.3145 47.9708C85.3145 48.3333 85.677 48.8167 86.1604 48.8167Z" fill="#DDD366"/>
<path d="M84.1057 50.0254C83.9848 50.2671 83.7431 50.5087 83.864 50.7504C83.864 50.8712 83.864 51.1129 83.9848 51.2337L84.1057 51.3546C84.3474 51.4754 84.3474 51.4754 84.2265 51.4754C84.7099 51.9587 85.7975 51.4754 85.5558 50.7504C85.5558 50.8712 85.5558 50.9921 85.5558 51.1129C85.5558 50.9921 85.6766 50.7504 85.5558 50.6296C85.5558 50.5087 85.4349 50.1462 85.4349 50.3879C85.3141 50.1462 85.1933 49.9046 84.9516 49.9046C84.7099 49.7837 84.3474 49.7837 84.1057 50.0254Z" fill="#DDD366"/>
<path d="M83.6228 52.5625C83.5019 52.5625 83.3811 52.5625 83.3811 52.5625C83.1394 52.5625 82.7769 52.6833 82.6561 52.925C82.5352 53.1667 82.5352 53.5292 82.6561 53.7708C83.0186 54.2542 83.7436 54.2542 84.1062 53.7708C84.1062 53.7708 84.1062 53.8917 83.9853 53.8917C84.3478 53.5292 84.1062 52.6833 83.6228 52.5625Z" fill="#DDD366"/>
<path d="M82.897 56.1878V56.3087C83.2595 55.7045 82.7762 54.9795 82.172 54.9795C81.4469 54.9795 81.0844 55.8253 81.4469 56.4295C81.6886 56.9128 82.4136 57.0337 82.7762 56.5503C82.897 56.4295 82.897 56.4295 83.0178 56.3087C82.897 56.4295 82.7762 56.5503 82.6553 56.6712C82.4136 56.6712 82.172 56.6712 81.9303 56.792C82.172 56.9128 82.5345 56.792 82.7762 56.5503C82.5345 56.6712 82.4136 56.6712 82.172 56.792C82.172 56.792 82.172 56.792 82.2928 56.792C82.5345 56.792 82.7762 56.5503 82.897 56.1878Z" fill="#DDD366"/>
<path d="M81.4476 59.0876C81.4476 58.8459 81.3268 58.6042 81.206 58.4834C80.9643 58.2417 80.7226 58.1209 80.3601 58.2417C79.9975 58.3626 79.7559 58.7251 79.7559 59.0876C79.7559 59.9334 80.7226 60.1751 81.206 59.6917C81.0851 59.8126 80.9643 59.8126 80.8434 59.9334C81.206 59.8126 81.5685 59.4501 81.4476 59.0876Z" fill="#DDD366"/>
<path d="M79.7559 62.9541C80.9643 62.9541 80.9643 61.1416 79.7559 61.1416C78.5475 61.1416 78.5475 62.9541 79.7559 62.9541Z" fill="#DDD366"/>
<path d="M78.4262 65.8543C78.9096 65.8543 79.1513 65.4918 79.1513 65.1293C79.1513 64.646 78.7887 64.4043 78.4262 64.4043C77.9428 64.4043 77.7012 64.7668 77.7012 65.1293C77.5803 65.4918 77.9428 65.8543 78.4262 65.8543Z" fill="#DDD366"/>
<path d="M76.6133 68.1505C76.6133 68.3922 76.7341 68.6339 76.9758 68.8755C77.3383 69.238 77.7009 69.238 78.0634 68.8755C78.3051 68.6339 78.3051 68.3922 78.4259 68.1505C78.5468 67.6672 77.9425 67.3047 77.58 67.3047C77.0966 67.3047 76.6133 67.6672 76.6133 68.1505Z" fill="#DDD366"/>
<path d="M75.8885 71.5333C75.8885 71.5333 75.8885 71.6541 75.8885 71.5333C76.1302 72.1374 77.0969 72.1374 77.3386 71.5333C77.4594 71.2916 77.4594 70.9291 77.3386 70.6874C77.2177 70.4458 76.8552 70.2041 76.6135 70.2041C76.3719 70.2041 76.0093 70.3249 75.8885 70.6874C75.7676 70.9291 75.7676 71.2916 75.8885 71.5333Z" fill="#DDD366"/>
<path d="M75.6465 74.917C76.855 74.917 76.855 73.1045 75.6465 73.1045C74.4381 73.2253 74.4381 74.917 75.6465 74.917Z" fill="#DDD366"/>
<path d="M75.164 78.1794C75.6474 78.1794 76.1307 77.6961 76.1307 77.2128C76.1307 76.7294 75.6474 76.2461 75.164 76.2461C74.6806 76.2461 74.1973 76.7294 74.1973 77.2128C74.3181 77.8169 74.6806 78.1794 75.164 78.1794Z" fill="#DDD366"/>
<path d="M75.164 81.4421C75.6474 81.4421 76.1307 80.9588 76.1307 80.4755C76.1307 79.9921 75.7682 79.5088 75.164 79.5088C74.5598 79.5088 74.1973 79.8713 74.1973 80.4755C74.1973 81.0796 74.6806 81.4421 75.164 81.4421Z" fill="#DDD366"/>
<path d="M75.6474 84.5837C76.1308 84.5837 76.6141 84.1004 76.6141 83.6171C76.6141 83.1337 76.1308 82.6504 75.6474 82.6504C75.164 82.6504 74.6807 83.1337 74.6807 83.6171C74.6807 84.1004 75.0432 84.5837 75.6474 84.5837Z" fill="#DDD366"/>
<path d="M78.0634 85.7919C78.0634 85.6711 77.9425 85.6711 77.9425 85.5503C77.7008 85.1878 77.2175 85.3086 76.8549 85.4294C76.7341 85.5503 76.6133 85.6711 76.4924 85.7919C76.1299 86.3961 76.6133 87.2419 77.3383 87.2419C77.9425 87.2419 78.4259 86.3961 78.0634 85.7919Z" fill="#DDD366"/>
<path d="M79.3926 88.8125C80.6011 88.8125 80.6011 87 79.3926 87C78.1842 87 78.1842 88.8125 79.3926 88.8125Z" fill="#DDD366"/>
<path d="M82.1721 89.2962C82.6554 89.2962 83.0179 88.9337 83.0179 88.4503C83.0179 87.967 82.6554 87.6045 82.1721 87.6045C81.6887 87.6045 81.3262 87.967 81.3262 88.4503C81.3262 88.9337 81.6887 89.2962 82.1721 89.2962Z" fill="#DDD366"/>
<path d="M85.7981 87.967C85.5564 87.4837 84.8314 87.4837 84.5897 87.967C84.348 88.4503 84.5897 89.0545 85.1939 89.0545C85.6773 89.0545 86.0398 88.4503 85.7981 87.967Z" fill="#DDD366"/>
<path d="M87.4897 87.604C88.4564 87.604 88.4564 86.0332 87.4897 86.0332C86.523 86.0332 86.523 87.604 87.4897 87.604Z" fill="#DDD366"/>
<path d="M89.302 85.1878C89.7853 85.1878 90.1478 84.8253 90.1478 84.3419C90.1478 83.8586 89.7853 83.4961 89.302 83.4961C88.8186 83.4961 88.4561 83.8586 88.4561 84.3419C88.4561 84.8253 88.8186 85.1878 89.302 85.1878Z" fill="#DDD366"/>
<path d="M90.631 82.6497C91.1144 82.6497 91.4769 82.2872 91.4769 81.8038C91.4769 81.3205 91.1144 80.958 90.631 80.958C90.1477 80.958 89.7852 81.3205 89.7852 81.8038C89.7852 82.2872 90.1477 82.6497 90.631 82.6497Z" fill="#DDD366"/>
<path d="M91.5986 79.9919C92.0819 79.9919 92.5653 79.5086 92.5653 79.0253C92.5653 78.5419 92.0819 78.0586 91.5986 78.0586C91.1152 78.0586 90.6318 78.5419 90.6318 79.0253C90.6318 79.6294 91.1152 79.9919 91.5986 79.9919Z" fill="#DDD366"/>
<path d="M92.6858 77.0921C93.7734 77.0921 93.7734 75.4004 92.6858 75.4004C91.5982 75.4004 91.5982 77.0921 92.6858 77.0921Z" fill="#DDD366"/>
<path d="M95.7072 28.2747C96.1906 28.2747 96.5531 27.9122 96.5531 27.4288C96.5531 26.9455 96.1906 26.583 95.7072 26.583C95.2238 26.583 94.8613 26.9455 94.8613 27.4288C94.8613 27.9122 95.2238 28.2747 95.7072 28.2747Z" fill="#DDD366"/>
<path d="M96.7939 25.6166C96.7939 25.7374 96.7939 25.8582 96.7939 25.8582C96.9148 26.2207 97.3982 26.5832 97.7607 26.4624H97.6398C98.2441 26.4624 98.4857 25.8582 98.2441 25.3749C98.2441 25.7374 98.1232 25.9791 98.1232 26.3416C98.3649 26.0999 98.3649 25.8583 98.3649 25.6166V25.7374C98.3649 25.2541 98.0024 24.8916 97.519 24.8916C97.1565 24.7708 96.9148 25.1333 96.7939 25.6166Z" fill="#DDD366"/>
<path d="M100.178 26.0999C100.661 26.0999 101.024 25.7374 101.024 25.254C101.024 24.7707 100.661 24.4082 100.178 24.4082C99.6946 24.4082 99.332 24.7707 99.332 25.254C99.332 25.7374 99.6946 26.0999 100.178 26.0999Z" fill="#DDD366"/>
<path d="M102.836 26.4627C103.199 26.4627 103.561 26.1002 103.561 25.7377C103.561 25.3752 103.199 25.0127 102.836 25.0127C102.474 25.0127 102.111 25.3752 102.111 25.7377C102.111 26.1002 102.353 26.4627 102.836 26.4627Z" fill="#DDD366"/>
<path d="M104.286 27.4296C104.407 27.6713 104.649 27.913 105.011 27.913C105.374 27.913 105.615 27.913 105.857 27.6713C106.099 27.4296 106.219 26.8255 105.978 26.5838C105.857 26.3421 105.736 26.2213 105.494 26.1005C105.132 25.8588 104.649 25.9796 104.407 26.2213C104.165 26.5838 104.044 27.0671 104.286 27.4296Z" fill="#DDD366"/>
<path d="M107.67 29.9666C108.274 29.6041 108.274 28.6374 107.67 28.3957C107.066 28.0332 106.22 28.5166 106.22 29.2416C106.22 29.8457 107.066 30.3291 107.67 29.9666Z" fill="#DDD366"/>
<path d="M107.67 32.8672C108.878 32.8672 108.878 31.0547 107.67 31.0547C106.462 31.0547 106.462 32.8672 107.67 32.8672Z" fill="#DDD366"/>
<path d="M107.187 36.0085C108.395 36.0085 108.395 34.0752 107.187 34.0752C105.978 34.0752 105.978 36.0085 107.187 36.0085Z" fill="#DDD366"/>
<path d="M105.737 38.0628C106.1 38.5462 106.704 38.5462 107.066 38.0628C107.187 37.8212 107.187 37.4587 107.066 37.217C106.945 36.9753 106.704 36.8545 106.341 36.8545C106.1 36.8545 105.737 36.9753 105.616 37.217C105.616 37.4587 105.616 37.8212 105.737 38.0628Z" fill="#DDD366"/>
<path d="M105.495 41.0837C105.978 41.0837 106.462 40.7212 106.462 40.1171C106.462 39.6337 106.099 39.1504 105.495 39.1504C105.012 39.1504 104.528 39.5129 104.528 40.1171C104.649 40.6004 105.012 41.0837 105.495 41.0837Z" fill="#DDD366"/>
<path d="M104.649 43.7415C105.736 43.7415 105.736 42.0498 104.649 42.0498C103.561 42.0498 103.561 43.7415 104.649 43.7415Z" fill="#DDD366"/>
<path d="M104.287 46.4C104.649 46.0375 104.649 45.4333 104.287 45.1916C103.683 44.5875 102.716 45.0708 102.716 45.7958C102.716 46.5208 103.683 47.0041 104.287 46.4Z" fill="#DDD366"/>
<path d="M102.716 49.6626C104.045 49.6626 104.045 47.6084 102.716 47.6084C101.386 47.6084 101.386 49.6626 102.716 49.6626Z" fill="#DDD366"/>
<path d="M101.749 52.1999C102.958 52.1999 102.958 50.2666 101.749 50.2666C100.541 50.3874 100.541 52.1999 101.749 52.1999Z" fill="#DDD366"/>
<path d="M100.42 54.9792C100.903 54.9792 101.387 54.4959 101.387 54.0126C101.387 53.5292 100.903 53.0459 100.42 53.0459C99.9365 53.0459 99.4531 53.5292 99.4531 54.0126C99.4531 54.6167 99.9365 54.9792 100.42 54.9792Z" fill="#DDD366"/>
<path d="M99.3323 57.7581C100.42 57.7581 100.42 56.0664 99.3323 56.0664C98.2447 56.0664 98.2447 57.7581 99.3323 57.7581Z" fill="#DDD366"/>
<path d="M98.4865 60.4163C98.9699 60.4163 99.3324 60.0538 99.3324 59.5704C99.3324 59.0871 98.9699 58.7246 98.4865 58.7246C98.0031 58.7246 97.6406 59.0871 97.6406 59.5704C97.6406 60.0538 98.0031 60.4163 98.4865 60.4163Z" fill="#DDD366"/>
<path d="M97.5197 63.0755C98.0031 63.0755 98.3656 62.713 98.3656 62.2296C98.3656 61.7463 98.0031 61.3838 97.5197 61.3838C97.0363 61.3838 96.6738 61.7463 96.6738 62.2296C96.6738 62.5921 97.0363 63.0755 97.5197 63.0755Z" fill="#DDD366"/>
<path d="M96.3107 65.7337C96.7941 65.7337 97.1566 65.3712 97.1566 64.8878C97.1566 64.4045 96.7941 64.042 96.3107 64.042C95.8274 64.042 95.4648 64.4045 95.4648 64.8878C95.4648 65.3712 95.8274 65.7337 96.3107 65.7337Z" fill="#DDD366"/>
<path d="M94.7396 68.6336C95.1021 68.9961 95.5855 68.9961 95.8272 68.6336C96.4314 68.1503 95.948 67.1836 95.2229 67.1836C94.6187 67.1836 94.1354 68.1503 94.7396 68.6336Z" fill="#DDD366"/>
<path d="M94.4983 71.5335C95.5859 71.5335 95.5859 69.8418 94.4983 69.8418C93.4107 69.8418 93.4107 71.5335 94.4983 71.5335Z" fill="#DDD366"/>
<path d="M93.6528 74.313C94.6195 74.313 94.6195 72.7422 93.6528 72.7422C92.6861 72.7422 92.6861 74.313 93.6528 74.313Z" fill="#DDD366"/>
</svg>
