<svg width="130" height="148" viewBox="0 0 130 148" fill="none" xmlns="http://www.w3.org/2000/svg">
<path d="M55.3861 33.6884C55.5951 30.768 55.1771 28.995 58.7301 28.4735C60.6112 28.1606 64.5822 28.7864 64.6867 26.7004C64.8957 22.3198 64.8957 15.3318 63.3282 15.1232C54.3411 14.0802 21.7366 13.4544 21.8411 15.8533C22.0501 21.2768 22.2591 26.5961 24.3491 27.0133C25.3941 27.2219 34.2768 26.7004 34.3813 28.5778C34.6948 33.5841 34.0678 38.5904 33.8588 43.7011C33.6498 48.0816 33.5452 52.4622 33.3362 56.8427C33.3362 57.5728 33.3362 58.5115 34.0678 58.8244C34.2768 58.9287 34.4858 58.9287 34.6948 59.033C39.9198 59.6588 45.1449 60.1803 50.37 60.7018C51.1015 60.8061 51.833 60.8061 52.5645 60.5975C53.2961 60.3889 53.9231 59.7631 53.9231 59.033L55.3861 33.6884Z" fill="#3F3F3F"/>
<path d="M8.88289 59.0329C10.0324 55.591 12.6449 52.775 13.1675 49.2288C13.3765 47.8729 13.481 46.4127 13.272 45.0569C12.9584 42.9709 12.2269 41.0935 11.4954 39.1118C10.6594 37.1301 9.9279 35.0442 9.09189 33.0625C8.67388 31.9152 8.15138 30.6636 8.46488 29.412C8.77839 28.1604 10.1369 27.2218 11.2864 27.7433C11.2864 26.3874 11.3909 24.9272 11.2864 23.5713C11.2864 22.9455 11.2864 22.3197 11.4954 21.6939C11.7044 21.0681 12.3314 20.6509 12.9584 20.7552C13.481 20.8595 13.7945 21.2767 14.108 21.5896C17.661 26.2831 17.661 32.7496 19.124 38.5903C19.2285 39.0075 19.4375 39.529 19.7511 39.8419C20.1691 40.1548 20.7961 40.0505 20.9006 39.6333C21.7366 37.0258 25.2896 36.1915 28.0067 36.4001C30.7237 36.6087 33.3363 38.2774 34.6948 40.7806C35.0083 41.4064 35.1128 42.4494 34.3813 42.5537C34.0678 42.5537 33.7543 42.4494 33.5453 42.2408C32.5002 41.5107 31.3507 40.9892 30.0967 40.572C29.1562 40.2591 28.2157 40.0505 27.1707 40.2591C26.2302 40.4677 25.2896 41.1978 25.0806 42.1365C24.8716 43.2838 25.7076 44.4311 26.7527 45.0569C28.1112 45.9955 29.7832 46.4127 31.4552 46.4127C32.2912 46.4127 33.0228 46.2041 33.8588 46.4127C34.5903 46.6213 35.4263 47.1428 35.4263 47.9772C35.4263 48.3944 35.2173 48.8116 34.9038 49.1245C34.1723 50.0632 32.9183 50.5847 31.7687 50.689C30.7237 50.689 29.5742 50.3761 28.7382 51.0019C28.3202 51.2105 28.1112 51.6277 27.7977 52.0449C24.8716 56.634 21.8411 61.3275 18.915 65.9166C17.1385 65.708 15.571 64.8736 14.0035 64.1435C12.7494 63.5177 11.4954 62.8919 10.2414 62.2662C9.4054 61.9533 8.67388 61.5361 8.25588 60.806C7.83787 60.0759 8.04687 59.2415 8.88289 59.0329Z" fill="#FFD8AE"/>
<path d="M7.62872 64.5608C6.16569 67.3769 4.49367 70.2973 3.44865 73.3219C2.50814 76.0337 1.77663 78.8498 0.522607 81.4572C-0.522409 83.5432 9.89698e-05 84.2733 2.19463 85.4206C3.65766 86.1507 6.6882 87.9238 8.25573 87.9238C8.88274 87.9238 9.50974 87.7152 9.82325 87.298C10.7638 86.1507 10.8683 84.0647 11.3908 82.7088C12.1223 80.9357 13.0628 79.267 13.6898 77.4939C14.7348 74.8864 15.7798 72.2789 16.9294 69.6715C17.1384 69.0457 17.4519 68.4199 17.1384 67.7941C16.7204 67.1683 15.8843 67.064 15.1528 66.9597C12.3313 66.3339 10.2413 63.2049 7.41971 63.6221C7.52421 64.0393 7.83772 64.1436 7.62872 64.5608Z" fill="#3F3F3F"/>
<path d="M99.7996 65.082C99.7996 64.9777 99.7996 64.8734 99.7996 64.7691C99.9041 63.8304 100.009 62.996 100.009 62.0573C100.009 61.3272 100.531 59.2413 99.7996 58.7198C99.5906 58.6155 99.3816 58.6155 99.1725 58.5112C97.0825 58.3026 91.6484 59.0327 90.9169 58.094C90.2899 57.3639 90.0809 55.4865 89.9764 53.922C89.8719 52.6704 88.9314 49.1243 89.9764 49.02C92.0664 48.8114 96.351 48.4985 98.441 48.2899C98.65 48.2899 98.9635 48.2899 99.068 48.0813C99.2771 47.8727 99.2771 47.5598 99.2771 47.3512C99.3816 44.2222 99.3816 41.0933 99.1725 38.0686C99.1725 37.86 99.1726 37.6514 99.068 37.4428C98.859 36.9213 98.1275 36.817 97.5005 36.817C94.7835 36.817 91.9619 36.9213 89.2449 37.2342C88.9314 37.2342 88.7224 37.3385 88.4089 37.2342C88.0954 37.1299 87.8864 37.1299 87.8864 36.9213C87.6774 34.7311 87.3639 32.4365 87.1549 30.2462C87.0504 28.8903 86.9459 28.2645 88.5134 28.1602C91.5439 28.0559 94.5745 27.743 97.605 27.1172C97.7095 27.1172 97.9185 27.0129 98.023 26.9086C98.232 26.7 98.1275 26.4914 98.1275 26.2828C97.9185 24.3012 98.023 22.3195 97.7095 20.2335C97.605 19.3991 97.5005 18.5647 97.396 17.7303C97.396 17.2089 97.396 16.6874 96.8735 16.2702C96.56 16.0616 96.2465 16.0616 95.933 16.0616C91.1259 15.9573 86.3188 15.853 81.6163 15.9573C79.2127 15.9573 76.8092 15.9573 74.4057 16.0616C73.3606 16.0616 71.6886 15.7487 70.7481 16.1659C69.5986 16.5831 69.9121 18.669 69.9121 19.6077C70.0166 21.3808 70.1211 23.2582 70.2256 25.0313C70.4346 27.8473 71.0616 48.9157 71.1661 52.9833C71.1661 55.0693 71.4796 59.0327 71.4796 61.1186C71.4796 62.0573 71.4796 62.996 71.4796 63.9347C71.3751 64.7691 71.3751 65.4992 72.1066 66.125C72.3156 66.2293 72.4201 66.3336 72.6291 66.4379C75.4507 66.9594 98.441 68.211 99.1725 67.168C99.6951 66.7508 99.7996 65.8121 99.7996 65.082Z" fill="#D20109"/>
<path d="M105.129 40.3633C107.323 40.7805 115.579 41.8235 114.638 37.8602C114.22 35.8785 114.952 33.6882 115.37 31.8108C115.788 29.6206 116.206 27.326 116.415 25.0314C116.937 20.5466 117.146 16.166 117.146 11.6812C117.146 9.90809 117.042 8.23931 116.833 6.46623C116.728 5.63184 116.833 3.44157 115.474 3.54587C114.638 3.54587 113.698 6.25764 113.384 4.48456C113.175 3.44157 113.384 2.29428 113.28 1.25129C113.28 0.938397 113.28 0.521202 112.966 0.208305C112.653 -0.104591 112.026 -0.104591 111.712 0.208305C111.294 0.521202 111.085 0.938397 110.981 1.35559C108.368 7.50922 108.786 14.3929 107.741 20.8595C107.637 21.2767 107.532 21.7982 107.01 21.9025C106.696 21.9025 106.487 21.7982 106.278 21.5896C105.547 20.7552 105.338 19.7122 104.92 18.6692C104.397 17.3133 103.561 16.2703 102.725 15.123C102.098 14.2886 101.367 13.4543 100.53 12.8285C98.754 11.6812 96.4549 12.0984 94.2604 12.0984C93.5289 12.0984 92.7974 12.6199 92.5884 13.35C92.2749 14.2886 92.3794 15.3316 93.2154 15.8531C94.4694 16.6875 96.3504 15.8531 97.709 16.4789C98.336 16.7918 98.754 17.209 99.0675 17.7305C101.158 20.6509 101.785 24.3013 101.785 27.8475C101.785 28.5776 101.785 29.412 101.262 29.9335C100.739 30.455 99.9035 30.5593 99.172 30.5593C98.6495 30.5593 98.127 30.5593 97.709 30.3507C96.8729 30.0378 96.2459 29.2034 95.5144 28.5776C94.7829 27.9518 93.6334 27.5346 92.9019 28.1604C92.5884 28.4733 92.3794 28.8905 92.3794 29.3077C92.1704 31.0808 93.6334 32.6452 95.2009 33.3753C96.7684 34.1054 98.545 34.314 100.217 34.8355C101.053 35.0441 101.785 35.4613 102.412 35.9828C103.039 36.6086 103.352 37.443 103.143 38.2774C103.039 38.7989 103.352 39.4247 103.77 39.7376C104.084 40.1547 104.606 40.259 105.129 40.3633Z" fill="#FFD8AE"/>
<path d="M114.847 41.1981C114.116 40.9895 113.28 41.4067 112.548 41.4067C111.294 41.4067 110.04 41.4067 108.786 41.4067C107.637 41.4067 104.397 40.8852 103.979 42.241C103.77 42.9711 103.875 43.4926 104.084 44.1184C104.293 44.9528 104.188 45.8915 104.293 46.8302C104.397 49.7506 104.502 51.6279 104.397 56.1128C104.293 59.2417 104.502 61.7449 104.502 64.7696C104.502 64.9782 104.502 65.2911 104.711 65.3954C104.815 65.4997 105.024 65.4997 105.233 65.604C108.055 65.9169 110.876 66.2298 113.802 66.4384C114.011 66.4384 114.116 66.4384 114.325 66.4384C114.534 66.3341 114.638 66.1255 114.638 65.9169C115.683 63.1008 115.892 59.9718 115.997 56.9472C116.101 55.0698 116.101 53.1924 116.101 51.315C116.101 48.8119 116.206 46.2044 115.997 43.7012C115.683 42.8668 115.892 41.511 114.847 41.1981Z" fill="#930012"/>
<path d="M116.206 42.3447C116.311 41.1974 116.102 40.1544 116.102 39.1114C115.997 38.277 115.788 37.6512 114.848 37.7555C112.34 37.8598 109.936 38.0684 107.428 38.277C106.174 38.3813 104.92 38.3813 103.666 38.277C102.83 38.277 102.099 38.4856 101.994 39.4243C101.89 39.9458 101.994 40.4673 102.203 40.9888C102.203 41.0931 102.203 41.1974 102.308 41.3017C102.412 41.9275 102.621 42.5533 102.83 43.1791C102.935 43.3876 103.039 43.4919 103.144 43.7005C103.457 44.0134 104.084 44.0134 104.502 43.9091C107.846 43.5962 110.981 44.3263 114.325 44.0134C114.952 44.0134 115.684 43.9091 115.997 43.3876C116.102 43.0747 116.206 42.6576 116.206 42.3447Z" fill="#E5E1E5"/>
<path d="M59.9842 116.397C59.5662 113.372 58.7302 110.348 58.6257 107.323C58.2077 98.4575 55.5952 89.905 53.5051 81.2482C53.0871 79.5794 52.8781 78.0149 52.3556 76.2419C51.7286 74.6774 50.9971 70.5054 48.2801 68.9409C47.3395 68.4195 44.518 68.0023 43.473 68.0023C41.2784 67.898 38.6659 68.0023 36.7849 69.2538C35.2174 70.2968 34.3813 72.6957 33.9633 74.4688C33.4408 76.6591 32.8138 78.6407 31.8733 80.6224C29.5743 85.9417 27.6932 91.2609 26.0212 96.7887C24.0357 103.568 21.4231 109.722 20.7961 116.71C20.6916 117.753 27.3797 117.961 28.1112 117.961C29.1563 117.961 30.6193 118.17 31.3508 117.127C31.9778 116.293 32.1868 115.145 32.5003 114.207C33.0228 112.746 33.9633 106.906 34.4858 105.758C34.6948 105.341 35.0084 105.028 35.4264 104.924C37.9344 104.298 40.4424 104.611 42.9505 105.028C44.727 105.341 48.0711 105.028 48.5936 107.219C49.0116 109.096 49.2206 111.078 49.4296 112.955C49.5341 113.998 49.1161 115.98 50.0566 116.814C50.7881 117.544 52.8781 117.336 53.9231 117.336C55.1772 117.336 56.4312 117.336 57.6852 117.44C58.3122 117.544 59.0437 117.648 59.6707 117.44C59.9842 117.336 59.9842 117.127 59.9842 116.397ZM44.518 93.8684C44.1 95.3285 40.1289 94.077 39.0839 93.8684C37.7254 93.6598 37.9344 93.2426 38.2479 92.0953C38.4569 91.3652 38.6659 90.6351 38.9794 89.905C39.3974 88.6534 39.8154 87.4018 40.3379 86.1502C40.6514 85.3159 41.383 83.2299 42.219 84.3772C42.7415 85.1073 42.9505 86.6717 43.264 87.6104C43.682 88.862 43.891 90.0093 43.9955 91.2609C43.9955 91.991 44.727 93.2426 44.518 93.8684Z" fill="#D20109"/>
<path d="M30.5143 132.981V132.877C30.6188 132.46 30.0963 131.521 29.8873 131.208C29.4693 129.956 29.0513 128.809 28.6333 127.558C28.4243 126.932 28.2153 126.202 28.2153 125.472C28.3198 123.699 29.9918 122.447 30.7233 120.882C31.4548 119.527 31.9773 117.336 30.7233 116.502C29.5738 115.772 27.9018 117.128 27.1702 118.275C26.9612 118.692 26.7522 119.109 26.4387 119.422C25.9162 119.944 25.0802 120.152 24.3487 120.048C23.6172 119.944 22.8857 119.631 22.1542 119.318C20.5866 118.484 19.0191 117.545 18.2876 115.98C17.6606 114.625 17.7651 113.06 18.2876 111.6C18.6011 110.661 19.0191 109.827 19.7506 109.305C20.6911 108.679 21.9452 108.784 23.0947 108.471C23.1992 108.471 23.4082 108.367 23.5127 108.262C23.7217 108.054 23.7217 107.636 23.6172 107.324C22.8857 104.925 18.9146 104.716 17.1381 105.968C15.0481 107.428 13.585 108.784 13.585 112.956C13.585 115.25 14.212 116.189 13.376 116.71C12.8535 117.023 12.4355 115.876 12.2265 115.355C10.3455 110.557 9.92748 105.238 8.04645 100.44C7.52395 99.1883 7.00144 97.9367 6.37443 96.6851C5.85192 95.4335 5.12041 94.0777 3.86639 93.6605C3.34388 93.4519 2.82137 93.4519 2.40337 93.8691C1.98536 94.2862 2.08986 94.912 2.19436 95.4335C2.50787 96.998 2.71687 98.5625 3.03038 100.127C2.40337 100.544 1.56735 100.231 0.940345 100.648C0.208834 101.066 -0.00016956 102.109 0.104332 102.943C0.313335 105.759 1.56735 108.888 2.29887 111.6C3.13488 114.625 4.17989 117.649 5.22491 120.57C5.85192 122.238 6.26993 123.803 7.21044 125.263C8.04645 126.619 9.09147 127.87 10.241 129.018C12.54 131.312 15.2571 133.19 18.3921 134.337C20.5866 135.171 22.9902 135.067 25.2892 135.171C27.0657 135.276 28.6333 135.171 29.8873 133.815C30.3053 133.19 30.5143 133.294 30.5143 132.981Z" fill="#FFD8AE"/>
<path d="M21.6316 147.896C21.3181 147.687 21.0046 147.374 20.6911 146.853C19.9596 145.81 19.6461 144.558 19.0191 143.411C18.2876 141.951 17.4516 140.49 16.7201 138.926C16.5111 138.404 16.4066 137.987 16.9291 137.57C17.3471 137.257 17.9741 137.153 18.4966 137.049C21.7361 136.631 25.1847 137.153 28.3197 136.006C28.7378 135.901 29.1558 135.693 29.4693 135.797C29.8873 135.901 30.2008 136.318 30.4098 136.631C31.8728 139.03 32.9178 141.846 33.3358 144.662C33.3358 144.767 33.3358 144.975 33.3358 145.08C33.2313 145.184 33.1268 145.288 32.9178 145.392C30.0963 146.748 26.5432 147.061 23.5127 147.791C22.5722 148 22.0496 148.104 21.6316 147.896Z" fill="#D20109"/>
<path d="M98.2311 113.581C98.0221 112.33 96.8726 104.507 95.5141 104.612C94.26 104.716 93.215 108.054 92.6925 108.992C91.543 111.078 90.289 113.06 88.9304 114.937C88.7214 115.25 88.4079 115.667 87.9899 115.563C87.7809 115.563 87.5719 115.354 87.4674 115.146C85.0639 112.225 83.0784 109.097 81.3018 105.759C81.0928 105.342 80.8838 104.925 80.4658 104.716C80.0478 104.507 79.7343 104.716 79.6298 105.133C79.0028 109.201 79.1073 112.121 78.4803 116.293C78.3758 117.023 78.3758 118.379 78.2713 119.526C78.1668 120.361 77.4353 121.091 76.5993 120.987C74.3002 120.882 71.3742 120.674 69.4931 120.569C69.0751 120.569 68.7616 120.465 68.3436 120.257C67.9256 120.048 67.6121 119.839 67.7166 119.422C67.8211 119.422 67.8211 119.526 67.7166 119.526C67.6121 119.526 67.6121 119.422 67.6121 119.318C67.0896 113.373 66.8806 107.323 66.9851 101.274C67.1941 92.7216 68.6571 83.8562 69.5977 75.408C69.8067 73.4263 73.8822 73.0091 75.6587 74.0521C76.7038 74.6779 79.8388 83.1261 81.1973 86.0465C82.4513 88.654 84.7504 92.9302 86.5269 95.2248C88.0944 97.3108 92.797 85.3164 98.0221 77.0768C99.0671 75.5123 100.53 74.8865 102.202 74.9908C103.561 75.0951 104.292 75.8252 104.815 76.9725C105.233 78.1198 105.651 79.3714 106.069 80.5186C106.696 82.2917 106.696 84.482 107.009 86.3594C107.741 91.2614 108.159 96.2678 108.89 101.17C108.995 102.109 108.89 102.943 108.89 103.882C108.89 105.237 109.308 106.593 109.517 107.949C110.144 111.6 110.98 115.146 111.085 118.796C111.085 119.005 111.085 119.318 110.876 119.422C110.771 119.526 110.667 119.526 110.562 119.631C107.636 120.465 100.217 120.778 99.6941 120.465C99.3806 120.256 98.9626 118.588 98.8581 118.171C98.7536 116.71 98.4401 115.146 98.2311 113.581Z" fill="#6E6877"/>
<path d="M74.3007 137.257C74.4052 136.944 74.4052 136.631 74.3007 136.214C73.9872 135.067 73.5692 133.92 72.9422 132.772C72.5242 132.042 72.0017 131.104 72.3152 130.269C72.6287 129.539 73.4647 129.226 74.1962 128.913C76.8088 127.662 78.1673 124.22 77.1223 121.508C77.0178 121.195 76.8088 120.778 76.4953 120.778C76.2863 120.778 76.0773 120.778 75.9728 120.882C75.0322 121.404 74.1962 122.238 73.8827 123.281C73.6737 124.011 73.5692 124.741 73.0467 125.263C72.5242 125.889 71.6882 126.097 70.8522 125.993C69.2847 125.889 67.8216 124.741 67.1946 123.281C66.6721 121.821 66.9856 119.944 68.1351 118.901C68.4486 118.588 68.9712 118.171 68.8667 117.649C68.7621 117.128 68.0306 116.919 67.5081 116.919C66.3586 117.023 65.3136 117.753 64.4776 118.588C62.5966 120.569 63.2236 122.864 63.4326 123.594C63.7461 124.741 64.0596 125.889 64.3731 127.036C63.7461 127.245 63.2236 127.036 62.7011 126.619C62.1785 126.202 61.865 125.68 61.447 125.263C59.6705 122.968 57.5805 121.091 55.0724 119.631C53.9229 119.005 52.6689 118.379 51.4149 118.275C50.6834 118.275 49.8474 118.588 49.7429 119.214C49.7429 119.839 50.4744 120.361 50.4744 120.987C49.6384 120.674 48.9068 120.257 48.0708 119.944C47.0258 119.422 45.8763 119.005 44.7268 119.005C43.5773 119.109 42.3232 119.944 42.3232 121.091C42.3232 122.134 43.1593 122.968 43.9953 123.698C45.7718 125.159 47.7573 126.41 49.8474 127.245C50.7879 127.662 51.7284 127.975 52.6689 128.392C53.8184 128.913 54.9679 129.643 56.013 130.373C58.312 131.834 60.611 133.398 62.283 135.484C63.3281 136.736 64.1641 138.3 65.7316 138.822C66.8811 139.239 67.8216 138.926 68.8667 138.613C70.3297 138.3 73.6737 138.822 74.3007 137.257Z" fill="#FFD8AE"/>
<path d="M125.716 104.402C126.656 102.629 126.656 99.9176 126.761 98.2488C127.074 94.9113 126.865 91.678 126.134 88.4447C125.402 85.2115 125.089 82.0825 125.089 78.7449C125.089 78.2235 125.089 77.5977 124.984 77.0762C124.775 76.5547 124.462 76.0332 123.835 75.9289C123.312 75.8246 122.581 76.1375 122.581 76.7633C121.849 76.4504 121.536 73.1128 121.118 72.487C120.7 71.8612 119.55 71.5483 119.132 72.1741C118.923 72.487 118.923 72.7999 118.923 73.1128C118.923 75.3031 119.028 77.5977 119.55 79.7879C119.864 81.1438 120.177 82.604 119.759 83.8556C119.55 83.9599 119.341 83.8556 119.446 83.647C119.132 81.6653 118.714 79.6836 118.401 77.702C118.087 75.9289 117.774 74.0515 116.729 72.5913C116.52 72.2784 116.206 71.9655 115.788 71.8612C115.37 71.8612 114.952 72.1741 114.743 72.6956C114.639 73.1128 114.639 73.6343 114.743 74.0515C115.266 78.9535 115.684 83.7513 115.893 88.6533C115.893 89.1748 115.684 89.9049 115.161 89.8006C115.161 89.592 115.37 89.8006 115.266 89.592C114.743 88.9662 114.221 88.4447 113.698 87.8189C113.071 87.0888 112.34 86.3588 111.504 85.8373C110.145 84.7943 108.369 84.3771 106.697 84.1685C105.756 84.0642 104.607 84.2728 104.502 85.2115C104.502 85.4201 104.502 85.6287 104.607 85.9416C105.234 87.8189 107.533 88.3404 108.787 89.9049C109.832 91.0522 111.713 93.9726 112.444 95.4328C113.071 96.7886 113.594 100.126 112.235 99.8133C109.832 99.1875 105.965 99.5004 104.189 101.169C103.666 101.586 103.248 102.212 103.248 102.838C103.353 104.715 106.801 104.611 108.16 104.611C110.459 104.611 112.444 106.697 114.325 107.949C114.43 108.053 114.743 108.053 114.639 107.844C116.938 108.574 118.923 107.844 121.222 107.01C122.267 106.593 123.417 106.384 124.357 105.863C124.984 105.341 125.402 104.924 125.716 104.402Z" fill="#FFD8AE"/>
<path d="M129.791 139.656C130 138.822 129.896 137.675 129.896 136.527C129.896 133.92 129.896 131.312 129.896 128.705C129.896 125.472 129.896 122.343 129.478 119.109C128.955 115.668 127.806 112.33 126.656 109.097C126.656 108.992 126.552 108.784 126.447 108.679C126.343 108.575 126.134 108.575 126.029 108.575C123.103 108.888 120.282 109.097 117.356 109.41C116.938 109.305 116.833 109.931 116.833 110.348C116.729 112.017 117.565 113.79 117.774 115.459C118.087 117.753 118.401 119.944 118.505 122.238C118.714 125.159 118.61 128.079 118.401 130.895C118.296 132.147 118.401 133.398 118.192 134.65C117.878 136.006 117.251 137.257 116.833 138.613C116.729 138.822 116.729 139.135 116.729 139.343C117.147 140.804 120.073 141.221 121.327 141.429C123.312 141.742 125.402 141.742 127.283 141.429C128.851 141.325 129.478 140.595 129.791 139.656Z" fill="#1E1E1E"/>
<path d="M19.7509 67.6898C19.6464 67.064 20.1689 66.5425 20.1689 66.021C20.1689 65.6038 19.8554 65.1866 19.4374 64.978C19.0193 64.7694 18.6013 64.6651 18.1833 64.5608C16.8248 64.1436 15.4663 63.6221 14.3168 62.7878C13.2718 62.0577 12.3312 61.2233 11.1817 60.5975C10.1367 59.9717 8.88269 59.5545 7.62867 59.4502C6.68816 60.7018 5.74765 62.162 5.43414 63.6221C5.43414 63.8307 5.32964 64.0393 5.43414 64.2479C5.53864 64.5608 5.74765 64.6651 6.06115 64.8737C9.0917 66.9597 12.2267 69.0457 15.5708 70.4016C16.5113 70.8188 17.6608 71.0274 18.4968 70.5059C19.3329 69.6715 19.1238 68.5242 19.7509 67.6898Z" fill="#E5E1E5"/>
<path d="M29.6785 130.164C29.2605 129.956 28.6335 129.851 27.902 130.164C23.3039 131.729 18.2879 132.355 13.4808 131.937C13.0628 131.937 12.8538 132.042 12.6448 132.355C12.5403 132.667 12.5403 133.085 12.6448 133.502C12.8538 135.066 13.2718 136.527 13.6898 137.987C13.7943 138.404 14.0033 138.925 14.4213 139.238C15.0483 139.864 16.0933 139.76 17.0338 139.655C21.2139 139.134 25.394 138.612 29.574 138.091C30.6191 137.987 31.1416 137.778 31.2461 136.839C31.4551 135.171 31.5596 131.103 29.6785 130.164Z" fill="#E5E1E5"/>
<path d="M63.9547 142.889C63.7457 141.846 63.5367 140.803 63.4322 139.76C63.2232 138.092 65.7313 138.196 66.7763 138.196C69.2843 138.092 71.8969 137.57 74.4049 137.257C74.6139 137.257 74.8229 137.153 75.0319 137.257C75.3454 137.466 75.4499 137.883 75.5544 138.196C75.6589 139.239 75.8679 140.282 75.7634 141.325C75.7634 141.534 75.7634 141.638 75.6589 141.742C75.5544 141.951 75.2409 141.951 75.0319 141.951C73.4644 142.055 71.7924 141.846 70.1203 142.055C68.0303 142.368 66.0448 142.994 63.9547 142.889Z" fill="#E5E1E5"/>
<path d="M125.82 103.151C124.148 103.151 121.745 104.507 120.491 104.924C118.296 105.55 116.102 106.176 113.907 106.698C113.489 107.219 113.489 107.949 113.803 108.575C114.012 109.201 114.325 109.826 114.534 110.452C114.639 110.661 114.743 110.974 114.952 111.078C115.161 111.182 115.475 111.182 115.684 111.078C119.655 110.348 123.626 109.722 127.597 108.992C127.806 108.992 127.91 108.888 128.015 108.888C128.328 108.679 128.328 108.262 128.328 107.949C128.224 106.698 127.91 105.342 127.388 104.194C127.074 103.464 126.552 103.151 125.82 103.151Z" fill="#E5E1E5"/>
<path d="M11.8086 21.6942C11.7041 21.7985 11.5996 21.9028 11.8086 21.6942C11.5996 21.9028 11.4951 22.1114 11.4951 22.32C11.2861 22.8415 11.3906 23.363 11.8086 23.7802C12.4356 24.3017 13.4807 24.0931 13.6897 23.2587C13.7942 22.7372 13.6897 22.2157 13.2717 21.9028C13.1672 21.7985 13.0627 21.6942 12.8536 21.59C12.5401 21.4857 12.5401 21.4857 12.8536 21.59C12.7491 21.4857 12.6446 21.4857 12.7491 21.4857C12.5401 21.2771 11.8086 21.2771 11.8086 21.6942Z" fill="#FFB294"/>
<path d="M9.09183 28.8908C9.30084 28.7865 9.19634 28.7865 9.09183 28.8908C8.88283 28.9951 8.77833 29.0994 8.77833 29.2037C8.67383 29.4123 8.67383 29.6209 8.67383 29.8295C8.67383 30.2467 8.77833 30.7682 9.09183 31.0811C9.40534 31.394 9.82335 31.4983 10.2414 31.2897C10.7639 30.9768 10.7639 30.4553 10.5549 29.9338C10.4504 29.5166 10.2414 29.4123 10.0323 29.2037C10.2414 29.4123 9.82335 28.9951 9.92785 28.9951C9.82335 28.8908 9.71884 28.7865 9.50984 28.7865C9.61434 28.7865 9.71884 28.8908 9.71884 28.8908C9.61434 28.6822 9.30084 28.6822 9.09183 28.8908Z" fill="#FFB294"/>
<path d="M33.4407 40.4679C33.2317 40.9894 33.4407 41.8238 34.0677 42.1367C34.3812 42.241 34.6947 42.3453 34.9037 42.1367C35.2172 41.9281 35.4262 41.5109 35.3217 41.198C35.2172 40.7808 34.7992 40.3636 34.3812 40.155C34.0677 39.8421 33.6497 40.155 33.4407 40.4679Z" fill="#FFB294"/>
<path d="M33.65 50.0635C33.9635 50.0635 34.1725 49.9592 34.4861 49.9592C34.7996 49.8549 34.9041 49.7506 35.2176 49.542C35.4266 49.3334 35.5311 49.1248 35.6356 48.8119C35.9491 47.9775 35.0086 47.1432 34.1725 47.3518C33.859 47.4561 33.7545 47.5604 33.5455 47.6647C33.441 47.769 33.441 47.7689 33.65 47.5604C33.5455 47.6646 33.441 47.6646 33.3365 47.7689C33.1275 47.8732 32.9185 48.1861 32.814 48.3947C32.7095 48.7076 32.605 49.1248 32.814 49.4377C33.023 49.8549 33.3365 50.0635 33.65 50.0635Z" fill="#FFB294"/>
<path d="M92.6932 28.7862C91.9617 29.5163 92.2752 31.2893 93.2157 31.7065C93.8427 32.0194 94.7833 31.7065 94.7833 30.8721C94.6788 30.2464 94.4698 29.8292 94.1563 29.412C94.1563 29.5163 94.1563 29.412 94.1563 29.3077C94.0517 29.2034 93.9473 29.0991 93.9473 28.9948C93.7382 28.7862 93.6337 28.7862 93.4247 28.6819C93.1112 28.5776 92.7977 28.6819 92.6932 28.7862Z" fill="#FFB294"/>
<path d="M93.9468 14.6014C93.9468 14.4971 93.9468 14.4971 93.9468 14.6014C93.8423 14.6014 93.7378 14.6014 93.6333 14.6014C93.7378 14.6014 93.8423 14.6014 93.9468 14.6014C94.2603 14.4971 94.2603 14.3928 93.9468 14.6014C94.0513 14.4971 94.2603 14.4971 93.9468 14.6014C94.0513 14.6014 94.1558 14.6014 94.3648 14.4971H94.4693C94.5738 14.4971 95.0964 14.2885 94.6783 14.3928C95.0964 14.1842 95.3054 13.9756 95.5144 13.5584C95.6189 13.2456 95.5144 12.9327 95.3054 12.7241C94.7828 12.0983 93.8423 12.3069 93.3198 12.7241C93.1108 12.9327 93.0063 13.1413 92.9018 13.4541C92.7973 13.8713 93.0063 14.1842 93.2153 14.4971C93.3198 14.7057 93.7378 14.7057 93.9468 14.6014Z" fill="#FFB294"/>
<path d="M112.235 0.417252C111.817 0.521551 111.504 1.04304 111.399 1.46024C111.295 2.08603 111.399 2.60753 111.817 3.02472C112.026 3.33762 112.444 3.33762 112.758 3.33762C113.176 3.23332 113.489 2.81612 113.489 2.39893C113.594 1.56454 113.176 0.104356 112.235 0.417252Z" fill="#FFB294"/>
<path d="M115.369 4.48477C115.056 5.00627 114.742 5.84066 115.16 6.36215C115.578 6.98794 116.31 6.98794 116.728 6.36215C117.146 5.84066 116.832 5.00627 116.519 4.48477C116.31 4.06758 115.578 4.06758 115.369 4.48477Z" fill="#FFB294"/>
<path d="M105.547 85.7328C106.383 86.15 107.428 86.4629 108.16 85.8371C108.473 85.6286 108.473 85.2114 108.369 84.8985C108.264 84.1684 107.428 83.8555 106.696 83.8555C106.174 83.8555 105.651 84.0641 105.338 84.377C105.024 84.7942 105.024 85.4199 105.547 85.7328Z" fill="#FFB294"/>
<path d="M103.979 103.36C104.501 104.09 105.442 104.299 106.278 104.299C107.009 104.194 107.636 103.777 107.636 102.943C107.636 102.213 107.009 101.691 106.278 101.587C105.442 101.483 104.397 101.796 103.979 102.526C103.874 102.734 103.874 103.047 103.979 103.36Z" fill="#FFB294"/>
<path d="M115.37 72.3829C115.265 72.8001 115.37 73.113 115.37 73.5302C115.474 73.8431 115.474 74.2603 115.683 74.6775C116.101 75.4076 117.355 75.3033 117.564 74.4689C117.669 74.0517 117.564 73.6345 117.46 73.113C117.355 72.6958 117.251 72.2786 116.833 71.9657C116.31 71.5485 115.579 71.6528 115.37 72.3829Z" fill="#FFB294"/>
<path d="M119.55 71.9655C119.55 72.0698 119.55 72.0698 119.55 71.9655C119.55 71.9655 119.654 71.7569 119.759 71.6526C119.445 71.9655 119.55 72.3827 119.55 72.7999C119.55 72.6956 119.55 72.6956 119.55 73.0085C119.55 73.1128 119.55 73.2171 119.654 73.3214C119.759 73.53 119.759 73.8429 119.968 73.9472C120.386 74.2601 121.117 74.3644 121.326 73.7386C121.64 73.2171 121.431 72.5913 121.013 72.0698C120.699 71.7569 120.281 71.3397 119.863 71.5483C119.968 71.5483 120.177 71.5483 120.281 71.6526C120.281 71.6526 120.281 71.6526 120.177 71.6526C119.968 71.444 119.55 71.6526 119.55 71.9655Z" fill="#FFB294"/>
<path d="M124.148 76.555C123.834 76.7636 123.834 76.9722 123.625 77.1808C123.416 77.4937 123.416 77.9109 123.521 78.3281C123.73 79.0582 124.775 79.1625 125.193 78.5367C125.506 78.1195 125.506 77.7023 125.297 77.1808C125.193 76.9722 125.088 76.6593 124.879 76.555C124.67 76.4507 124.461 76.3464 124.148 76.555Z" fill="#FFB294"/>
<path d="M1.881 104.299C2.19451 103.986 2.29901 103.569 2.50801 103.151C2.71701 102.63 2.71701 101.9 2.50801 101.378C2.29901 100.857 1.9855 100.544 1.46299 100.544C0.835984 100.544 0.313477 101.065 0.313477 101.691C0.313477 102.317 0.52248 102.734 0.731483 103.256C0.835985 103.569 1.04499 104.09 1.35849 104.299C1.5675 104.403 1.7765 104.403 1.881 104.299Z" fill="#FFB294"/>
<path d="M4.17977 96.789C4.17977 96.6847 4.28427 96.5804 4.38877 96.4761C4.49328 96.2675 4.59778 96.0589 4.59778 95.8503C4.70228 95.4331 4.59778 95.0159 4.49328 94.5987C4.28427 94.0772 3.76177 93.7643 3.23926 93.8686C2.61225 94.0772 2.29874 94.8073 2.61225 95.3288C2.61225 95.4331 2.71675 95.4331 2.61225 95.3288C2.61225 95.4331 2.61225 95.4331 2.71675 95.5374C2.82125 95.746 2.92575 95.9546 3.03025 96.1632C3.13476 96.3718 3.44826 96.6847 3.55276 96.789C3.76177 97.2062 4.17977 97.1019 4.17977 96.789Z" fill="#FFB294"/>
<path d="M21.0047 106.489C21.1092 106.489 21.2137 106.593 21.3182 106.593C21.2137 106.489 21.1092 106.384 21.0047 106.28C21.1092 106.697 21.5272 106.802 21.8407 107.01C22.2587 107.219 22.7812 107.427 23.3037 107.219C23.7217 107.01 24.1397 106.489 23.8262 105.967C23.4082 105.446 22.8857 105.237 22.2587 105.342C21.8407 105.342 21.2137 105.446 21.0047 105.863C21.1092 105.759 21.2137 105.759 21.3182 105.654C21.2137 105.654 21.1092 105.759 21.0047 105.759C20.6912 105.863 20.6912 106.384 21.0047 106.489Z" fill="#FFB294"/>
<path d="M31.0372 119.943C31.5597 119.526 31.9777 118.692 32.1867 118.066C32.3958 117.44 31.9777 116.71 31.3507 116.502C30.7237 116.293 29.9922 116.71 29.7832 117.336C29.6787 117.962 29.6787 118.796 29.6787 119.318C29.6787 120.152 30.5147 120.361 31.0372 119.943Z" fill="#FFB294"/>
<path d="M46.3985 122.864C46.8165 122.342 46.712 121.925 46.6075 121.404C46.503 120.778 45.876 120.152 45.1445 119.943C44.0995 119.631 43.0545 120.882 43.6815 121.925C43.8905 122.134 43.995 122.342 44.204 122.447C43.786 122.134 44.3085 122.551 44.413 122.551C44.622 122.655 44.831 122.864 45.1445 122.864C45.3535 122.864 44.9355 122.759 45.1445 122.864C45.249 122.968 45.3535 122.968 45.458 123.072C45.7715 123.072 46.1895 123.072 46.3985 122.864Z" fill="#FFB294"/>
<path d="M52.982 120.882C53.2955 120.674 53.2955 120.257 53.2955 119.944C53.2955 120.048 53.2955 120.152 53.2955 120.257C53.4 119.839 53.2955 119.422 53.0865 119.005C52.773 118.484 52.2505 118.066 51.6235 118.066C51.101 118.066 50.5785 118.379 50.3695 118.797C49.9514 119.422 50.1604 120.048 50.5785 120.57C50.892 120.987 51.31 120.987 51.8325 121.091C51.728 121.091 51.519 121.091 51.4145 120.987C51.519 120.987 51.519 120.987 51.6235 120.987C51.937 121.091 52.146 121.091 52.4595 120.987C52.355 120.987 52.2505 120.987 52.146 120.987C52.4595 121.195 52.773 121.091 52.982 120.882Z" fill="#FFB294"/>
<path d="M66.672 118.588C66.672 118.483 66.7765 118.483 66.881 118.483C66.672 118.588 66.5675 118.588 66.3585 118.692C65.9405 118.588 65.9405 118.588 66.254 118.692C66.3585 118.692 66.5675 118.692 66.672 118.588C66.7765 118.588 66.881 118.588 66.881 118.483C66.672 118.588 66.7765 118.483 66.881 118.483C66.9855 118.483 66.9855 118.483 66.7765 118.483C66.881 118.483 66.9855 118.483 67.09 118.483C67.299 118.379 67.508 118.275 67.717 118.171C68.2395 117.649 68.0305 116.71 67.299 116.502C66.7765 116.293 66.254 116.502 65.9405 116.919C65.836 117.023 65.7315 117.232 65.627 117.336C65.5225 117.545 65.418 117.753 65.5225 118.066C65.5225 117.962 65.7315 118.588 65.5225 118.171C65.5225 118.066 65.5225 117.858 65.5225 117.753C65.5225 117.858 65.418 118.066 65.418 118.171C65.5225 118.692 66.3585 119.005 66.672 118.588Z" fill="#FFB294"/>
<path d="M77.4362 123.594C77.5407 123.385 77.3317 123.698 77.4362 123.594C77.5407 123.489 77.6452 123.281 77.7497 123.177C77.8542 122.968 77.8542 122.864 77.9587 122.759C78.3767 122.029 77.9587 120.986 77.1227 120.778C76.3911 120.569 75.3461 121.195 75.4506 122.029C75.4506 122.551 75.5551 122.968 75.7641 123.49C75.7641 123.281 75.6596 123.177 75.6596 122.968V123.072C75.6596 123.489 75.9731 123.802 76.2866 123.907C76.8092 124.115 77.2272 123.907 77.4362 123.594Z" fill="#FFB294"/>
</svg>
