<svg width="383" height="120" viewBox="0 0 383 120" fill="none" xmlns="http://www.w3.org/2000/svg">
<path d="M17.4219 30.125V87H4.6875V30.125H17.4219ZM51.4062 30.125L29.1406 58.5625L16.1719 72.625L13.8672 60.7891L22.4219 48.5234L35.7812 30.125H51.4062ZM36.6406 87L20.9375 61.0234L30.625 53.4844L51.7188 87H36.6406ZM73.9844 87.7812C70.625 87.7812 67.6172 87.2474 64.9609 86.1797C62.3047 85.112 60.0521 83.6406 58.2031 81.7656C56.3802 79.8646 54.987 77.6771 54.0234 75.2031C53.0599 72.7292 52.5781 70.0859 52.5781 67.2734V65.7891C52.5781 62.638 53.0208 59.7344 53.9062 57.0781C54.7917 54.4219 56.0807 52.1172 57.7734 50.1641C59.4922 48.1849 61.6016 46.6615 64.1016 45.5938C66.6016 44.5 69.4531 43.9531 72.6562 43.9531C75.651 43.9531 78.3203 44.4479 80.6641 45.4375C83.0078 46.401 84.987 47.7943 86.6016 49.6172C88.2161 51.4141 89.4401 53.5885 90.2734 56.1406C91.1328 58.6667 91.5625 61.5052 91.5625 64.6562V69.6562H57.5V61.8047H79.6094V60.8672C79.6094 59.3828 79.3359 58.0807 78.7891 56.9609C78.2682 55.8411 77.487 54.9818 76.4453 54.3828C75.4297 53.7578 74.1406 53.4453 72.5781 53.4453C71.0938 53.4453 69.8568 53.7578 68.8672 54.3828C67.8776 55.0078 67.0833 55.8932 66.4844 57.0391C65.9115 58.1589 65.4948 59.474 65.2344 60.9844C64.974 62.4688 64.8438 64.0703 64.8438 65.7891V67.2734C64.8438 68.9141 65.0651 70.4115 65.5078 71.7656C65.9505 73.1198 66.6016 74.2786 67.4609 75.2422C68.3203 76.2057 69.362 76.9609 70.5859 77.5078C71.8099 78.0547 73.2031 78.3281 74.7656 78.3281C76.6927 78.3281 78.5286 77.9635 80.2734 77.2344C82.0182 76.4792 83.5286 75.3073 84.8047 73.7188L90.5078 80.2422C89.6484 81.4922 88.4375 82.7031 86.875 83.875C85.3385 85.0208 83.4896 85.9583 81.3281 86.6875C79.1667 87.4167 76.7188 87.7812 73.9844 87.7812ZM116.133 87H103.633L103.711 77.1562H116.133C118.971 77.1562 121.367 76.5052 123.32 75.2031C125.273 73.875 126.758 71.9219 127.773 69.3438C128.789 66.7396 129.297 63.5755 129.297 59.8516V57.2344C129.297 54.4219 129.01 51.9479 128.438 49.8125C127.865 47.651 127.018 45.8411 125.898 44.3828C124.779 42.9245 123.385 41.8307 121.719 41.1016C120.078 40.3724 118.19 40.0078 116.055 40.0078H103.398V30.125H116.055C119.909 30.125 123.424 30.776 126.602 32.0781C129.805 33.3802 132.565 35.2422 134.883 37.6641C137.227 40.0859 139.036 42.9505 140.312 46.2578C141.589 49.5651 142.227 53.25 142.227 57.3125V59.8516C142.227 63.888 141.589 67.5729 140.312 70.9062C139.036 74.2135 137.227 77.0781 134.883 79.5C132.565 81.8958 129.818 83.7448 126.641 85.0469C123.464 86.349 119.961 87 116.133 87ZM110.859 30.125V87H98.125V30.125H110.859ZM172.773 40.9453L158.086 87H144.492L165.547 30.125H174.141L172.773 40.9453ZM184.961 87L170.234 40.9453L168.711 30.125H177.422L198.555 87H184.961ZM184.336 65.8281V75.6719H154.688V65.8281H184.336ZM245.938 62.4297H231.328L231.25 53.9141H243.32C245.456 53.9141 247.188 53.6536 248.516 53.1328C249.87 52.612 250.859 51.8568 251.484 50.8672C252.109 49.8516 252.422 48.6016 252.422 47.1172C252.422 45.4245 252.109 44.0573 251.484 43.0156C250.859 41.974 249.87 41.2188 248.516 40.75C247.188 40.2552 245.469 40.0078 243.359 40.0078H235.938V87H223.203V30.125H243.359C246.771 30.125 249.818 30.4375 252.5 31.0625C255.182 31.6875 257.461 32.651 259.336 33.9531C261.237 35.2552 262.682 36.8828 263.672 38.8359C264.661 40.7891 265.156 43.0938 265.156 45.75C265.156 48.0677 264.635 50.2292 263.594 52.2344C262.578 54.2396 260.938 55.8672 258.672 57.1172C256.406 58.3672 253.372 59.0443 249.57 59.1484L245.938 62.4297ZM245.43 87H228.086L232.695 77.1562H245.43C247.383 77.1562 248.971 76.8438 250.195 76.2188C251.419 75.5938 252.318 74.7474 252.891 73.6797C253.464 72.612 253.75 71.4141 253.75 70.0859C253.75 68.5234 253.477 67.1693 252.93 66.0234C252.409 64.8776 251.576 63.9922 250.43 63.3672C249.31 62.7422 247.812 62.4297 245.938 62.4297H234.531L234.609 53.9141H248.555L251.523 57.2734C255.143 57.1953 258.034 57.7812 260.195 59.0312C262.383 60.2552 263.958 61.8698 264.922 63.875C265.885 65.8802 266.367 68.0026 266.367 70.2422C266.367 73.9401 265.573 77.0391 263.984 79.5391C262.396 82.013 260.039 83.875 256.914 85.125C253.815 86.375 249.987 87 245.43 87ZM286.836 27V87H274.609V27H286.836ZM293.867 66.2969V65.4766C293.867 62.3776 294.31 59.526 295.195 56.9219C296.081 54.2917 297.383 52.013 299.102 50.0859C300.82 48.1589 302.93 46.6615 305.43 45.5938C307.93 44.5 310.794 43.9531 314.023 43.9531C317.305 43.9531 320.195 44.5 322.695 45.5938C325.221 46.6615 327.344 48.1589 329.062 50.0859C330.781 52.013 332.083 54.2917 332.969 56.9219C333.854 59.526 334.297 62.3776 334.297 65.4766V66.2969C334.297 69.3698 333.854 72.2214 332.969 74.8516C332.083 77.4557 330.781 79.7344 329.062 81.6875C327.344 83.6146 325.234 85.112 322.734 86.1797C320.234 87.2474 317.357 87.7812 314.102 87.7812C310.872 87.7812 307.995 87.2474 305.469 86.1797C302.943 85.112 300.82 83.6146 299.102 81.6875C297.383 79.7344 296.081 77.4557 295.195 74.8516C294.31 72.2214 293.867 69.3698 293.867 66.2969ZM306.094 65.4766V66.2969C306.094 67.9635 306.224 69.526 306.484 70.9844C306.771 72.4427 307.227 73.7188 307.852 74.8125C308.477 75.9062 309.297 76.7656 310.312 77.3906C311.354 77.9896 312.617 78.2891 314.102 78.2891C315.586 78.2891 316.836 77.9896 317.852 77.3906C318.867 76.7656 319.688 75.9062 320.312 74.8125C320.938 73.7188 321.38 72.4427 321.641 70.9844C321.927 69.526 322.07 67.9635 322.07 66.2969V65.4766C322.07 63.8359 321.927 62.2995 321.641 60.8672C321.38 59.4089 320.938 58.1198 320.312 57C319.688 55.8802 318.854 55.0078 317.812 54.3828C316.797 53.7578 315.534 53.4453 314.023 53.4453C312.565 53.4453 311.328 53.7578 310.312 54.3828C309.297 55.0078 308.477 55.8802 307.852 57C307.227 58.1198 306.771 59.4089 306.484 60.8672C306.224 62.2995 306.094 63.8359 306.094 65.4766ZM367.344 44.7344H378.438V85.4766C378.438 89.3568 377.552 92.651 375.781 95.3594C374.036 98.0677 371.602 100.125 368.477 101.531C365.352 102.938 361.693 103.641 357.5 103.641C355.677 103.641 353.776 103.393 351.797 102.898C349.818 102.43 347.956 101.714 346.211 100.75C344.466 99.8125 343.008 98.6146 341.836 97.1562L347.031 89.9688C348.229 91.3229 349.661 92.4167 351.328 93.25C352.995 94.1094 354.896 94.5391 357.031 94.5391C358.984 94.5391 360.638 94.1875 361.992 93.4844C363.346 92.7812 364.375 91.7526 365.078 90.3984C365.807 89.0443 366.172 87.4036 366.172 85.4766V54.6172L367.344 44.7344ZM339.102 66.375V65.5547C339.102 62.3516 339.492 59.4349 340.273 56.8047C341.055 54.1484 342.188 51.8698 343.672 49.9688C345.182 48.0417 346.992 46.5573 349.102 45.5156C351.237 44.474 353.633 43.9531 356.289 43.9531C359.154 43.9531 361.523 44.5 363.398 45.5938C365.273 46.6615 366.797 48.1719 367.969 50.125C369.141 52.0521 370.065 54.3307 370.742 56.9609C371.419 59.5651 371.966 62.3906 372.383 65.4375V66.8438C371.966 69.7604 371.367 72.4818 370.586 75.0078C369.805 77.5339 368.789 79.7604 367.539 81.6875C366.289 83.5885 364.727 85.0859 362.852 86.1797C361.003 87.2474 358.789 87.7812 356.211 87.7812C353.581 87.7812 351.211 87.2474 349.102 86.1797C346.992 85.112 345.182 83.6146 343.672 81.6875C342.188 79.7604 341.055 77.4948 340.273 74.8906C339.492 72.2865 339.102 69.4479 339.102 66.375ZM351.289 65.5547V66.375C351.289 68.0417 351.445 69.5911 351.758 71.0234C352.096 72.4557 352.591 73.7188 353.242 74.8125C353.919 75.9062 354.753 76.7656 355.742 77.3906C356.758 77.9896 357.943 78.2891 359.297 78.2891C361.276 78.2891 362.878 77.8724 364.102 77.0391C365.352 76.1797 366.263 74.9948 366.836 73.4844C367.435 71.974 367.747 70.2161 367.773 68.2109V64.1094C367.773 62.4427 367.604 60.9453 367.266 59.6172C366.927 58.2891 366.419 57.1693 365.742 56.2578C365.091 55.3464 364.232 54.6562 363.164 54.1875C362.122 53.6927 360.859 53.4453 359.375 53.4453C358.047 53.4453 356.875 53.7578 355.859 54.3828C354.844 54.9818 353.997 55.8281 353.32 56.9219C352.643 58.0156 352.135 59.3047 351.797 60.7891C351.458 62.2474 351.289 63.8359 351.289 65.5547Z" fill="white"/>
<path d="M298 30H329" stroke="white" stroke-width="8" stroke-linecap="round"/>
</svg>
