<svg width="608" height="96" viewBox="0 0 608 96" fill="none" xmlns="http://www.w3.org/2000/svg">
<path d="M14.4375 24.5V70H4.25V24.5H14.4375ZM41.625 24.5L23.8125 47.25L13.4375 58.5L11.5938 49.0312L18.4375 39.2188L29.125 24.5H41.625ZM29.8125 70L17.25 49.2188L25 43.1875L41.875 70H29.8125ZM59.6875 70.625C57 70.625 54.5938 70.1979 52.4688 69.3438C50.3438 68.4896 48.5417 67.3125 47.0625 65.8125C45.6042 64.2917 44.4896 62.5417 43.7188 60.5625C42.9479 58.5833 42.5625 56.4688 42.5625 54.2188V53.0312C42.5625 50.5104 42.9167 48.1875 43.625 46.0625C44.3333 43.9375 45.3646 42.0938 46.7188 40.5312C48.0938 38.9479 49.7812 37.7292 51.7812 36.875C53.7812 36 56.0625 35.5625 58.625 35.5625C61.0208 35.5625 63.1562 35.9583 65.0312 36.75C66.9062 37.5208 68.4896 38.6354 69.7812 40.0938C71.0729 41.5312 72.0521 43.2708 72.7188 45.3125C73.4062 47.3333 73.75 49.6042 73.75 52.125V56.125H46.5V49.8438H64.1875V49.0938C64.1875 47.9062 63.9688 46.8646 63.5312 45.9688C63.1146 45.0729 62.4896 44.3854 61.6562 43.9062C60.8438 43.4062 59.8125 43.1562 58.5625 43.1562C57.375 43.1562 56.3854 43.4062 55.5938 43.9062C54.8021 44.4062 54.1667 45.1146 53.6875 46.0312C53.2292 46.9271 52.8958 47.9792 52.6875 49.1875C52.4792 50.375 52.375 51.6562 52.375 53.0312V54.2188C52.375 55.5312 52.5521 56.7292 52.9062 57.8125C53.2604 58.8958 53.7812 59.8229 54.4688 60.5938C55.1562 61.3646 55.9896 61.9688 56.9688 62.4062C57.9479 62.8438 59.0625 63.0625 60.3125 63.0625C61.8542 63.0625 63.3229 62.7708 64.7188 62.1875C66.1146 61.5833 67.3229 60.6458 68.3438 59.375L72.9062 64.5938C72.2188 65.5938 71.25 66.5625 70 67.5C68.7708 68.4167 67.2917 69.1667 65.5625 69.75C63.8333 70.3333 61.875 70.625 59.6875 70.625ZM93.4062 70H83.4062L83.4688 62.125H93.4062C95.6771 62.125 97.5938 61.6042 99.1562 60.5625C100.719 59.5 101.906 57.9375 102.719 55.875C103.531 53.7917 103.938 51.2604 103.938 48.2812V46.1875C103.938 43.9375 103.708 41.9583 103.25 40.25C102.792 38.5208 102.115 37.0729 101.219 35.9062C100.323 34.7396 99.2083 33.8646 97.875 33.2812C96.5625 32.6979 95.0521 32.4062 93.3438 32.4062H83.2188V24.5H93.3438C96.4271 24.5 99.2396 25.0208 101.781 26.0625C104.344 27.1042 106.552 28.5938 108.406 30.5312C110.281 32.4688 111.729 34.7604 112.75 37.4062C113.771 40.0521 114.281 43 114.281 46.25V48.2812C114.281 51.5104 113.771 54.4583 112.75 57.125C111.729 59.7708 110.281 62.0625 108.406 64C106.552 65.9167 104.354 67.3958 101.812 68.4375C99.2708 69.4792 96.4688 70 93.4062 70ZM89.1875 24.5V70H79V24.5H89.1875ZM138.719 33.1562L126.969 70H116.094L132.938 24.5H139.812L138.719 33.1562ZM148.469 70L136.688 33.1562L135.469 24.5H142.438L159.344 70H148.469ZM147.969 53.0625V60.9375H124.25V53.0625H147.969ZM164.344 22V26.8125L163.344 39.4688H157.312V27.2188V22H164.344ZM184.188 60.5938C184.188 59.9688 183.99 59.4167 183.594 58.9375C183.219 58.4583 182.531 58.0208 181.531 57.625C180.552 57.2292 179.167 56.8333 177.375 56.4375C175.688 56.0833 174.115 55.625 172.656 55.0625C171.198 54.4792 169.927 53.7812 168.844 52.9688C167.76 52.1354 166.917 51.1562 166.312 50.0312C165.708 48.8854 165.406 47.5833 165.406 46.125C165.406 44.7083 165.708 43.3646 166.312 42.0938C166.938 40.8229 167.833 39.6979 169 38.7188C170.188 37.7396 171.625 36.9688 173.312 36.4062C175.021 35.8438 176.958 35.5625 179.125 35.5625C182.104 35.5625 184.677 36.0312 186.844 36.9688C189.01 37.8854 190.677 39.1771 191.844 40.8438C193.01 42.4896 193.594 44.375 193.594 46.5H183.844C183.844 45.625 183.677 44.8646 183.344 44.2188C183.01 43.5729 182.5 43.0729 181.812 42.7188C181.125 42.3438 180.219 42.1562 179.094 42.1562C178.219 42.1562 177.448 42.3125 176.781 42.625C176.135 42.9167 175.625 43.3229 175.25 43.8438C174.896 44.3646 174.719 44.9688 174.719 45.6562C174.719 46.1354 174.823 46.5729 175.031 46.9688C175.26 47.3438 175.604 47.6979 176.062 48.0312C176.542 48.3438 177.156 48.625 177.906 48.875C178.677 49.125 179.615 49.3646 180.719 49.5938C183.073 50.0312 185.219 50.6458 187.156 51.4375C189.115 52.2292 190.677 53.3229 191.844 54.7188C193.031 56.1146 193.625 57.9583 193.625 60.25C193.625 61.75 193.281 63.125 192.594 64.375C191.927 65.625 190.958 66.7188 189.688 67.6562C188.417 68.5938 186.896 69.3229 185.125 69.8438C183.354 70.3646 181.354 70.625 179.125 70.625C175.938 70.625 173.24 70.0521 171.031 68.9062C168.823 67.7604 167.156 66.3229 166.031 64.5938C164.927 62.8438 164.375 61.0521 164.375 59.2188H173.531C173.573 60.3438 173.854 61.2604 174.375 61.9688C174.917 62.6771 175.615 63.1979 176.469 63.5312C177.323 63.8438 178.281 64 179.344 64C180.406 64 181.292 63.8542 182 63.5625C182.708 63.2708 183.25 62.875 183.625 62.375C184 61.8542 184.188 61.2604 184.188 60.5938ZM226.25 64.3125L235.312 24.5H240.531L242.594 29.4375L232.938 70H227.219L226.25 64.3125ZM222.719 24.5L230.312 64.5L229 70H222.5L212.625 24.5H222.719ZM249.062 64.2812L256.562 24.5H266.625L256.75 70H250.312L249.062 64.2812ZM243.938 24.5L253.125 64.5312L252.062 70H246.375L236.562 29.4062L238.719 24.5H243.938ZM268.406 53.4375V52.7812C268.406 50.3021 268.76 48.0208 269.469 45.9375C270.177 43.8333 271.219 42.0104 272.594 40.4688C273.969 38.9271 275.656 37.7292 277.656 36.875C279.656 36 281.948 35.5625 284.531 35.5625C287.156 35.5625 289.469 36 291.469 36.875C293.49 37.7292 295.188 38.9271 296.562 40.4688C297.938 42.0104 298.979 43.8333 299.688 45.9375C300.396 48.0208 300.75 50.3021 300.75 52.7812V53.4375C300.75 55.8958 300.396 58.1771 299.688 60.2812C298.979 62.3646 297.938 64.1875 296.562 65.75C295.188 67.2917 293.5 68.4896 291.5 69.3438C289.5 70.1979 287.198 70.625 284.594 70.625C282.01 70.625 279.708 70.1979 277.688 69.3438C275.667 68.4896 273.969 67.2917 272.594 65.75C271.219 64.1875 270.177 62.3646 269.469 60.2812C268.76 58.1771 268.406 55.8958 268.406 53.4375ZM278.188 52.7812V53.4375C278.188 54.7708 278.292 56.0208 278.5 57.1875C278.729 58.3542 279.094 59.375 279.594 60.25C280.094 61.125 280.75 61.8125 281.562 62.3125C282.396 62.7917 283.406 63.0312 284.594 63.0312C285.781 63.0312 286.781 62.7917 287.594 62.3125C288.406 61.8125 289.062 61.125 289.562 60.25C290.062 59.375 290.417 58.3542 290.625 57.1875C290.854 56.0208 290.969 54.7708 290.969 53.4375V52.7812C290.969 51.4688 290.854 50.2396 290.625 49.0938C290.417 47.9271 290.062 46.8958 289.562 46C289.062 45.1042 288.396 44.4062 287.562 43.9062C286.75 43.4062 285.74 43.1562 284.531 43.1562C283.365 43.1562 282.375 43.4062 281.562 43.9062C280.75 44.4062 280.094 45.1042 279.594 46C279.094 46.8958 278.729 47.9271 278.5 49.0938C278.292 50.2396 278.188 51.4688 278.188 52.7812ZM315.656 44.0625V70H305.906V36.1875H315.062L315.656 44.0625ZM325.75 35.9375L325.594 45.0312C325.177 44.9688 324.635 44.9167 323.969 44.875C323.302 44.8125 322.729 44.7812 322.25 44.7812C321 44.7812 319.917 44.9375 319 45.25C318.104 45.5417 317.354 45.9792 316.75 46.5625C316.167 47.1458 315.729 47.875 315.438 48.75C315.146 49.6042 315 50.5938 315 51.7188L313.156 50.8125C313.156 48.5833 313.375 46.5417 313.812 44.6875C314.25 42.8333 314.885 41.2292 315.719 39.875C316.552 38.5 317.573 37.4375 318.781 36.6875C319.99 35.9375 321.365 35.5625 322.906 35.5625C323.406 35.5625 323.917 35.5938 324.438 35.6562C324.958 35.7188 325.396 35.8125 325.75 35.9375ZM339.562 21.9688V70H329.781V21.9688H339.562ZM361.031 36.1875L346.312 53.1875L338.531 61L334.625 54.4062L340.938 46.25L349.281 36.1875H361.031ZM350.719 70L341.188 54.4688L348.188 49L361.906 70H350.719ZM374.656 36.1875V70H364.875V36.1875H374.656ZM364.281 27.4375C364.281 26.0208 364.781 24.8646 365.781 23.9688C366.781 23.0521 368.094 22.5938 369.719 22.5938C371.344 22.5938 372.656 23.0521 373.656 23.9688C374.677 24.8646 375.188 26.0208 375.188 27.4375C375.188 28.8333 374.677 29.9896 373.656 30.9062C372.656 31.8021 371.344 32.25 369.719 32.25C368.094 32.25 366.781 31.8021 365.781 30.9062C364.781 29.9896 364.281 28.8333 364.281 27.4375ZM391.25 43.4062V70H381.469V36.1875H390.656L391.25 43.4062ZM389.969 51.9062L387.531 51.9688C387.531 49.4271 387.844 47.1458 388.469 45.125C389.094 43.1042 389.979 41.3854 391.125 39.9688C392.292 38.5312 393.677 37.4375 395.281 36.6875C396.906 35.9375 398.698 35.5625 400.656 35.5625C402.24 35.5625 403.688 35.7917 405 36.25C406.312 36.7083 407.438 37.4479 408.375 38.4688C409.333 39.4688 410.062 40.8021 410.562 42.4688C411.062 44.1146 411.312 46.1458 411.312 48.5625V70H401.5V48.5312C401.5 47.1146 401.302 46.0208 400.906 45.25C400.51 44.4792 399.927 43.9375 399.156 43.625C398.406 43.3125 397.49 43.1562 396.406 43.1562C395.26 43.1562 394.281 43.3854 393.469 43.8438C392.656 44.2812 391.99 44.8958 391.469 45.6875C390.948 46.4792 390.562 47.4062 390.312 48.4688C390.083 49.5312 389.969 50.6771 389.969 51.9062ZM439 36.1875H447.875V68.7812C447.875 71.8854 447.167 74.5208 445.75 76.6875C444.354 78.8542 442.406 80.5 439.906 81.625C437.406 82.75 434.479 83.3125 431.125 83.3125C429.667 83.3125 428.146 83.1146 426.562 82.7188C424.979 82.3438 423.49 81.7708 422.094 81C420.698 80.25 419.531 79.2917 418.594 78.125L422.75 72.375C423.708 73.4583 424.854 74.3333 426.188 75C427.521 75.6875 429.042 76.0312 430.75 76.0312C432.312 76.0312 433.635 75.75 434.719 75.1875C435.802 74.625 436.625 73.8021 437.188 72.7188C437.771 71.6354 438.062 70.3229 438.062 68.7812V44.0938L439 36.1875ZM416.406 53.5V52.8438C416.406 50.2812 416.719 47.9479 417.344 45.8438C417.969 43.7188 418.875 41.8958 420.062 40.375C421.271 38.8333 422.719 37.6458 424.406 36.8125C426.115 35.9792 428.031 35.5625 430.156 35.5625C432.448 35.5625 434.344 36 435.844 36.875C437.344 37.7292 438.562 38.9375 439.5 40.5C440.438 42.0417 441.177 43.8646 441.719 45.9688C442.26 48.0521 442.698 50.3125 443.031 52.75V53.875C442.698 56.2083 442.219 58.3854 441.594 60.4062C440.969 62.4271 440.156 64.2083 439.156 65.75C438.156 67.2708 436.906 68.4688 435.406 69.3438C433.927 70.1979 432.156 70.625 430.094 70.625C427.99 70.625 426.094 70.1979 424.406 69.3438C422.719 68.4896 421.271 67.2917 420.062 65.75C418.875 64.2083 417.969 62.3958 417.344 60.3125C416.719 58.2292 416.406 55.9583 416.406 53.5ZM426.156 52.8438V53.5C426.156 54.8333 426.281 56.0729 426.531 57.2188C426.802 58.3646 427.198 59.375 427.719 60.25C428.26 61.125 428.927 61.8125 429.719 62.3125C430.531 62.7917 431.479 63.0312 432.562 63.0312C434.146 63.0312 435.427 62.6979 436.406 62.0312C437.406 61.3438 438.135 60.3958 438.594 59.1875C439.073 57.9792 439.323 56.5729 439.344 54.9688V51.6875C439.344 50.3542 439.208 49.1562 438.938 48.0938C438.667 47.0312 438.26 46.1354 437.719 45.4062C437.198 44.6771 436.51 44.125 435.656 43.75C434.823 43.3542 433.812 43.1562 432.625 43.1562C431.562 43.1562 430.625 43.4062 429.812 43.9062C429 44.3854 428.323 45.0625 427.781 45.9375C427.24 46.8125 426.833 47.8438 426.562 49.0312C426.292 50.1979 426.156 51.4688 426.156 52.8438ZM488.312 60.5938C488.312 59.9688 488.115 59.4167 487.719 58.9375C487.344 58.4583 486.656 58.0208 485.656 57.625C484.677 57.2292 483.292 56.8333 481.5 56.4375C479.812 56.0833 478.24 55.625 476.781 55.0625C475.323 54.4792 474.052 53.7812 472.969 52.9688C471.885 52.1354 471.042 51.1562 470.438 50.0312C469.833 48.8854 469.531 47.5833 469.531 46.125C469.531 44.7083 469.833 43.3646 470.438 42.0938C471.062 40.8229 471.958 39.6979 473.125 38.7188C474.312 37.7396 475.75 36.9688 477.438 36.4062C479.146 35.8438 481.083 35.5625 483.25 35.5625C486.229 35.5625 488.802 36.0312 490.969 36.9688C493.135 37.8854 494.802 39.1771 495.969 40.8438C497.135 42.4896 497.719 44.375 497.719 46.5H487.969C487.969 45.625 487.802 44.8646 487.469 44.2188C487.135 43.5729 486.625 43.0729 485.938 42.7188C485.25 42.3438 484.344 42.1562 483.219 42.1562C482.344 42.1562 481.573 42.3125 480.906 42.625C480.26 42.9167 479.75 43.3229 479.375 43.8438C479.021 44.3646 478.844 44.9688 478.844 45.6562C478.844 46.1354 478.948 46.5729 479.156 46.9688C479.385 47.3438 479.729 47.6979 480.188 48.0312C480.667 48.3438 481.281 48.625 482.031 48.875C482.802 49.125 483.74 49.3646 484.844 49.5938C487.198 50.0312 489.344 50.6458 491.281 51.4375C493.24 52.2292 494.802 53.3229 495.969 54.7188C497.156 56.1146 497.75 57.9583 497.75 60.25C497.75 61.75 497.406 63.125 496.719 64.375C496.052 65.625 495.083 66.7188 493.812 67.6562C492.542 68.5938 491.021 69.3229 489.25 69.8438C487.479 70.3646 485.479 70.625 483.25 70.625C480.062 70.625 477.365 70.0521 475.156 68.9062C472.948 67.7604 471.281 66.3229 470.156 64.5938C469.052 62.8438 468.5 61.0521 468.5 59.2188H477.656C477.698 60.3438 477.979 61.2604 478.5 61.9688C479.042 62.6771 479.74 63.1979 480.594 63.5312C481.448 63.8438 482.406 64 483.469 64C484.531 64 485.417 63.8542 486.125 63.5625C486.833 63.2708 487.375 62.875 487.75 62.375C488.125 61.8542 488.312 61.2604 488.312 60.5938ZM520.375 36.1875V43.0312H500.312V36.1875H520.375ZM504.906 27.8125H514.688V59.4062C514.688 60.3438 514.802 61.0625 515.031 61.5625C515.26 62.0625 515.635 62.4167 516.156 62.625C516.677 62.8125 517.344 62.9062 518.156 62.9062C518.74 62.9062 519.24 62.8854 519.656 62.8438C520.073 62.8021 520.458 62.75 520.812 62.6875V69.75C519.979 70.0208 519.094 70.2292 518.156 70.375C517.219 70.5417 516.198 70.625 515.094 70.625C512.99 70.625 511.167 70.2812 509.625 69.5938C508.104 68.9062 506.938 67.8229 506.125 66.3438C505.312 64.8438 504.906 62.8958 504.906 60.5V27.8125ZM535.25 66.0938L544.094 36.1875H554.594L541 75.0625C540.708 75.9167 540.312 76.8333 539.812 77.8125C539.333 78.7917 538.677 79.7292 537.844 80.625C537.031 81.5208 535.99 82.25 534.719 82.8125C533.448 83.375 531.885 83.6562 530.031 83.6562C529.094 83.6562 528.365 83.6042 527.844 83.5C527.344 83.4167 526.677 83.2708 525.844 83.0625L525.812 75.9688C526.083 75.9688 526.323 75.9688 526.531 75.9688C526.76 75.9896 526.99 76 527.219 76C528.385 76 529.323 75.875 530.031 75.625C530.76 75.375 531.323 75 531.719 74.5C532.135 74.0208 532.469 73.4062 532.719 72.6562L535.25 66.0938ZM532.281 36.1875L539.281 60.25L540.469 70.5938L533.875 70.9375L521.781 36.1875H532.281ZM568.031 22V70H558.25V22H568.031ZM591 70.625C588.312 70.625 585.906 70.1979 583.781 69.3438C581.656 68.4896 579.854 67.3125 578.375 65.8125C576.917 64.2917 575.802 62.5417 575.031 60.5625C574.26 58.5833 573.875 56.4688 573.875 54.2188V53.0312C573.875 50.5104 574.229 48.1875 574.938 46.0625C575.646 43.9375 576.677 42.0938 578.031 40.5312C579.406 38.9479 581.094 37.7292 583.094 36.875C585.094 36 587.375 35.5625 589.938 35.5625C592.333 35.5625 594.469 35.9583 596.344 36.75C598.219 37.5208 599.802 38.6354 601.094 40.0938C602.385 41.5312 603.365 43.2708 604.031 45.3125C604.719 47.3333 605.062 49.6042 605.062 52.125V56.125H577.812V49.8438H595.5V49.0938C595.5 47.9062 595.281 46.8646 594.844 45.9688C594.427 45.0729 593.802 44.3854 592.969 43.9062C592.156 43.4062 591.125 43.1562 589.875 43.1562C588.688 43.1562 587.698 43.4062 586.906 43.9062C586.115 44.4062 585.479 45.1146 585 46.0312C584.542 46.9271 584.208 47.9792 584 49.1875C583.792 50.375 583.688 51.6562 583.688 53.0312V54.2188C583.688 55.5312 583.865 56.7292 584.219 57.8125C584.573 58.8958 585.094 59.8229 585.781 60.5938C586.469 61.3646 587.302 61.9688 588.281 62.4062C589.26 62.8438 590.375 63.0625 591.625 63.0625C593.167 63.0625 594.635 62.7708 596.031 62.1875C597.427 61.5833 598.635 60.6458 599.656 59.375L604.219 64.5938C603.531 65.5938 602.562 66.5625 601.312 67.5C600.083 68.4167 598.604 69.1667 596.875 69.75C595.146 70.3333 593.188 70.625 591 70.625Z" fill="#333333"/>
<path d="M277 30H294" stroke="#333333" stroke-width="3" stroke-linecap="round"/>
</svg>
