<svg width="293" height="72" viewBox="0 0 293 72" fill="none" xmlns="http://www.w3.org/2000/svg">
<path d="M2.74 17.16C2.35333 17.16 2.05333 17.0533 1.84 16.84C1.64 16.6267 1.54 16.32 1.54 15.92V4.02C1.54 3.60667 1.64 3.29333 1.84 3.08C2.05333 2.85333 2.32667 2.74 2.66 2.74C2.96667 2.74 3.19333 2.8 3.34 2.92C3.5 3.02667 3.68667 3.21333 3.9 3.48L11.56 13.42H11.04V3.96C11.04 3.57333 11.14 3.27333 11.34 3.06C11.5533 2.84667 11.8533 2.74 12.24 2.74C12.6267 2.74 12.92 2.84667 13.12 3.06C13.32 3.27333 13.42 3.57333 13.42 3.96V15.96C13.42 16.3333 13.3267 16.6267 13.14 16.84C12.9533 17.0533 12.7 17.16 12.38 17.16C12.0733 17.16 11.8267 17.1 11.64 16.98C11.4667 16.86 11.2733 16.6667 11.06 16.4L3.42 6.46H3.92V15.92C3.92 16.32 3.82 16.6267 3.62 16.84C3.42 17.0533 3.12667 17.16 2.74 17.16ZM21.0809 17.2C19.9743 17.2 19.0209 16.9933 18.2209 16.58C17.4209 16.1667 16.8009 15.58 16.3609 14.82C15.9343 14.06 15.7209 13.16 15.7209 12.12C15.7209 11.1067 15.9276 10.22 16.3409 9.46C16.7676 8.7 17.3476 8.10667 18.0809 7.68C18.8276 7.24 19.6743 7.02 20.6209 7.02C21.3143 7.02 21.9343 7.13333 22.4809 7.36C23.0409 7.58667 23.5143 7.91333 23.9009 8.34C24.3009 8.76667 24.6009 9.28667 24.8009 9.9C25.0143 10.5 25.1209 11.18 25.1209 11.94C25.1209 12.18 25.0343 12.3667 24.8609 12.5C24.7009 12.62 24.4676 12.68 24.1609 12.68H17.7409V11.24H23.3609L23.0409 11.54C23.0409 10.9267 22.9476 10.4133 22.7609 10C22.5876 9.58667 22.3276 9.27333 21.9809 9.06C21.6476 8.83333 21.2276 8.72 20.7209 8.72C20.1609 8.72 19.6809 8.85333 19.2809 9.12C18.8943 9.37333 18.5943 9.74 18.3809 10.22C18.1809 10.6867 18.0809 11.2467 18.0809 11.9V12.04C18.0809 13.1333 18.3343 13.9533 18.8409 14.5C19.3609 15.0333 20.1209 15.3 21.1209 15.3C21.4676 15.3 21.8543 15.26 22.2809 15.18C22.7209 15.0867 23.1343 14.9333 23.5209 14.72C23.8009 14.56 24.0476 14.4933 24.2609 14.52C24.4743 14.5333 24.6409 14.6067 24.7609 14.74C24.8943 14.8733 24.9743 15.04 25.0009 15.24C25.0276 15.4267 24.9876 15.62 24.8809 15.82C24.7876 16.02 24.6209 16.1933 24.3809 16.34C23.9143 16.6333 23.3743 16.8533 22.7609 17C22.1609 17.1333 21.6009 17.2 21.0809 17.2ZM27.7222 17.1C27.4289 17.1 27.1822 17.02 26.9822 16.86C26.7955 16.6867 26.6955 16.4667 26.6822 16.2C26.6822 15.9333 26.7955 15.6533 27.0222 15.36L30.2622 11.36V12.54L27.2222 8.8C26.9822 8.50667 26.8689 8.22667 26.8822 7.96C26.8955 7.69333 26.9955 7.48 27.1822 7.32C27.3822 7.14667 27.6289 7.06 27.9222 7.06C28.2289 7.06 28.4822 7.11333 28.6822 7.22C28.8955 7.32667 29.0889 7.49333 29.2622 7.72L31.6622 10.8H30.7822L33.2022 7.72C33.3889 7.49333 33.5822 7.32667 33.7822 7.22C33.9822 7.11333 34.2289 7.06 34.5222 7.06C34.8289 7.06 35.0755 7.14667 35.2622 7.32C35.4489 7.49333 35.5422 7.71333 35.5422 7.98C35.5555 8.24667 35.4422 8.52667 35.2022 8.82L32.1822 12.52V11.4L35.4222 15.36C35.6622 15.64 35.7755 15.9133 35.7622 16.18C35.7489 16.4467 35.6422 16.6667 35.4422 16.84C35.2555 17.0133 35.0089 17.1 34.7022 17.1C34.4089 17.1 34.1622 17.0467 33.9622 16.94C33.7622 16.8333 33.5689 16.6667 33.3822 16.44L30.7822 13.16H31.6222L29.0422 16.44C28.8689 16.6533 28.6822 16.82 28.4822 16.94C28.2822 17.0467 28.0289 17.1 27.7222 17.1ZM42.4402 17.2C41.5735 17.2 40.8468 17.0533 40.2602 16.76C39.6868 16.4667 39.2602 16.04 38.9802 15.48C38.7002 14.9067 38.5602 14.2 38.5602 13.36V9.1H37.5202C37.2002 9.1 36.9535 9.02 36.7802 8.86C36.6068 8.68667 36.5202 8.45333 36.5202 8.16C36.5202 7.85333 36.6068 7.62 36.7802 7.46C36.9535 7.3 37.2002 7.22 37.5202 7.22H38.5602V5.4C38.5602 4.98667 38.6668 4.67333 38.8802 4.46C39.1068 4.24667 39.4202 4.14 39.8202 4.14C40.2202 4.14 40.5268 4.24667 40.7402 4.46C40.9535 4.67333 41.0602 4.98667 41.0602 5.4V7.22H43.1802C43.5002 7.22 43.7468 7.3 43.9202 7.46C44.0935 7.62 44.1802 7.85333 44.1802 8.16C44.1802 8.45333 44.0935 8.68667 43.9202 8.86C43.7468 9.02 43.5002 9.1 43.1802 9.1H41.0602V13.22C41.0602 13.86 41.2002 14.34 41.4802 14.66C41.7602 14.98 42.2135 15.14 42.8402 15.14C43.0668 15.14 43.2668 15.12 43.4402 15.08C43.6135 15.04 43.7668 15.0133 43.9002 15C44.0602 14.9867 44.1935 15.04 44.3002 15.16C44.4068 15.2667 44.4602 15.4933 44.4602 15.84C44.4602 16.1067 44.4135 16.3467 44.3202 16.56C44.2402 16.76 44.0868 16.9 43.8602 16.98C43.6868 17.0333 43.4602 17.08 43.1802 17.12C42.9002 17.1733 42.6535 17.2 42.4402 17.2Z" fill="#333333"/>
<path d="M21.6211 58.4297V63H6.48438V58.4297H21.6211ZM8.39844 34.5625V63H2.53906V34.5625H8.39844ZM19.6484 46.1445V50.5977H6.48438V46.1445H19.6484ZM21.6016 34.5625V39.1523H6.48438V34.5625H21.6016ZM36.1133 57.1602C36.1133 56.7565 35.9961 56.3919 35.7617 56.0664C35.5273 55.7409 35.0911 55.4414 34.4531 55.168C33.8281 54.8815 32.9232 54.6211 31.7383 54.3867C30.6706 54.1523 29.6745 53.8594 28.75 53.5078C27.8385 53.1432 27.0443 52.707 26.3672 52.1992C25.7031 51.6914 25.1823 51.0924 24.8047 50.4023C24.4271 49.6992 24.2383 48.8984 24.2383 48C24.2383 47.1146 24.4271 46.2812 24.8047 45.5C25.1953 44.7188 25.7487 44.0286 26.4648 43.4297C27.194 42.8177 28.0794 42.3424 29.1211 42.0039C30.1758 41.6523 31.3607 41.4766 32.6758 41.4766C34.5117 41.4766 36.0872 41.7695 37.4023 42.3555C38.7305 42.9414 39.7461 43.7487 40.4492 44.7773C41.1654 45.793 41.5234 46.9518 41.5234 48.2539H35.8984C35.8984 47.707 35.7812 47.2188 35.5469 46.7891C35.3255 46.3464 34.974 46.0013 34.4922 45.7539C34.0234 45.4935 33.4115 45.3633 32.6562 45.3633C32.0312 45.3633 31.4909 45.474 31.0352 45.6953C30.5794 45.9036 30.2279 46.1901 29.9805 46.5547C29.7461 46.9062 29.6289 47.2969 29.6289 47.7266C29.6289 48.0521 29.694 48.3451 29.8242 48.6055C29.9674 48.8529 30.1953 49.0807 30.5078 49.2891C30.8203 49.4974 31.224 49.6927 31.7188 49.875C32.2266 50.0443 32.8516 50.2005 33.5938 50.3438C35.1172 50.6562 36.4779 51.0664 37.6758 51.5742C38.8737 52.069 39.8242 52.7461 40.5273 53.6055C41.2305 54.4518 41.582 55.5651 41.582 56.9453C41.582 57.8828 41.3737 58.7422 40.957 59.5234C40.5404 60.3047 39.9414 60.9883 39.1602 61.5742C38.3789 62.1471 37.4414 62.5964 36.3477 62.9219C35.2669 63.2344 34.0495 63.3906 32.6953 63.3906C30.7292 63.3906 29.0625 63.0391 27.6953 62.3359C26.3411 61.6328 25.3125 60.7409 24.6094 59.6602C23.9193 58.5664 23.5742 57.4466 23.5742 56.3008H28.9062C28.9323 57.069 29.1276 57.6875 29.4922 58.1562C29.8698 58.625 30.3451 58.9635 30.918 59.1719C31.5039 59.3802 32.1354 59.4844 32.8125 59.4844C33.5417 59.4844 34.1471 59.3867 34.6289 59.1914C35.1107 58.9831 35.4753 58.7096 35.7227 58.3711C35.9831 58.0195 36.1133 57.6159 36.1133 57.1602ZM55.5859 41.8672V45.8516H43.2812V41.8672H55.5859ZM46.3281 36.6523H51.9531V56.6328C51.9531 57.2448 52.0312 57.7135 52.1875 58.0391C52.3568 58.3646 52.6042 58.5924 52.9297 58.7227C53.2552 58.8398 53.6654 58.8984 54.1602 58.8984C54.5117 58.8984 54.8242 58.8854 55.0977 58.8594C55.3841 58.8203 55.625 58.7812 55.8203 58.7422L55.8398 62.8828C55.3581 63.0391 54.8372 63.1628 54.2773 63.2539C53.7174 63.3451 53.099 63.3906 52.4219 63.3906C51.1849 63.3906 50.1042 63.1888 49.1797 62.7852C48.2682 62.3685 47.5651 61.7044 47.0703 60.793C46.5755 59.8815 46.3281 58.6836 46.3281 57.1992V36.6523ZM64.7266 41.8672V63H59.082V41.8672H64.7266ZM58.7305 36.3594C58.7305 35.5391 59.0169 34.862 59.5898 34.3281C60.1628 33.7943 60.931 33.5273 61.8945 33.5273C62.8451 33.5273 63.6068 33.7943 64.1797 34.3281C64.7656 34.862 65.0586 35.5391 65.0586 36.3594C65.0586 37.1797 64.7656 37.8568 64.1797 38.3906C63.6068 38.9245 62.8451 39.1914 61.8945 39.1914C60.931 39.1914 60.1628 38.9245 59.5898 38.3906C59.0169 37.8568 58.7305 37.1797 58.7305 36.3594ZM75 46.2422V63H69.3555V41.8672H74.6484L75 46.2422ZM74.2188 51.6914H72.6562C72.6562 50.2201 72.832 48.8659 73.1836 47.6289C73.5482 46.3789 74.0755 45.2982 74.7656 44.3867C75.4688 43.4622 76.3346 42.7461 77.3633 42.2383C78.3919 41.7305 79.5833 41.4766 80.9375 41.4766C81.875 41.4766 82.7344 41.6198 83.5156 41.9062C84.2969 42.1797 84.9674 42.6159 85.5273 43.2148C86.1003 43.8008 86.543 44.569 86.8555 45.5195C87.168 46.457 87.3242 47.5833 87.3242 48.8984V63H81.6992V49.5234C81.6992 48.5599 81.569 47.8177 81.3086 47.2969C81.0482 46.776 80.6771 46.4115 80.1953 46.2031C79.7266 45.9948 79.1602 45.8906 78.4961 45.8906C77.7669 45.8906 77.1289 46.0404 76.582 46.3398C76.0482 46.6393 75.6055 47.056 75.2539 47.5898C74.9023 48.1107 74.6419 48.7227 74.4727 49.4258C74.3034 50.1289 74.2188 50.8841 74.2188 51.6914ZM86.7969 51.0469L84.7852 51.3008C84.7852 49.9206 84.9544 48.638 85.293 47.4531C85.6445 46.2682 86.1589 45.2266 86.8359 44.3281C87.526 43.4297 88.3789 42.7331 89.3945 42.2383C90.4102 41.7305 91.582 41.4766 92.9102 41.4766C93.9258 41.4766 94.8503 41.6263 95.6836 41.9258C96.5169 42.2122 97.2266 42.6745 97.8125 43.3125C98.4115 43.9375 98.8672 44.7578 99.1797 45.7734C99.5052 46.7891 99.668 48.0326 99.668 49.5039V63H94.0234V49.5039C94.0234 48.5273 93.8932 47.7852 93.6328 47.2773C93.3854 46.7565 93.0208 46.3984 92.5391 46.2031C92.0703 45.9948 91.5104 45.8906 90.8594 45.8906C90.1823 45.8906 89.5898 46.0273 89.082 46.3008C88.5742 46.5612 88.151 46.9258 87.8125 47.3945C87.474 47.8633 87.2201 48.4102 87.0508 49.0352C86.8815 49.6471 86.7969 50.3177 86.7969 51.0469ZM115.43 58.2344V48.8203C115.43 48.1432 115.319 47.5638 115.098 47.082C114.876 46.5872 114.531 46.2031 114.062 45.9297C113.607 45.6562 113.014 45.5195 112.285 45.5195C111.66 45.5195 111.12 45.6302 110.664 45.8516C110.208 46.0599 109.857 46.3659 109.609 46.7695C109.362 47.1602 109.238 47.6224 109.238 48.1562H103.613C103.613 47.2578 103.822 46.4049 104.238 45.5977C104.655 44.7904 105.26 44.0807 106.055 43.4688C106.849 42.8438 107.793 42.3555 108.887 42.0039C109.993 41.6523 111.23 41.4766 112.598 41.4766C114.238 41.4766 115.697 41.75 116.973 42.2969C118.249 42.8438 119.251 43.6641 119.98 44.7578C120.723 45.8516 121.094 47.2188 121.094 48.8594V57.9023C121.094 59.0612 121.165 60.0117 121.309 60.7539C121.452 61.4831 121.66 62.1211 121.934 62.668V63H116.25C115.977 62.4271 115.768 61.7109 115.625 60.8516C115.495 59.9792 115.43 59.1068 115.43 58.2344ZM116.172 50.1289L116.211 53.3125H113.066C112.324 53.3125 111.68 53.3971 111.133 53.5664C110.586 53.7357 110.137 53.9766 109.785 54.2891C109.434 54.5885 109.173 54.9401 109.004 55.3438C108.848 55.7474 108.77 56.1901 108.77 56.6719C108.77 57.1536 108.88 57.5898 109.102 57.9805C109.323 58.3581 109.642 58.6576 110.059 58.8789C110.475 59.0872 110.964 59.1914 111.523 59.1914C112.37 59.1914 113.105 59.0221 113.73 58.6836C114.355 58.3451 114.837 57.9284 115.176 57.4336C115.527 56.9388 115.71 56.4701 115.723 56.0273L117.207 58.4102C116.999 58.944 116.712 59.4974 116.348 60.0703C115.996 60.6432 115.547 61.1836 115 61.6914C114.453 62.1862 113.796 62.5964 113.027 62.9219C112.259 63.2344 111.348 63.3906 110.293 63.3906C108.952 63.3906 107.734 63.1237 106.641 62.5898C105.56 62.043 104.701 61.2943 104.062 60.3438C103.438 59.3802 103.125 58.2865 103.125 57.0625C103.125 55.9557 103.333 54.9727 103.75 54.1133C104.167 53.2539 104.779 52.5312 105.586 51.9453C106.406 51.3464 107.428 50.8971 108.652 50.5977C109.876 50.2852 111.296 50.1289 112.91 50.1289H116.172ZM135.781 41.8672V45.8516H123.477V41.8672H135.781ZM126.523 36.6523H132.148V56.6328C132.148 57.2448 132.227 57.7135 132.383 58.0391C132.552 58.3646 132.799 58.5924 133.125 58.7227C133.451 58.8398 133.861 58.8984 134.355 58.8984C134.707 58.8984 135.02 58.8854 135.293 58.8594C135.579 58.8203 135.82 58.7812 136.016 58.7422L136.035 62.8828C135.553 63.0391 135.033 63.1628 134.473 63.2539C133.913 63.3451 133.294 63.3906 132.617 63.3906C131.38 63.3906 130.299 63.1888 129.375 62.7852C128.464 62.3685 127.76 61.7044 127.266 60.793C126.771 59.8815 126.523 58.6836 126.523 57.1992V36.6523ZM144.922 41.8672V63H139.277V41.8672H144.922ZM138.926 36.3594C138.926 35.5391 139.212 34.862 139.785 34.3281C140.358 33.7943 141.126 33.5273 142.09 33.5273C143.04 33.5273 143.802 33.7943 144.375 34.3281C144.961 34.862 145.254 35.5391 145.254 36.3594C145.254 37.1797 144.961 37.8568 144.375 38.3906C143.802 38.9245 143.04 39.1914 142.09 39.1914C141.126 39.1914 140.358 38.9245 139.785 38.3906C139.212 37.8568 138.926 37.1797 138.926 36.3594ZM148.672 52.6484V52.2383C148.672 50.6888 148.893 49.263 149.336 47.9609C149.779 46.6458 150.423 45.5065 151.27 44.543C152.116 43.5794 153.158 42.8307 154.395 42.2969C155.632 41.75 157.051 41.4766 158.652 41.4766C160.254 41.4766 161.68 41.75 162.93 42.2969C164.18 42.8307 165.228 43.5794 166.074 44.543C166.934 45.5065 167.585 46.6458 168.027 47.9609C168.47 49.263 168.691 50.6888 168.691 52.2383V52.6484C168.691 54.1849 168.47 55.6107 168.027 56.9258C167.585 58.2279 166.934 59.3672 166.074 60.3438C165.228 61.3073 164.186 62.056 162.949 62.5898C161.712 63.1237 160.293 63.3906 158.691 63.3906C157.09 63.3906 155.664 63.1237 154.414 62.5898C153.177 62.056 152.129 61.3073 151.27 60.3438C150.423 59.3672 149.779 58.2279 149.336 56.9258C148.893 55.6107 148.672 54.1849 148.672 52.6484ZM154.297 52.2383V52.6484C154.297 53.5339 154.375 54.3607 154.531 55.1289C154.688 55.8971 154.935 56.5742 155.273 57.1602C155.625 57.7331 156.081 58.1823 156.641 58.5078C157.201 58.8333 157.884 58.9961 158.691 58.9961C159.473 58.9961 160.143 58.8333 160.703 58.5078C161.263 58.1823 161.712 57.7331 162.051 57.1602C162.389 56.5742 162.637 55.8971 162.793 55.1289C162.962 54.3607 163.047 53.5339 163.047 52.6484V52.2383C163.047 51.3789 162.962 50.5716 162.793 49.8164C162.637 49.0482 162.383 48.3711 162.031 47.7852C161.693 47.1862 161.243 46.7174 160.684 46.3789C160.124 46.0404 159.447 45.8711 158.652 45.8711C157.858 45.8711 157.181 46.0404 156.621 46.3789C156.074 46.7174 155.625 47.1862 155.273 47.7852C154.935 48.3711 154.688 49.0482 154.531 49.8164C154.375 50.5716 154.297 51.3789 154.297 52.2383ZM177.656 46.3789V63H172.031V41.8672H177.305L177.656 46.3789ZM176.836 51.6914H175.312C175.312 50.1289 175.514 48.7227 175.918 47.4727C176.322 46.2096 176.888 45.1354 177.617 44.25C178.346 43.3516 179.212 42.668 180.215 42.1992C181.23 41.7174 182.363 41.4766 183.613 41.4766C184.603 41.4766 185.508 41.6198 186.328 41.9062C187.148 42.1927 187.852 42.6484 188.438 43.2734C189.036 43.8984 189.492 44.7253 189.805 45.7539C190.13 46.7826 190.293 48.0391 190.293 49.5234V63H184.629V49.5039C184.629 48.5664 184.499 47.8372 184.238 47.3164C183.978 46.7956 183.594 46.431 183.086 46.2227C182.591 46.0013 181.979 45.8906 181.25 45.8906C180.495 45.8906 179.837 46.0404 179.277 46.3398C178.73 46.6393 178.275 47.056 177.91 47.5898C177.559 48.1107 177.292 48.7227 177.109 49.4258C176.927 50.1289 176.836 50.8841 176.836 51.6914Z" fill="#333333"/>
<rect x="221" width="72" height="72" rx="36" fill="#333333"/>
<path d="M242.5 36H271.5M258.812 23L271.5 36L258.812 49" stroke="white" stroke-width="2" stroke-linecap="round" stroke-linejoin="round"/>
<path d="M2 23H45" stroke="#333333" stroke-width="2" stroke-linecap="round"/>
</svg>
