<svg width="316" height="96" viewBox="0 0 316 96" fill="none" xmlns="http://www.w3.org/2000/svg">
<path d="M41.2812 24.5V70H31.125L13.9375 40.5938V70H3.75V24.5H13.9375L31.1562 53.9062V24.5H41.2812ZM64.25 70.625C61.5625 70.625 59.1562 70.1979 57.0312 69.3438C54.9062 68.4896 53.1042 67.3125 51.625 65.8125C50.1667 64.2917 49.0521 62.5417 48.2812 60.5625C47.5104 58.5833 47.125 56.4688 47.125 54.2188V53.0312C47.125 50.5104 47.4792 48.1875 48.1875 46.0625C48.8958 43.9375 49.9271 42.0938 51.2812 40.5312C52.6562 38.9479 54.3438 37.7292 56.3438 36.875C58.3438 36 60.625 35.5625 63.1875 35.5625C65.5833 35.5625 67.7188 35.9583 69.5938 36.75C71.4688 37.5208 73.0521 38.6354 74.3438 40.0938C75.6354 41.5312 76.6146 43.2708 77.2812 45.3125C77.9688 47.3333 78.3125 49.6042 78.3125 52.125V56.125H51.0625V49.8438H68.75V49.0938C68.75 47.9062 68.5312 46.8646 68.0938 45.9688C67.6771 45.0729 67.0521 44.3854 66.2188 43.9062C65.4062 43.4062 64.375 43.1562 63.125 43.1562C61.9375 43.1562 60.9479 43.4062 60.1562 43.9062C59.3646 44.4062 58.7292 45.1146 58.25 46.0312C57.7917 46.9271 57.4583 47.9792 57.25 49.1875C57.0417 50.375 56.9375 51.6562 56.9375 53.0312V54.2188C56.9375 55.5312 57.1146 56.7292 57.4688 57.8125C57.8229 58.8958 58.3438 59.8229 59.0312 60.5938C59.7188 61.3646 60.5521 61.9688 61.5312 62.4062C62.5104 62.8438 63.625 63.0625 64.875 63.0625C66.4167 63.0625 67.8854 62.7708 69.2812 62.1875C70.6771 61.5833 71.8854 60.6458 72.9062 59.375L77.4688 64.5938C76.7812 65.5938 75.8125 66.5625 74.5625 67.5C73.3333 68.4167 71.8542 69.1667 70.125 69.75C68.3958 70.3333 66.4375 70.625 64.25 70.625ZM91.125 36.1875L96.3125 45.9688L101.656 36.1875H111.906L102.688 52.6875L112.344 70H102.031L96.3438 59.5625L90.6875 70H80.3438L90 52.6875L80.8125 36.1875H91.125ZM133.062 36.1875V43.0312H113V36.1875H133.062ZM117.594 27.8125H127.375V59.4062C127.375 60.3438 127.49 61.0625 127.719 61.5625C127.948 62.0625 128.323 62.4167 128.844 62.625C129.365 62.8125 130.031 62.9062 130.844 62.9062C131.427 62.9062 131.927 62.8854 132.344 62.8438C132.76 62.8021 133.146 62.75 133.5 62.6875V69.75C132.667 70.0208 131.781 70.2292 130.844 70.375C129.906 70.5417 128.885 70.625 127.781 70.625C125.677 70.625 123.854 70.2812 122.312 69.5938C120.792 68.9062 119.625 67.8229 118.812 66.3438C118 64.8438 117.594 62.8958 117.594 60.5V27.8125ZM177.781 58C177.781 57.2292 177.667 56.5417 177.438 55.9375C177.208 55.3125 176.792 54.7396 176.188 54.2188C175.583 53.6979 174.729 53.1771 173.625 52.6562C172.521 52.1146 171.073 51.5625 169.281 51C167.24 50.3333 165.292 49.5833 163.438 48.75C161.604 47.8958 159.969 46.9062 158.531 45.7812C157.094 44.6562 155.958 43.3438 155.125 41.8438C154.312 40.3438 153.906 38.5938 153.906 36.5938C153.906 34.6562 154.333 32.9062 155.188 31.3438C156.042 29.7812 157.24 28.4479 158.781 27.3438C160.323 26.2188 162.135 25.3646 164.219 24.7812C166.302 24.1771 168.594 23.875 171.094 23.875C174.427 23.875 177.354 24.4688 179.875 25.6562C182.417 26.8229 184.396 28.4688 185.812 30.5938C187.229 32.6979 187.938 35.1458 187.938 37.9375H177.812C177.812 36.7083 177.552 35.625 177.031 34.6875C176.531 33.7292 175.76 32.9792 174.719 32.4375C173.698 31.8958 172.417 31.625 170.875 31.625C169.375 31.625 168.115 31.8542 167.094 32.3125C166.094 32.75 165.333 33.3542 164.812 34.125C164.312 34.8958 164.062 35.7396 164.062 36.6562C164.062 37.3854 164.25 38.0521 164.625 38.6562C165.021 39.2396 165.583 39.7917 166.312 40.3125C167.062 40.8125 167.979 41.2917 169.062 41.75C170.146 42.2083 171.385 42.6458 172.781 43.0625C175.219 43.8333 177.375 44.6875 179.25 45.625C181.146 46.5625 182.74 47.625 184.031 48.8125C185.323 50 186.292 51.3438 186.938 52.8438C187.604 54.3438 187.938 56.0417 187.938 57.9375C187.938 59.9583 187.542 61.75 186.75 63.3125C185.979 64.875 184.854 66.2083 183.375 67.3125C181.917 68.3958 180.167 69.2188 178.125 69.7812C176.083 70.3438 173.802 70.625 171.281 70.625C168.99 70.625 166.729 70.3333 164.5 69.75C162.271 69.1458 160.25 68.2292 158.438 67C156.646 65.7708 155.208 64.2083 154.125 62.3125C153.062 60.3958 152.531 58.125 152.531 55.5H162.719C162.719 56.875 162.917 58.0417 163.312 59C163.708 59.9375 164.271 60.6979 165 61.2812C165.75 61.8646 166.656 62.2812 167.719 62.5312C168.781 62.7812 169.969 62.9062 171.281 62.9062C172.802 62.9062 174.031 62.6979 174.969 62.2812C175.927 61.8438 176.635 61.25 177.094 60.5C177.552 59.75 177.781 58.9167 177.781 58ZM210.625 36.1875V43.0312H190.562V36.1875H210.625ZM195.156 27.8125H204.938V59.4062C204.938 60.3438 205.052 61.0625 205.281 61.5625C205.51 62.0625 205.885 62.4167 206.406 62.625C206.927 62.8125 207.594 62.9062 208.406 62.9062C208.99 62.9062 209.49 62.8854 209.906 62.8438C210.323 62.8021 210.708 62.75 211.062 62.6875V69.75C210.229 70.0208 209.344 70.2292 208.406 70.375C207.469 70.5417 206.448 70.625 205.344 70.625C203.24 70.625 201.417 70.2812 199.875 69.5938C198.354 68.9062 197.188 67.8229 196.375 66.3438C195.562 64.8438 195.156 62.8958 195.156 60.5V27.8125ZM231.25 70.625C228.562 70.625 226.156 70.1979 224.031 69.3438C221.906 68.4896 220.104 67.3125 218.625 65.8125C217.167 64.2917 216.052 62.5417 215.281 60.5625C214.51 58.5833 214.125 56.4688 214.125 54.2188V53.0312C214.125 50.5104 214.479 48.1875 215.188 46.0625C215.896 43.9375 216.927 42.0938 218.281 40.5312C219.656 38.9479 221.344 37.7292 223.344 36.875C225.344 36 227.625 35.5625 230.188 35.5625C232.583 35.5625 234.719 35.9583 236.594 36.75C238.469 37.5208 240.052 38.6354 241.344 40.0938C242.635 41.5312 243.615 43.2708 244.281 45.3125C244.969 47.3333 245.312 49.6042 245.312 52.125V56.125H218.062V49.8438H235.75V49.0938C235.75 47.9062 235.531 46.8646 235.094 45.9688C234.677 45.0729 234.052 44.3854 233.219 43.9062C232.406 43.4062 231.375 43.1562 230.125 43.1562C228.938 43.1562 227.948 43.4062 227.156 43.9062C226.365 44.4062 225.729 45.1146 225.25 46.0312C224.792 46.9271 224.458 47.9792 224.25 49.1875C224.042 50.375 223.938 51.6562 223.938 53.0312V54.2188C223.938 55.5312 224.115 56.7292 224.469 57.8125C224.823 58.8958 225.344 59.8229 226.031 60.5938C226.719 61.3646 227.552 61.9688 228.531 62.4062C229.51 62.8438 230.625 63.0625 231.875 63.0625C233.417 63.0625 234.885 62.7708 236.281 62.1875C237.677 61.5833 238.885 60.6458 239.906 59.375L244.469 64.5938C243.781 65.5938 242.812 66.5625 241.562 67.5C240.333 68.4167 238.854 69.1667 237.125 69.75C235.396 70.3333 233.438 70.625 231.25 70.625ZM259.844 42.6875V83H250.094V36.1875H259.188L259.844 42.6875ZM280.938 52.7188V53.375C280.938 55.8333 280.656 58.1146 280.094 60.2188C279.531 62.3021 278.688 64.125 277.562 65.6875C276.458 67.25 275.094 68.4688 273.469 69.3438C271.844 70.1979 269.958 70.625 267.812 70.625C265.771 70.625 264 70.1979 262.5 69.3438C261.021 68.4688 259.771 67.2604 258.75 65.7188C257.75 64.1562 256.938 62.375 256.312 60.375C255.708 58.3542 255.24 56.1979 254.906 53.9062V52.625C255.24 50.1875 255.719 47.9271 256.344 45.8438C256.969 43.7604 257.781 41.9583 258.781 40.4375C259.781 38.8958 261.021 37.6979 262.5 36.8438C263.979 35.9896 265.74 35.5625 267.781 35.5625C269.906 35.5625 271.792 35.9688 273.438 36.7812C275.083 37.5938 276.458 38.7604 277.562 40.2812C278.688 41.7812 279.531 43.5833 280.094 45.6875C280.656 47.7917 280.938 50.1354 280.938 52.7188ZM271.156 53.375V52.7188C271.156 51.3438 271.052 50.0833 270.844 48.9375C270.635 47.7708 270.302 46.7604 269.844 45.9062C269.385 45.0312 268.781 44.3542 268.031 43.875C267.281 43.3958 266.365 43.1562 265.281 43.1562C264.115 43.1562 263.125 43.3438 262.312 43.7188C261.5 44.0938 260.844 44.6458 260.344 45.375C259.844 46.0833 259.479 46.9583 259.25 48C259.042 49.0417 258.927 50.2292 258.906 51.5625V55C258.927 56.5625 259.146 57.9583 259.562 59.1875C260 60.3958 260.677 61.3438 261.594 62.0312C262.531 62.6979 263.781 63.0312 265.344 63.0312C266.448 63.0312 267.365 62.7917 268.094 62.3125C268.844 61.8125 269.438 61.1146 269.875 60.2188C270.333 59.3229 270.656 58.2917 270.844 57.125C271.052 55.9583 271.156 54.7083 271.156 53.375ZM304.125 60.5938C304.125 59.9688 303.927 59.4167 303.531 58.9375C303.156 58.4583 302.469 58.0208 301.469 57.625C300.49 57.2292 299.104 56.8333 297.312 56.4375C295.625 56.0833 294.052 55.625 292.594 55.0625C291.135 54.4792 289.865 53.7812 288.781 52.9688C287.698 52.1354 286.854 51.1562 286.25 50.0312C285.646 48.8854 285.344 47.5833 285.344 46.125C285.344 44.7083 285.646 43.3646 286.25 42.0938C286.875 40.8229 287.771 39.6979 288.938 38.7188C290.125 37.7396 291.562 36.9688 293.25 36.4062C294.958 35.8438 296.896 35.5625 299.062 35.5625C302.042 35.5625 304.615 36.0312 306.781 36.9688C308.948 37.8854 310.615 39.1771 311.781 40.8438C312.948 42.4896 313.531 44.375 313.531 46.5H303.781C303.781 45.625 303.615 44.8646 303.281 44.2188C302.948 43.5729 302.438 43.0729 301.75 42.7188C301.062 42.3438 300.156 42.1562 299.031 42.1562C298.156 42.1562 297.385 42.3125 296.719 42.625C296.073 42.9167 295.562 43.3229 295.188 43.8438C294.833 44.3646 294.656 44.9688 294.656 45.6562C294.656 46.1354 294.76 46.5729 294.969 46.9688C295.198 47.3438 295.542 47.6979 296 48.0312C296.479 48.3438 297.094 48.625 297.844 48.875C298.615 49.125 299.552 49.3646 300.656 49.5938C303.01 50.0312 305.156 50.6458 307.094 51.4375C309.052 52.2292 310.615 53.3229 311.781 54.7188C312.969 56.1146 313.562 57.9583 313.562 60.25C313.562 61.75 313.219 63.125 312.531 64.375C311.865 65.625 310.896 66.7188 309.625 67.6562C308.354 68.5938 306.833 69.3229 305.062 69.8438C303.292 70.3646 301.292 70.625 299.062 70.625C295.875 70.625 293.177 70.0521 290.969 68.9062C288.76 67.7604 287.094 66.3229 285.969 64.5938C284.865 62.8438 284.312 61.0521 284.312 59.2188H293.469C293.51 60.3438 293.792 61.2604 294.312 61.9688C294.854 62.6771 295.552 63.1979 296.406 63.5312C297.26 63.8438 298.219 64 299.281 64C300.344 64 301.229 63.8542 301.938 63.5625C302.646 63.2708 303.188 62.875 303.562 62.375C303.938 61.8542 304.125 61.2604 304.125 60.5938Z" fill="#333333"/>
<path d="M54 29H71" stroke="#333333" stroke-width="3" stroke-linecap="round"/>
</svg>
