<svg width="337" height="72" viewBox="0 0 337 72" fill="none" xmlns="http://www.w3.org/2000/svg">
<path d="M2.74 17.16C2.35333 17.16 2.05333 17.0533 1.84 16.84C1.64 16.6267 1.54 16.32 1.54 15.92V4.02C1.54 3.60667 1.64 3.29333 1.84 3.08C2.05333 2.85333 2.32667 2.74 2.66 2.74C2.96667 2.74 3.19333 2.8 3.34 2.92C3.5 3.02667 3.68667 3.21333 3.9 3.48L11.56 13.42H11.04V3.96C11.04 3.57333 11.14 3.27333 11.34 3.06C11.5533 2.84667 11.8533 2.74 12.24 2.74C12.6267 2.74 12.92 2.84667 13.12 3.06C13.32 3.27333 13.42 3.57333 13.42 3.96V15.96C13.42 16.3333 13.3267 16.6267 13.14 16.84C12.9533 17.0533 12.7 17.16 12.38 17.16C12.0733 17.16 11.8267 17.1 11.64 16.98C11.4667 16.86 11.2733 16.6667 11.06 16.4L3.42 6.46H3.92V15.92C3.92 16.32 3.82 16.6267 3.62 16.84C3.42 17.0533 3.12667 17.16 2.74 17.16ZM21.0809 17.2C19.9743 17.2 19.0209 16.9933 18.2209 16.58C17.4209 16.1667 16.8009 15.58 16.3609 14.82C15.9343 14.06 15.7209 13.16 15.7209 12.12C15.7209 11.1067 15.9276 10.22 16.3409 9.46C16.7676 8.7 17.3476 8.10667 18.0809 7.68C18.8276 7.24 19.6743 7.02 20.6209 7.02C21.3143 7.02 21.9343 7.13333 22.4809 7.36C23.0409 7.58667 23.5143 7.91333 23.9009 8.34C24.3009 8.76667 24.6009 9.28667 24.8009 9.9C25.0143 10.5 25.1209 11.18 25.1209 11.94C25.1209 12.18 25.0343 12.3667 24.8609 12.5C24.7009 12.62 24.4676 12.68 24.1609 12.68H17.7409V11.24H23.3609L23.0409 11.54C23.0409 10.9267 22.9476 10.4133 22.7609 10C22.5876 9.58667 22.3276 9.27333 21.9809 9.06C21.6476 8.83333 21.2276 8.72 20.7209 8.72C20.1609 8.72 19.6809 8.85333 19.2809 9.12C18.8943 9.37333 18.5943 9.74 18.3809 10.22C18.1809 10.6867 18.0809 11.2467 18.0809 11.9V12.04C18.0809 13.1333 18.3343 13.9533 18.8409 14.5C19.3609 15.0333 20.1209 15.3 21.1209 15.3C21.4676 15.3 21.8543 15.26 22.2809 15.18C22.7209 15.0867 23.1343 14.9333 23.5209 14.72C23.8009 14.56 24.0476 14.4933 24.2609 14.52C24.4743 14.5333 24.6409 14.6067 24.7609 14.74C24.8943 14.8733 24.9743 15.04 25.0009 15.24C25.0276 15.4267 24.9876 15.62 24.8809 15.82C24.7876 16.02 24.6209 16.1933 24.3809 16.34C23.9143 16.6333 23.3743 16.8533 22.7609 17C22.1609 17.1333 21.6009 17.2 21.0809 17.2ZM27.7222 17.1C27.4289 17.1 27.1822 17.02 26.9822 16.86C26.7955 16.6867 26.6955 16.4667 26.6822 16.2C26.6822 15.9333 26.7955 15.6533 27.0222 15.36L30.2622 11.36V12.54L27.2222 8.8C26.9822 8.50667 26.8689 8.22667 26.8822 7.96C26.8955 7.69333 26.9955 7.48 27.1822 7.32C27.3822 7.14667 27.6289 7.06 27.9222 7.06C28.2289 7.06 28.4822 7.11333 28.6822 7.22C28.8955 7.32667 29.0889 7.49333 29.2622 7.72L31.6622 10.8H30.7822L33.2022 7.72C33.3889 7.49333 33.5822 7.32667 33.7822 7.22C33.9822 7.11333 34.2289 7.06 34.5222 7.06C34.8289 7.06 35.0755 7.14667 35.2622 7.32C35.4489 7.49333 35.5422 7.71333 35.5422 7.98C35.5555 8.24667 35.4422 8.52667 35.2022 8.82L32.1822 12.52V11.4L35.4222 15.36C35.6622 15.64 35.7755 15.9133 35.7622 16.18C35.7489 16.4467 35.6422 16.6667 35.4422 16.84C35.2555 17.0133 35.0089 17.1 34.7022 17.1C34.4089 17.1 34.1622 17.0467 33.9622 16.94C33.7622 16.8333 33.5689 16.6667 33.3822 16.44L30.7822 13.16H31.6222L29.0422 16.44C28.8689 16.6533 28.6822 16.82 28.4822 16.94C28.2822 17.0467 28.0289 17.1 27.7222 17.1ZM42.4402 17.2C41.5735 17.2 40.8468 17.0533 40.2602 16.76C39.6868 16.4667 39.2602 16.04 38.9802 15.48C38.7002 14.9067 38.5602 14.2 38.5602 13.36V9.1H37.5202C37.2002 9.1 36.9535 9.02 36.7802 8.86C36.6068 8.68667 36.5202 8.45333 36.5202 8.16C36.5202 7.85333 36.6068 7.62 36.7802 7.46C36.9535 7.3 37.2002 7.22 37.5202 7.22H38.5602V5.4C38.5602 4.98667 38.6668 4.67333 38.8802 4.46C39.1068 4.24667 39.4202 4.14 39.8202 4.14C40.2202 4.14 40.5268 4.24667 40.7402 4.46C40.9535 4.67333 41.0602 4.98667 41.0602 5.4V7.22H43.1802C43.5002 7.22 43.7468 7.3 43.9202 7.46C44.0935 7.62 44.1802 7.85333 44.1802 8.16C44.1802 8.45333 44.0935 8.68667 43.9202 8.86C43.7468 9.02 43.5002 9.1 43.1802 9.1H41.0602V13.22C41.0602 13.86 41.2002 14.34 41.4802 14.66C41.7602 14.98 42.2135 15.14 42.8402 15.14C43.0668 15.14 43.2668 15.12 43.4402 15.08C43.6135 15.04 43.7668 15.0133 43.9002 15C44.0602 14.9867 44.1935 15.04 44.3002 15.16C44.4068 15.2667 44.4602 15.4933 44.4602 15.84C44.4602 16.1067 44.4135 16.3467 44.3202 16.56C44.2402 16.76 44.0868 16.9 43.8602 16.98C43.6868 17.0333 43.4602 17.08 43.1802 17.12C42.9002 17.1733 42.6535 17.2 42.4402 17.2Z" fill="#333333"/>
<path d="M11.2695 63H5.07812L5.11719 58.4297H11.2695C12.806 58.4297 14.1016 58.0846 15.1562 57.3945C16.2109 56.6914 17.0052 55.6693 17.5391 54.3281C18.0859 52.987 18.3594 51.3659 18.3594 49.4648V48.0781C18.3594 46.6198 18.2031 45.3372 17.8906 44.2305C17.5911 43.1237 17.1419 42.1927 16.543 41.4375C15.944 40.6823 15.2083 40.1159 14.3359 39.7383C13.4635 39.3477 12.4609 39.1523 11.3281 39.1523H4.96094V34.5625H11.3281C13.2292 34.5625 14.9674 34.888 16.543 35.5391C18.1315 36.1771 19.5052 37.0951 20.6641 38.293C21.8229 39.4909 22.7148 40.9232 23.3398 42.5898C23.9779 44.2435 24.2969 46.0859 24.2969 48.1172V49.4648C24.2969 51.4831 23.9779 53.3255 23.3398 54.9922C22.7148 56.6589 21.8229 58.0911 20.6641 59.2891C19.5182 60.474 18.1445 61.3919 16.543 62.043C14.9544 62.681 13.1966 63 11.2695 63ZM8.39844 34.5625V63H2.53906V34.5625H8.39844ZM37.9297 63.3906C36.2891 63.3906 34.8177 63.1302 33.5156 62.6094C32.2135 62.0755 31.1068 61.3398 30.1953 60.4023C29.2969 59.4648 28.6068 58.3776 28.125 57.1406C27.6432 55.8906 27.4023 54.5625 27.4023 53.1562V52.375C27.4023 50.7734 27.6302 49.3086 28.0859 47.9805C28.5417 46.6523 29.1927 45.5 30.0391 44.5234C30.8984 43.5469 31.9401 42.7982 33.1641 42.2773C34.388 41.7435 35.7682 41.4766 37.3047 41.4766C38.8021 41.4766 40.1302 41.724 41.2891 42.2188C42.4479 42.7135 43.418 43.4167 44.1992 44.3281C44.9935 45.2396 45.5924 46.3333 45.9961 47.6094C46.3997 48.8724 46.6016 50.2786 46.6016 51.8281V54.1719H29.8047V50.4219H41.0742V49.9922C41.0742 49.2109 40.931 48.5143 40.6445 47.9023C40.3711 47.2773 39.9544 46.7826 39.3945 46.418C38.8346 46.0534 38.1185 45.8711 37.2461 45.8711C36.5039 45.8711 35.8659 46.0339 35.332 46.3594C34.7982 46.6849 34.362 47.1406 34.0234 47.7266C33.6979 48.3125 33.4505 49.0026 33.2812 49.7969C33.125 50.5781 33.0469 51.4375 33.0469 52.375V53.1562C33.0469 54.0026 33.1641 54.7839 33.3984 55.5C33.6458 56.2161 33.9909 56.8346 34.4336 57.3555C34.8893 57.8763 35.4362 58.2799 36.0742 58.5664C36.7253 58.8529 37.4609 58.9961 38.2812 58.9961C39.2969 58.9961 40.2409 58.8008 41.1133 58.4102C41.9987 58.0065 42.7604 57.401 43.3984 56.5938L46.1328 59.5625C45.6901 60.2005 45.0846 60.8125 44.3164 61.3984C43.5612 61.9844 42.6497 62.4661 41.582 62.8438C40.5143 63.2083 39.2969 63.3906 37.9297 63.3906ZM56.7188 58.8984L61.4062 41.8672H67.2852L60.1562 63H56.6016L56.7188 58.8984ZM53.4961 41.8672L58.2031 58.918L58.3008 63H54.7266L47.5977 41.8672H53.4961ZM79.2578 63.3906C77.6172 63.3906 76.1458 63.1302 74.8438 62.6094C73.5417 62.0755 72.4349 61.3398 71.5234 60.4023C70.625 59.4648 69.9349 58.3776 69.4531 57.1406C68.9714 55.8906 68.7305 54.5625 68.7305 53.1562V52.375C68.7305 50.7734 68.9583 49.3086 69.4141 47.9805C69.8698 46.6523 70.5208 45.5 71.3672 44.5234C72.2266 43.5469 73.2682 42.7982 74.4922 42.2773C75.7161 41.7435 77.0964 41.4766 78.6328 41.4766C80.1302 41.4766 81.4583 41.724 82.6172 42.2188C83.776 42.7135 84.7461 43.4167 85.5273 44.3281C86.3216 45.2396 86.9206 46.3333 87.3242 47.6094C87.7279 48.8724 87.9297 50.2786 87.9297 51.8281V54.1719H71.1328V50.4219H82.4023V49.9922C82.4023 49.2109 82.2591 48.5143 81.9727 47.9023C81.6992 47.2773 81.2826 46.7826 80.7227 46.418C80.1628 46.0534 79.4466 45.8711 78.5742 45.8711C77.832 45.8711 77.194 46.0339 76.6602 46.3594C76.1263 46.6849 75.6901 47.1406 75.3516 47.7266C75.026 48.3125 74.7786 49.0026 74.6094 49.7969C74.4531 50.5781 74.375 51.4375 74.375 52.375V53.1562C74.375 54.0026 74.4922 54.7839 74.7266 55.5C74.974 56.2161 75.319 56.8346 75.7617 57.3555C76.2174 57.8763 76.7643 58.2799 77.4023 58.5664C78.0534 58.8529 78.7891 58.9961 79.6094 58.9961C80.625 58.9961 81.569 58.8008 82.4414 58.4102C83.3268 58.0065 84.0885 57.401 84.7266 56.5938L87.4609 59.5625C87.0182 60.2005 86.4128 60.8125 85.6445 61.3984C84.8893 61.9844 83.9779 62.4661 82.9102 62.8438C81.8424 63.2083 80.625 63.3906 79.2578 63.3906ZM97.0703 33V63H91.4258V33H97.0703ZM100.82 52.6484V52.2383C100.82 50.6888 101.042 49.263 101.484 47.9609C101.927 46.6458 102.572 45.5065 103.418 44.543C104.264 43.5794 105.306 42.8307 106.543 42.2969C107.78 41.75 109.199 41.4766 110.801 41.4766C112.402 41.4766 113.828 41.75 115.078 42.2969C116.328 42.8307 117.376 43.5794 118.223 44.543C119.082 45.5065 119.733 46.6458 120.176 47.9609C120.618 49.263 120.84 50.6888 120.84 52.2383V52.6484C120.84 54.1849 120.618 55.6107 120.176 56.9258C119.733 58.2279 119.082 59.3672 118.223 60.3438C117.376 61.3073 116.335 62.056 115.098 62.5898C113.861 63.1237 112.441 63.3906 110.84 63.3906C109.238 63.3906 107.812 63.1237 106.562 62.5898C105.326 62.056 104.277 61.3073 103.418 60.3438C102.572 59.3672 101.927 58.2279 101.484 56.9258C101.042 55.6107 100.82 54.1849 100.82 52.6484ZM106.445 52.2383V52.6484C106.445 53.5339 106.523 54.3607 106.68 55.1289C106.836 55.8971 107.083 56.5742 107.422 57.1602C107.773 57.7331 108.229 58.1823 108.789 58.5078C109.349 58.8333 110.033 58.9961 110.84 58.9961C111.621 58.9961 112.292 58.8333 112.852 58.5078C113.411 58.1823 113.861 57.7331 114.199 57.1602C114.538 56.5742 114.785 55.8971 114.941 55.1289C115.111 54.3607 115.195 53.5339 115.195 52.6484V52.2383C115.195 51.3789 115.111 50.5716 114.941 49.8164C114.785 49.0482 114.531 48.3711 114.18 47.7852C113.841 47.1862 113.392 46.7174 112.832 46.3789C112.272 46.0404 111.595 45.8711 110.801 45.8711C110.007 45.8711 109.329 46.0404 108.77 46.3789C108.223 46.7174 107.773 47.1862 107.422 47.7852C107.083 48.3711 106.836 49.0482 106.68 49.8164C106.523 50.5716 106.445 51.3789 106.445 52.2383ZM129.922 45.9297V71.125H124.297V41.8672H129.512L129.922 45.9297ZM143.301 52.1992V52.6094C143.301 54.1458 143.118 55.5716 142.754 56.8867C142.402 58.2018 141.882 59.3477 141.191 60.3242C140.501 61.2878 139.642 62.043 138.613 62.5898C137.598 63.1237 136.426 63.3906 135.098 63.3906C133.809 63.3906 132.689 63.1302 131.738 62.6094C130.788 62.0885 129.987 61.3594 129.336 60.4219C128.698 59.4714 128.184 58.3711 127.793 57.1211C127.402 55.8711 127.103 54.5299 126.895 53.0977V52.0234C127.103 50.487 127.402 49.0807 127.793 47.8047C128.184 46.5156 128.698 45.4023 129.336 44.4648C129.987 43.5143 130.781 42.7786 131.719 42.2578C132.669 41.737 133.783 41.4766 135.059 41.4766C136.4 41.4766 137.578 41.7305 138.594 42.2383C139.622 42.7461 140.482 43.4753 141.172 44.4258C141.875 45.3763 142.402 46.5091 142.754 47.8242C143.118 49.1393 143.301 50.5977 143.301 52.1992ZM137.656 52.6094V52.1992C137.656 51.3008 137.578 50.474 137.422 49.7188C137.279 48.9505 137.044 48.2799 136.719 47.707C136.406 47.1341 135.99 46.6914 135.469 46.3789C134.961 46.0534 134.342 45.8906 133.613 45.8906C132.845 45.8906 132.188 46.0143 131.641 46.2617C131.107 46.5091 130.671 46.8672 130.332 47.3359C129.993 47.8047 129.74 48.3646 129.57 49.0156C129.401 49.6667 129.297 50.4023 129.258 51.2227V53.9375C129.323 54.901 129.505 55.7669 129.805 56.5352C130.104 57.2904 130.566 57.8893 131.191 58.332C131.816 58.7747 132.637 58.9961 133.652 58.9961C134.395 58.9961 135.02 58.8333 135.527 58.5078C136.035 58.1693 136.445 57.707 136.758 57.1211C137.083 56.5352 137.311 55.8581 137.441 55.0898C137.585 54.3216 137.656 53.4948 137.656 52.6094ZM152.422 46.2422V63H146.777V41.8672H152.07L152.422 46.2422ZM151.641 51.6914H150.078C150.078 50.2201 150.254 48.8659 150.605 47.6289C150.97 46.3789 151.497 45.2982 152.188 44.3867C152.891 43.4622 153.757 42.7461 154.785 42.2383C155.814 41.7305 157.005 41.4766 158.359 41.4766C159.297 41.4766 160.156 41.6198 160.938 41.9062C161.719 42.1797 162.389 42.6159 162.949 43.2148C163.522 43.8008 163.965 44.569 164.277 45.5195C164.59 46.457 164.746 47.5833 164.746 48.8984V63H159.121V49.5234C159.121 48.5599 158.991 47.8177 158.73 47.2969C158.47 46.776 158.099 46.4115 157.617 46.2031C157.148 45.9948 156.582 45.8906 155.918 45.8906C155.189 45.8906 154.551 46.0404 154.004 46.3398C153.47 46.6393 153.027 47.056 152.676 47.5898C152.324 48.1107 152.064 48.7227 151.895 49.4258C151.725 50.1289 151.641 50.8841 151.641 51.6914ZM164.219 51.0469L162.207 51.3008C162.207 49.9206 162.376 48.638 162.715 47.4531C163.066 46.2682 163.581 45.2266 164.258 44.3281C164.948 43.4297 165.801 42.7331 166.816 42.2383C167.832 41.7305 169.004 41.4766 170.332 41.4766C171.348 41.4766 172.272 41.6263 173.105 41.9258C173.939 42.2122 174.648 42.6745 175.234 43.3125C175.833 43.9375 176.289 44.7578 176.602 45.7734C176.927 46.7891 177.09 48.0326 177.09 49.5039V63H171.445V49.5039C171.445 48.5273 171.315 47.7852 171.055 47.2773C170.807 46.7565 170.443 46.3984 169.961 46.2031C169.492 45.9948 168.932 45.8906 168.281 45.8906C167.604 45.8906 167.012 46.0273 166.504 46.3008C165.996 46.5612 165.573 46.9258 165.234 47.3945C164.896 47.8633 164.642 48.4102 164.473 49.0352C164.303 49.6471 164.219 50.3177 164.219 51.0469ZM191.172 63.3906C189.531 63.3906 188.06 63.1302 186.758 62.6094C185.456 62.0755 184.349 61.3398 183.438 60.4023C182.539 59.4648 181.849 58.3776 181.367 57.1406C180.885 55.8906 180.645 54.5625 180.645 53.1562V52.375C180.645 50.7734 180.872 49.3086 181.328 47.9805C181.784 46.6523 182.435 45.5 183.281 44.5234C184.141 43.5469 185.182 42.7982 186.406 42.2773C187.63 41.7435 189.01 41.4766 190.547 41.4766C192.044 41.4766 193.372 41.724 194.531 42.2188C195.69 42.7135 196.66 43.4167 197.441 44.3281C198.236 45.2396 198.835 46.3333 199.238 47.6094C199.642 48.8724 199.844 50.2786 199.844 51.8281V54.1719H183.047V50.4219H194.316V49.9922C194.316 49.2109 194.173 48.5143 193.887 47.9023C193.613 47.2773 193.197 46.7826 192.637 46.418C192.077 46.0534 191.361 45.8711 190.488 45.8711C189.746 45.8711 189.108 46.0339 188.574 46.3594C188.04 46.6849 187.604 47.1406 187.266 47.7266C186.94 48.3125 186.693 49.0026 186.523 49.7969C186.367 50.5781 186.289 51.4375 186.289 52.375V53.1562C186.289 54.0026 186.406 54.7839 186.641 55.5C186.888 56.2161 187.233 56.8346 187.676 57.3555C188.132 57.8763 188.678 58.2799 189.316 58.5664C189.967 58.8529 190.703 58.9961 191.523 58.9961C192.539 58.9961 193.483 58.8008 194.355 58.4102C195.241 58.0065 196.003 57.401 196.641 56.5938L199.375 59.5625C198.932 60.2005 198.327 60.8125 197.559 61.3984C196.803 61.9844 195.892 62.4661 194.824 62.8438C193.757 63.2083 192.539 63.3906 191.172 63.3906ZM208.555 46.3789V63H202.93V41.8672H208.203L208.555 46.3789ZM207.734 51.6914H206.211C206.211 50.1289 206.413 48.7227 206.816 47.4727C207.22 46.2096 207.786 45.1354 208.516 44.25C209.245 43.3516 210.111 42.668 211.113 42.1992C212.129 41.7174 213.262 41.4766 214.512 41.4766C215.501 41.4766 216.406 41.6198 217.227 41.9062C218.047 42.1927 218.75 42.6484 219.336 43.2734C219.935 43.8984 220.391 44.7253 220.703 45.7539C221.029 46.7826 221.191 48.0391 221.191 49.5234V63H215.527V49.5039C215.527 48.5664 215.397 47.8372 215.137 47.3164C214.876 46.7956 214.492 46.431 213.984 46.2227C213.49 46.0013 212.878 45.8906 212.148 45.8906C211.393 45.8906 210.736 46.0404 210.176 46.3398C209.629 46.6393 209.173 47.056 208.809 47.5898C208.457 48.1107 208.19 48.7227 208.008 49.4258C207.826 50.1289 207.734 50.8841 207.734 51.6914ZM235.82 41.8672V45.8516H223.516V41.8672H235.82ZM226.562 36.6523H232.188V56.6328C232.188 57.2448 232.266 57.7135 232.422 58.0391C232.591 58.3646 232.839 58.5924 233.164 58.7227C233.49 58.8398 233.9 58.8984 234.395 58.8984C234.746 58.8984 235.059 58.8854 235.332 58.8594C235.618 58.8203 235.859 58.7812 236.055 58.7422L236.074 62.8828C235.592 63.0391 235.072 63.1628 234.512 63.2539C233.952 63.3451 233.333 63.3906 232.656 63.3906C231.419 63.3906 230.339 63.1888 229.414 62.7852C228.503 62.3685 227.799 61.7044 227.305 60.793C226.81 59.8815 226.562 58.6836 226.562 57.1992V36.6523Z" fill="#333333"/>
<rect x="265" width="72" height="72" rx="36" fill="#333333"/>
<path d="M286.5 36H315.5M302.812 23L315.5 36L302.812 49" stroke="white" stroke-width="2" stroke-linecap="round" stroke-linejoin="round"/>
<path d="M2 23H45" stroke="#333333" stroke-width="2" stroke-linecap="round"/>
</svg>
