<svg width="207" height="72" viewBox="0 0 207 72" fill="none" xmlns="http://www.w3.org/2000/svg">
<path d="M2.74 17.16C2.35333 17.16 2.05333 17.0533 1.84 16.84C1.64 16.6267 1.54 16.32 1.54 15.92V4.02C1.54 3.60667 1.64 3.29333 1.84 3.08C2.05333 2.85333 2.32667 2.74 2.66 2.74C2.96667 2.74 3.19333 2.8 3.34 2.92C3.5 3.02667 3.68667 3.21333 3.9 3.48L11.56 13.42H11.04V3.96C11.04 3.57333 11.14 3.27333 11.34 3.06C11.5533 2.84667 11.8533 2.74 12.24 2.74C12.6267 2.74 12.92 2.84667 13.12 3.06C13.32 3.27333 13.42 3.57333 13.42 3.96V15.96C13.42 16.3333 13.3267 16.6267 13.14 16.84C12.9533 17.0533 12.7 17.16 12.38 17.16C12.0733 17.16 11.8267 17.1 11.64 16.98C11.4667 16.86 11.2733 16.6667 11.06 16.4L3.42 6.46H3.92V15.92C3.92 16.32 3.82 16.6267 3.62 16.84C3.42 17.0533 3.12667 17.16 2.74 17.16ZM21.0809 17.2C19.9743 17.2 19.0209 16.9933 18.2209 16.58C17.4209 16.1667 16.8009 15.58 16.3609 14.82C15.9343 14.06 15.7209 13.16 15.7209 12.12C15.7209 11.1067 15.9276 10.22 16.3409 9.46C16.7676 8.7 17.3476 8.10667 18.0809 7.68C18.8276 7.24 19.6743 7.02 20.6209 7.02C21.3143 7.02 21.9343 7.13333 22.4809 7.36C23.0409 7.58667 23.5143 7.91333 23.9009 8.34C24.3009 8.76667 24.6009 9.28667 24.8009 9.9C25.0143 10.5 25.1209 11.18 25.1209 11.94C25.1209 12.18 25.0343 12.3667 24.8609 12.5C24.7009 12.62 24.4676 12.68 24.1609 12.68H17.7409V11.24H23.3609L23.0409 11.54C23.0409 10.9267 22.9476 10.4133 22.7609 10C22.5876 9.58667 22.3276 9.27333 21.9809 9.06C21.6476 8.83333 21.2276 8.72 20.7209 8.72C20.1609 8.72 19.6809 8.85333 19.2809 9.12C18.8943 9.37333 18.5943 9.74 18.3809 10.22C18.1809 10.6867 18.0809 11.2467 18.0809 11.9V12.04C18.0809 13.1333 18.3343 13.9533 18.8409 14.5C19.3609 15.0333 20.1209 15.3 21.1209 15.3C21.4676 15.3 21.8543 15.26 22.2809 15.18C22.7209 15.0867 23.1343 14.9333 23.5209 14.72C23.8009 14.56 24.0476 14.4933 24.2609 14.52C24.4743 14.5333 24.6409 14.6067 24.7609 14.74C24.8943 14.8733 24.9743 15.04 25.0009 15.24C25.0276 15.4267 24.9876 15.62 24.8809 15.82C24.7876 16.02 24.6209 16.1933 24.3809 16.34C23.9143 16.6333 23.3743 16.8533 22.7609 17C22.1609 17.1333 21.6009 17.2 21.0809 17.2ZM27.7222 17.1C27.4289 17.1 27.1822 17.02 26.9822 16.86C26.7955 16.6867 26.6955 16.4667 26.6822 16.2C26.6822 15.9333 26.7955 15.6533 27.0222 15.36L30.2622 11.36V12.54L27.2222 8.8C26.9822 8.50667 26.8689 8.22667 26.8822 7.96C26.8955 7.69333 26.9955 7.48 27.1822 7.32C27.3822 7.14667 27.6289 7.06 27.9222 7.06C28.2289 7.06 28.4822 7.11333 28.6822 7.22C28.8955 7.32667 29.0889 7.49333 29.2622 7.72L31.6622 10.8H30.7822L33.2022 7.72C33.3889 7.49333 33.5822 7.32667 33.7822 7.22C33.9822 7.11333 34.2289 7.06 34.5222 7.06C34.8289 7.06 35.0755 7.14667 35.2622 7.32C35.4489 7.49333 35.5422 7.71333 35.5422 7.98C35.5555 8.24667 35.4422 8.52667 35.2022 8.82L32.1822 12.52V11.4L35.4222 15.36C35.6622 15.64 35.7755 15.9133 35.7622 16.18C35.7489 16.4467 35.6422 16.6667 35.4422 16.84C35.2555 17.0133 35.0089 17.1 34.7022 17.1C34.4089 17.1 34.1622 17.0467 33.9622 16.94C33.7622 16.8333 33.5689 16.6667 33.3822 16.44L30.7822 13.16H31.6222L29.0422 16.44C28.8689 16.6533 28.6822 16.82 28.4822 16.94C28.2822 17.0467 28.0289 17.1 27.7222 17.1ZM42.4402 17.2C41.5735 17.2 40.8468 17.0533 40.2602 16.76C39.6868 16.4667 39.2602 16.04 38.9802 15.48C38.7002 14.9067 38.5602 14.2 38.5602 13.36V9.1H37.5202C37.2002 9.1 36.9535 9.02 36.7802 8.86C36.6068 8.68667 36.5202 8.45333 36.5202 8.16C36.5202 7.85333 36.6068 7.62 36.7802 7.46C36.9535 7.3 37.2002 7.22 37.5202 7.22H38.5602V5.4C38.5602 4.98667 38.6668 4.67333 38.8802 4.46C39.1068 4.24667 39.4202 4.14 39.8202 4.14C40.2202 4.14 40.5268 4.24667 40.7402 4.46C40.9535 4.67333 41.0602 4.98667 41.0602 5.4V7.22H43.1802C43.5002 7.22 43.7468 7.3 43.9202 7.46C44.0935 7.62 44.1802 7.85333 44.1802 8.16C44.1802 8.45333 44.0935 8.68667 43.9202 8.86C43.7468 9.02 43.5002 9.1 43.1802 9.1H41.0602V13.22C41.0602 13.86 41.2002 14.34 41.4802 14.66C41.7602 14.98 42.2135 15.14 42.8402 15.14C43.0668 15.14 43.2668 15.12 43.4402 15.08C43.6135 15.04 43.7668 15.0133 43.9002 15C44.0602 14.9867 44.1935 15.04 44.3002 15.16C44.4068 15.2667 44.4602 15.4933 44.4602 15.84C44.4602 16.1067 44.4135 16.3467 44.3202 16.56C44.2402 16.76 44.0868 16.9 43.8602 16.98C43.6868 17.0333 43.4602 17.08 43.1802 17.12C42.9002 17.1733 42.6535 17.2 42.4402 17.2Z" fill="#333333"/>
<path d="M17.3438 55.5586C17.3438 55.0508 17.2656 54.5951 17.1094 54.1914C16.9661 53.7747 16.6927 53.3971 16.2891 53.0586C15.8854 52.707 15.319 52.362 14.5898 52.0234C13.8607 51.6849 12.9167 51.3333 11.7578 50.9688C10.4688 50.5521 9.24479 50.0833 8.08594 49.5625C6.9401 49.0417 5.92448 48.4362 5.03906 47.7461C4.16667 47.043 3.47656 46.2292 2.96875 45.3047C2.47396 44.3802 2.22656 43.306 2.22656 42.082C2.22656 40.8971 2.48698 39.8229 3.00781 38.8594C3.52865 37.8828 4.25781 37.0495 5.19531 36.3594C6.13281 35.6562 7.23958 35.1159 8.51562 34.7383C9.80469 34.3607 11.2174 34.1719 12.7539 34.1719C14.8503 34.1719 16.6797 34.5495 18.2422 35.3047C19.8047 36.0599 21.0156 37.0951 21.875 38.4102C22.7474 39.7253 23.1836 41.2292 23.1836 42.9219H17.3633C17.3633 42.0885 17.1875 41.3594 16.8359 40.7344C16.4974 40.0964 15.9766 39.5951 15.2734 39.2305C14.5833 38.8659 13.7109 38.6836 12.6562 38.6836C11.6406 38.6836 10.7943 38.8398 10.1172 39.1523C9.4401 39.4518 8.93229 39.862 8.59375 40.3828C8.25521 40.8906 8.08594 41.4635 8.08594 42.1016C8.08594 42.5833 8.20312 43.0195 8.4375 43.4102C8.6849 43.8008 9.04948 44.1654 9.53125 44.5039C10.013 44.8424 10.6055 45.1615 11.3086 45.4609C12.0117 45.7604 12.8255 46.0534 13.75 46.3398C15.2995 46.8086 16.6602 47.3359 17.832 47.9219C19.0169 48.5078 20.0065 49.1654 20.8008 49.8945C21.5951 50.6237 22.194 51.4505 22.5977 52.375C23.0013 53.2995 23.2031 54.3477 23.2031 55.5195C23.2031 56.7565 22.9622 57.8633 22.4805 58.8398C21.9987 59.8164 21.3021 60.6432 20.3906 61.3203C19.4792 61.9974 18.3919 62.5117 17.1289 62.8633C15.8659 63.2148 14.4531 63.3906 12.8906 63.3906C11.4844 63.3906 10.0977 63.2083 8.73047 62.8438C7.36328 62.4661 6.11979 61.8997 5 61.1445C3.89323 60.3893 3.00781 59.4258 2.34375 58.2539C1.67969 57.082 1.34766 55.6953 1.34766 54.0938H7.22656C7.22656 54.9792 7.36328 55.7279 7.63672 56.3398C7.91016 56.9518 8.29427 57.4466 8.78906 57.8242C9.29688 58.2018 9.89583 58.4753 10.5859 58.6445C11.2891 58.8138 12.0573 58.8984 12.8906 58.8984C13.9062 58.8984 14.7396 58.7552 15.3906 58.4688C16.0547 58.1823 16.543 57.7852 16.8555 57.2773C17.181 56.7695 17.3438 56.1966 17.3438 55.5586ZM35.5664 58.9961C36.2565 58.9961 36.8685 58.8659 37.4023 58.6055C37.9362 58.332 38.3529 57.9544 38.6523 57.4727C38.9648 56.9779 39.1276 56.3984 39.1406 55.7344H44.4336C44.4206 57.2188 44.0234 58.5404 43.2422 59.6992C42.4609 60.8451 41.4128 61.75 40.0977 62.4141C38.7826 63.0651 37.3112 63.3906 35.6836 63.3906C34.043 63.3906 32.6107 63.1172 31.3867 62.5703C30.1758 62.0234 29.1667 61.2682 28.3594 60.3047C27.5521 59.3281 26.9466 58.1953 26.543 56.9062C26.1393 55.6042 25.9375 54.2109 25.9375 52.7266V52.1602C25.9375 50.6628 26.1393 49.2695 26.543 47.9805C26.9466 46.6784 27.5521 45.5456 28.3594 44.582C29.1667 43.6055 30.1758 42.8438 31.3867 42.2969C32.5977 41.75 34.0169 41.4766 35.6445 41.4766C37.3763 41.4766 38.8932 41.8086 40.1953 42.4727C41.5104 43.1367 42.5391 44.0872 43.2812 45.3242C44.0365 46.5482 44.4206 48 44.4336 49.6797H39.1406C39.1276 48.9766 38.9779 48.3385 38.6914 47.7656C38.418 47.1927 38.0143 46.737 37.4805 46.3984C36.9596 46.0469 36.3151 45.8711 35.5469 45.8711C34.7266 45.8711 34.056 46.0469 33.5352 46.3984C33.0143 46.737 32.6107 47.2057 32.3242 47.8047C32.0378 48.3906 31.8359 49.0612 31.7188 49.8164C31.6146 50.5586 31.5625 51.3398 31.5625 52.1602V52.7266C31.5625 53.5469 31.6146 54.3346 31.7188 55.0898C31.8229 55.8451 32.0182 56.5156 32.3047 57.1016C32.6042 57.6875 33.0143 58.1497 33.5352 58.4883C34.056 58.8268 34.7331 58.9961 35.5664 58.9961ZM46.7969 52.6484V52.2383C46.7969 50.6888 47.0182 49.263 47.4609 47.9609C47.9036 46.6458 48.5482 45.5065 49.3945 44.543C50.2409 43.5794 51.2826 42.8307 52.5195 42.2969C53.7565 41.75 55.1758 41.4766 56.7773 41.4766C58.3789 41.4766 59.8047 41.75 61.0547 42.2969C62.3047 42.8307 63.3529 43.5794 64.1992 44.543C65.0586 45.5065 65.7096 46.6458 66.1523 47.9609C66.5951 49.263 66.8164 50.6888 66.8164 52.2383V52.6484C66.8164 54.1849 66.5951 55.6107 66.1523 56.9258C65.7096 58.2279 65.0586 59.3672 64.1992 60.3438C63.3529 61.3073 62.3112 62.056 61.0742 62.5898C59.8372 63.1237 58.418 63.3906 56.8164 63.3906C55.2148 63.3906 53.7891 63.1237 52.5391 62.5898C51.3021 62.056 50.2539 61.3073 49.3945 60.3438C48.5482 59.3672 47.9036 58.2279 47.4609 56.9258C47.0182 55.6107 46.7969 54.1849 46.7969 52.6484ZM52.4219 52.2383V52.6484C52.4219 53.5339 52.5 54.3607 52.6562 55.1289C52.8125 55.8971 53.0599 56.5742 53.3984 57.1602C53.75 57.7331 54.2057 58.1823 54.7656 58.5078C55.3255 58.8333 56.0091 58.9961 56.8164 58.9961C57.5977 58.9961 58.2682 58.8333 58.8281 58.5078C59.388 58.1823 59.8372 57.7331 60.1758 57.1602C60.5143 56.5742 60.7617 55.8971 60.918 55.1289C61.0872 54.3607 61.1719 53.5339 61.1719 52.6484V52.2383C61.1719 51.3789 61.0872 50.5716 60.918 49.8164C60.7617 49.0482 60.5078 48.3711 60.1562 47.7852C59.8177 47.1862 59.3685 46.7174 58.8086 46.3789C58.2487 46.0404 57.5716 45.8711 56.7773 45.8711C55.9831 45.8711 55.306 46.0404 54.7461 46.3789C54.1992 46.7174 53.75 47.1862 53.3984 47.7852C53.0599 48.3711 52.8125 49.0482 52.6562 49.8164C52.5 50.5716 52.4219 51.3789 52.4219 52.2383ZM75.8984 45.9297V71.125H70.2734V41.8672H75.4883L75.8984 45.9297ZM89.2773 52.1992V52.6094C89.2773 54.1458 89.0951 55.5716 88.7305 56.8867C88.3789 58.2018 87.8581 59.3477 87.168 60.3242C86.4779 61.2878 85.6185 62.043 84.5898 62.5898C83.5742 63.1237 82.4023 63.3906 81.0742 63.3906C79.7852 63.3906 78.6654 63.1302 77.7148 62.6094C76.7643 62.0885 75.9635 61.3594 75.3125 60.4219C74.6745 59.4714 74.1602 58.3711 73.7695 57.1211C73.3789 55.8711 73.0794 54.5299 72.8711 53.0977V52.0234C73.0794 50.487 73.3789 49.0807 73.7695 47.8047C74.1602 46.5156 74.6745 45.4023 75.3125 44.4648C75.9635 43.5143 76.7578 42.7786 77.6953 42.2578C78.6458 41.737 79.7591 41.4766 81.0352 41.4766C82.3763 41.4766 83.5547 41.7305 84.5703 42.2383C85.599 42.7461 86.4583 43.4753 87.1484 44.4258C87.8516 45.3763 88.3789 46.5091 88.7305 47.8242C89.0951 49.1393 89.2773 50.5977 89.2773 52.1992ZM83.6328 52.6094V52.1992C83.6328 51.3008 83.5547 50.474 83.3984 49.7188C83.2552 48.9505 83.0208 48.2799 82.6953 47.707C82.3828 47.1341 81.9661 46.6914 81.4453 46.3789C80.9375 46.0534 80.319 45.8906 79.5898 45.8906C78.8216 45.8906 78.1641 46.0143 77.6172 46.2617C77.0833 46.5091 76.6471 46.8672 76.3086 47.3359C75.9701 47.8047 75.7161 48.3646 75.5469 49.0156C75.3776 49.6667 75.2734 50.4023 75.2344 51.2227V53.9375C75.2995 54.901 75.4818 55.7669 75.7812 56.5352C76.0807 57.2904 76.543 57.8893 77.168 58.332C77.793 58.7747 78.6133 58.9961 79.6289 58.9961C80.3711 58.9961 80.9961 58.8333 81.5039 58.5078C82.0117 58.1693 82.4219 57.707 82.7344 57.1211C83.0599 56.5352 83.2878 55.8581 83.418 55.0898C83.5612 54.3216 83.6328 53.4948 83.6328 52.6094ZM102.5 63.3906C100.859 63.3906 99.388 63.1302 98.0859 62.6094C96.7839 62.0755 95.6771 61.3398 94.7656 60.4023C93.8672 59.4648 93.1771 58.3776 92.6953 57.1406C92.2135 55.8906 91.9727 54.5625 91.9727 53.1562V52.375C91.9727 50.7734 92.2005 49.3086 92.6562 47.9805C93.112 46.6523 93.763 45.5 94.6094 44.5234C95.4688 43.5469 96.5104 42.7982 97.7344 42.2773C98.9583 41.7435 100.339 41.4766 101.875 41.4766C103.372 41.4766 104.701 41.724 105.859 42.2188C107.018 42.7135 107.988 43.4167 108.77 44.3281C109.564 45.2396 110.163 46.3333 110.566 47.6094C110.97 48.8724 111.172 50.2786 111.172 51.8281V54.1719H94.375V50.4219H105.645V49.9922C105.645 49.2109 105.501 48.5143 105.215 47.9023C104.941 47.2773 104.525 46.7826 103.965 46.418C103.405 46.0534 102.689 45.8711 101.816 45.8711C101.074 45.8711 100.436 46.0339 99.9023 46.3594C99.3685 46.6849 98.9323 47.1406 98.5938 47.7266C98.2682 48.3125 98.0208 49.0026 97.8516 49.7969C97.6953 50.5781 97.6172 51.4375 97.6172 52.375V53.1562C97.6172 54.0026 97.7344 54.7839 97.9688 55.5C98.2161 56.2161 98.5612 56.8346 99.0039 57.3555C99.4596 57.8763 100.007 58.2799 100.645 58.5664C101.296 58.8529 102.031 58.9961 102.852 58.9961C103.867 58.9961 104.811 58.8008 105.684 58.4102C106.569 58.0065 107.331 57.401 107.969 56.5938L110.703 59.5625C110.26 60.2005 109.655 60.8125 108.887 61.3984C108.132 61.9844 107.22 62.4661 106.152 62.8438C105.085 63.2083 103.867 63.3906 102.5 63.3906Z" fill="#333333"/>
<rect x="135" width="72" height="72" rx="36" fill="#333333"/>
<path d="M156.5 36H185.5M172.812 23L185.5 36L172.812 49" stroke="white" stroke-width="2" stroke-linecap="round" stroke-linejoin="round"/>
<path d="M2 23H45" stroke="#333333" stroke-width="2" stroke-linecap="round"/>
</svg>
