<svg width="304" height="72" viewBox="0 0 304 72" fill="none" xmlns="http://www.w3.org/2000/svg">
<path d="M2.74 17.16C2.35333 17.16 2.05333 17.0533 1.84 16.84C1.64 16.6267 1.54 16.32 1.54 15.92V4.02C1.54 3.60667 1.64 3.29333 1.84 3.08C2.05333 2.85333 2.32667 2.74 2.66 2.74C2.96667 2.74 3.19333 2.8 3.34 2.92C3.5 3.02667 3.68667 3.21333 3.9 3.48L11.56 13.42H11.04V3.96C11.04 3.57333 11.14 3.27333 11.34 3.06C11.5533 2.84667 11.8533 2.74 12.24 2.74C12.6267 2.74 12.92 2.84667 13.12 3.06C13.32 3.27333 13.42 3.57333 13.42 3.96V15.96C13.42 16.3333 13.3267 16.6267 13.14 16.84C12.9533 17.0533 12.7 17.16 12.38 17.16C12.0733 17.16 11.8267 17.1 11.64 16.98C11.4667 16.86 11.2733 16.6667 11.06 16.4L3.42 6.46H3.92V15.92C3.92 16.32 3.82 16.6267 3.62 16.84C3.42 17.0533 3.12667 17.16 2.74 17.16ZM21.0809 17.2C19.9743 17.2 19.0209 16.9933 18.2209 16.58C17.4209 16.1667 16.8009 15.58 16.3609 14.82C15.9343 14.06 15.7209 13.16 15.7209 12.12C15.7209 11.1067 15.9276 10.22 16.3409 9.46C16.7676 8.7 17.3476 8.10667 18.0809 7.68C18.8276 7.24 19.6743 7.02 20.6209 7.02C21.3143 7.02 21.9343 7.13333 22.4809 7.36C23.0409 7.58667 23.5143 7.91333 23.9009 8.34C24.3009 8.76667 24.6009 9.28667 24.8009 9.9C25.0143 10.5 25.1209 11.18 25.1209 11.94C25.1209 12.18 25.0343 12.3667 24.8609 12.5C24.7009 12.62 24.4676 12.68 24.1609 12.68H17.7409V11.24H23.3609L23.0409 11.54C23.0409 10.9267 22.9476 10.4133 22.7609 10C22.5876 9.58667 22.3276 9.27333 21.9809 9.06C21.6476 8.83333 21.2276 8.72 20.7209 8.72C20.1609 8.72 19.6809 8.85333 19.2809 9.12C18.8943 9.37333 18.5943 9.74 18.3809 10.22C18.1809 10.6867 18.0809 11.2467 18.0809 11.9V12.04C18.0809 13.1333 18.3343 13.9533 18.8409 14.5C19.3609 15.0333 20.1209 15.3 21.1209 15.3C21.4676 15.3 21.8543 15.26 22.2809 15.18C22.7209 15.0867 23.1343 14.9333 23.5209 14.72C23.8009 14.56 24.0476 14.4933 24.2609 14.52C24.4743 14.5333 24.6409 14.6067 24.7609 14.74C24.8943 14.8733 24.9743 15.04 25.0009 15.24C25.0276 15.4267 24.9876 15.62 24.8809 15.82C24.7876 16.02 24.6209 16.1933 24.3809 16.34C23.9143 16.6333 23.3743 16.8533 22.7609 17C22.1609 17.1333 21.6009 17.2 21.0809 17.2ZM27.7222 17.1C27.4289 17.1 27.1822 17.02 26.9822 16.86C26.7955 16.6867 26.6955 16.4667 26.6822 16.2C26.6822 15.9333 26.7955 15.6533 27.0222 15.36L30.2622 11.36V12.54L27.2222 8.8C26.9822 8.50667 26.8689 8.22667 26.8822 7.96C26.8955 7.69333 26.9955 7.48 27.1822 7.32C27.3822 7.14667 27.6289 7.06 27.9222 7.06C28.2289 7.06 28.4822 7.11333 28.6822 7.22C28.8955 7.32667 29.0889 7.49333 29.2622 7.72L31.6622 10.8H30.7822L33.2022 7.72C33.3889 7.49333 33.5822 7.32667 33.7822 7.22C33.9822 7.11333 34.2289 7.06 34.5222 7.06C34.8289 7.06 35.0755 7.14667 35.2622 7.32C35.4489 7.49333 35.5422 7.71333 35.5422 7.98C35.5555 8.24667 35.4422 8.52667 35.2022 8.82L32.1822 12.52V11.4L35.4222 15.36C35.6622 15.64 35.7755 15.9133 35.7622 16.18C35.7489 16.4467 35.6422 16.6667 35.4422 16.84C35.2555 17.0133 35.0089 17.1 34.7022 17.1C34.4089 17.1 34.1622 17.0467 33.9622 16.94C33.7622 16.8333 33.5689 16.6667 33.3822 16.44L30.7822 13.16H31.6222L29.0422 16.44C28.8689 16.6533 28.6822 16.82 28.4822 16.94C28.2822 17.0467 28.0289 17.1 27.7222 17.1ZM42.4402 17.2C41.5735 17.2 40.8468 17.0533 40.2602 16.76C39.6868 16.4667 39.2602 16.04 38.9802 15.48C38.7002 14.9067 38.5602 14.2 38.5602 13.36V9.1H37.5202C37.2002 9.1 36.9535 9.02 36.7802 8.86C36.6068 8.68667 36.5202 8.45333 36.5202 8.16C36.5202 7.85333 36.6068 7.62 36.7802 7.46C36.9535 7.3 37.2002 7.22 37.5202 7.22H38.5602V5.4C38.5602 4.98667 38.6668 4.67333 38.8802 4.46C39.1068 4.24667 39.4202 4.14 39.8202 4.14C40.2202 4.14 40.5268 4.24667 40.7402 4.46C40.9535 4.67333 41.0602 4.98667 41.0602 5.4V7.22H43.1802C43.5002 7.22 43.7468 7.3 43.9202 7.46C44.0935 7.62 44.1802 7.85333 44.1802 8.16C44.1802 8.45333 44.0935 8.68667 43.9202 8.86C43.7468 9.02 43.5002 9.1 43.1802 9.1H41.0602V13.22C41.0602 13.86 41.2002 14.34 41.4802 14.66C41.7602 14.98 42.2135 15.14 42.8402 15.14C43.0668 15.14 43.2668 15.12 43.4402 15.08C43.6135 15.04 43.7668 15.0133 43.9002 15C44.0602 14.9867 44.1935 15.04 44.3002 15.16C44.4068 15.2667 44.4602 15.4933 44.4602 15.84C44.4602 16.1067 44.4135 16.3467 44.3202 16.56C44.2402 16.76 44.0868 16.9 43.8602 16.98C43.6868 17.0333 43.4602 17.08 43.1802 17.12C42.9002 17.1733 42.6535 17.2 42.4402 17.2Z" fill="#333333"/>
<path d="M25.6836 34.5625V63H19.8242L8.39844 43.9375V63H2.53906V34.5625H8.39844L19.8438 53.6445V34.5625H25.6836ZM40.1562 63.3906C38.5156 63.3906 37.0443 63.1302 35.7422 62.6094C34.4401 62.0755 33.3333 61.3398 32.4219 60.4023C31.5234 59.4648 30.8333 58.3776 30.3516 57.1406C29.8698 55.8906 29.6289 54.5625 29.6289 53.1562V52.375C29.6289 50.7734 29.8568 49.3086 30.3125 47.9805C30.7682 46.6523 31.4193 45.5 32.2656 44.5234C33.125 43.5469 34.1667 42.7982 35.3906 42.2773C36.6146 41.7435 37.9948 41.4766 39.5312 41.4766C41.0286 41.4766 42.3568 41.724 43.5156 42.2188C44.6745 42.7135 45.6445 43.4167 46.4258 44.3281C47.2201 45.2396 47.819 46.3333 48.2227 47.6094C48.6263 48.8724 48.8281 50.2786 48.8281 51.8281V54.1719H32.0312V50.4219H43.3008V49.9922C43.3008 49.2109 43.1576 48.5143 42.8711 47.9023C42.5977 47.2773 42.181 46.7826 41.6211 46.418C41.0612 46.0534 40.3451 45.8711 39.4727 45.8711C38.7305 45.8711 38.0924 46.0339 37.5586 46.3594C37.0247 46.6849 36.5885 47.1406 36.25 47.7266C35.9245 48.3125 35.6771 49.0026 35.5078 49.7969C35.3516 50.5781 35.2734 51.4375 35.2734 52.375V53.1562C35.2734 54.0026 35.3906 54.7839 35.625 55.5C35.8724 56.2161 36.2174 56.8346 36.6602 57.3555C37.1159 57.8763 37.6628 58.2799 38.3008 58.5664C38.9518 58.8529 39.6875 58.9961 40.5078 58.9961C41.5234 58.9961 42.4674 58.8008 43.3398 58.4102C44.2253 58.0065 44.987 57.401 45.625 56.5938L48.3594 59.5625C47.9167 60.2005 47.3112 60.8125 46.543 61.3984C45.7878 61.9844 44.8763 62.4661 43.8086 62.8438C42.7409 63.2083 41.5234 63.3906 40.1562 63.3906ZM56.5625 41.8672L60.0586 48.293L63.6523 41.8672H69.6484L63.6719 52.1992L69.9219 63H63.9062L60.0977 56.2031L56.2891 63H50.2734L56.5234 52.1992L50.5469 41.8672H56.5625ZM82.7344 41.8672V45.8516H70.4297V41.8672H82.7344ZM73.4766 36.6523H79.1016V56.6328C79.1016 57.2448 79.1797 57.7135 79.3359 58.0391C79.5052 58.3646 79.7526 58.5924 80.0781 58.7227C80.4036 58.8398 80.8138 58.8984 81.3086 58.8984C81.6602 58.8984 81.9727 58.8854 82.2461 58.8594C82.5326 58.8203 82.7734 58.7812 82.9688 58.7422L82.9883 62.8828C82.5065 63.0391 81.9857 63.1628 81.4258 63.2539C80.8659 63.3451 80.2474 63.3906 79.5703 63.3906C78.3333 63.3906 77.2526 63.1888 76.3281 62.7852C75.4167 62.3685 74.7135 61.7044 74.2188 60.793C73.724 59.8815 73.4766 58.6836 73.4766 57.1992V36.6523ZM111.055 55.5586C111.055 55.0508 110.977 54.5951 110.82 54.1914C110.677 53.7747 110.404 53.3971 110 53.0586C109.596 52.707 109.03 52.362 108.301 52.0234C107.572 51.6849 106.628 51.3333 105.469 50.9688C104.18 50.5521 102.956 50.0833 101.797 49.5625C100.651 49.0417 99.6354 48.4362 98.75 47.7461C97.8776 47.043 97.1875 46.2292 96.6797 45.3047C96.1849 44.3802 95.9375 43.306 95.9375 42.082C95.9375 40.8971 96.1979 39.8229 96.7188 38.8594C97.2396 37.8828 97.9688 37.0495 98.9062 36.3594C99.8438 35.6562 100.951 35.1159 102.227 34.7383C103.516 34.3607 104.928 34.1719 106.465 34.1719C108.561 34.1719 110.391 34.5495 111.953 35.3047C113.516 36.0599 114.727 37.0951 115.586 38.4102C116.458 39.7253 116.895 41.2292 116.895 42.9219H111.074C111.074 42.0885 110.898 41.3594 110.547 40.7344C110.208 40.0964 109.688 39.5951 108.984 39.2305C108.294 38.8659 107.422 38.6836 106.367 38.6836C105.352 38.6836 104.505 38.8398 103.828 39.1523C103.151 39.4518 102.643 39.862 102.305 40.3828C101.966 40.8906 101.797 41.4635 101.797 42.1016C101.797 42.5833 101.914 43.0195 102.148 43.4102C102.396 43.8008 102.76 44.1654 103.242 44.5039C103.724 44.8424 104.316 45.1615 105.02 45.4609C105.723 45.7604 106.536 46.0534 107.461 46.3398C109.01 46.8086 110.371 47.3359 111.543 47.9219C112.728 48.5078 113.717 49.1654 114.512 49.8945C115.306 50.6237 115.905 51.4505 116.309 52.375C116.712 53.2995 116.914 54.3477 116.914 55.5195C116.914 56.7565 116.673 57.8633 116.191 58.8398C115.71 59.8164 115.013 60.6432 114.102 61.3203C113.19 61.9974 112.103 62.5117 110.84 62.8633C109.577 63.2148 108.164 63.3906 106.602 63.3906C105.195 63.3906 103.809 63.2083 102.441 62.8438C101.074 62.4661 99.8307 61.8997 98.7109 61.1445C97.6042 60.3893 96.7188 59.4258 96.0547 58.2539C95.3906 57.082 95.0586 55.6953 95.0586 54.0938H100.938C100.938 54.9792 101.074 55.7279 101.348 56.3398C101.621 56.9518 102.005 57.4466 102.5 57.8242C103.008 58.2018 103.607 58.4753 104.297 58.6445C105 58.8138 105.768 58.8984 106.602 58.8984C107.617 58.8984 108.451 58.7552 109.102 58.4688C109.766 58.1823 110.254 57.7852 110.566 57.2773C110.892 56.7695 111.055 56.1966 111.055 55.5586ZM130.898 41.8672V45.8516H118.594V41.8672H130.898ZM121.641 36.6523H127.266V56.6328C127.266 57.2448 127.344 57.7135 127.5 58.0391C127.669 58.3646 127.917 58.5924 128.242 58.7227C128.568 58.8398 128.978 58.8984 129.473 58.8984C129.824 58.8984 130.137 58.8854 130.41 58.8594C130.697 58.8203 130.938 58.7812 131.133 58.7422L131.152 62.8828C130.671 63.0391 130.15 63.1628 129.59 63.2539C129.03 63.3451 128.411 63.3906 127.734 63.3906C126.497 63.3906 125.417 63.1888 124.492 62.7852C123.581 62.3685 122.878 61.7044 122.383 60.793C121.888 59.8815 121.641 58.6836 121.641 57.1992V36.6523ZM143.828 63.3906C142.188 63.3906 140.716 63.1302 139.414 62.6094C138.112 62.0755 137.005 61.3398 136.094 60.4023C135.195 59.4648 134.505 58.3776 134.023 57.1406C133.542 55.8906 133.301 54.5625 133.301 53.1562V52.375C133.301 50.7734 133.529 49.3086 133.984 47.9805C134.44 46.6523 135.091 45.5 135.938 44.5234C136.797 43.5469 137.839 42.7982 139.062 42.2773C140.286 41.7435 141.667 41.4766 143.203 41.4766C144.701 41.4766 146.029 41.724 147.188 42.2188C148.346 42.7135 149.316 43.4167 150.098 44.3281C150.892 45.2396 151.491 46.3333 151.895 47.6094C152.298 48.8724 152.5 50.2786 152.5 51.8281V54.1719H135.703V50.4219H146.973V49.9922C146.973 49.2109 146.829 48.5143 146.543 47.9023C146.27 47.2773 145.853 46.7826 145.293 46.418C144.733 46.0534 144.017 45.8711 143.145 45.8711C142.402 45.8711 141.764 46.0339 141.23 46.3594C140.697 46.6849 140.26 47.1406 139.922 47.7266C139.596 48.3125 139.349 49.0026 139.18 49.7969C139.023 50.5781 138.945 51.4375 138.945 52.375V53.1562C138.945 54.0026 139.062 54.7839 139.297 55.5C139.544 56.2161 139.889 56.8346 140.332 57.3555C140.788 57.8763 141.335 58.2799 141.973 58.5664C142.624 58.8529 143.359 58.9961 144.18 58.9961C145.195 58.9961 146.139 58.8008 147.012 58.4102C147.897 58.0065 148.659 57.401 149.297 56.5938L152.031 59.5625C151.589 60.2005 150.983 60.8125 150.215 61.3984C149.46 61.9844 148.548 62.4661 147.48 62.8438C146.413 63.2083 145.195 63.3906 143.828 63.3906ZM161.328 45.9297V71.125H155.703V41.8672H160.918L161.328 45.9297ZM174.707 52.1992V52.6094C174.707 54.1458 174.525 55.5716 174.16 56.8867C173.809 58.2018 173.288 59.3477 172.598 60.3242C171.908 61.2878 171.048 62.043 170.02 62.5898C169.004 63.1237 167.832 63.3906 166.504 63.3906C165.215 63.3906 164.095 63.1302 163.145 62.6094C162.194 62.0885 161.393 61.3594 160.742 60.4219C160.104 59.4714 159.59 58.3711 159.199 57.1211C158.809 55.8711 158.509 54.5299 158.301 53.0977V52.0234C158.509 50.487 158.809 49.0807 159.199 47.8047C159.59 46.5156 160.104 45.4023 160.742 44.4648C161.393 43.5143 162.188 42.7786 163.125 42.2578C164.076 41.737 165.189 41.4766 166.465 41.4766C167.806 41.4766 168.984 41.7305 170 42.2383C171.029 42.7461 171.888 43.4753 172.578 44.4258C173.281 45.3763 173.809 46.5091 174.16 47.8242C174.525 49.1393 174.707 50.5977 174.707 52.1992ZM169.062 52.6094V52.1992C169.062 51.3008 168.984 50.474 168.828 49.7188C168.685 48.9505 168.451 48.2799 168.125 47.707C167.812 47.1341 167.396 46.6914 166.875 46.3789C166.367 46.0534 165.749 45.8906 165.02 45.8906C164.251 45.8906 163.594 46.0143 163.047 46.2617C162.513 46.5091 162.077 46.8672 161.738 47.3359C161.4 47.8047 161.146 48.3646 160.977 49.0156C160.807 49.6667 160.703 50.4023 160.664 51.2227V53.9375C160.729 54.901 160.911 55.7669 161.211 56.5352C161.51 57.2904 161.973 57.8893 162.598 58.332C163.223 58.7747 164.043 58.9961 165.059 58.9961C165.801 58.9961 166.426 58.8333 166.934 58.5078C167.441 58.1693 167.852 57.707 168.164 57.1211C168.49 56.5352 168.717 55.8581 168.848 55.0898C168.991 54.3216 169.062 53.4948 169.062 52.6094ZM189.629 57.1602C189.629 56.7565 189.512 56.3919 189.277 56.0664C189.043 55.7409 188.607 55.4414 187.969 55.168C187.344 54.8815 186.439 54.6211 185.254 54.3867C184.186 54.1523 183.19 53.8594 182.266 53.5078C181.354 53.1432 180.56 52.707 179.883 52.1992C179.219 51.6914 178.698 51.0924 178.32 50.4023C177.943 49.6992 177.754 48.8984 177.754 48C177.754 47.1146 177.943 46.2812 178.32 45.5C178.711 44.7188 179.264 44.0286 179.98 43.4297C180.71 42.8177 181.595 42.3424 182.637 42.0039C183.691 41.6523 184.876 41.4766 186.191 41.4766C188.027 41.4766 189.603 41.7695 190.918 42.3555C192.246 42.9414 193.262 43.7487 193.965 44.7773C194.681 45.793 195.039 46.9518 195.039 48.2539H189.414C189.414 47.707 189.297 47.2188 189.062 46.7891C188.841 46.3464 188.49 46.0013 188.008 45.7539C187.539 45.4935 186.927 45.3633 186.172 45.3633C185.547 45.3633 185.007 45.474 184.551 45.6953C184.095 45.9036 183.743 46.1901 183.496 46.5547C183.262 46.9062 183.145 47.2969 183.145 47.7266C183.145 48.0521 183.21 48.3451 183.34 48.6055C183.483 48.8529 183.711 49.0807 184.023 49.2891C184.336 49.4974 184.74 49.6927 185.234 49.875C185.742 50.0443 186.367 50.2005 187.109 50.3438C188.633 50.6562 189.993 51.0664 191.191 51.5742C192.389 52.069 193.34 52.7461 194.043 53.6055C194.746 54.4518 195.098 55.5651 195.098 56.9453C195.098 57.8828 194.889 58.7422 194.473 59.5234C194.056 60.3047 193.457 60.9883 192.676 61.5742C191.895 62.1471 190.957 62.5964 189.863 62.9219C188.783 63.2344 187.565 63.3906 186.211 63.3906C184.245 63.3906 182.578 63.0391 181.211 62.3359C179.857 61.6328 178.828 60.7409 178.125 59.6602C177.435 58.5664 177.09 57.4466 177.09 56.3008H182.422C182.448 57.069 182.643 57.6875 183.008 58.1562C183.385 58.625 183.861 58.9635 184.434 59.1719C185.02 59.3802 185.651 59.4844 186.328 59.4844C187.057 59.4844 187.663 59.3867 188.145 59.1914C188.626 58.9831 188.991 58.7096 189.238 58.3711C189.499 58.0195 189.629 57.6159 189.629 57.1602Z" fill="#333333"/>
<rect x="232" width="72" height="72" rx="36" fill="#333333"/>
<path d="M253.5 36H282.5M269.812 23L282.5 36L269.812 49" stroke="white" stroke-width="2" stroke-linecap="round" stroke-linejoin="round"/>
<path d="M2 23H45" stroke="#333333" stroke-width="2" stroke-linecap="round"/>
</svg>
