<svg width="246" height="72" viewBox="0 0 246 72" fill="none" xmlns="http://www.w3.org/2000/svg">
<path d="M2.74 17.16C2.35333 17.16 2.05333 17.0533 1.84 16.84C1.64 16.6267 1.54 16.32 1.54 15.92V4.02C1.54 3.60667 1.64 3.29333 1.84 3.08C2.05333 2.85333 2.32667 2.74 2.66 2.74C2.96667 2.74 3.19333 2.8 3.34 2.92C3.5 3.02667 3.68667 3.21333 3.9 3.48L11.56 13.42H11.04V3.96C11.04 3.57333 11.14 3.27333 11.34 3.06C11.5533 2.84667 11.8533 2.74 12.24 2.74C12.6267 2.74 12.92 2.84667 13.12 3.06C13.32 3.27333 13.42 3.57333 13.42 3.96V15.96C13.42 16.3333 13.3267 16.6267 13.14 16.84C12.9533 17.0533 12.7 17.16 12.38 17.16C12.0733 17.16 11.8267 17.1 11.64 16.98C11.4667 16.86 11.2733 16.6667 11.06 16.4L3.42 6.46H3.92V15.92C3.92 16.32 3.82 16.6267 3.62 16.84C3.42 17.0533 3.12667 17.16 2.74 17.16ZM21.0809 17.2C19.9743 17.2 19.0209 16.9933 18.2209 16.58C17.4209 16.1667 16.8009 15.58 16.3609 14.82C15.9343 14.06 15.7209 13.16 15.7209 12.12C15.7209 11.1067 15.9276 10.22 16.3409 9.46C16.7676 8.7 17.3476 8.10667 18.0809 7.68C18.8276 7.24 19.6743 7.02 20.6209 7.02C21.3143 7.02 21.9343 7.13333 22.4809 7.36C23.0409 7.58667 23.5143 7.91333 23.9009 8.34C24.3009 8.76667 24.6009 9.28667 24.8009 9.9C25.0143 10.5 25.1209 11.18 25.1209 11.94C25.1209 12.18 25.0343 12.3667 24.8609 12.5C24.7009 12.62 24.4676 12.68 24.1609 12.68H17.7409V11.24H23.3609L23.0409 11.54C23.0409 10.9267 22.9476 10.4133 22.7609 10C22.5876 9.58667 22.3276 9.27333 21.9809 9.06C21.6476 8.83333 21.2276 8.72 20.7209 8.72C20.1609 8.72 19.6809 8.85333 19.2809 9.12C18.8943 9.37333 18.5943 9.74 18.3809 10.22C18.1809 10.6867 18.0809 11.2467 18.0809 11.9V12.04C18.0809 13.1333 18.3343 13.9533 18.8409 14.5C19.3609 15.0333 20.1209 15.3 21.1209 15.3C21.4676 15.3 21.8543 15.26 22.2809 15.18C22.7209 15.0867 23.1343 14.9333 23.5209 14.72C23.8009 14.56 24.0476 14.4933 24.2609 14.52C24.4743 14.5333 24.6409 14.6067 24.7609 14.74C24.8943 14.8733 24.9743 15.04 25.0009 15.24C25.0276 15.4267 24.9876 15.62 24.8809 15.82C24.7876 16.02 24.6209 16.1933 24.3809 16.34C23.9143 16.6333 23.3743 16.8533 22.7609 17C22.1609 17.1333 21.6009 17.2 21.0809 17.2ZM27.7222 17.1C27.4289 17.1 27.1822 17.02 26.9822 16.86C26.7955 16.6867 26.6955 16.4667 26.6822 16.2C26.6822 15.9333 26.7955 15.6533 27.0222 15.36L30.2622 11.36V12.54L27.2222 8.8C26.9822 8.50667 26.8689 8.22667 26.8822 7.96C26.8955 7.69333 26.9955 7.48 27.1822 7.32C27.3822 7.14667 27.6289 7.06 27.9222 7.06C28.2289 7.06 28.4822 7.11333 28.6822 7.22C28.8955 7.32667 29.0889 7.49333 29.2622 7.72L31.6622 10.8H30.7822L33.2022 7.72C33.3889 7.49333 33.5822 7.32667 33.7822 7.22C33.9822 7.11333 34.2289 7.06 34.5222 7.06C34.8289 7.06 35.0755 7.14667 35.2622 7.32C35.4489 7.49333 35.5422 7.71333 35.5422 7.98C35.5555 8.24667 35.4422 8.52667 35.2022 8.82L32.1822 12.52V11.4L35.4222 15.36C35.6622 15.64 35.7755 15.9133 35.7622 16.18C35.7489 16.4467 35.6422 16.6667 35.4422 16.84C35.2555 17.0133 35.0089 17.1 34.7022 17.1C34.4089 17.1 34.1622 17.0467 33.9622 16.94C33.7622 16.8333 33.5689 16.6667 33.3822 16.44L30.7822 13.16H31.6222L29.0422 16.44C28.8689 16.6533 28.6822 16.82 28.4822 16.94C28.2822 17.0467 28.0289 17.1 27.7222 17.1ZM42.4402 17.2C41.5735 17.2 40.8468 17.0533 40.2602 16.76C39.6868 16.4667 39.2602 16.04 38.9802 15.48C38.7002 14.9067 38.5602 14.2 38.5602 13.36V9.1H37.5202C37.2002 9.1 36.9535 9.02 36.7802 8.86C36.6068 8.68667 36.5202 8.45333 36.5202 8.16C36.5202 7.85333 36.6068 7.62 36.7802 7.46C36.9535 7.3 37.2002 7.22 37.5202 7.22H38.5602V5.4C38.5602 4.98667 38.6668 4.67333 38.8802 4.46C39.1068 4.24667 39.4202 4.14 39.8202 4.14C40.2202 4.14 40.5268 4.24667 40.7402 4.46C40.9535 4.67333 41.0602 4.98667 41.0602 5.4V7.22H43.1802C43.5002 7.22 43.7468 7.3 43.9202 7.46C44.0935 7.62 44.1802 7.85333 44.1802 8.16C44.1802 8.45333 44.0935 8.68667 43.9202 8.86C43.7468 9.02 43.5002 9.1 43.1802 9.1H41.0602V13.22C41.0602 13.86 41.2002 14.34 41.4802 14.66C41.7602 14.98 42.2135 15.14 42.8402 15.14C43.0668 15.14 43.2668 15.12 43.4402 15.08C43.6135 15.04 43.7668 15.0133 43.9002 15C44.0602 14.9867 44.1935 15.04 44.3002 15.16C44.4068 15.2667 44.4602 15.4933 44.4602 15.84C44.4602 16.1067 44.4135 16.3467 44.3202 16.56C44.2402 16.76 44.0868 16.9 43.8602 16.98C43.6868 17.0333 43.4602 17.08 43.1802 17.12C42.9002 17.1733 42.6535 17.2 42.4402 17.2Z" fill="#333333"/>
<path d="M17.3438 55.5586C17.3438 55.0508 17.2656 54.5951 17.1094 54.1914C16.9661 53.7747 16.6927 53.3971 16.2891 53.0586C15.8854 52.707 15.319 52.362 14.5898 52.0234C13.8607 51.6849 12.9167 51.3333 11.7578 50.9688C10.4688 50.5521 9.24479 50.0833 8.08594 49.5625C6.9401 49.0417 5.92448 48.4362 5.03906 47.7461C4.16667 47.043 3.47656 46.2292 2.96875 45.3047C2.47396 44.3802 2.22656 43.306 2.22656 42.082C2.22656 40.8971 2.48698 39.8229 3.00781 38.8594C3.52865 37.8828 4.25781 37.0495 5.19531 36.3594C6.13281 35.6562 7.23958 35.1159 8.51562 34.7383C9.80469 34.3607 11.2174 34.1719 12.7539 34.1719C14.8503 34.1719 16.6797 34.5495 18.2422 35.3047C19.8047 36.0599 21.0156 37.0951 21.875 38.4102C22.7474 39.7253 23.1836 41.2292 23.1836 42.9219H17.3633C17.3633 42.0885 17.1875 41.3594 16.8359 40.7344C16.4974 40.0964 15.9766 39.5951 15.2734 39.2305C14.5833 38.8659 13.7109 38.6836 12.6562 38.6836C11.6406 38.6836 10.7943 38.8398 10.1172 39.1523C9.4401 39.4518 8.93229 39.862 8.59375 40.3828C8.25521 40.8906 8.08594 41.4635 8.08594 42.1016C8.08594 42.5833 8.20312 43.0195 8.4375 43.4102C8.6849 43.8008 9.04948 44.1654 9.53125 44.5039C10.013 44.8424 10.6055 45.1615 11.3086 45.4609C12.0117 45.7604 12.8255 46.0534 13.75 46.3398C15.2995 46.8086 16.6602 47.3359 17.832 47.9219C19.0169 48.5078 20.0065 49.1654 20.8008 49.8945C21.5951 50.6237 22.194 51.4505 22.5977 52.375C23.0013 53.2995 23.2031 54.3477 23.2031 55.5195C23.2031 56.7565 22.9622 57.8633 22.4805 58.8398C21.9987 59.8164 21.3021 60.6432 20.3906 61.3203C19.4792 61.9974 18.3919 62.5117 17.1289 62.8633C15.8659 63.2148 14.4531 63.3906 12.8906 63.3906C11.4844 63.3906 10.0977 63.2083 8.73047 62.8438C7.36328 62.4661 6.11979 61.8997 5 61.1445C3.89323 60.3893 3.00781 59.4258 2.34375 58.2539C1.67969 57.082 1.34766 55.6953 1.34766 54.0938H7.22656C7.22656 54.9792 7.36328 55.7279 7.63672 56.3398C7.91016 56.9518 8.29427 57.4466 8.78906 57.8242C9.29688 58.2018 9.89583 58.4753 10.5859 58.6445C11.2891 58.8138 12.0573 58.8984 12.8906 58.8984C13.9062 58.8984 14.7396 58.7552 15.3906 58.4688C16.0547 58.1823 16.543 57.7852 16.8555 57.2773C17.181 56.7695 17.3438 56.1966 17.3438 55.5586ZM39.3359 57.9414V41.8672H44.9609V63H39.668L39.3359 57.9414ZM39.9609 53.6055L41.6211 53.5664C41.6211 54.9727 41.4583 56.2812 41.1328 57.4922C40.8073 58.6901 40.319 59.7318 39.668 60.6172C39.0169 61.4896 38.1966 62.1732 37.207 62.668C36.2174 63.1497 35.0521 63.3906 33.7109 63.3906C32.6823 63.3906 31.7318 63.2474 30.8594 62.9609C30 62.6615 29.2578 62.1992 28.6328 61.5742C28.0208 60.9362 27.5391 60.1224 27.1875 59.1328C26.849 58.1302 26.6797 56.9258 26.6797 55.5195V41.8672H32.3047V55.5586C32.3047 56.1836 32.3763 56.7109 32.5195 57.1406C32.6758 57.5703 32.8906 57.9219 33.1641 58.1953C33.4375 58.4688 33.7565 58.6641 34.1211 58.7812C34.4987 58.8984 34.9154 58.957 35.3711 58.957C36.5299 58.957 37.4414 58.7227 38.1055 58.2539C38.7826 57.7852 39.2578 57.1471 39.5312 56.3398C39.8177 55.5195 39.9609 54.6081 39.9609 53.6055ZM54.8828 45.9297V71.125H49.2578V41.8672H54.4727L54.8828 45.9297ZM68.2617 52.1992V52.6094C68.2617 54.1458 68.0794 55.5716 67.7148 56.8867C67.3633 58.2018 66.8424 59.3477 66.1523 60.3242C65.4622 61.2878 64.6029 62.043 63.5742 62.5898C62.5586 63.1237 61.3867 63.3906 60.0586 63.3906C58.7695 63.3906 57.6497 63.1302 56.6992 62.6094C55.7487 62.0885 54.9479 61.3594 54.2969 60.4219C53.6589 59.4714 53.1445 58.3711 52.7539 57.1211C52.3633 55.8711 52.0638 54.5299 51.8555 53.0977V52.0234C52.0638 50.487 52.3633 49.0807 52.7539 47.8047C53.1445 46.5156 53.6589 45.4023 54.2969 44.4648C54.9479 43.5143 55.7422 42.7786 56.6797 42.2578C57.6302 41.737 58.7435 41.4766 60.0195 41.4766C61.3607 41.4766 62.5391 41.7305 63.5547 42.2383C64.5833 42.7461 65.4427 43.4753 66.1328 44.4258C66.8359 45.3763 67.3633 46.5091 67.7148 47.8242C68.0794 49.1393 68.2617 50.5977 68.2617 52.1992ZM62.6172 52.6094V52.1992C62.6172 51.3008 62.5391 50.474 62.3828 49.7188C62.2396 48.9505 62.0052 48.2799 61.6797 47.707C61.3672 47.1341 60.9505 46.6914 60.4297 46.3789C59.9219 46.0534 59.3034 45.8906 58.5742 45.8906C57.806 45.8906 57.1484 46.0143 56.6016 46.2617C56.0677 46.5091 55.6315 46.8672 55.293 47.3359C54.9544 47.8047 54.7005 48.3646 54.5312 49.0156C54.362 49.6667 54.2578 50.4023 54.2188 51.2227V53.9375C54.2839 54.901 54.4661 55.7669 54.7656 56.5352C55.0651 57.2904 55.5273 57.8893 56.1523 58.332C56.7773 58.7747 57.5977 58.9961 58.6133 58.9961C59.3555 58.9961 59.9805 58.8333 60.4883 58.5078C60.9961 58.1693 61.4062 57.707 61.7188 57.1211C62.0443 56.5352 62.2721 55.8581 62.4023 55.0898C62.5456 54.3216 62.6172 53.4948 62.6172 52.6094ZM77.3828 45.9297V71.125H71.7578V41.8672H76.9727L77.3828 45.9297ZM90.7617 52.1992V52.6094C90.7617 54.1458 90.5794 55.5716 90.2148 56.8867C89.8633 58.2018 89.3424 59.3477 88.6523 60.3242C87.9622 61.2878 87.1029 62.043 86.0742 62.5898C85.0586 63.1237 83.8867 63.3906 82.5586 63.3906C81.2695 63.3906 80.1497 63.1302 79.1992 62.6094C78.2487 62.0885 77.4479 61.3594 76.7969 60.4219C76.1589 59.4714 75.6445 58.3711 75.2539 57.1211C74.8633 55.8711 74.5638 54.5299 74.3555 53.0977V52.0234C74.5638 50.487 74.8633 49.0807 75.2539 47.8047C75.6445 46.5156 76.1589 45.4023 76.7969 44.4648C77.4479 43.5143 78.2422 42.7786 79.1797 42.2578C80.1302 41.737 81.2435 41.4766 82.5195 41.4766C83.8607 41.4766 85.0391 41.7305 86.0547 42.2383C87.0833 42.7461 87.9427 43.4753 88.6328 44.4258C89.3359 45.3763 89.8633 46.5091 90.2148 47.8242C90.5794 49.1393 90.7617 50.5977 90.7617 52.1992ZM85.1172 52.6094V52.1992C85.1172 51.3008 85.0391 50.474 84.8828 49.7188C84.7396 48.9505 84.5052 48.2799 84.1797 47.707C83.8672 47.1341 83.4505 46.6914 82.9297 46.3789C82.4219 46.0534 81.8034 45.8906 81.0742 45.8906C80.306 45.8906 79.6484 46.0143 79.1016 46.2617C78.5677 46.5091 78.1315 46.8672 77.793 47.3359C77.4544 47.8047 77.2005 48.3646 77.0312 49.0156C76.862 49.6667 76.7578 50.4023 76.7188 51.2227V53.9375C76.7839 54.901 76.9661 55.7669 77.2656 56.5352C77.5651 57.2904 78.0273 57.8893 78.6523 58.332C79.2773 58.7747 80.0977 58.9961 81.1133 58.9961C81.8555 58.9961 82.4805 58.8333 82.9883 58.5078C83.4961 58.1693 83.9062 57.707 84.2188 57.1211C84.5443 56.5352 84.7721 55.8581 84.9023 55.0898C85.0456 54.3216 85.1172 53.4948 85.1172 52.6094ZM93.3594 52.6484V52.2383C93.3594 50.6888 93.5807 49.263 94.0234 47.9609C94.4661 46.6458 95.1107 45.5065 95.957 44.543C96.8034 43.5794 97.8451 42.8307 99.082 42.2969C100.319 41.75 101.738 41.4766 103.34 41.4766C104.941 41.4766 106.367 41.75 107.617 42.2969C108.867 42.8307 109.915 43.5794 110.762 44.543C111.621 45.5065 112.272 46.6458 112.715 47.9609C113.158 49.263 113.379 50.6888 113.379 52.2383V52.6484C113.379 54.1849 113.158 55.6107 112.715 56.9258C112.272 58.2279 111.621 59.3672 110.762 60.3438C109.915 61.3073 108.874 62.056 107.637 62.5898C106.4 63.1237 104.98 63.3906 103.379 63.3906C101.777 63.3906 100.352 63.1237 99.1016 62.5898C97.8646 62.056 96.8164 61.3073 95.957 60.3438C95.1107 59.3672 94.4661 58.2279 94.0234 56.9258C93.5807 55.6107 93.3594 54.1849 93.3594 52.6484ZM98.9844 52.2383V52.6484C98.9844 53.5339 99.0625 54.3607 99.2188 55.1289C99.375 55.8971 99.6224 56.5742 99.9609 57.1602C100.312 57.7331 100.768 58.1823 101.328 58.5078C101.888 58.8333 102.572 58.9961 103.379 58.9961C104.16 58.9961 104.831 58.8333 105.391 58.5078C105.951 58.1823 106.4 57.7331 106.738 57.1602C107.077 56.5742 107.324 55.8971 107.48 55.1289C107.65 54.3607 107.734 53.5339 107.734 52.6484V52.2383C107.734 51.3789 107.65 50.5716 107.48 49.8164C107.324 49.0482 107.07 48.3711 106.719 47.7852C106.38 47.1862 105.931 46.7174 105.371 46.3789C104.811 46.0404 104.134 45.8711 103.34 45.8711C102.546 45.8711 101.868 46.0404 101.309 46.3789C100.762 46.7174 100.312 47.1862 99.9609 47.7852C99.6224 48.3711 99.375 49.0482 99.2188 49.8164C99.0625 50.5716 98.9844 51.3789 98.9844 52.2383ZM122.461 46.4766V63H116.836V41.8672H122.129L122.461 46.4766ZM128.828 41.7305L128.73 46.9453C128.457 46.9062 128.125 46.8737 127.734 46.8477C127.357 46.8086 127.012 46.7891 126.699 46.7891C125.905 46.7891 125.215 46.8932 124.629 47.1016C124.056 47.2969 123.574 47.5898 123.184 47.9805C122.806 48.3711 122.52 48.8464 122.324 49.4062C122.142 49.9661 122.038 50.6042 122.012 51.3203L120.879 50.9688C120.879 49.6016 121.016 48.3451 121.289 47.1992C121.562 46.0404 121.96 45.0312 122.48 44.1719C123.014 43.3125 123.665 42.6484 124.434 42.1797C125.202 41.7109 126.081 41.4766 127.07 41.4766C127.383 41.4766 127.702 41.5026 128.027 41.5547C128.353 41.5938 128.62 41.6523 128.828 41.7305ZM142.812 41.8672V45.8516H130.508V41.8672H142.812ZM133.555 36.6523H139.18V56.6328C139.18 57.2448 139.258 57.7135 139.414 58.0391C139.583 58.3646 139.831 58.5924 140.156 58.7227C140.482 58.8398 140.892 58.8984 141.387 58.8984C141.738 58.8984 142.051 58.8854 142.324 58.8594C142.611 58.8203 142.852 58.7812 143.047 58.7422L143.066 62.8828C142.585 63.0391 142.064 63.1628 141.504 63.2539C140.944 63.3451 140.326 63.3906 139.648 63.3906C138.411 63.3906 137.331 63.1888 136.406 62.7852C135.495 62.3685 134.792 61.7044 134.297 60.793C133.802 59.8815 133.555 58.6836 133.555 57.1992V36.6523Z" fill="#333333"/>
<rect x="174" width="72" height="72" rx="36" fill="#333333"/>
<path d="M195.5 36H224.5M211.812 23L224.5 36L211.812 49" stroke="white" stroke-width="2" stroke-linecap="round" stroke-linejoin="round"/>
<path d="M2 23H45" stroke="#333333" stroke-width="2" stroke-linecap="round"/>
</svg>
