<svg width="182" height="72" viewBox="0 0 182 72" fill="none" xmlns="http://www.w3.org/2000/svg">
<path d="M2.74 17.16C2.35333 17.16 2.05333 17.0533 1.84 16.84C1.64 16.6267 1.54 16.32 1.54 15.92V4.02C1.54 3.60667 1.64 3.29333 1.84 3.08C2.05333 2.85333 2.32667 2.74 2.66 2.74C2.96667 2.74 3.19333 2.8 3.34 2.92C3.5 3.02667 3.68667 3.21333 3.9 3.48L11.56 13.42H11.04V3.96C11.04 3.57333 11.14 3.27333 11.34 3.06C11.5533 2.84667 11.8533 2.74 12.24 2.74C12.6267 2.74 12.92 2.84667 13.12 3.06C13.32 3.27333 13.42 3.57333 13.42 3.96V15.96C13.42 16.3333 13.3267 16.6267 13.14 16.84C12.9533 17.0533 12.7 17.16 12.38 17.16C12.0733 17.16 11.8267 17.1 11.64 16.98C11.4667 16.86 11.2733 16.6667 11.06 16.4L3.42 6.46H3.92V15.92C3.92 16.32 3.82 16.6267 3.62 16.84C3.42 17.0533 3.12667 17.16 2.74 17.16ZM21.0809 17.2C19.9743 17.2 19.0209 16.9933 18.2209 16.58C17.4209 16.1667 16.8009 15.58 16.3609 14.82C15.9343 14.06 15.7209 13.16 15.7209 12.12C15.7209 11.1067 15.9276 10.22 16.3409 9.46C16.7676 8.7 17.3476 8.10667 18.0809 7.68C18.8276 7.24 19.6743 7.02 20.6209 7.02C21.3143 7.02 21.9343 7.13333 22.4809 7.36C23.0409 7.58667 23.5143 7.91333 23.9009 8.34C24.3009 8.76667 24.6009 9.28667 24.8009 9.9C25.0143 10.5 25.1209 11.18 25.1209 11.94C25.1209 12.18 25.0343 12.3667 24.8609 12.5C24.7009 12.62 24.4676 12.68 24.1609 12.68H17.7409V11.24H23.3609L23.0409 11.54C23.0409 10.9267 22.9476 10.4133 22.7609 10C22.5876 9.58667 22.3276 9.27333 21.9809 9.06C21.6476 8.83333 21.2276 8.72 20.7209 8.72C20.1609 8.72 19.6809 8.85333 19.2809 9.12C18.8943 9.37333 18.5943 9.74 18.3809 10.22C18.1809 10.6867 18.0809 11.2467 18.0809 11.9V12.04C18.0809 13.1333 18.3343 13.9533 18.8409 14.5C19.3609 15.0333 20.1209 15.3 21.1209 15.3C21.4676 15.3 21.8543 15.26 22.2809 15.18C22.7209 15.0867 23.1343 14.9333 23.5209 14.72C23.8009 14.56 24.0476 14.4933 24.2609 14.52C24.4743 14.5333 24.6409 14.6067 24.7609 14.74C24.8943 14.8733 24.9743 15.04 25.0009 15.24C25.0276 15.4267 24.9876 15.62 24.8809 15.82C24.7876 16.02 24.6209 16.1933 24.3809 16.34C23.9143 16.6333 23.3743 16.8533 22.7609 17C22.1609 17.1333 21.6009 17.2 21.0809 17.2ZM27.7222 17.1C27.4289 17.1 27.1822 17.02 26.9822 16.86C26.7955 16.6867 26.6955 16.4667 26.6822 16.2C26.6822 15.9333 26.7955 15.6533 27.0222 15.36L30.2622 11.36V12.54L27.2222 8.8C26.9822 8.50667 26.8689 8.22667 26.8822 7.96C26.8955 7.69333 26.9955 7.48 27.1822 7.32C27.3822 7.14667 27.6289 7.06 27.9222 7.06C28.2289 7.06 28.4822 7.11333 28.6822 7.22C28.8955 7.32667 29.0889 7.49333 29.2622 7.72L31.6622 10.8H30.7822L33.2022 7.72C33.3889 7.49333 33.5822 7.32667 33.7822 7.22C33.9822 7.11333 34.2289 7.06 34.5222 7.06C34.8289 7.06 35.0755 7.14667 35.2622 7.32C35.4489 7.49333 35.5422 7.71333 35.5422 7.98C35.5555 8.24667 35.4422 8.52667 35.2022 8.82L32.1822 12.52V11.4L35.4222 15.36C35.6622 15.64 35.7755 15.9133 35.7622 16.18C35.7489 16.4467 35.6422 16.6667 35.4422 16.84C35.2555 17.0133 35.0089 17.1 34.7022 17.1C34.4089 17.1 34.1622 17.0467 33.9622 16.94C33.7622 16.8333 33.5689 16.6667 33.3822 16.44L30.7822 13.16H31.6222L29.0422 16.44C28.8689 16.6533 28.6822 16.82 28.4822 16.94C28.2822 17.0467 28.0289 17.1 27.7222 17.1ZM42.4402 17.2C41.5735 17.2 40.8468 17.0533 40.2602 16.76C39.6868 16.4667 39.2602 16.04 38.9802 15.48C38.7002 14.9067 38.5602 14.2 38.5602 13.36V9.1H37.5202C37.2002 9.1 36.9535 9.02 36.7802 8.86C36.6068 8.68667 36.5202 8.45333 36.5202 8.16C36.5202 7.85333 36.6068 7.62 36.7802 7.46C36.9535 7.3 37.2002 7.22 37.5202 7.22H38.5602V5.4C38.5602 4.98667 38.6668 4.67333 38.8802 4.46C39.1068 4.24667 39.4202 4.14 39.8202 4.14C40.2202 4.14 40.5268 4.24667 40.7402 4.46C40.9535 4.67333 41.0602 4.98667 41.0602 5.4V7.22H43.1802C43.5002 7.22 43.7468 7.3 43.9202 7.46C44.0935 7.62 44.1802 7.85333 44.1802 8.16C44.1802 8.45333 44.0935 8.68667 43.9202 8.86C43.7468 9.02 43.5002 9.1 43.1802 9.1H41.0602V13.22C41.0602 13.86 41.2002 14.34 41.4802 14.66C41.7602 14.98 42.2135 15.14 42.8402 15.14C43.0668 15.14 43.2668 15.12 43.4402 15.08C43.6135 15.04 43.7668 15.0133 43.9002 15C44.0602 14.9867 44.1935 15.04 44.3002 15.16C44.4068 15.2667 44.4602 15.4933 44.4602 15.84C44.4602 16.1067 44.4135 16.3467 44.3202 16.56C44.2402 16.76 44.0868 16.9 43.8602 16.98C43.6868 17.0333 43.4602 17.08 43.1802 17.12C42.9002 17.1733 42.6535 17.2 42.4402 17.2Z" fill="#333333"/>
<path d="M13.6719 50.5195H6.36719L6.32812 46.4961H12.4609C13.5417 46.4961 14.4271 46.3594 15.1172 46.0859C15.8073 45.7995 16.3216 45.3893 16.6602 44.8555C17.0117 44.3086 17.1875 43.6445 17.1875 42.8633C17.1875 41.9779 17.0182 41.2617 16.6797 40.7148C16.3542 40.168 15.8398 39.7708 15.1367 39.5234C14.4466 39.276 13.5547 39.1523 12.4609 39.1523H8.39844V63H2.53906V34.5625H12.4609C14.1146 34.5625 15.5924 34.7188 16.8945 35.0312C18.2096 35.3438 19.3229 35.819 20.2344 36.457C21.1458 37.0951 21.8424 37.9023 22.3242 38.8789C22.806 39.8424 23.0469 40.9883 23.0469 42.3164C23.0469 43.4883 22.7799 44.569 22.2461 45.5586C21.7253 46.5482 20.8984 47.3555 19.7656 47.9805C18.6458 48.6055 17.181 48.9505 15.3711 49.0156L13.6719 50.5195ZM13.418 63H4.76562L7.05078 58.4297H13.418C14.4466 58.4297 15.2865 58.2669 15.9375 57.9414C16.5885 57.6029 17.0703 57.1471 17.3828 56.5742C17.6953 56.0013 17.8516 55.3438 17.8516 54.6016C17.8516 53.7682 17.7083 53.0456 17.4219 52.4336C17.1484 51.8216 16.7057 51.3529 16.0938 51.0273C15.4818 50.6888 14.6745 50.5195 13.6719 50.5195H8.02734L8.06641 46.4961H15.0977L16.4453 48.0781C18.1771 48.0521 19.5703 48.3581 20.625 48.9961C21.6927 49.6211 22.4674 50.4349 22.9492 51.4375C23.444 52.4401 23.6914 53.5143 23.6914 54.6602C23.6914 56.4831 23.2943 58.0195 22.5 59.2695C21.7057 60.5065 20.5404 61.4375 19.0039 62.0625C17.4805 62.6875 15.6185 63 13.418 63ZM33.3594 46.4766V63H27.7344V41.8672H33.0273L33.3594 46.4766ZM39.7266 41.7305L39.6289 46.9453C39.3555 46.9062 39.0234 46.8737 38.6328 46.8477C38.2552 46.8086 37.9102 46.7891 37.5977 46.7891C36.8034 46.7891 36.1133 46.8932 35.5273 47.1016C34.9544 47.2969 34.4727 47.5898 34.082 47.9805C33.7044 48.3711 33.418 48.8464 33.2227 49.4062C33.0404 49.9661 32.9362 50.6042 32.9102 51.3203L31.7773 50.9688C31.7773 49.6016 31.9141 48.3451 32.1875 47.1992C32.4609 46.0404 32.8581 45.0312 33.3789 44.1719C33.9128 43.3125 34.5638 42.6484 35.332 42.1797C36.1003 41.7109 36.9792 41.4766 37.9688 41.4766C38.2812 41.4766 38.6003 41.5026 38.9258 41.5547C39.2513 41.5938 39.5182 41.6523 39.7266 41.7305ZM48.3203 41.8672V63H42.6758V41.8672H48.3203ZM42.3242 36.3594C42.3242 35.5391 42.6107 34.862 43.1836 34.3281C43.7565 33.7943 44.5247 33.5273 45.4883 33.5273C46.4388 33.5273 47.2005 33.7943 47.7734 34.3281C48.3594 34.862 48.6523 35.5391 48.6523 36.3594C48.6523 37.1797 48.3594 37.8568 47.7734 38.3906C47.2005 38.9245 46.4388 39.1914 45.4883 39.1914C44.5247 39.1914 43.7565 38.9245 43.1836 38.3906C42.6107 37.8568 42.3242 37.1797 42.3242 36.3594ZM62.6953 63.3906C61.0547 63.3906 59.5833 63.1302 58.2812 62.6094C56.9792 62.0755 55.8724 61.3398 54.9609 60.4023C54.0625 59.4648 53.3724 58.3776 52.8906 57.1406C52.4089 55.8906 52.168 54.5625 52.168 53.1562V52.375C52.168 50.7734 52.3958 49.3086 52.8516 47.9805C53.3073 46.6523 53.9583 45.5 54.8047 44.5234C55.6641 43.5469 56.7057 42.7982 57.9297 42.2773C59.1536 41.7435 60.5339 41.4766 62.0703 41.4766C63.5677 41.4766 64.8958 41.724 66.0547 42.2188C67.2135 42.7135 68.1836 43.4167 68.9648 44.3281C69.7591 45.2396 70.3581 46.3333 70.7617 47.6094C71.1654 48.8724 71.3672 50.2786 71.3672 51.8281V54.1719H54.5703V50.4219H65.8398V49.9922C65.8398 49.2109 65.6966 48.5143 65.4102 47.9023C65.1367 47.2773 64.7201 46.7826 64.1602 46.418C63.6003 46.0534 62.8841 45.8711 62.0117 45.8711C61.2695 45.8711 60.6315 46.0339 60.0977 46.3594C59.5638 46.6849 59.1276 47.1406 58.7891 47.7266C58.4635 48.3125 58.2161 49.0026 58.0469 49.7969C57.8906 50.5781 57.8125 51.4375 57.8125 52.375V53.1562C57.8125 54.0026 57.9297 54.7839 58.1641 55.5C58.4115 56.2161 58.7565 56.8346 59.1992 57.3555C59.6549 57.8763 60.2018 58.2799 60.8398 58.5664C61.4909 58.8529 62.2266 58.9961 63.0469 58.9961C64.0625 58.9961 65.0065 58.8008 65.8789 58.4102C66.7643 58.0065 67.526 57.401 68.1641 56.5938L70.8984 59.5625C70.4557 60.2005 69.8503 60.8125 69.082 61.3984C68.3268 61.9844 67.4154 62.4661 66.3477 62.8438C65.2799 63.2083 64.0625 63.3906 62.6953 63.3906ZM81.7383 63H76.0742V39.9922C76.0742 38.3906 76.3867 37.043 77.0117 35.9492C77.6497 34.8424 78.5417 34.0091 79.6875 33.4492C80.8464 32.8763 82.2201 32.5898 83.8086 32.5898C84.3294 32.5898 84.8307 32.6289 85.3125 32.707C85.7943 32.7721 86.263 32.8568 86.7188 32.9609L86.6602 37.1992C86.4128 37.1341 86.1523 37.0885 85.8789 37.0625C85.6055 37.0365 85.2865 37.0234 84.9219 37.0234C84.2448 37.0234 83.6654 37.1406 83.1836 37.375C82.7148 37.5964 82.3568 37.9284 82.1094 38.3711C81.862 38.8138 81.7383 39.3542 81.7383 39.9922V63ZM85.957 41.8672V45.8516H72.9297V41.8672H85.957Z" fill="#333333"/>
<rect x="110" width="72" height="72" rx="36" fill="#333333"/>
<path d="M131.5 36H160.5M147.812 23L160.5 36L147.812 49" stroke="white" stroke-width="2" stroke-linecap="round" stroke-linejoin="round"/>
<path d="M2 23H45" stroke="#333333" stroke-width="2" stroke-linecap="round"/>
</svg>
