<svg width="259" height="120" viewBox="0 0 259 120" fill="none" xmlns="http://www.w3.org/2000/svg">
<path d="M27.1094 67.2344H12.8125V57.3516H27.1094C29.2188 57.3516 30.9115 57 32.1875 56.2969C33.4896 55.5938 34.4401 54.6302 35.0391 53.4062C35.6641 52.1562 35.9766 50.75 35.9766 49.1875C35.9766 47.5729 35.6641 46.0755 35.0391 44.6953C34.4401 43.2891 33.4896 42.1562 32.1875 41.2969C30.9115 40.4375 29.2188 40.0078 27.1094 40.0078H17.4219V87H4.6875V30.125H27.1094C31.6406 30.125 35.5208 30.9453 38.75 32.5859C42.0052 34.2266 44.4922 36.4792 46.2109 39.3438C47.9557 42.1823 48.8281 45.4375 48.8281 49.1094C48.8281 52.7812 47.9557 55.9714 46.2109 58.6797C44.4922 61.388 42.0052 63.4974 38.75 65.0078C35.5208 66.4922 31.6406 67.2344 27.1094 67.2344ZM68.1641 54.5781V87H55.9766V44.7344H67.4219L68.1641 54.5781ZM80.7812 44.4219L80.5859 55.7891C80.0651 55.7109 79.388 55.6458 78.5547 55.5938C77.7214 55.5156 77.0052 55.4766 76.4062 55.4766C74.8438 55.4766 73.4896 55.6719 72.3438 56.0625C71.224 56.4271 70.2865 56.974 69.5312 57.7031C68.8021 58.4323 68.2552 59.3438 67.8906 60.4375C67.526 61.5052 67.3438 62.7422 67.3438 64.1484L65.0391 63.0156C65.0391 60.2292 65.3125 57.6771 65.8594 55.3594C66.4062 53.0417 67.2005 51.0365 68.2422 49.3438C69.2839 47.625 70.5599 46.2969 72.0703 45.3594C73.5807 44.4219 75.2995 43.9531 77.2266 43.9531C77.8516 43.9531 78.4896 43.9922 79.1406 44.0703C79.7917 44.1484 80.3385 44.2656 80.7812 44.4219ZM82.6953 66.2969V65.4766C82.6953 62.3776 83.138 59.526 84.0234 56.9219C84.9089 54.2917 86.2109 52.013 87.9297 50.0859C89.6484 48.1589 91.7578 46.6615 94.2578 45.5938C96.7578 44.5 99.6224 43.9531 102.852 43.9531C106.133 43.9531 109.023 44.5 111.523 45.5938C114.049 46.6615 116.172 48.1589 117.891 50.0859C119.609 52.013 120.911 54.2917 121.797 56.9219C122.682 59.526 123.125 62.3776 123.125 65.4766V66.2969C123.125 69.3698 122.682 72.2214 121.797 74.8516C120.911 77.4557 119.609 79.7344 117.891 81.6875C116.172 83.6146 114.062 85.112 111.562 86.1797C109.062 87.2474 106.185 87.7812 102.93 87.7812C99.7005 87.7812 96.8229 87.2474 94.2969 86.1797C91.7708 85.112 89.6484 83.6146 87.9297 81.6875C86.2109 79.7344 84.9089 77.4557 84.0234 74.8516C83.138 72.2214 82.6953 69.3698 82.6953 66.2969ZM94.9219 65.4766V66.2969C94.9219 67.9635 95.0521 69.526 95.3125 70.9844C95.599 72.4427 96.0547 73.7188 96.6797 74.8125C97.3047 75.9062 98.125 76.7656 99.1406 77.3906C100.182 77.9896 101.445 78.2891 102.93 78.2891C104.414 78.2891 105.664 77.9896 106.68 77.3906C107.695 76.7656 108.516 75.9062 109.141 74.8125C109.766 73.7188 110.208 72.4427 110.469 70.9844C110.755 69.526 110.898 67.9635 110.898 66.2969V65.4766C110.898 63.8359 110.755 62.2995 110.469 60.8672C110.208 59.4089 109.766 58.1198 109.141 57C108.516 55.8802 107.682 55.0078 106.641 54.3828C105.625 53.7578 104.362 53.4453 102.852 53.4453C101.393 53.4453 100.156 53.7578 99.1406 54.3828C98.125 55.0078 97.3047 55.8802 96.6797 57C96.0547 58.1198 95.599 59.4089 95.3125 60.8672C95.0521 62.2995 94.9219 63.8359 94.9219 65.4766ZM130.312 44.7344H142.578V88.9531C142.578 92.2083 141.966 94.9557 140.742 97.1953C139.518 99.4609 137.747 101.167 135.43 102.312C133.138 103.484 130.391 104.07 127.188 104.07C126.146 104.07 125.156 104.018 124.219 103.914C123.281 103.836 122.279 103.667 121.211 103.406V94.1094C121.862 94.2135 122.487 94.2917 123.086 94.3438C123.659 94.4219 124.271 94.4609 124.922 94.4609C126.094 94.4609 127.07 94.2656 127.852 93.875C128.659 93.4844 129.271 92.8724 129.688 92.0391C130.104 91.2318 130.312 90.2031 130.312 88.9531V44.7344ZM129.375 33.7969C129.375 32.026 130 30.5807 131.25 29.4609C132.5 28.3151 134.154 27.7422 136.211 27.7422C138.242 27.7422 139.883 28.3151 141.133 29.4609C142.383 30.5807 143.008 32.026 143.008 33.7969C143.008 35.5417 142.383 36.987 141.133 38.1328C139.883 39.2526 138.242 39.8125 136.211 39.8125C134.154 39.8125 132.5 39.2526 131.25 38.1328C130 36.987 129.375 35.5417 129.375 33.7969ZM170.703 87.7812C167.344 87.7812 164.336 87.2474 161.68 86.1797C159.023 85.112 156.771 83.6406 154.922 81.7656C153.099 79.8646 151.706 77.6771 150.742 75.2031C149.779 72.7292 149.297 70.0859 149.297 67.2734V65.7891C149.297 62.638 149.74 59.7344 150.625 57.0781C151.51 54.4219 152.799 52.1172 154.492 50.1641C156.211 48.1849 158.32 46.6615 160.82 45.5938C163.32 44.5 166.172 43.9531 169.375 43.9531C172.37 43.9531 175.039 44.4479 177.383 45.4375C179.727 46.401 181.706 47.7943 183.32 49.6172C184.935 51.4141 186.159 53.5885 186.992 56.1406C187.852 58.6667 188.281 61.5052 188.281 64.6562V69.6562H154.219V61.8047H176.328V60.8672C176.328 59.3828 176.055 58.0807 175.508 56.9609C174.987 55.8411 174.206 54.9818 173.164 54.3828C172.148 53.7578 170.859 53.4453 169.297 53.4453C167.812 53.4453 166.576 53.7578 165.586 54.3828C164.596 55.0078 163.802 55.8932 163.203 57.0391C162.63 58.1589 162.214 59.474 161.953 60.9844C161.693 62.4688 161.562 64.0703 161.562 65.7891V67.2734C161.562 68.9141 161.784 70.4115 162.227 71.7656C162.669 73.1198 163.32 74.2786 164.18 75.2422C165.039 76.2057 166.081 76.9609 167.305 77.5078C168.529 78.0547 169.922 78.3281 171.484 78.3281C173.411 78.3281 175.247 77.9635 176.992 77.2344C178.737 76.4792 180.247 75.3073 181.523 73.7188L187.227 80.2422C186.367 81.4922 185.156 82.7031 183.594 83.875C182.057 85.0208 180.208 85.9583 178.047 86.6875C175.885 87.4167 173.438 87.7812 170.703 87.7812ZM215.703 44.7344V53.2891H190.625V44.7344H215.703ZM196.367 34.2656H208.594V73.7578C208.594 74.9297 208.737 75.8281 209.023 76.4531C209.31 77.0781 209.779 77.5208 210.43 77.7812C211.081 78.0156 211.914 78.1328 212.93 78.1328C213.659 78.1328 214.284 78.1068 214.805 78.0547C215.326 78.0026 215.807 77.9375 216.25 77.8594V86.6875C215.208 87.026 214.102 87.2865 212.93 87.4688C211.758 87.6771 210.482 87.7812 209.102 87.7812C206.471 87.7812 204.193 87.3516 202.266 86.4922C200.365 85.6328 198.906 84.2786 197.891 82.4297C196.875 80.5547 196.367 78.1198 196.367 75.125V34.2656ZM244.062 75.2422C244.062 74.4609 243.815 73.7708 243.32 73.1719C242.852 72.5729 241.992 72.026 240.742 71.5312C239.518 71.0365 237.786 70.5417 235.547 70.0469C233.438 69.6042 231.471 69.0312 229.648 68.3281C227.826 67.599 226.237 66.7266 224.883 65.7109C223.529 64.6693 222.474 63.4453 221.719 62.0391C220.964 60.6068 220.586 58.9792 220.586 57.1562C220.586 55.3854 220.964 53.7057 221.719 52.1172C222.5 50.5286 223.62 49.1224 225.078 47.8984C226.562 46.6745 228.359 45.7109 230.469 45.0078C232.604 44.3047 235.026 43.9531 237.734 43.9531C241.458 43.9531 244.674 44.5391 247.383 45.7109C250.091 46.8568 252.174 48.4714 253.633 50.5547C255.091 52.612 255.82 54.9688 255.82 57.625H243.633C243.633 56.5312 243.424 55.5807 243.008 54.7734C242.591 53.9661 241.953 53.3411 241.094 52.8984C240.234 52.4297 239.102 52.1953 237.695 52.1953C236.602 52.1953 235.638 52.3906 234.805 52.7812C233.997 53.1458 233.359 53.6536 232.891 54.3047C232.448 54.9557 232.227 55.7109 232.227 56.5703C232.227 57.1693 232.357 57.7161 232.617 58.2109C232.904 58.6797 233.333 59.1224 233.906 59.5391C234.505 59.9297 235.273 60.2812 236.211 60.5938C237.174 60.9062 238.346 61.2057 239.727 61.4922C242.669 62.0391 245.352 62.8073 247.773 63.7969C250.221 64.7865 252.174 66.1536 253.633 67.8984C255.117 69.6432 255.859 71.9479 255.859 74.8125C255.859 76.6875 255.43 78.4062 254.57 79.9688C253.737 81.5312 252.526 82.8984 250.938 84.0703C249.349 85.2422 247.448 86.1536 245.234 86.8047C243.021 87.4557 240.521 87.7812 237.734 87.7812C233.75 87.7812 230.378 87.0651 227.617 85.6328C224.857 84.2005 222.773 82.4036 221.367 80.2422C219.987 78.0547 219.297 75.8151 219.297 73.5234H230.742C230.794 74.9297 231.146 76.0755 231.797 76.9609C232.474 77.8464 233.346 78.4974 234.414 78.9141C235.482 79.3047 236.68 79.5 238.008 79.5C239.336 79.5 240.443 79.3177 241.328 78.9531C242.214 78.5885 242.891 78.0938 243.359 77.4688C243.828 76.8177 244.062 76.0755 244.062 75.2422Z" fill="white"/>
<path d="M94 32H113" stroke="white" stroke-width="8" stroke-linecap="round"/>
</svg>
