<svg width="180" height="96" viewBox="0 0 180 96" fill="none" xmlns="http://www.w3.org/2000/svg">
<path d="M27.3438 58C27.3438 57.2292 27.2292 56.5417 27 55.9375C26.7708 55.3125 26.3542 54.7396 25.75 54.2188C25.1458 53.6979 24.2917 53.1771 23.1875 52.6562C22.0833 52.1146 20.6354 51.5625 18.8438 51C16.8021 50.3333 14.8542 49.5833 13 48.75C11.1667 47.8958 9.53125 46.9062 8.09375 45.7812C6.65625 44.6562 5.52083 43.3438 4.6875 41.8438C3.875 40.3438 3.46875 38.5938 3.46875 36.5938C3.46875 34.6562 3.89583 32.9062 4.75 31.3438C5.60417 29.7812 6.80208 28.4479 8.34375 27.3438C9.88542 26.2188 11.6979 25.3646 13.7812 24.7812C15.8646 24.1771 18.1562 23.875 20.6562 23.875C23.9896 23.875 26.9167 24.4688 29.4375 25.6562C31.9792 26.8229 33.9583 28.4688 35.375 30.5938C36.7917 32.6979 37.5 35.1458 37.5 37.9375H27.375C27.375 36.7083 27.1146 35.625 26.5938 34.6875C26.0938 33.7292 25.3229 32.9792 24.2812 32.4375C23.2604 31.8958 21.9792 31.625 20.4375 31.625C18.9375 31.625 17.6771 31.8542 16.6562 32.3125C15.6562 32.75 14.8958 33.3542 14.375 34.125C13.875 34.8958 13.625 35.7396 13.625 36.6562C13.625 37.3854 13.8125 38.0521 14.1875 38.6562C14.5833 39.2396 15.1458 39.7917 15.875 40.3125C16.625 40.8125 17.5417 41.2917 18.625 41.75C19.7083 42.2083 20.9479 42.6458 22.3438 43.0625C24.7812 43.8333 26.9375 44.6875 28.8125 45.625C30.7083 46.5625 32.3021 47.625 33.5938 48.8125C34.8854 50 35.8542 51.3438 36.5 52.8438C37.1667 54.3438 37.5 56.0417 37.5 57.9375C37.5 59.9583 37.1042 61.75 36.3125 63.3125C35.5417 64.875 34.4167 66.2083 32.9375 67.3125C31.4792 68.3958 29.7292 69.2188 27.6875 69.7812C25.6458 70.3438 23.3646 70.625 20.8438 70.625C18.5521 70.625 16.2917 70.3333 14.0625 69.75C11.8333 69.1458 9.8125 68.2292 8 67C6.20833 65.7708 4.77083 64.2083 3.6875 62.3125C2.625 60.3958 2.09375 58.125 2.09375 55.5H12.2812C12.2812 56.875 12.4792 58.0417 12.875 59C13.2708 59.9375 13.8333 60.6979 14.5625 61.2812C15.3125 61.8646 16.2188 62.2812 17.2812 62.5312C18.3438 62.7812 19.5312 62.9062 20.8438 62.9062C22.3646 62.9062 23.5938 62.6979 24.5312 62.2812C25.4896 61.8438 26.1979 61.25 26.6562 60.5C27.1146 59.75 27.3438 58.9167 27.3438 58ZM57.125 63.0312C58.1667 63.0312 59.0729 62.8333 59.8438 62.4375C60.6146 62.0417 61.2083 61.4896 61.625 60.7812C62.0625 60.0521 62.2812 59.1771 62.2812 58.1562H71.4688C71.4688 60.6146 70.8333 62.7812 69.5625 64.6562C68.3125 66.5312 66.625 68 64.5 69.0625C62.375 70.1042 59.9792 70.625 57.3125 70.625C54.6875 70.625 52.3958 70.1979 50.4375 69.3438C48.4792 68.4688 46.8438 67.25 45.5312 65.6875C44.2188 64.125 43.2292 62.3125 42.5625 60.25C41.9167 58.1667 41.5938 55.9167 41.5938 53.5V52.6875C41.5938 50.2917 41.9167 48.0521 42.5625 45.9688C43.2292 43.8854 44.2188 42.0625 45.5312 40.5C46.8438 38.9375 48.4688 37.7292 50.4062 36.875C52.3646 36 54.6562 35.5625 57.2812 35.5625C60.0521 35.5625 62.5 36.0938 64.625 37.1562C66.7708 38.2188 68.4479 39.75 69.6562 41.75C70.8646 43.7292 71.4688 46.1146 71.4688 48.9062H62.2812C62.2812 47.8229 62.0833 46.8542 61.6875 46C61.3125 45.125 60.7292 44.4375 59.9375 43.9375C59.1667 43.4167 58.2083 43.1562 57.0625 43.1562C55.875 43.1562 54.8958 43.4167 54.125 43.9375C53.375 44.4375 52.8021 45.1354 52.4062 46.0312C52.0104 46.9271 51.7396 47.9479 51.5938 49.0938C51.4479 50.2188 51.375 51.4167 51.375 52.6875V53.5C51.375 54.7917 51.4479 56.0208 51.5938 57.1875C51.7396 58.3333 52.0104 59.3438 52.4062 60.2188C52.8229 61.0938 53.4062 61.7812 54.1562 62.2812C54.9062 62.7812 55.8958 63.0312 57.125 63.0312ZM74.9062 53.4375V52.7812C74.9062 50.3021 75.2604 48.0208 75.9688 45.9375C76.6771 43.8333 77.7188 42.0104 79.0938 40.4688C80.4688 38.9271 82.1562 37.7292 84.1562 36.875C86.1562 36 88.4479 35.5625 91.0312 35.5625C93.6562 35.5625 95.9688 36 97.9688 36.875C99.9896 37.7292 101.688 38.9271 103.062 40.4688C104.438 42.0104 105.479 43.8333 106.188 45.9375C106.896 48.0208 107.25 50.3021 107.25 52.7812V53.4375C107.25 55.8958 106.896 58.1771 106.188 60.2812C105.479 62.3646 104.438 64.1875 103.062 65.75C101.688 67.2917 100 68.4896 98 69.3438C96 70.1979 93.6979 70.625 91.0938 70.625C88.5104 70.625 86.2083 70.1979 84.1875 69.3438C82.1667 68.4896 80.4688 67.2917 79.0938 65.75C77.7188 64.1875 76.6771 62.3646 75.9688 60.2812C75.2604 58.1771 74.9062 55.8958 74.9062 53.4375ZM84.6875 52.7812V53.4375C84.6875 54.7708 84.7917 56.0208 85 57.1875C85.2292 58.3542 85.5938 59.375 86.0938 60.25C86.5938 61.125 87.25 61.8125 88.0625 62.3125C88.8958 62.7917 89.9062 63.0312 91.0938 63.0312C92.2812 63.0312 93.2812 62.7917 94.0938 62.3125C94.9062 61.8125 95.5625 61.125 96.0625 60.25C96.5625 59.375 96.9167 58.3542 97.125 57.1875C97.3542 56.0208 97.4688 54.7708 97.4688 53.4375V52.7812C97.4688 51.4688 97.3542 50.2396 97.125 49.0938C96.9167 47.9271 96.5625 46.8958 96.0625 46C95.5625 45.1042 94.8958 44.4062 94.0625 43.9062C93.25 43.4062 92.2396 43.1562 91.0312 43.1562C89.8646 43.1562 88.875 43.4062 88.0625 43.9062C87.25 44.4062 86.5938 45.1042 86.0938 46C85.5938 46.8958 85.2292 47.9271 85 49.0938C84.7917 50.2396 84.6875 51.4688 84.6875 52.7812ZM122.156 42.6875V83H112.406V36.1875H121.5L122.156 42.6875ZM143.25 52.7188V53.375C143.25 55.8333 142.969 58.1146 142.406 60.2188C141.844 62.3021 141 64.125 139.875 65.6875C138.771 67.25 137.406 68.4688 135.781 69.3438C134.156 70.1979 132.271 70.625 130.125 70.625C128.083 70.625 126.312 70.1979 124.812 69.3438C123.333 68.4688 122.083 67.2604 121.062 65.7188C120.062 64.1562 119.25 62.375 118.625 60.375C118.021 58.3542 117.552 56.1979 117.219 53.9062V52.625C117.552 50.1875 118.031 47.9271 118.656 45.8438C119.281 43.7604 120.094 41.9583 121.094 40.4375C122.094 38.8958 123.333 37.6979 124.812 36.8438C126.292 35.9896 128.052 35.5625 130.094 35.5625C132.219 35.5625 134.104 35.9688 135.75 36.7812C137.396 37.5938 138.771 38.7604 139.875 40.2812C141 41.7812 141.844 43.5833 142.406 45.6875C142.969 47.7917 143.25 50.1354 143.25 52.7188ZM133.469 53.375V52.7188C133.469 51.3438 133.365 50.0833 133.156 48.9375C132.948 47.7708 132.615 46.7604 132.156 45.9062C131.698 45.0312 131.094 44.3542 130.344 43.875C129.594 43.3958 128.677 43.1562 127.594 43.1562C126.427 43.1562 125.438 43.3438 124.625 43.7188C123.812 44.0938 123.156 44.6458 122.656 45.375C122.156 46.0833 121.792 46.9583 121.562 48C121.354 49.0417 121.24 50.2292 121.219 51.5625V55C121.24 56.5625 121.458 57.9583 121.875 59.1875C122.312 60.3958 122.99 61.3438 123.906 62.0312C124.844 62.6979 126.094 63.0312 127.656 63.0312C128.76 63.0312 129.677 62.7917 130.406 62.3125C131.156 61.8125 131.75 61.1146 132.188 60.2188C132.646 59.3229 132.969 58.2917 133.156 57.125C133.365 55.9583 133.469 54.7083 133.469 53.375ZM164.375 70.625C161.688 70.625 159.281 70.1979 157.156 69.3438C155.031 68.4896 153.229 67.3125 151.75 65.8125C150.292 64.2917 149.177 62.5417 148.406 60.5625C147.635 58.5833 147.25 56.4688 147.25 54.2188V53.0312C147.25 50.5104 147.604 48.1875 148.312 46.0625C149.021 43.9375 150.052 42.0938 151.406 40.5312C152.781 38.9479 154.469 37.7292 156.469 36.875C158.469 36 160.75 35.5625 163.312 35.5625C165.708 35.5625 167.844 35.9583 169.719 36.75C171.594 37.5208 173.177 38.6354 174.469 40.0938C175.76 41.5312 176.74 43.2708 177.406 45.3125C178.094 47.3333 178.438 49.6042 178.438 52.125V56.125H151.188V49.8438H168.875V49.0938C168.875 47.9062 168.656 46.8646 168.219 45.9688C167.802 45.0729 167.177 44.3854 166.344 43.9062C165.531 43.4062 164.5 43.1562 163.25 43.1562C162.062 43.1562 161.073 43.4062 160.281 43.9062C159.49 44.4062 158.854 45.1146 158.375 46.0312C157.917 46.9271 157.583 47.9792 157.375 49.1875C157.167 50.375 157.062 51.6562 157.062 53.0312V54.2188C157.062 55.5312 157.24 56.7292 157.594 57.8125C157.948 58.8958 158.469 59.8229 159.156 60.5938C159.844 61.3646 160.677 61.9688 161.656 62.4062C162.635 62.8438 163.75 63.0625 165 63.0625C166.542 63.0625 168.01 62.7708 169.406 62.1875C170.802 61.5833 172.01 60.6458 173.031 59.375L177.594 64.5938C176.906 65.5938 175.938 66.5625 174.688 67.5C173.458 68.4167 171.979 69.1667 170.25 69.75C168.521 70.3333 166.562 70.625 164.375 70.625Z" fill="#333333"/>
<path d="M82 29H99" stroke="#333333" stroke-width="3" stroke-linecap="round"/>
</svg>
