<svg width="232" height="96" viewBox="0 0 232 96" fill="none" xmlns="http://www.w3.org/2000/svg">
<path d="M27.3438 58C27.3438 57.2292 27.2292 56.5417 27 55.9375C26.7708 55.3125 26.3542 54.7396 25.75 54.2188C25.1458 53.6979 24.2917 53.1771 23.1875 52.6562C22.0833 52.1146 20.6354 51.5625 18.8438 51C16.8021 50.3333 14.8542 49.5833 13 48.75C11.1667 47.8958 9.53125 46.9062 8.09375 45.7812C6.65625 44.6562 5.52083 43.3438 4.6875 41.8438C3.875 40.3438 3.46875 38.5938 3.46875 36.5938C3.46875 34.6562 3.89583 32.9062 4.75 31.3438C5.60417 29.7812 6.80208 28.4479 8.34375 27.3438C9.88542 26.2188 11.6979 25.3646 13.7812 24.7812C15.8646 24.1771 18.1562 23.875 20.6562 23.875C23.9896 23.875 26.9167 24.4688 29.4375 25.6562C31.9792 26.8229 33.9583 28.4688 35.375 30.5938C36.7917 32.6979 37.5 35.1458 37.5 37.9375H27.375C27.375 36.7083 27.1146 35.625 26.5938 34.6875C26.0938 33.7292 25.3229 32.9792 24.2812 32.4375C23.2604 31.8958 21.9792 31.625 20.4375 31.625C18.9375 31.625 17.6771 31.8542 16.6562 32.3125C15.6562 32.75 14.8958 33.3542 14.375 34.125C13.875 34.8958 13.625 35.7396 13.625 36.6562C13.625 37.3854 13.8125 38.0521 14.1875 38.6562C14.5833 39.2396 15.1458 39.7917 15.875 40.3125C16.625 40.8125 17.5417 41.2917 18.625 41.75C19.7083 42.2083 20.9479 42.6458 22.3438 43.0625C24.7812 43.8333 26.9375 44.6875 28.8125 45.625C30.7083 46.5625 32.3021 47.625 33.5938 48.8125C34.8854 50 35.8542 51.3438 36.5 52.8438C37.1667 54.3438 37.5 56.0417 37.5 57.9375C37.5 59.9583 37.1042 61.75 36.3125 63.3125C35.5417 64.875 34.4167 66.2083 32.9375 67.3125C31.4792 68.3958 29.7292 69.2188 27.6875 69.7812C25.6458 70.3438 23.3646 70.625 20.8438 70.625C18.5521 70.625 16.2917 70.3333 14.0625 69.75C11.8333 69.1458 9.8125 68.2292 8 67C6.20833 65.7708 4.77083 64.2083 3.6875 62.3125C2.625 60.3958 2.09375 58.125 2.09375 55.5H12.2812C12.2812 56.875 12.4792 58.0417 12.875 59C13.2708 59.9375 13.8333 60.6979 14.5625 61.2812C15.3125 61.8646 16.2188 62.2812 17.2812 62.5312C18.3438 62.7812 19.5312 62.9062 20.8438 62.9062C22.3646 62.9062 23.5938 62.6979 24.5312 62.2812C25.4896 61.8438 26.1979 61.25 26.6562 60.5C27.1146 59.75 27.3438 58.9167 27.3438 58ZM62.8438 61.8438V36.1875H72.6562V70H63.4688L62.8438 61.8438ZM63.875 54.9375L66.5625 54.875C66.5625 57.1458 66.2917 59.2396 65.75 61.1562C65.2292 63.0729 64.4375 64.7396 63.375 66.1562C62.3333 67.5729 61.0312 68.6771 59.4688 69.4688C57.9271 70.2396 56.125 70.625 54.0625 70.625C52.3958 70.625 50.8646 70.3958 49.4688 69.9375C48.0938 69.4583 46.9062 68.7188 45.9062 67.7188C44.9062 66.6979 44.1354 65.3958 43.5938 63.8125C43.0521 62.2083 42.7812 60.2917 42.7812 58.0625V36.1875H52.5312V58.125C52.5312 59 52.6354 59.75 52.8438 60.375C53.0729 60.9792 53.375 61.4792 53.75 61.875C54.1458 62.2708 54.625 62.5625 55.1875 62.75C55.7708 62.9375 56.4062 63.0312 57.0938 63.0312C58.8229 63.0312 60.1771 62.6771 61.1562 61.9688C62.1562 61.2396 62.8542 60.2708 63.25 59.0625C63.6667 57.8333 63.875 56.4583 63.875 54.9375ZM88.7812 42.6875V83H79.0312V36.1875H88.125L88.7812 42.6875ZM109.875 52.7188V53.375C109.875 55.8333 109.594 58.1146 109.031 60.2188C108.469 62.3021 107.625 64.125 106.5 65.6875C105.396 67.25 104.031 68.4688 102.406 69.3438C100.781 70.1979 98.8958 70.625 96.75 70.625C94.7083 70.625 92.9375 70.1979 91.4375 69.3438C89.9583 68.4688 88.7083 67.2604 87.6875 65.7188C86.6875 64.1562 85.875 62.375 85.25 60.375C84.6458 58.3542 84.1771 56.1979 83.8438 53.9062V52.625C84.1771 50.1875 84.6562 47.9271 85.2812 45.8438C85.9062 43.7604 86.7188 41.9583 87.7188 40.4375C88.7188 38.8958 89.9583 37.6979 91.4375 36.8438C92.9167 35.9896 94.6771 35.5625 96.7188 35.5625C98.8438 35.5625 100.729 35.9688 102.375 36.7812C104.021 37.5938 105.396 38.7604 106.5 40.2812C107.625 41.7812 108.469 43.5833 109.031 45.6875C109.594 47.7917 109.875 50.1354 109.875 52.7188ZM100.094 53.375V52.7188C100.094 51.3438 99.9896 50.0833 99.7812 48.9375C99.5729 47.7708 99.2396 46.7604 98.7812 45.9062C98.3229 45.0312 97.7188 44.3542 96.9688 43.875C96.2188 43.3958 95.3021 43.1562 94.2188 43.1562C93.0521 43.1562 92.0625 43.3438 91.25 43.7188C90.4375 44.0938 89.7812 44.6458 89.2812 45.375C88.7812 46.0833 88.4167 46.9583 88.1875 48C87.9792 49.0417 87.8646 50.2292 87.8438 51.5625V55C87.8646 56.5625 88.0833 57.9583 88.5 59.1875C88.9375 60.3958 89.6146 61.3438 90.5312 62.0312C91.4688 62.6979 92.7188 63.0312 94.2812 63.0312C95.3854 63.0312 96.3021 62.7917 97.0312 62.3125C97.7812 61.8125 98.375 61.1146 98.8125 60.2188C99.2708 59.3229 99.5938 58.2917 99.7812 57.125C99.9896 55.9583 100.094 54.7083 100.094 53.375ZM124.844 42.6875V83H115.094V36.1875H124.188L124.844 42.6875ZM145.938 52.7188V53.375C145.938 55.8333 145.656 58.1146 145.094 60.2188C144.531 62.3021 143.688 64.125 142.562 65.6875C141.458 67.25 140.094 68.4688 138.469 69.3438C136.844 70.1979 134.958 70.625 132.812 70.625C130.771 70.625 129 70.1979 127.5 69.3438C126.021 68.4688 124.771 67.2604 123.75 65.7188C122.75 64.1562 121.938 62.375 121.312 60.375C120.708 58.3542 120.24 56.1979 119.906 53.9062V52.625C120.24 50.1875 120.719 47.9271 121.344 45.8438C121.969 43.7604 122.781 41.9583 123.781 40.4375C124.781 38.8958 126.021 37.6979 127.5 36.8438C128.979 35.9896 130.74 35.5625 132.781 35.5625C134.906 35.5625 136.792 35.9688 138.438 36.7812C140.083 37.5938 141.458 38.7604 142.562 40.2812C143.688 41.7812 144.531 43.5833 145.094 45.6875C145.656 47.7917 145.938 50.1354 145.938 52.7188ZM136.156 53.375V52.7188C136.156 51.3438 136.052 50.0833 135.844 48.9375C135.635 47.7708 135.302 46.7604 134.844 45.9062C134.385 45.0312 133.781 44.3542 133.031 43.875C132.281 43.3958 131.365 43.1562 130.281 43.1562C129.115 43.1562 128.125 43.3438 127.312 43.7188C126.5 44.0938 125.844 44.6458 125.344 45.375C124.844 46.0833 124.479 46.9583 124.25 48C124.042 49.0417 123.927 50.2292 123.906 51.5625V55C123.927 56.5625 124.146 57.9583 124.562 59.1875C125 60.3958 125.677 61.3438 126.594 62.0312C127.531 62.6979 128.781 63.0312 130.344 63.0312C131.448 63.0312 132.365 62.7917 133.094 62.3125C133.844 61.8125 134.438 61.1146 134.875 60.2188C135.333 59.3229 135.656 58.2917 135.844 57.125C136.052 55.9583 136.156 54.7083 136.156 53.375ZM149.719 53.4375V52.7812C149.719 50.3021 150.073 48.0208 150.781 45.9375C151.49 43.8333 152.531 42.0104 153.906 40.4688C155.281 38.9271 156.969 37.7292 158.969 36.875C160.969 36 163.26 35.5625 165.844 35.5625C168.469 35.5625 170.781 36 172.781 36.875C174.802 37.7292 176.5 38.9271 177.875 40.4688C179.25 42.0104 180.292 43.8333 181 45.9375C181.708 48.0208 182.062 50.3021 182.062 52.7812V53.4375C182.062 55.8958 181.708 58.1771 181 60.2812C180.292 62.3646 179.25 64.1875 177.875 65.75C176.5 67.2917 174.812 68.4896 172.812 69.3438C170.812 70.1979 168.51 70.625 165.906 70.625C163.323 70.625 161.021 70.1979 159 69.3438C156.979 68.4896 155.281 67.2917 153.906 65.75C152.531 64.1875 151.49 62.3646 150.781 60.2812C150.073 58.1771 149.719 55.8958 149.719 53.4375ZM159.5 52.7812V53.4375C159.5 54.7708 159.604 56.0208 159.812 57.1875C160.042 58.3542 160.406 59.375 160.906 60.25C161.406 61.125 162.062 61.8125 162.875 62.3125C163.708 62.7917 164.719 63.0312 165.906 63.0312C167.094 63.0312 168.094 62.7917 168.906 62.3125C169.719 61.8125 170.375 61.125 170.875 60.25C171.375 59.375 171.729 58.3542 171.938 57.1875C172.167 56.0208 172.281 54.7708 172.281 53.4375V52.7812C172.281 51.4688 172.167 50.2396 171.938 49.0938C171.729 47.9271 171.375 46.8958 170.875 46C170.375 45.1042 169.708 44.4062 168.875 43.9062C168.062 43.4062 167.052 43.1562 165.844 43.1562C164.677 43.1562 163.688 43.4062 162.875 43.9062C162.062 44.4062 161.406 45.1042 160.906 46C160.406 46.8958 160.042 47.9271 159.812 49.0938C159.604 50.2396 159.5 51.4688 159.5 52.7812ZM196.969 44.0625V70H187.219V36.1875H196.375L196.969 44.0625ZM207.062 35.9375L206.906 45.0312C206.49 44.9688 205.948 44.9167 205.281 44.875C204.615 44.8125 204.042 44.7812 203.562 44.7812C202.312 44.7812 201.229 44.9375 200.312 45.25C199.417 45.5417 198.667 45.9792 198.062 46.5625C197.479 47.1458 197.042 47.875 196.75 48.75C196.458 49.6042 196.312 50.5938 196.312 51.7188L194.469 50.8125C194.469 48.5833 194.688 46.5417 195.125 44.6875C195.562 42.8333 196.198 41.2292 197.031 39.875C197.865 38.5 198.885 37.4375 200.094 36.6875C201.302 35.9375 202.677 35.5625 204.219 35.5625C204.719 35.5625 205.229 35.5938 205.75 35.6562C206.271 35.7188 206.708 35.8125 207.062 35.9375ZM229.812 36.1875V43.0312H209.75V36.1875H229.812ZM214.344 27.8125H224.125V59.4062C224.125 60.3438 224.24 61.0625 224.469 61.5625C224.698 62.0625 225.073 62.4167 225.594 62.625C226.115 62.8125 226.781 62.9062 227.594 62.9062C228.177 62.9062 228.677 62.8854 229.094 62.8438C229.51 62.8021 229.896 62.75 230.25 62.6875V69.75C229.417 70.0208 228.531 70.2292 227.594 70.375C226.656 70.5417 225.635 70.625 224.531 70.625C222.427 70.625 220.604 70.2812 219.062 69.5938C217.542 68.9062 216.375 67.8229 215.562 66.3438C214.75 64.8438 214.344 62.8958 214.344 60.5V27.8125Z" fill="#333333"/>
<path d="M157 29H174" stroke="#333333" stroke-width="3" stroke-linecap="round"/>
</svg>
