<svg width="38" height="38" viewBox="0 0 38 38" fill="none" xmlns="http://www.w3.org/2000/svg">
<g clip-path="url(#clip0_2266_12386)">
<path d="M13.7656 5.40234C13.7656 2.47813 16.148 0.0957031 19.0723 0.0957031C21.9965 0.0957031 24.3789 2.47813 24.3789 5.40234C24.3789 7.81445 22.7609 9.84805 20.5566 10.4938V35.3273C20.5566 36.1438 19.8887 36.8117 19.0723 36.8117C18.2559 36.8117 17.5879 36.1438 17.5879 35.3273V10.4938C15.3836 9.84805 13.7656 7.81445 13.7656 5.40234ZM19.0723 7.74024C20.3637 7.74024 21.4102 6.69375 21.4102 5.40234C21.4102 4.11094 20.3637 3.06445 19.0723 3.06445C17.7809 3.06445 16.7344 4.11094 16.7344 5.40234C16.7344 6.69375 17.7809 7.74024 19.0723 7.74024Z" fill="#333333"/>
<path d="M5.2918 7.88867C7.97109 7.88867 10.1902 9.88516 10.5465 12.468H12.0234C13.1441 12.468 14.0348 12.9801 14.532 13.9004C14.9402 14.6648 14.9922 15.5629 14.9922 16.1789V36.5148C14.9922 37.3313 14.3242 37.9992 13.5078 37.9992C12.6914 37.9992 12.0234 37.3313 12.0234 36.5148V16.1789C12.0234 15.7855 11.9938 15.5629 11.9641 15.4367H10.0938C9.24766 17.2477 7.41445 18.502 5.28438 18.502C2.36016 18.502 -0.0222645 16.1195 -0.0222645 13.1953C-0.0222645 10.2711 2.36758 7.88867 5.2918 7.88867ZM5.2918 15.5332C6.5832 15.5332 7.62969 14.4867 7.62969 13.1953C7.62969 11.9039 6.5832 10.8574 5.2918 10.8574C4.00039 10.8574 2.95391 11.9039 2.95391 13.1953C2.95391 14.4867 4.00039 15.5332 5.2918 15.5332Z" fill="#333333"/>
<path d="M26.8664 12.468H27.4973C27.8535 9.88516 30.0727 7.88867 32.752 7.88867C35.6762 7.88867 38.0586 10.2711 38.0586 13.1953C38.0586 16.1195 35.6762 18.502 32.752 18.502C30.6293 18.502 28.7887 17.2477 27.9426 15.4367H26.8664C26.4582 15.4367 26.1242 15.7707 26.1242 16.1789V36.5148C26.1242 37.3313 25.4563 37.9992 24.6398 37.9992C23.8234 37.9992 23.1555 37.3313 23.1555 36.5148V16.1789C23.1555 14.1305 24.818 12.468 26.8664 12.468ZM32.752 15.5332C34.0434 15.5332 35.0898 14.4867 35.0898 13.1953C35.0898 11.9039 34.0434 10.8574 32.752 10.8574C31.4605 10.8574 30.4141 11.9039 30.4141 13.1953C30.4141 14.4867 31.4605 15.5332 32.752 15.5332Z" fill="#333333"/>
</g>
<defs>
<clipPath id="clip0_2266_12386">
<rect width="38" height="38" fill="white" transform="matrix(-1 0 0 1 38 0)"/>
</clipPath>
</defs>
</svg>
