<svg width="46" height="32" viewBox="0 0 46 32" fill="none" xmlns="http://www.w3.org/2000/svg">
<path d="M13.225 4.1875C13.225 6.36016 11.4209 8.125 9.2 8.125C6.97691 8.125 5.175 6.36016 5.175 4.1875C5.175 2.01273 6.97691 0.25 9.2 0.25C11.4209 0.25 13.225 2.01273 13.225 4.1875ZM14.9787 11.8023C12.8441 13.6586 11.5 16.3656 11.5 19.375C11.5 21.7867 12.2978 24.0016 13.8 25.7383V27.25C13.8 28.4945 12.7722 29.5 11.5 29.5H6.9C5.62997 29.5 4.6 28.4945 4.6 27.25V25.3656C1.88025 24.1 0 21.393 0 18.25C0 13.8977 3.60381 10.375 8.05 10.375H10.35C12.0103 10.375 13.6706 10.9023 14.9787 11.8023ZM4.6 15.2758C3.88412 16.0633 3.45 17.1109 3.45 18.25C3.45 19.3891 3.88412 20.4367 4.6 21.2242V15.2758ZM32.2 27.25V25.7383C33.6375 24.0016 34.5 21.7867 34.5 19.375C34.5 16.3656 33.1559 13.6586 31.0212 11.8023C32.3294 10.9023 33.925 10.375 35.65 10.375H37.95C42.3991 10.375 46 13.8977 46 18.25C46 21.393 44.1169 24.1 41.4 25.3656V27.25C41.4 28.4945 40.3722 29.5 39.1 29.5H34.5C33.2278 29.5 32.2 28.4945 32.2 27.25ZM41.4 21.2242C42.0541 20.4367 42.55 19.3891 42.55 18.25C42.55 17.1109 42.0541 16.0633 41.4 15.2758V21.2242ZM40.825 4.1875C40.825 6.36016 39.0209 8.125 36.8 8.125C34.5791 8.125 32.775 6.36016 32.775 4.1875C32.775 2.01273 34.5791 0.25 36.8 0.25C39.0209 0.25 40.825 2.01273 40.825 4.1875ZM18.4 4.75C18.4 2.26445 20.4628 0.25 23 0.25C25.5372 0.25 27.6 2.26445 27.6 4.75C27.6 7.23203 25.5372 9.25 23 9.25C20.4628 9.25 18.4 7.23203 18.4 4.75ZM32.2 19.375C32.2 22.518 30.3169 25.225 27.6 26.4906V29.5C27.6 30.7445 26.5722 31.75 25.3 31.75H20.7C19.4278 31.75 18.4 30.7445 18.4 29.5V26.4906C15.6831 25.225 13.8 22.518 13.8 19.375C13.8 15.0227 17.4009 11.5 21.85 11.5H24.15C28.5991 11.5 32.2 15.0227 32.2 19.375ZM18.4 22.3492V16.4008C17.6812 17.1883 17.25 18.2359 17.25 19.375C17.25 20.5141 17.6812 21.5617 18.4 22.3492ZM27.6 16.4008V22.3492C28.2541 21.5547 28.75 20.5141 28.75 19.375C28.75 18.2359 28.2541 17.1883 27.6 16.4008Z" fill="#333333"/>
</svg>
