<svg width="313" height="197" viewBox="0 0 313 197" fill="none" xmlns="http://www.w3.org/2000/svg">
<path d="M29.8945 32.5625L35.4609 45.2188L41.0664 32.5625H47.9414L38.7031 50.7266V61H32.2383V50.7266L22.9805 32.5625H29.8945ZM47.8242 50.6484V50.2383C47.8242 48.6888 48.0456 47.263 48.4883 45.9609C48.931 44.6458 49.582 43.5065 50.4414 42.543C51.3008 41.5794 52.3555 40.8307 53.6055 40.2969C54.8555 39.75 56.2878 39.4766 57.9023 39.4766C59.543 39.4766 60.9883 39.75 62.2383 40.2969C63.5013 40.8307 64.5625 41.5794 65.4219 42.543C66.2812 43.5065 66.9323 44.6458 67.375 45.9609C67.8177 47.263 68.0391 48.6888 68.0391 50.2383V50.6484C68.0391 52.1849 67.8177 53.6107 67.375 54.9258C66.9323 56.2279 66.2812 57.3672 65.4219 58.3438C64.5625 59.3073 63.5078 60.056 62.2578 60.5898C61.0078 61.1237 59.569 61.3906 57.9414 61.3906C56.3268 61.3906 54.888 61.1237 53.625 60.5898C52.362 60.056 51.3008 59.3073 50.4414 58.3438C49.582 57.3672 48.931 56.2279 48.4883 54.9258C48.0456 53.6107 47.8242 52.1849 47.8242 50.6484ZM53.9375 50.2383V50.6484C53.9375 51.4818 54.0026 52.263 54.1328 52.9922C54.276 53.7214 54.5039 54.3594 54.8164 54.9062C55.1289 55.4531 55.5391 55.8828 56.0469 56.1953C56.5677 56.4948 57.1992 56.6445 57.9414 56.6445C58.6836 56.6445 59.3086 56.4948 59.8164 56.1953C60.3242 55.8828 60.7344 55.4531 61.0469 54.9062C61.3594 54.3594 61.5807 53.7214 61.7109 52.9922C61.8542 52.263 61.9258 51.4818 61.9258 50.6484V50.2383C61.9258 49.418 61.8542 48.6497 61.7109 47.9336C61.5807 47.2044 61.3594 46.5599 61.0469 46C60.7344 45.4401 60.3177 45.0039 59.7969 44.6914C59.2891 44.3789 58.6576 44.2227 57.9023 44.2227C57.1732 44.2227 56.5547 44.3789 56.0469 44.6914C55.5391 45.0039 55.1289 45.4401 54.8164 46C54.5039 46.5599 54.276 47.2044 54.1328 47.9336C54.0026 48.6497 53.9375 49.418 53.9375 50.2383ZM83.6445 55.9023V39.8672H89.7773V61H84.0352L83.6445 55.9023ZM84.2891 51.5859L85.9688 51.5469C85.9688 52.9661 85.7995 54.2747 85.4609 55.4727C85.1354 56.6706 84.6406 57.7122 83.9766 58.5977C83.3255 59.4831 82.5117 60.1732 81.5352 60.668C80.5716 61.1497 79.4453 61.3906 78.1562 61.3906C77.1146 61.3906 76.1576 61.2474 75.2852 60.9609C74.4258 60.6615 73.6836 60.1992 73.0586 59.5742C72.4336 58.9362 71.9518 58.1224 71.6133 57.1328C71.2747 56.1302 71.1055 54.9323 71.1055 53.5391V39.8672H77.1992V53.5781C77.1992 54.125 77.2643 54.5938 77.3945 54.9844C77.5378 55.362 77.7266 55.6745 77.9609 55.9219C78.2083 56.1693 78.5078 56.3516 78.8594 56.4688C79.224 56.5859 79.6211 56.6445 80.0508 56.6445C81.1315 56.6445 81.9779 56.4232 82.5898 55.9805C83.2148 55.5247 83.651 54.9193 83.8984 54.1641C84.1589 53.3958 84.2891 52.5365 84.2891 51.5859ZM99.8555 44.7891V61H93.7617V39.8672H99.4844L99.8555 44.7891ZM106.164 39.7109L106.066 45.3945C105.806 45.3555 105.467 45.3229 105.051 45.2969C104.634 45.2578 104.276 45.2383 103.977 45.2383C103.195 45.2383 102.518 45.3359 101.945 45.5312C101.385 45.7135 100.917 45.987 100.539 46.3516C100.174 46.7161 99.901 47.1719 99.7188 47.7188C99.5365 48.2526 99.4453 48.8711 99.4453 49.5742L98.293 49.0078C98.293 47.6146 98.4297 46.3385 98.7031 45.1797C98.9766 44.0208 99.3737 43.0182 99.8945 42.1719C100.415 41.3125 101.053 40.6484 101.809 40.1797C102.564 39.7109 103.423 39.4766 104.387 39.4766C104.699 39.4766 105.018 39.4961 105.344 39.5352C105.669 39.5742 105.943 39.6328 106.164 39.7109ZM127.941 61H121.691L121.73 56.0781H127.941C129.361 56.0781 130.559 55.7526 131.535 55.1016C132.512 54.4375 133.254 53.4609 133.762 52.1719C134.27 50.8698 134.523 49.2878 134.523 47.4258V46.1172C134.523 44.7109 134.38 43.474 134.094 42.4062C133.807 41.3255 133.384 40.4206 132.824 39.6914C132.264 38.9622 131.568 38.4154 130.734 38.0508C129.914 37.6862 128.97 37.5039 127.902 37.5039H121.574V32.5625H127.902C129.829 32.5625 131.587 32.888 133.176 33.5391C134.777 34.1901 136.158 35.1211 137.316 36.332C138.488 37.543 139.393 38.9753 140.031 40.6289C140.669 42.2826 140.988 44.125 140.988 46.1562V47.4258C140.988 49.444 140.669 51.2865 140.031 52.9531C139.393 54.6068 138.488 56.0391 137.316 57.25C136.158 58.4479 134.784 59.3724 133.195 60.0234C131.607 60.6745 129.855 61 127.941 61ZM125.305 32.5625V61H118.938V32.5625H125.305ZM150.988 39.8672V61H144.875V39.8672H150.988ZM144.504 34.3984C144.504 33.513 144.816 32.7904 145.441 32.2305C146.066 31.6576 146.887 31.3711 147.902 31.3711C148.918 31.3711 149.738 31.6576 150.363 32.2305C151.001 32.7904 151.32 33.513 151.32 34.3984C151.32 35.2708 151.001 35.9935 150.363 36.5664C149.738 37.1263 148.918 37.4062 147.902 37.4062C146.887 37.4062 146.066 37.1263 145.441 36.5664C144.816 35.9935 144.504 35.2708 144.504 34.3984ZM168.703 39.8672H174.25V60.2383C174.25 62.1784 173.807 63.8255 172.922 65.1797C172.049 66.5339 170.832 67.5625 169.27 68.2656C167.707 68.9688 165.878 69.3203 163.781 69.3203C162.87 69.3203 161.919 69.1966 160.93 68.9492C159.94 68.7148 159.009 68.3568 158.137 67.875C157.264 67.4062 156.535 66.8073 155.949 66.0781L158.547 62.4844C159.146 63.1615 159.862 63.7083 160.695 64.125C161.529 64.5547 162.479 64.7695 163.547 64.7695C164.523 64.7695 165.35 64.5938 166.027 64.2422C166.704 63.8906 167.219 63.3763 167.57 62.6992C167.935 62.0221 168.117 61.2018 168.117 60.2383V44.8086L168.703 39.8672ZM154.582 50.6875V50.2773C154.582 48.6758 154.777 47.2174 155.168 45.9023C155.559 44.5742 156.125 43.4349 156.867 42.4844C157.622 41.5208 158.527 40.7786 159.582 40.2578C160.65 39.737 161.848 39.4766 163.176 39.4766C164.608 39.4766 165.793 39.75 166.73 40.2969C167.668 40.8307 168.43 41.5859 169.016 42.5625C169.602 43.526 170.064 44.6654 170.402 45.9805C170.741 47.2826 171.014 48.6953 171.223 50.2188V50.9219C171.014 52.3802 170.715 53.7409 170.324 55.0039C169.934 56.2669 169.426 57.3802 168.801 58.3438C168.176 59.2943 167.395 60.043 166.457 60.5898C165.533 61.1237 164.426 61.3906 163.137 61.3906C161.822 61.3906 160.637 61.1237 159.582 60.5898C158.527 60.056 157.622 59.3073 156.867 58.3438C156.125 57.3802 155.559 56.2474 155.168 54.9453C154.777 53.6432 154.582 52.224 154.582 50.6875ZM160.676 50.2773V50.6875C160.676 51.5208 160.754 52.2956 160.91 53.0117C161.079 53.7279 161.327 54.3594 161.652 54.9062C161.991 55.4531 162.408 55.8828 162.902 56.1953C163.41 56.4948 164.003 56.6445 164.68 56.6445C165.669 56.6445 166.47 56.4362 167.082 56.0195C167.707 55.5898 168.163 54.9974 168.449 54.2422C168.749 53.487 168.905 52.6081 168.918 51.6055V49.5547C168.918 48.7214 168.833 47.9727 168.664 47.3086C168.495 46.6445 168.241 46.0846 167.902 45.6289C167.577 45.1732 167.147 44.8281 166.613 44.5938C166.092 44.3464 165.461 44.2227 164.719 44.2227C164.055 44.2227 163.469 44.3789 162.961 44.6914C162.453 44.9909 162.03 45.4141 161.691 45.9609C161.353 46.5078 161.099 47.1523 160.93 47.8945C160.76 48.6237 160.676 49.418 160.676 50.2773ZM184.738 39.8672V61H178.625V39.8672H184.738ZM178.254 34.3984C178.254 33.513 178.566 32.7904 179.191 32.2305C179.816 31.6576 180.637 31.3711 181.652 31.3711C182.668 31.3711 183.488 31.6576 184.113 32.2305C184.751 32.7904 185.07 33.513 185.07 34.3984C185.07 35.2708 184.751 35.9935 184.113 36.5664C183.488 37.1263 182.668 37.4062 181.652 37.4062C180.637 37.4062 179.816 37.1263 179.191 36.5664C178.566 35.9935 178.254 35.2708 178.254 34.3984ZM199.875 39.8672V44.1445H187.336V39.8672H199.875ZM190.207 34.6328H196.32V54.3789C196.32 54.9648 196.392 55.4141 196.535 55.7266C196.678 56.0391 196.913 56.2604 197.238 56.3906C197.564 56.5078 197.98 56.5664 198.488 56.5664C198.853 56.5664 199.165 56.5534 199.426 56.5273C199.686 56.5013 199.927 56.4688 200.148 56.4297V60.8438C199.628 61.013 199.074 61.1432 198.488 61.2344C197.902 61.3385 197.264 61.3906 196.574 61.3906C195.259 61.3906 194.12 61.1758 193.156 60.7461C192.206 60.3164 191.477 59.6393 190.969 58.7148C190.461 57.7773 190.207 56.5599 190.207 55.0625V34.6328ZM213.996 55.9609V46.8984C213.996 46.2604 213.898 45.7135 213.703 45.2578C213.508 44.8021 213.202 44.444 212.785 44.1836C212.368 43.9232 211.828 43.793 211.164 43.793C210.604 43.793 210.116 43.8906 209.699 44.0859C209.296 44.2812 208.983 44.5612 208.762 44.9258C208.553 45.2904 208.449 45.7396 208.449 46.2734H202.355C202.355 45.3229 202.57 44.4375 203 43.6172C203.43 42.7969 204.042 42.0742 204.836 41.4492C205.643 40.8242 206.607 40.3424 207.727 40.0039C208.846 39.6523 210.103 39.4766 211.496 39.4766C213.15 39.4766 214.621 39.7565 215.91 40.3164C217.212 40.8633 218.241 41.6901 218.996 42.7969C219.751 43.8906 220.129 45.2708 220.129 46.9375V55.7852C220.129 57.0612 220.201 58.0638 220.344 58.793C220.5 59.5091 220.721 60.1341 221.008 60.668V61H214.855C214.569 60.388 214.354 59.6328 214.211 58.7344C214.068 57.8229 213.996 56.8984 213.996 55.9609ZM214.758 48.1094L214.797 51.4688H211.77C211.092 51.4688 210.507 51.5534 210.012 51.7227C209.53 51.8919 209.139 52.1263 208.84 52.4258C208.54 52.7122 208.319 53.0508 208.176 53.4414C208.046 53.819 207.98 54.2357 207.98 54.6914C207.98 55.1211 208.085 55.5117 208.293 55.8633C208.501 56.2018 208.788 56.4688 209.152 56.6641C209.517 56.8594 209.94 56.957 210.422 56.957C211.216 56.957 211.893 56.8008 212.453 56.4883C213.026 56.1758 213.469 55.7982 213.781 55.3555C214.094 54.8997 214.25 54.4766 214.25 54.0859L215.715 56.625C215.48 57.1458 215.194 57.6862 214.855 58.2461C214.517 58.793 214.087 59.3073 213.566 59.7891C213.046 60.2578 212.414 60.6419 211.672 60.9414C210.943 61.2409 210.064 61.3906 209.035 61.3906C207.707 61.3906 206.503 61.1237 205.422 60.5898C204.341 60.043 203.475 59.2943 202.824 58.3438C202.186 57.3932 201.867 56.2995 201.867 55.0625C201.867 53.9557 202.069 52.9727 202.473 52.1133C202.876 51.2539 203.482 50.5247 204.289 49.9258C205.109 49.3268 206.138 48.8776 207.375 48.5781C208.612 48.2656 210.057 48.1094 211.711 48.1094H214.758ZM230.559 31V61H224.445V31H230.559ZM38.5859 92.5625V121H32.2383V92.5625H38.5859ZM47.2383 92.5625V97.5039H23.7617V92.5625H47.2383ZM54.8555 104.789V121H48.7617V99.8672H54.4844L54.8555 104.789ZM61.1641 99.7109L61.0664 105.395C60.806 105.355 60.4674 105.323 60.0508 105.297C59.6341 105.258 59.276 105.238 58.9766 105.238C58.1953 105.238 57.5182 105.336 56.9453 105.531C56.3854 105.714 55.9167 105.987 55.5391 106.352C55.1745 106.716 54.901 107.172 54.7188 107.719C54.5365 108.253 54.4453 108.871 54.4453 109.574L53.293 109.008C53.293 107.615 53.4297 106.339 53.7031 105.18C53.9766 104.021 54.3737 103.018 54.8945 102.172C55.4154 101.312 56.0534 100.648 56.8086 100.18C57.5638 99.7109 58.4232 99.4766 59.3867 99.4766C59.6992 99.4766 60.0182 99.4961 60.3438 99.5352C60.6693 99.5742 60.9427 99.6328 61.1641 99.7109ZM74.2305 115.961V106.898C74.2305 106.26 74.1328 105.714 73.9375 105.258C73.7422 104.802 73.4362 104.444 73.0195 104.184C72.6029 103.923 72.0625 103.793 71.3984 103.793C70.8385 103.793 70.3503 103.891 69.9336 104.086C69.5299 104.281 69.2174 104.561 68.9961 104.926C68.7878 105.29 68.6836 105.74 68.6836 106.273H62.5898C62.5898 105.323 62.8047 104.438 63.2344 103.617C63.6641 102.797 64.276 102.074 65.0703 101.449C65.8776 100.824 66.8411 100.342 67.9609 100.004C69.0807 99.6523 70.3372 99.4766 71.7305 99.4766C73.3841 99.4766 74.8555 99.7565 76.1445 100.316C77.4466 100.863 78.4753 101.69 79.2305 102.797C79.9857 103.891 80.3633 105.271 80.3633 106.938V115.785C80.3633 117.061 80.4349 118.064 80.5781 118.793C80.7344 119.509 80.9557 120.134 81.2422 120.668V121H75.0898C74.8034 120.388 74.5885 119.633 74.4453 118.734C74.3021 117.823 74.2305 116.898 74.2305 115.961ZM74.9922 108.109L75.0312 111.469H72.0039C71.3268 111.469 70.7409 111.553 70.2461 111.723C69.7643 111.892 69.3737 112.126 69.0742 112.426C68.7747 112.712 68.5534 113.051 68.4102 113.441C68.2799 113.819 68.2148 114.236 68.2148 114.691C68.2148 115.121 68.319 115.512 68.5273 115.863C68.7357 116.202 69.0221 116.469 69.3867 116.664C69.7513 116.859 70.1745 116.957 70.6562 116.957C71.4505 116.957 72.1276 116.801 72.6875 116.488C73.2604 116.176 73.7031 115.798 74.0156 115.355C74.3281 114.9 74.4844 114.477 74.4844 114.086L75.9492 116.625C75.7148 117.146 75.4284 117.686 75.0898 118.246C74.7513 118.793 74.3216 119.307 73.8008 119.789C73.2799 120.258 72.6484 120.642 71.9062 120.941C71.1771 121.241 70.2982 121.391 69.2695 121.391C67.9414 121.391 66.737 121.124 65.6562 120.59C64.5755 120.043 63.7096 119.294 63.0586 118.344C62.4206 117.393 62.1016 116.299 62.1016 115.062C62.1016 113.956 62.3034 112.973 62.707 112.113C63.1107 111.254 63.7161 110.525 64.5234 109.926C65.3438 109.327 66.3724 108.878 67.6094 108.578C68.8464 108.266 70.2917 108.109 71.9453 108.109H74.9922ZM90.3438 104.379V121H84.2305V99.8672H89.9727L90.3438 104.379ZM89.543 109.691L88.0195 109.73C88.0195 108.142 88.2148 106.716 88.6055 105.453C88.9961 104.19 89.5495 103.116 90.2656 102.23C90.9948 101.332 91.8607 100.648 92.8633 100.18C93.8789 99.7109 94.9987 99.4766 96.2227 99.4766C97.2122 99.4766 98.1172 99.6198 98.9375 99.9062C99.7578 100.193 100.461 100.655 101.047 101.293C101.646 101.918 102.102 102.751 102.414 103.793C102.727 104.822 102.883 106.091 102.883 107.602V121H96.75V107.582C96.75 106.697 96.6263 106.013 96.3789 105.531C96.1315 105.049 95.7669 104.711 95.2852 104.516C94.8164 104.32 94.2435 104.223 93.5664 104.223C92.8503 104.223 92.2383 104.366 91.7305 104.652C91.2227 104.926 90.806 105.31 90.4805 105.805C90.1549 106.299 89.9141 106.879 89.7578 107.543C89.6146 108.207 89.543 108.923 89.543 109.691ZM118.117 115.121C118.117 114.73 117.993 114.385 117.746 114.086C117.512 113.786 117.082 113.513 116.457 113.266C115.845 113.018 114.979 112.771 113.859 112.523C112.805 112.302 111.822 112.016 110.91 111.664C109.999 111.299 109.204 110.863 108.527 110.355C107.85 109.835 107.323 109.223 106.945 108.52C106.568 107.803 106.379 106.99 106.379 106.078C106.379 105.193 106.568 104.353 106.945 103.559C107.336 102.764 107.896 102.061 108.625 101.449C109.367 100.837 110.266 100.355 111.32 100.004C112.388 99.6523 113.599 99.4766 114.953 99.4766C116.815 99.4766 118.423 99.7695 119.777 100.355C121.132 100.928 122.173 101.736 122.902 102.777C123.632 103.806 123.996 104.984 123.996 106.312H117.902C117.902 105.766 117.798 105.29 117.59 104.887C117.382 104.483 117.062 104.171 116.633 103.949C116.203 103.715 115.637 103.598 114.934 103.598C114.387 103.598 113.905 103.695 113.488 103.891C113.085 104.073 112.766 104.327 112.531 104.652C112.31 104.978 112.199 105.355 112.199 105.785C112.199 106.085 112.264 106.358 112.395 106.605C112.538 106.84 112.753 107.061 113.039 107.27C113.339 107.465 113.723 107.641 114.191 107.797C114.673 107.953 115.259 108.103 115.949 108.246C117.421 108.52 118.762 108.904 119.973 109.398C121.197 109.893 122.173 110.577 122.902 111.449C123.645 112.322 124.016 113.474 124.016 114.906C124.016 115.844 123.801 116.703 123.371 117.484C122.954 118.266 122.349 118.949 121.555 119.535C120.76 120.121 119.81 120.577 118.703 120.902C117.596 121.228 116.346 121.391 114.953 121.391C112.961 121.391 111.275 121.033 109.895 120.316C108.514 119.6 107.473 118.702 106.77 117.621C106.079 116.527 105.734 115.408 105.734 114.262H111.457C111.483 114.965 111.659 115.538 111.984 115.98C112.323 116.423 112.759 116.749 113.293 116.957C113.827 117.152 114.426 117.25 115.09 117.25C115.754 117.25 116.307 117.159 116.75 116.977C117.193 116.794 117.531 116.547 117.766 116.234C118 115.909 118.117 115.538 118.117 115.121ZM135.012 121H128.879V98.0703C128.879 96.4427 129.198 95.0755 129.836 93.9688C130.487 92.862 131.405 92.0221 132.59 91.4492C133.775 90.8763 135.174 90.5898 136.789 90.5898C137.349 90.5898 137.87 90.6289 138.352 90.707C138.846 90.7721 139.328 90.8633 139.797 90.9805V95.5312C139.549 95.4661 139.296 95.4206 139.035 95.3945C138.775 95.3685 138.462 95.3555 138.098 95.3555C137.447 95.3555 136.887 95.4596 136.418 95.668C135.962 95.8633 135.611 96.1693 135.363 96.5859C135.129 96.9896 135.012 97.4844 135.012 98.0703V121ZM139.191 99.8672V104.145H125.793V99.8672H139.191ZM140.949 110.648V110.238C140.949 108.689 141.171 107.263 141.613 105.961C142.056 104.646 142.707 103.507 143.566 102.543C144.426 101.579 145.48 100.831 146.73 100.297C147.98 99.75 149.413 99.4766 151.027 99.4766C152.668 99.4766 154.113 99.75 155.363 100.297C156.626 100.831 157.688 101.579 158.547 102.543C159.406 103.507 160.057 104.646 160.5 105.961C160.943 107.263 161.164 108.689 161.164 110.238V110.648C161.164 112.185 160.943 113.611 160.5 114.926C160.057 116.228 159.406 117.367 158.547 118.344C157.688 119.307 156.633 120.056 155.383 120.59C154.133 121.124 152.694 121.391 151.066 121.391C149.452 121.391 148.013 121.124 146.75 120.59C145.487 120.056 144.426 119.307 143.566 118.344C142.707 117.367 142.056 116.228 141.613 114.926C141.171 113.611 140.949 112.185 140.949 110.648ZM147.062 110.238V110.648C147.062 111.482 147.128 112.263 147.258 112.992C147.401 113.721 147.629 114.359 147.941 114.906C148.254 115.453 148.664 115.883 149.172 116.195C149.693 116.495 150.324 116.645 151.066 116.645C151.809 116.645 152.434 116.495 152.941 116.195C153.449 115.883 153.859 115.453 154.172 114.906C154.484 114.359 154.706 113.721 154.836 112.992C154.979 112.263 155.051 111.482 155.051 110.648V110.238C155.051 109.418 154.979 108.65 154.836 107.934C154.706 107.204 154.484 106.56 154.172 106C153.859 105.44 153.443 105.004 152.922 104.691C152.414 104.379 151.783 104.223 151.027 104.223C150.298 104.223 149.68 104.379 149.172 104.691C148.664 105.004 148.254 105.44 147.941 106C147.629 106.56 147.401 107.204 147.258 107.934C147.128 108.65 147.062 109.418 147.062 110.238ZM170.48 104.789V121H164.387V99.8672H170.109L170.48 104.789ZM176.789 99.7109L176.691 105.395C176.431 105.355 176.092 105.323 175.676 105.297C175.259 105.258 174.901 105.238 174.602 105.238C173.82 105.238 173.143 105.336 172.57 105.531C172.01 105.714 171.542 105.987 171.164 106.352C170.799 106.716 170.526 107.172 170.344 107.719C170.161 108.253 170.07 108.871 170.07 109.574L168.918 109.008C168.918 107.615 169.055 106.339 169.328 105.18C169.602 104.021 169.999 103.018 170.52 102.172C171.04 101.312 171.678 100.648 172.434 100.18C173.189 99.7109 174.048 99.4766 175.012 99.4766C175.324 99.4766 175.643 99.4961 175.969 99.5352C176.294 99.5742 176.568 99.6328 176.789 99.7109ZM185.402 104.301V121H179.309V99.8672H185.031L185.402 104.301ZM184.621 109.691L183.078 109.73C183.078 108.246 183.254 106.885 183.605 105.648C183.97 104.398 184.497 103.311 185.188 102.387C185.878 101.462 186.73 100.746 187.746 100.238C188.775 99.7305 189.96 99.4766 191.301 99.4766C192.238 99.4766 193.091 99.6198 193.859 99.9062C194.628 100.18 195.285 100.616 195.832 101.215C196.392 101.801 196.822 102.569 197.121 103.52C197.421 104.457 197.57 105.583 197.57 106.898V121H191.477V107.641C191.477 106.703 191.359 105.993 191.125 105.512C190.904 105.017 190.578 104.678 190.148 104.496C189.719 104.314 189.204 104.223 188.605 104.223C187.954 104.223 187.375 104.366 186.867 104.652C186.372 104.926 185.956 105.31 185.617 105.805C185.279 106.299 185.025 106.879 184.855 107.543C184.699 108.207 184.621 108.923 184.621 109.691ZM196.945 109.379L195.012 109.535C195.012 108.103 195.181 106.775 195.52 105.551C195.858 104.327 196.366 103.266 197.043 102.367C197.72 101.456 198.56 100.746 199.562 100.238C200.578 99.7305 201.757 99.4766 203.098 99.4766C204.087 99.4766 204.986 99.6198 205.793 99.9062C206.613 100.193 207.316 100.655 207.902 101.293C208.501 101.931 208.964 102.771 209.289 103.812C209.615 104.841 209.777 106.104 209.777 107.602V121H203.645V107.602C203.645 106.677 203.527 105.974 203.293 105.492C203.072 105.01 202.746 104.678 202.316 104.496C201.9 104.314 201.398 104.223 200.812 104.223C200.161 104.223 199.595 104.359 199.113 104.633C198.632 104.893 198.228 105.258 197.902 105.727C197.577 106.182 197.336 106.723 197.18 107.348C197.023 107.973 196.945 108.65 196.945 109.379ZM225.051 115.961V106.898C225.051 106.26 224.953 105.714 224.758 105.258C224.562 104.802 224.257 104.444 223.84 104.184C223.423 103.923 222.883 103.793 222.219 103.793C221.659 103.793 221.171 103.891 220.754 104.086C220.35 104.281 220.038 104.561 219.816 104.926C219.608 105.29 219.504 105.74 219.504 106.273H213.41C213.41 105.323 213.625 104.438 214.055 103.617C214.484 102.797 215.096 102.074 215.891 101.449C216.698 100.824 217.661 100.342 218.781 100.004C219.901 99.6523 221.158 99.4766 222.551 99.4766C224.204 99.4766 225.676 99.7565 226.965 100.316C228.267 100.863 229.296 101.69 230.051 102.797C230.806 103.891 231.184 105.271 231.184 106.938V115.785C231.184 117.061 231.255 118.064 231.398 118.793C231.555 119.509 231.776 120.134 232.062 120.668V121H225.91C225.624 120.388 225.409 119.633 225.266 118.734C225.122 117.823 225.051 116.898 225.051 115.961ZM225.812 108.109L225.852 111.469H222.824C222.147 111.469 221.561 111.553 221.066 111.723C220.585 111.892 220.194 112.126 219.895 112.426C219.595 112.712 219.374 113.051 219.23 113.441C219.1 113.819 219.035 114.236 219.035 114.691C219.035 115.121 219.139 115.512 219.348 115.863C219.556 116.202 219.842 116.469 220.207 116.664C220.572 116.859 220.995 116.957 221.477 116.957C222.271 116.957 222.948 116.801 223.508 116.488C224.081 116.176 224.523 115.798 224.836 115.355C225.148 114.9 225.305 114.477 225.305 114.086L226.77 116.625C226.535 117.146 226.249 117.686 225.91 118.246C225.572 118.793 225.142 119.307 224.621 119.789C224.1 120.258 223.469 120.642 222.727 120.941C221.997 121.241 221.118 121.391 220.09 121.391C218.762 121.391 217.557 121.124 216.477 120.59C215.396 120.043 214.53 119.294 213.879 118.344C213.241 117.393 212.922 116.299 212.922 115.062C212.922 113.956 213.124 112.973 213.527 112.113C213.931 111.254 214.536 110.525 215.344 109.926C216.164 109.327 217.193 108.878 218.43 108.578C219.667 108.266 221.112 108.109 222.766 108.109H225.812ZM245.93 99.8672V104.145H233.391V99.8672H245.93ZM236.262 94.6328H242.375V114.379C242.375 114.965 242.447 115.414 242.59 115.727C242.733 116.039 242.967 116.26 243.293 116.391C243.618 116.508 244.035 116.566 244.543 116.566C244.908 116.566 245.22 116.553 245.48 116.527C245.741 116.501 245.982 116.469 246.203 116.43V120.844C245.682 121.013 245.129 121.143 244.543 121.234C243.957 121.339 243.319 121.391 242.629 121.391C241.314 121.391 240.174 121.176 239.211 120.746C238.26 120.316 237.531 119.639 237.023 118.715C236.516 117.777 236.262 116.56 236.262 115.062V94.6328ZM255.285 99.8672V121H249.172V99.8672H255.285ZM248.801 94.3984C248.801 93.513 249.113 92.7904 249.738 92.2305C250.363 91.6576 251.184 91.3711 252.199 91.3711C253.215 91.3711 254.035 91.6576 254.66 92.2305C255.298 92.7904 255.617 93.513 255.617 94.3984C255.617 95.2708 255.298 95.9935 254.66 96.5664C254.035 97.1263 253.215 97.4062 252.199 97.4062C251.184 97.4062 250.363 97.1263 249.738 96.5664C249.113 95.9935 248.801 95.2708 248.801 94.3984ZM258.801 110.648V110.238C258.801 108.689 259.022 107.263 259.465 105.961C259.908 104.646 260.559 103.507 261.418 102.543C262.277 101.579 263.332 100.831 264.582 100.297C265.832 99.75 267.264 99.4766 268.879 99.4766C270.52 99.4766 271.965 99.75 273.215 100.297C274.478 100.831 275.539 101.579 276.398 102.543C277.258 103.507 277.909 104.646 278.352 105.961C278.794 107.263 279.016 108.689 279.016 110.238V110.648C279.016 112.185 278.794 113.611 278.352 114.926C277.909 116.228 277.258 117.367 276.398 118.344C275.539 119.307 274.484 120.056 273.234 120.59C271.984 121.124 270.546 121.391 268.918 121.391C267.303 121.391 265.865 121.124 264.602 120.59C263.339 120.056 262.277 119.307 261.418 118.344C260.559 117.367 259.908 116.228 259.465 114.926C259.022 113.611 258.801 112.185 258.801 110.648ZM264.914 110.238V110.648C264.914 111.482 264.979 112.263 265.109 112.992C265.253 113.721 265.48 114.359 265.793 114.906C266.105 115.453 266.516 115.883 267.023 116.195C267.544 116.495 268.176 116.645 268.918 116.645C269.66 116.645 270.285 116.495 270.793 116.195C271.301 115.883 271.711 115.453 272.023 114.906C272.336 114.359 272.557 113.721 272.688 112.992C272.831 112.263 272.902 111.482 272.902 110.648V110.238C272.902 109.418 272.831 108.65 272.688 107.934C272.557 107.204 272.336 106.56 272.023 106C271.711 105.44 271.294 105.004 270.773 104.691C270.266 104.379 269.634 104.223 268.879 104.223C268.15 104.223 267.531 104.379 267.023 104.691C266.516 105.004 266.105 105.44 265.793 106C265.48 106.56 265.253 107.204 265.109 107.934C264.979 108.65 264.914 109.418 264.914 110.238ZM288.195 104.379V121H282.082V99.8672H287.824L288.195 104.379ZM287.395 109.691L285.871 109.73C285.871 108.142 286.066 106.716 286.457 105.453C286.848 104.19 287.401 103.116 288.117 102.23C288.846 101.332 289.712 100.648 290.715 100.18C291.73 99.7109 292.85 99.4766 294.074 99.4766C295.064 99.4766 295.969 99.6198 296.789 99.9062C297.609 100.193 298.312 100.655 298.898 101.293C299.497 101.918 299.953 102.751 300.266 103.793C300.578 104.822 300.734 106.091 300.734 107.602V121H294.602V107.582C294.602 106.697 294.478 106.013 294.23 105.531C293.983 105.049 293.618 104.711 293.137 104.516C292.668 104.32 292.095 104.223 291.418 104.223C290.702 104.223 290.09 104.366 289.582 104.652C289.074 104.926 288.658 105.31 288.332 105.805C288.007 106.299 287.766 106.879 287.609 107.543C287.466 108.207 287.395 108.923 287.395 109.691ZM36.5547 171.117H29.4062V166.176H36.5547C37.6094 166.176 38.4557 166 39.0938 165.648C39.7448 165.297 40.2201 164.815 40.5195 164.203C40.832 163.578 40.9883 162.875 40.9883 162.094C40.9883 161.286 40.832 160.538 40.5195 159.848C40.2201 159.145 39.7448 158.578 39.0938 158.148C38.4557 157.719 37.6094 157.504 36.5547 157.504H31.7109V181H25.3438V152.562H36.5547C38.8203 152.562 40.7604 152.973 42.375 153.793C44.0026 154.613 45.2461 155.74 46.1055 157.172C46.9779 158.591 47.4141 160.219 47.4141 162.055C47.4141 163.891 46.9779 165.486 46.1055 166.84C45.2461 168.194 44.0026 169.249 42.375 170.004C40.7604 170.746 38.8203 171.117 36.5547 171.117ZM61.9258 175.961V166.898C61.9258 166.26 61.8281 165.714 61.6328 165.258C61.4375 164.802 61.1315 164.444 60.7148 164.184C60.2982 163.923 59.7578 163.793 59.0938 163.793C58.5339 163.793 58.0456 163.891 57.6289 164.086C57.2253 164.281 56.9128 164.561 56.6914 164.926C56.4831 165.29 56.3789 165.74 56.3789 166.273H50.2852C50.2852 165.323 50.5 164.438 50.9297 163.617C51.3594 162.797 51.9714 162.074 52.7656 161.449C53.5729 160.824 54.5365 160.342 55.6562 160.004C56.776 159.652 58.0326 159.477 59.4258 159.477C61.0794 159.477 62.5508 159.757 63.8398 160.316C65.1419 160.863 66.1706 161.69 66.9258 162.797C67.681 163.891 68.0586 165.271 68.0586 166.938V175.785C68.0586 177.061 68.1302 178.064 68.2734 178.793C68.4297 179.509 68.651 180.134 68.9375 180.668V181H62.7852C62.4987 180.388 62.2839 179.633 62.1406 178.734C61.9974 177.823 61.9258 176.898 61.9258 175.961ZM62.6875 168.109L62.7266 171.469H59.6992C59.0221 171.469 58.4362 171.553 57.9414 171.723C57.4596 171.892 57.069 172.126 56.7695 172.426C56.4701 172.712 56.2487 173.051 56.1055 173.441C55.9753 173.819 55.9102 174.236 55.9102 174.691C55.9102 175.121 56.0143 175.512 56.2227 175.863C56.431 176.202 56.7174 176.469 57.082 176.664C57.4466 176.859 57.8698 176.957 58.3516 176.957C59.1458 176.957 59.8229 176.801 60.3828 176.488C60.9557 176.176 61.3984 175.798 61.7109 175.355C62.0234 174.9 62.1797 174.477 62.1797 174.086L63.6445 176.625C63.4102 177.146 63.1237 177.686 62.7852 178.246C62.4466 178.793 62.0169 179.307 61.4961 179.789C60.9753 180.258 60.3438 180.642 59.6016 180.941C58.8724 181.241 57.9935 181.391 56.9648 181.391C55.6367 181.391 54.4323 181.124 53.3516 180.59C52.2708 180.043 51.4049 179.294 50.7539 178.344C50.1159 177.393 49.7969 176.299 49.7969 175.062C49.7969 173.956 49.9987 172.973 50.4023 172.113C50.806 171.254 51.4115 170.525 52.2188 169.926C53.0391 169.327 54.0677 168.878 55.3047 168.578C56.5417 168.266 57.987 168.109 59.6406 168.109H62.6875ZM78.1758 164.789V181H72.082V159.867H77.8047L78.1758 164.789ZM84.4844 159.711L84.3867 165.395C84.1263 165.355 83.7878 165.323 83.3711 165.297C82.9544 165.258 82.5964 165.238 82.2969 165.238C81.5156 165.238 80.8385 165.336 80.2656 165.531C79.7057 165.714 79.237 165.987 78.8594 166.352C78.4948 166.716 78.2214 167.172 78.0391 167.719C77.8568 168.253 77.7656 168.871 77.7656 169.574L76.6133 169.008C76.6133 167.615 76.75 166.339 77.0234 165.18C77.2969 164.021 77.694 163.018 78.2148 162.172C78.7357 161.312 79.3737 160.648 80.1289 160.18C80.8841 159.711 81.7435 159.477 82.707 159.477C83.0195 159.477 83.3385 159.496 83.6641 159.535C83.9896 159.574 84.263 159.633 84.4844 159.711ZM98.7031 159.867V164.145H86.1641V159.867H98.7031ZM89.0352 154.633H95.1484V174.379C95.1484 174.965 95.2201 175.414 95.3633 175.727C95.5065 176.039 95.7409 176.26 96.0664 176.391C96.3919 176.508 96.8086 176.566 97.3164 176.566C97.681 176.566 97.9935 176.553 98.2539 176.527C98.5143 176.501 98.7552 176.469 98.9766 176.43V180.844C98.4557 181.013 97.9023 181.143 97.3164 181.234C96.7305 181.339 96.0924 181.391 95.4023 181.391C94.0872 181.391 92.9479 181.176 91.9844 180.746C91.0339 180.316 90.3047 179.639 89.7969 178.715C89.2891 177.777 89.0352 176.56 89.0352 175.062V154.633ZM107.609 164.379V181H101.496V159.867H107.238L107.609 164.379ZM106.809 169.691L105.285 169.73C105.285 168.142 105.48 166.716 105.871 165.453C106.262 164.19 106.815 163.116 107.531 162.23C108.26 161.332 109.126 160.648 110.129 160.18C111.145 159.711 112.264 159.477 113.488 159.477C114.478 159.477 115.383 159.62 116.203 159.906C117.023 160.193 117.727 160.655 118.312 161.293C118.911 161.918 119.367 162.751 119.68 163.793C119.992 164.822 120.148 166.091 120.148 167.602V181H114.016V167.582C114.016 166.697 113.892 166.013 113.645 165.531C113.397 165.049 113.033 164.711 112.551 164.516C112.082 164.32 111.509 164.223 110.832 164.223C110.116 164.223 109.504 164.366 108.996 164.652C108.488 164.926 108.072 165.31 107.746 165.805C107.421 166.299 107.18 166.879 107.023 167.543C106.88 168.207 106.809 168.923 106.809 169.691ZM134.094 181.391C132.414 181.391 130.91 181.124 129.582 180.59C128.254 180.056 127.128 179.32 126.203 178.383C125.292 177.432 124.595 176.339 124.113 175.102C123.632 173.865 123.391 172.543 123.391 171.137V170.395C123.391 168.819 123.612 167.367 124.055 166.039C124.497 164.711 125.142 163.559 125.988 162.582C126.848 161.592 127.902 160.831 129.152 160.297C130.402 159.75 131.828 159.477 133.43 159.477C134.927 159.477 136.262 159.724 137.434 160.219C138.605 160.701 139.595 161.397 140.402 162.309C141.21 163.207 141.822 164.294 142.238 165.57C142.668 166.833 142.883 168.253 142.883 169.828V172.328H125.852V168.402H136.906V167.934C136.906 167.191 136.77 166.54 136.496 165.98C136.236 165.421 135.845 164.991 135.324 164.691C134.816 164.379 134.172 164.223 133.391 164.223C132.648 164.223 132.03 164.379 131.535 164.691C131.04 165.004 130.643 165.447 130.344 166.02C130.057 166.579 129.849 167.237 129.719 167.992C129.589 168.734 129.523 169.535 129.523 170.395V171.137C129.523 171.957 129.634 172.706 129.855 173.383C130.077 174.06 130.402 174.639 130.832 175.121C131.262 175.603 131.783 175.98 132.395 176.254C133.007 176.527 133.703 176.664 134.484 176.664C135.448 176.664 136.366 176.482 137.238 176.117C138.111 175.74 138.866 175.154 139.504 174.359L142.355 177.621C141.926 178.246 141.32 178.852 140.539 179.438C139.771 180.01 138.846 180.479 137.766 180.844C136.685 181.208 135.461 181.391 134.094 181.391ZM151.965 164.789V181H145.871V159.867H151.594L151.965 164.789ZM158.273 159.711L158.176 165.395C157.915 165.355 157.577 165.323 157.16 165.297C156.743 165.258 156.385 165.238 156.086 165.238C155.305 165.238 154.628 165.336 154.055 165.531C153.495 165.714 153.026 165.987 152.648 166.352C152.284 166.716 152.01 167.172 151.828 167.719C151.646 168.253 151.555 168.871 151.555 169.574L150.402 169.008C150.402 167.615 150.539 166.339 150.812 165.18C151.086 164.021 151.483 163.018 152.004 162.172C152.525 161.312 153.163 160.648 153.918 160.18C154.673 159.711 155.533 159.477 156.496 159.477C156.809 159.477 157.128 159.496 157.453 159.535C157.779 159.574 158.052 159.633 158.273 159.711Z" fill="black"/>
<path d="M14.4159 22.5384L1 22.4219" stroke="black" stroke-width="2" stroke-linecap="round"/>
<path d="M15.9604 16.4377L4.5 8.92578" stroke="black" stroke-width="2" stroke-linecap="round"/>
<path d="M20.5621 13.2157L14.3535 1" stroke="black" stroke-width="2" stroke-linecap="round"/>
</svg>
