<svg width="668" height="60" viewBox="0 0 668 60" fill="none" xmlns="http://www.w3.org/2000/svg">
<path d="M29.8945 22.5625L35.4609 35.2188L41.0664 22.5625H47.9414L38.7031 40.7266V51H32.2383V40.7266L22.9805 22.5625H29.8945ZM47.8242 40.6484V40.2383C47.8242 38.6888 48.0456 37.263 48.4883 35.9609C48.931 34.6458 49.582 33.5065 50.4414 32.543C51.3008 31.5794 52.3555 30.8307 53.6055 30.2969C54.8555 29.75 56.2878 29.4766 57.9023 29.4766C59.543 29.4766 60.9883 29.75 62.2383 30.2969C63.5013 30.8307 64.5625 31.5794 65.4219 32.543C66.2812 33.5065 66.9323 34.6458 67.375 35.9609C67.8177 37.263 68.0391 38.6888 68.0391 40.2383V40.6484C68.0391 42.1849 67.8177 43.6107 67.375 44.9258C66.9323 46.2279 66.2812 47.3672 65.4219 48.3438C64.5625 49.3073 63.5078 50.056 62.2578 50.5898C61.0078 51.1237 59.569 51.3906 57.9414 51.3906C56.3268 51.3906 54.888 51.1237 53.625 50.5898C52.362 50.056 51.3008 49.3073 50.4414 48.3438C49.582 47.3672 48.931 46.2279 48.4883 44.9258C48.0456 43.6107 47.8242 42.1849 47.8242 40.6484ZM53.9375 40.2383V40.6484C53.9375 41.4818 54.0026 42.263 54.1328 42.9922C54.276 43.7214 54.5039 44.3594 54.8164 44.9062C55.1289 45.4531 55.5391 45.8828 56.0469 46.1953C56.5677 46.4948 57.1992 46.6445 57.9414 46.6445C58.6836 46.6445 59.3086 46.4948 59.8164 46.1953C60.3242 45.8828 60.7344 45.4531 61.0469 44.9062C61.3594 44.3594 61.5807 43.7214 61.7109 42.9922C61.8542 42.263 61.9258 41.4818 61.9258 40.6484V40.2383C61.9258 39.418 61.8542 38.6497 61.7109 37.9336C61.5807 37.2044 61.3594 36.5599 61.0469 36C60.7344 35.4401 60.3177 35.0039 59.7969 34.6914C59.2891 34.3789 58.6576 34.2227 57.9023 34.2227C57.1732 34.2227 56.5547 34.3789 56.0469 34.6914C55.5391 35.0039 55.1289 35.4401 54.8164 36C54.5039 36.5599 54.276 37.2044 54.1328 37.9336C54.0026 38.6497 53.9375 39.418 53.9375 40.2383ZM83.6445 45.9023V29.8672H89.7773V51H84.0352L83.6445 45.9023ZM84.2891 41.5859L85.9688 41.5469C85.9688 42.9661 85.7995 44.2747 85.4609 45.4727C85.1354 46.6706 84.6406 47.7122 83.9766 48.5977C83.3255 49.4831 82.5117 50.1732 81.5352 50.668C80.5716 51.1497 79.4453 51.3906 78.1562 51.3906C77.1146 51.3906 76.1576 51.2474 75.2852 50.9609C74.4258 50.6615 73.6836 50.1992 73.0586 49.5742C72.4336 48.9362 71.9518 48.1224 71.6133 47.1328C71.2747 46.1302 71.1055 44.9323 71.1055 43.5391V29.8672H77.1992V43.5781C77.1992 44.125 77.2643 44.5938 77.3945 44.9844C77.5378 45.362 77.7266 45.6745 77.9609 45.9219C78.2083 46.1693 78.5078 46.3516 78.8594 46.4688C79.224 46.5859 79.6211 46.6445 80.0508 46.6445C81.1315 46.6445 81.9779 46.4232 82.5898 45.9805C83.2148 45.5247 83.651 44.9193 83.8984 44.1641C84.1589 43.3958 84.2891 42.5365 84.2891 41.5859ZM99.8555 34.7891V51H93.7617V29.8672H99.4844L99.8555 34.7891ZM106.164 29.7109L106.066 35.3945C105.806 35.3555 105.467 35.3229 105.051 35.2969C104.634 35.2578 104.276 35.2383 103.977 35.2383C103.195 35.2383 102.518 35.3359 101.945 35.5312C101.385 35.7135 100.917 35.987 100.539 36.3516C100.174 36.7161 99.901 37.1719 99.7188 37.7188C99.5365 38.2526 99.4453 38.8711 99.4453 39.5742L98.293 39.0078C98.293 37.6146 98.4297 36.3385 98.7031 35.1797C98.9766 34.0208 99.3737 33.0182 99.8945 32.1719C100.415 31.3125 101.053 30.6484 101.809 30.1797C102.564 29.7109 103.423 29.4766 104.387 29.4766C104.699 29.4766 105.018 29.4961 105.344 29.5352C105.669 29.5742 105.943 29.6328 106.164 29.7109ZM127.941 51H121.691L121.73 46.0781H127.941C129.361 46.0781 130.559 45.7526 131.535 45.1016C132.512 44.4375 133.254 43.4609 133.762 42.1719C134.27 40.8698 134.523 39.2878 134.523 37.4258V36.1172C134.523 34.7109 134.38 33.474 134.094 32.4062C133.807 31.3255 133.384 30.4206 132.824 29.6914C132.264 28.9622 131.568 28.4154 130.734 28.0508C129.914 27.6862 128.97 27.5039 127.902 27.5039H121.574V22.5625H127.902C129.829 22.5625 131.587 22.888 133.176 23.5391C134.777 24.1901 136.158 25.1211 137.316 26.332C138.488 27.543 139.393 28.9753 140.031 30.6289C140.669 32.2826 140.988 34.125 140.988 36.1562V37.4258C140.988 39.444 140.669 41.2865 140.031 42.9531C139.393 44.6068 138.488 46.0391 137.316 47.25C136.158 48.4479 134.784 49.3724 133.195 50.0234C131.607 50.6745 129.855 51 127.941 51ZM125.305 22.5625V51H118.938V22.5625H125.305ZM150.988 29.8672V51H144.875V29.8672H150.988ZM144.504 24.3984C144.504 23.513 144.816 22.7904 145.441 22.2305C146.066 21.6576 146.887 21.3711 147.902 21.3711C148.918 21.3711 149.738 21.6576 150.363 22.2305C151.001 22.7904 151.32 23.513 151.32 24.3984C151.32 25.2708 151.001 25.9935 150.363 26.5664C149.738 27.1263 148.918 27.4062 147.902 27.4062C146.887 27.4062 146.066 27.1263 145.441 26.5664C144.816 25.9935 144.504 25.2708 144.504 24.3984ZM168.703 29.8672H174.25V50.2383C174.25 52.1784 173.807 53.8255 172.922 55.1797C172.049 56.5339 170.832 57.5625 169.27 58.2656C167.707 58.9688 165.878 59.3203 163.781 59.3203C162.87 59.3203 161.919 59.1966 160.93 58.9492C159.94 58.7148 159.009 58.3568 158.137 57.875C157.264 57.4062 156.535 56.8073 155.949 56.0781L158.547 52.4844C159.146 53.1615 159.862 53.7083 160.695 54.125C161.529 54.5547 162.479 54.7695 163.547 54.7695C164.523 54.7695 165.35 54.5938 166.027 54.2422C166.704 53.8906 167.219 53.3763 167.57 52.6992C167.935 52.0221 168.117 51.2018 168.117 50.2383V34.8086L168.703 29.8672ZM154.582 40.6875V40.2773C154.582 38.6758 154.777 37.2174 155.168 35.9023C155.559 34.5742 156.125 33.4349 156.867 32.4844C157.622 31.5208 158.527 30.7786 159.582 30.2578C160.65 29.737 161.848 29.4766 163.176 29.4766C164.608 29.4766 165.793 29.75 166.73 30.2969C167.668 30.8307 168.43 31.5859 169.016 32.5625C169.602 33.526 170.064 34.6654 170.402 35.9805C170.741 37.2826 171.014 38.6953 171.223 40.2188V40.9219C171.014 42.3802 170.715 43.7409 170.324 45.0039C169.934 46.2669 169.426 47.3802 168.801 48.3438C168.176 49.2943 167.395 50.043 166.457 50.5898C165.533 51.1237 164.426 51.3906 163.137 51.3906C161.822 51.3906 160.637 51.1237 159.582 50.5898C158.527 50.056 157.622 49.3073 156.867 48.3438C156.125 47.3802 155.559 46.2474 155.168 44.9453C154.777 43.6432 154.582 42.224 154.582 40.6875ZM160.676 40.2773V40.6875C160.676 41.5208 160.754 42.2956 160.91 43.0117C161.079 43.7279 161.327 44.3594 161.652 44.9062C161.991 45.4531 162.408 45.8828 162.902 46.1953C163.41 46.4948 164.003 46.6445 164.68 46.6445C165.669 46.6445 166.47 46.4362 167.082 46.0195C167.707 45.5898 168.163 44.9974 168.449 44.2422C168.749 43.487 168.905 42.6081 168.918 41.6055V39.5547C168.918 38.7214 168.833 37.9727 168.664 37.3086C168.495 36.6445 168.241 36.0846 167.902 35.6289C167.577 35.1732 167.147 34.8281 166.613 34.5938C166.092 34.3464 165.461 34.2227 164.719 34.2227C164.055 34.2227 163.469 34.3789 162.961 34.6914C162.453 34.9909 162.03 35.4141 161.691 35.9609C161.353 36.5078 161.099 37.1523 160.93 37.8945C160.76 38.6237 160.676 39.418 160.676 40.2773ZM184.738 29.8672V51H178.625V29.8672H184.738ZM178.254 24.3984C178.254 23.513 178.566 22.7904 179.191 22.2305C179.816 21.6576 180.637 21.3711 181.652 21.3711C182.668 21.3711 183.488 21.6576 184.113 22.2305C184.751 22.7904 185.07 23.513 185.07 24.3984C185.07 25.2708 184.751 25.9935 184.113 26.5664C183.488 27.1263 182.668 27.4062 181.652 27.4062C180.637 27.4062 179.816 27.1263 179.191 26.5664C178.566 25.9935 178.254 25.2708 178.254 24.3984ZM199.875 29.8672V34.1445H187.336V29.8672H199.875ZM190.207 24.6328H196.32V44.3789C196.32 44.9648 196.392 45.4141 196.535 45.7266C196.678 46.0391 196.913 46.2604 197.238 46.3906C197.564 46.5078 197.98 46.5664 198.488 46.5664C198.853 46.5664 199.165 46.5534 199.426 46.5273C199.686 46.5013 199.927 46.4688 200.148 46.4297V50.8438C199.628 51.013 199.074 51.1432 198.488 51.2344C197.902 51.3385 197.264 51.3906 196.574 51.3906C195.259 51.3906 194.12 51.1758 193.156 50.7461C192.206 50.3164 191.477 49.6393 190.969 48.7148C190.461 47.7773 190.207 46.5599 190.207 45.0625V24.6328ZM213.996 45.9609V36.8984C213.996 36.2604 213.898 35.7135 213.703 35.2578C213.508 34.8021 213.202 34.444 212.785 34.1836C212.368 33.9232 211.828 33.793 211.164 33.793C210.604 33.793 210.116 33.8906 209.699 34.0859C209.296 34.2812 208.983 34.5612 208.762 34.9258C208.553 35.2904 208.449 35.7396 208.449 36.2734H202.355C202.355 35.3229 202.57 34.4375 203 33.6172C203.43 32.7969 204.042 32.0742 204.836 31.4492C205.643 30.8242 206.607 30.3424 207.727 30.0039C208.846 29.6523 210.103 29.4766 211.496 29.4766C213.15 29.4766 214.621 29.7565 215.91 30.3164C217.212 30.8633 218.241 31.6901 218.996 32.7969C219.751 33.8906 220.129 35.2708 220.129 36.9375V45.7852C220.129 47.0612 220.201 48.0638 220.344 48.793C220.5 49.5091 220.721 50.1341 221.008 50.668V51H214.855C214.569 50.388 214.354 49.6328 214.211 48.7344C214.068 47.8229 213.996 46.8984 213.996 45.9609ZM214.758 38.1094L214.797 41.4688H211.77C211.092 41.4688 210.507 41.5534 210.012 41.7227C209.53 41.8919 209.139 42.1263 208.84 42.4258C208.54 42.7122 208.319 43.0508 208.176 43.4414C208.046 43.819 207.98 44.2357 207.98 44.6914C207.98 45.1211 208.085 45.5117 208.293 45.8633C208.501 46.2018 208.788 46.4688 209.152 46.6641C209.517 46.8594 209.94 46.957 210.422 46.957C211.216 46.957 211.893 46.8008 212.453 46.4883C213.026 46.1758 213.469 45.7982 213.781 45.3555C214.094 44.8997 214.25 44.4766 214.25 44.0859L215.715 46.625C215.48 47.1458 215.194 47.6862 214.855 48.2461C214.517 48.793 214.087 49.3073 213.566 49.7891C213.046 50.2578 212.414 50.6419 211.672 50.9414C210.943 51.2409 210.064 51.3906 209.035 51.3906C207.707 51.3906 206.503 51.1237 205.422 50.5898C204.341 50.043 203.475 49.2943 202.824 48.3438C202.186 47.3932 201.867 46.2995 201.867 45.0625C201.867 43.9557 202.069 42.9727 202.473 42.1133C202.876 41.2539 203.482 40.5247 204.289 39.9258C205.109 39.3268 206.138 38.8776 207.375 38.5781C208.612 38.2656 210.057 38.1094 211.711 38.1094H214.758ZM230.559 21V51H224.445V21H230.559ZM257.375 22.5625V51H251.027V22.5625H257.375ZM266.027 22.5625V27.5039H242.551V22.5625H266.027ZM273.645 34.7891V51H267.551V29.8672H273.273L273.645 34.7891ZM279.953 29.7109L279.855 35.3945C279.595 35.3555 279.257 35.3229 278.84 35.2969C278.423 35.2578 278.065 35.2383 277.766 35.2383C276.984 35.2383 276.307 35.3359 275.734 35.5312C275.174 35.7135 274.706 35.987 274.328 36.3516C273.964 36.7161 273.69 37.1719 273.508 37.7188C273.326 38.2526 273.234 38.8711 273.234 39.5742L272.082 39.0078C272.082 37.6146 272.219 36.3385 272.492 35.1797C272.766 34.0208 273.163 33.0182 273.684 32.1719C274.204 31.3125 274.842 30.6484 275.598 30.1797C276.353 29.7109 277.212 29.4766 278.176 29.4766C278.488 29.4766 278.807 29.4961 279.133 29.5352C279.458 29.5742 279.732 29.6328 279.953 29.7109ZM293.02 45.9609V36.8984C293.02 36.2604 292.922 35.7135 292.727 35.2578C292.531 34.8021 292.225 34.444 291.809 34.1836C291.392 33.9232 290.852 33.793 290.188 33.793C289.628 33.793 289.139 33.8906 288.723 34.0859C288.319 34.2812 288.007 34.5612 287.785 34.9258C287.577 35.2904 287.473 35.7396 287.473 36.2734H281.379C281.379 35.3229 281.594 34.4375 282.023 33.6172C282.453 32.7969 283.065 32.0742 283.859 31.4492C284.667 30.8242 285.63 30.3424 286.75 30.0039C287.87 29.6523 289.126 29.4766 290.52 29.4766C292.173 29.4766 293.645 29.7565 294.934 30.3164C296.236 30.8633 297.264 31.6901 298.02 32.7969C298.775 33.8906 299.152 35.2708 299.152 36.9375V45.7852C299.152 47.0612 299.224 48.0638 299.367 48.793C299.523 49.5091 299.745 50.1341 300.031 50.668V51H293.879C293.592 50.388 293.378 49.6328 293.234 48.7344C293.091 47.8229 293.02 46.8984 293.02 45.9609ZM293.781 38.1094L293.82 41.4688H290.793C290.116 41.4688 289.53 41.5534 289.035 41.7227C288.553 41.8919 288.163 42.1263 287.863 42.4258C287.564 42.7122 287.342 43.0508 287.199 43.4414C287.069 43.819 287.004 44.2357 287.004 44.6914C287.004 45.1211 287.108 45.5117 287.316 45.8633C287.525 46.2018 287.811 46.4688 288.176 46.6641C288.54 46.8594 288.964 46.957 289.445 46.957C290.24 46.957 290.917 46.8008 291.477 46.4883C292.049 46.1758 292.492 45.7982 292.805 45.3555C293.117 44.8997 293.273 44.4766 293.273 44.0859L294.738 46.625C294.504 47.1458 294.217 47.6862 293.879 48.2461C293.54 48.793 293.111 49.3073 292.59 49.7891C292.069 50.2578 291.438 50.6419 290.695 50.9414C289.966 51.2409 289.087 51.3906 288.059 51.3906C286.73 51.3906 285.526 51.1237 284.445 50.5898C283.365 50.043 282.499 49.2943 281.848 48.3438C281.21 47.3932 280.891 46.2995 280.891 45.0625C280.891 43.9557 281.092 42.9727 281.496 42.1133C281.9 41.2539 282.505 40.5247 283.312 39.9258C284.133 39.3268 285.161 38.8776 286.398 38.5781C287.635 38.2656 289.081 38.1094 290.734 38.1094H293.781ZM309.133 34.3789V51H303.02V29.8672H308.762L309.133 34.3789ZM308.332 39.6914L306.809 39.7305C306.809 38.1419 307.004 36.7161 307.395 35.4531C307.785 34.1901 308.339 33.1159 309.055 32.2305C309.784 31.332 310.65 30.6484 311.652 30.1797C312.668 29.7109 313.788 29.4766 315.012 29.4766C316.001 29.4766 316.906 29.6198 317.727 29.9062C318.547 30.1927 319.25 30.6549 319.836 31.293C320.435 31.918 320.891 32.7513 321.203 33.793C321.516 34.8216 321.672 36.0911 321.672 37.6016V51H315.539V37.582C315.539 36.6966 315.415 36.013 315.168 35.5312C314.921 35.0495 314.556 34.7109 314.074 34.5156C313.605 34.3203 313.033 34.2227 312.355 34.2227C311.639 34.2227 311.027 34.3659 310.52 34.6523C310.012 34.9258 309.595 35.3099 309.27 35.8047C308.944 36.2995 308.703 36.8789 308.547 37.543C308.404 38.207 308.332 38.9232 308.332 39.6914ZM336.906 45.1211C336.906 44.7305 336.783 44.3854 336.535 44.0859C336.301 43.7865 335.871 43.513 335.246 43.2656C334.634 43.0182 333.768 42.7708 332.648 42.5234C331.594 42.3021 330.611 42.0156 329.699 41.6641C328.788 41.2995 327.993 40.8633 327.316 40.3555C326.639 39.8346 326.112 39.2227 325.734 38.5195C325.357 37.8034 325.168 36.9896 325.168 36.0781C325.168 35.1927 325.357 34.3529 325.734 33.5586C326.125 32.7643 326.685 32.0612 327.414 31.4492C328.156 30.8372 329.055 30.3555 330.109 30.0039C331.177 29.6523 332.388 29.4766 333.742 29.4766C335.604 29.4766 337.212 29.7695 338.566 30.3555C339.921 30.9284 340.962 31.7357 341.691 32.7773C342.421 33.806 342.785 34.9844 342.785 36.3125H336.691C336.691 35.7656 336.587 35.2904 336.379 34.8867C336.171 34.4831 335.852 34.1706 335.422 33.9492C334.992 33.7148 334.426 33.5977 333.723 33.5977C333.176 33.5977 332.694 33.6953 332.277 33.8906C331.874 34.0729 331.555 34.3268 331.32 34.6523C331.099 34.9779 330.988 35.3555 330.988 35.7852C330.988 36.0846 331.053 36.3581 331.184 36.6055C331.327 36.8398 331.542 37.0612 331.828 37.2695C332.128 37.4648 332.512 37.6406 332.98 37.7969C333.462 37.9531 334.048 38.1029 334.738 38.2461C336.21 38.5195 337.551 38.9036 338.762 39.3984C339.986 39.8932 340.962 40.5768 341.691 41.4492C342.434 42.3216 342.805 43.474 342.805 44.9062C342.805 45.8438 342.59 46.7031 342.16 47.4844C341.743 48.2656 341.138 48.9492 340.344 49.5352C339.549 50.1211 338.599 50.5768 337.492 50.9023C336.385 51.2279 335.135 51.3906 333.742 51.3906C331.75 51.3906 330.064 51.0326 328.684 50.3164C327.303 49.6003 326.262 48.7018 325.559 47.6211C324.868 46.5273 324.523 45.4076 324.523 44.2617H330.246C330.272 44.9648 330.448 45.5378 330.773 45.9805C331.112 46.4232 331.548 46.7487 332.082 46.957C332.616 47.1523 333.215 47.25 333.879 47.25C334.543 47.25 335.096 47.1589 335.539 46.9766C335.982 46.7943 336.32 46.5469 336.555 46.2344C336.789 45.9089 336.906 45.5378 336.906 45.1211ZM353.801 51H347.668V28.0703C347.668 26.4427 347.987 25.0755 348.625 23.9688C349.276 22.862 350.194 22.0221 351.379 21.4492C352.564 20.8763 353.964 20.5898 355.578 20.5898C356.138 20.5898 356.659 20.6289 357.141 20.707C357.635 20.7721 358.117 20.8633 358.586 20.9805V25.5312C358.339 25.4661 358.085 25.4206 357.824 25.3945C357.564 25.3685 357.251 25.3555 356.887 25.3555C356.236 25.3555 355.676 25.4596 355.207 25.668C354.751 25.8633 354.4 26.1693 354.152 26.5859C353.918 26.9896 353.801 27.4844 353.801 28.0703V51ZM357.98 29.8672V34.1445H344.582V29.8672H357.98ZM359.738 40.6484V40.2383C359.738 38.6888 359.96 37.263 360.402 35.9609C360.845 34.6458 361.496 33.5065 362.355 32.543C363.215 31.5794 364.27 30.8307 365.52 30.2969C366.77 29.75 368.202 29.4766 369.816 29.4766C371.457 29.4766 372.902 29.75 374.152 30.2969C375.415 30.8307 376.477 31.5794 377.336 32.543C378.195 33.5065 378.846 34.6458 379.289 35.9609C379.732 37.263 379.953 38.6888 379.953 40.2383V40.6484C379.953 42.1849 379.732 43.6107 379.289 44.9258C378.846 46.2279 378.195 47.3672 377.336 48.3438C376.477 49.3073 375.422 50.056 374.172 50.5898C372.922 51.1237 371.483 51.3906 369.855 51.3906C368.241 51.3906 366.802 51.1237 365.539 50.5898C364.276 50.056 363.215 49.3073 362.355 48.3438C361.496 47.3672 360.845 46.2279 360.402 44.9258C359.96 43.6107 359.738 42.1849 359.738 40.6484ZM365.852 40.2383V40.6484C365.852 41.4818 365.917 42.263 366.047 42.9922C366.19 43.7214 366.418 44.3594 366.73 44.9062C367.043 45.4531 367.453 45.8828 367.961 46.1953C368.482 46.4948 369.113 46.6445 369.855 46.6445C370.598 46.6445 371.223 46.4948 371.73 46.1953C372.238 45.8828 372.648 45.4531 372.961 44.9062C373.273 44.3594 373.495 43.7214 373.625 42.9922C373.768 42.263 373.84 41.4818 373.84 40.6484V40.2383C373.84 39.418 373.768 38.6497 373.625 37.9336C373.495 37.2044 373.273 36.5599 372.961 36C372.648 35.4401 372.232 35.0039 371.711 34.6914C371.203 34.3789 370.572 34.2227 369.816 34.2227C369.087 34.2227 368.469 34.3789 367.961 34.6914C367.453 35.0039 367.043 35.4401 366.73 36C366.418 36.5599 366.19 37.2044 366.047 37.9336C365.917 38.6497 365.852 39.418 365.852 40.2383ZM389.27 34.7891V51H383.176V29.8672H388.898L389.27 34.7891ZM395.578 29.7109L395.48 35.3945C395.22 35.3555 394.882 35.3229 394.465 35.2969C394.048 35.2578 393.69 35.2383 393.391 35.2383C392.609 35.2383 391.932 35.3359 391.359 35.5312C390.799 35.7135 390.331 35.987 389.953 36.3516C389.589 36.7161 389.315 37.1719 389.133 37.7188C388.951 38.2526 388.859 38.8711 388.859 39.5742L387.707 39.0078C387.707 37.6146 387.844 36.3385 388.117 35.1797C388.391 34.0208 388.788 33.0182 389.309 32.1719C389.829 31.3125 390.467 30.6484 391.223 30.1797C391.978 29.7109 392.837 29.4766 393.801 29.4766C394.113 29.4766 394.432 29.4961 394.758 29.5352C395.083 29.5742 395.357 29.6328 395.578 29.7109ZM404.191 34.3008V51H398.098V29.8672H403.82L404.191 34.3008ZM403.41 39.6914L401.867 39.7305C401.867 38.2461 402.043 36.8854 402.395 35.6484C402.759 34.3984 403.286 33.3112 403.977 32.3867C404.667 31.4622 405.52 30.7461 406.535 30.2383C407.564 29.7305 408.749 29.4766 410.09 29.4766C411.027 29.4766 411.88 29.6198 412.648 29.9062C413.417 30.1797 414.074 30.6159 414.621 31.2148C415.181 31.8008 415.611 32.569 415.91 33.5195C416.21 34.457 416.359 35.5833 416.359 36.8984V51H410.266V37.6406C410.266 36.7031 410.148 35.9935 409.914 35.5117C409.693 35.0169 409.367 34.6784 408.938 34.4961C408.508 34.3138 407.993 34.2227 407.395 34.2227C406.743 34.2227 406.164 34.3659 405.656 34.6523C405.161 34.9258 404.745 35.3099 404.406 35.8047C404.068 36.2995 403.814 36.8789 403.645 37.543C403.488 38.207 403.41 38.9232 403.41 39.6914ZM415.734 39.3789L413.801 39.5352C413.801 38.1029 413.97 36.7747 414.309 35.5508C414.647 34.3268 415.155 33.2656 415.832 32.3672C416.509 31.4557 417.349 30.7461 418.352 30.2383C419.367 29.7305 420.546 29.4766 421.887 29.4766C422.876 29.4766 423.775 29.6198 424.582 29.9062C425.402 30.1927 426.105 30.6549 426.691 31.293C427.29 31.931 427.753 32.7708 428.078 33.8125C428.404 34.8411 428.566 36.1042 428.566 37.6016V51H422.434V37.6016C422.434 36.6771 422.316 35.974 422.082 35.4922C421.861 35.0104 421.535 34.6784 421.105 34.4961C420.689 34.3138 420.188 34.2227 419.602 34.2227C418.951 34.2227 418.384 34.3594 417.902 34.6328C417.421 34.8932 417.017 35.2578 416.691 35.7266C416.366 36.1823 416.125 36.7227 415.969 37.3477C415.812 37.9727 415.734 38.6497 415.734 39.3789ZM443.84 45.9609V36.8984C443.84 36.2604 443.742 35.7135 443.547 35.2578C443.352 34.8021 443.046 34.444 442.629 34.1836C442.212 33.9232 441.672 33.793 441.008 33.793C440.448 33.793 439.96 33.8906 439.543 34.0859C439.139 34.2812 438.827 34.5612 438.605 34.9258C438.397 35.2904 438.293 35.7396 438.293 36.2734H432.199C432.199 35.3229 432.414 34.4375 432.844 33.6172C433.273 32.7969 433.885 32.0742 434.68 31.4492C435.487 30.8242 436.451 30.3424 437.57 30.0039C438.69 29.6523 439.947 29.4766 441.34 29.4766C442.993 29.4766 444.465 29.7565 445.754 30.3164C447.056 30.8633 448.085 31.6901 448.84 32.7969C449.595 33.8906 449.973 35.2708 449.973 36.9375V45.7852C449.973 47.0612 450.044 48.0638 450.188 48.793C450.344 49.5091 450.565 50.1341 450.852 50.668V51H444.699C444.413 50.388 444.198 49.6328 444.055 48.7344C443.911 47.8229 443.84 46.8984 443.84 45.9609ZM444.602 38.1094L444.641 41.4688H441.613C440.936 41.4688 440.35 41.5534 439.855 41.7227C439.374 41.8919 438.983 42.1263 438.684 42.4258C438.384 42.7122 438.163 43.0508 438.02 43.4414C437.889 43.819 437.824 44.2357 437.824 44.6914C437.824 45.1211 437.928 45.5117 438.137 45.8633C438.345 46.2018 438.632 46.4688 438.996 46.6641C439.361 46.8594 439.784 46.957 440.266 46.957C441.06 46.957 441.737 46.8008 442.297 46.4883C442.87 46.1758 443.312 45.7982 443.625 45.3555C443.938 44.8997 444.094 44.4766 444.094 44.0859L445.559 46.625C445.324 47.1458 445.038 47.6862 444.699 48.2461C444.361 48.793 443.931 49.3073 443.41 49.7891C442.889 50.2578 442.258 50.6419 441.516 50.9414C440.786 51.2409 439.908 51.3906 438.879 51.3906C437.551 51.3906 436.346 51.1237 435.266 50.5898C434.185 50.043 433.319 49.2943 432.668 48.3438C432.03 47.3932 431.711 46.2995 431.711 45.0625C431.711 43.9557 431.913 42.9727 432.316 42.1133C432.72 41.2539 433.326 40.5247 434.133 39.9258C434.953 39.3268 435.982 38.8776 437.219 38.5781C438.456 38.2656 439.901 38.1094 441.555 38.1094H444.602ZM464.719 29.8672V34.1445H452.18V29.8672H464.719ZM455.051 24.6328H461.164V44.3789C461.164 44.9648 461.236 45.4141 461.379 45.7266C461.522 46.0391 461.757 46.2604 462.082 46.3906C462.408 46.5078 462.824 46.5664 463.332 46.5664C463.697 46.5664 464.009 46.5534 464.27 46.5273C464.53 46.5013 464.771 46.4688 464.992 46.4297V50.8438C464.471 51.013 463.918 51.1432 463.332 51.2344C462.746 51.3385 462.108 51.3906 461.418 51.3906C460.103 51.3906 458.964 51.1758 458 50.7461C457.049 50.3164 456.32 49.6393 455.812 48.7148C455.305 47.7773 455.051 46.5599 455.051 45.0625V24.6328ZM474.074 29.8672V51H467.961V29.8672H474.074ZM467.59 24.3984C467.59 23.513 467.902 22.7904 468.527 22.2305C469.152 21.6576 469.973 21.3711 470.988 21.3711C472.004 21.3711 472.824 21.6576 473.449 22.2305C474.087 22.7904 474.406 23.513 474.406 24.3984C474.406 25.2708 474.087 25.9935 473.449 26.5664C472.824 27.1263 472.004 27.4062 470.988 27.4062C469.973 27.4062 469.152 27.1263 468.527 26.5664C467.902 25.9935 467.59 25.2708 467.59 24.3984ZM477.59 40.6484V40.2383C477.59 38.6888 477.811 37.263 478.254 35.9609C478.697 34.6458 479.348 33.5065 480.207 32.543C481.066 31.5794 482.121 30.8307 483.371 30.2969C484.621 29.75 486.053 29.4766 487.668 29.4766C489.309 29.4766 490.754 29.75 492.004 30.2969C493.267 30.8307 494.328 31.5794 495.188 32.543C496.047 33.5065 496.698 34.6458 497.141 35.9609C497.583 37.263 497.805 38.6888 497.805 40.2383V40.6484C497.805 42.1849 497.583 43.6107 497.141 44.9258C496.698 46.2279 496.047 47.3672 495.188 48.3438C494.328 49.3073 493.273 50.056 492.023 50.5898C490.773 51.1237 489.335 51.3906 487.707 51.3906C486.092 51.3906 484.654 51.1237 483.391 50.5898C482.128 50.056 481.066 49.3073 480.207 48.3438C479.348 47.3672 478.697 46.2279 478.254 44.9258C477.811 43.6107 477.59 42.1849 477.59 40.6484ZM483.703 40.2383V40.6484C483.703 41.4818 483.768 42.263 483.898 42.9922C484.042 43.7214 484.27 44.3594 484.582 44.9062C484.895 45.4531 485.305 45.8828 485.812 46.1953C486.333 46.4948 486.965 46.6445 487.707 46.6445C488.449 46.6445 489.074 46.4948 489.582 46.1953C490.09 45.8828 490.5 45.4531 490.812 44.9062C491.125 44.3594 491.346 43.7214 491.477 42.9922C491.62 42.263 491.691 41.4818 491.691 40.6484V40.2383C491.691 39.418 491.62 38.6497 491.477 37.9336C491.346 37.2044 491.125 36.5599 490.812 36C490.5 35.4401 490.083 35.0039 489.562 34.6914C489.055 34.3789 488.423 34.2227 487.668 34.2227C486.939 34.2227 486.32 34.3789 485.812 34.6914C485.305 35.0039 484.895 35.4401 484.582 36C484.27 36.5599 484.042 37.2044 483.898 37.9336C483.768 38.6497 483.703 39.418 483.703 40.2383ZM506.984 34.3789V51H500.871V29.8672H506.613L506.984 34.3789ZM506.184 39.6914L504.66 39.7305C504.66 38.1419 504.855 36.7161 505.246 35.4531C505.637 34.1901 506.19 33.1159 506.906 32.2305C507.635 31.332 508.501 30.6484 509.504 30.1797C510.52 29.7109 511.639 29.4766 512.863 29.4766C513.853 29.4766 514.758 29.6198 515.578 29.9062C516.398 30.1927 517.102 30.6549 517.688 31.293C518.286 31.918 518.742 32.7513 519.055 33.793C519.367 34.8216 519.523 36.0911 519.523 37.6016V51H513.391V37.582C513.391 36.6966 513.267 36.013 513.02 35.5312C512.772 35.0495 512.408 34.7109 511.926 34.5156C511.457 34.3203 510.884 34.2227 510.207 34.2227C509.491 34.2227 508.879 34.3659 508.371 34.6523C507.863 34.9258 507.447 35.3099 507.121 35.8047C506.796 36.2995 506.555 36.8789 506.398 37.543C506.255 38.207 506.184 38.9232 506.184 39.6914ZM544.992 41.1172H537.844V36.1758H544.992C546.047 36.1758 546.893 36 547.531 35.6484C548.182 35.2969 548.658 34.8151 548.957 34.2031C549.27 33.5781 549.426 32.875 549.426 32.0938C549.426 31.2865 549.27 30.5378 548.957 29.8477C548.658 29.1445 548.182 28.5781 547.531 28.1484C546.893 27.7188 546.047 27.5039 544.992 27.5039H540.148V51H533.781V22.5625H544.992C547.258 22.5625 549.198 22.9727 550.812 23.793C552.44 24.6133 553.684 25.7396 554.543 27.1719C555.415 28.5911 555.852 30.2188 555.852 32.0547C555.852 33.8906 555.415 35.4857 554.543 36.8398C553.684 38.194 552.44 39.2487 550.812 40.0039C549.198 40.7461 547.258 41.1172 544.992 41.1172ZM570.363 45.9609V36.8984C570.363 36.2604 570.266 35.7135 570.07 35.2578C569.875 34.8021 569.569 34.444 569.152 34.1836C568.736 33.9232 568.195 33.793 567.531 33.793C566.971 33.793 566.483 33.8906 566.066 34.0859C565.663 34.2812 565.35 34.5612 565.129 34.9258C564.921 35.2904 564.816 35.7396 564.816 36.2734H558.723C558.723 35.3229 558.938 34.4375 559.367 33.6172C559.797 32.7969 560.409 32.0742 561.203 31.4492C562.01 30.8242 562.974 30.3424 564.094 30.0039C565.214 29.6523 566.47 29.4766 567.863 29.4766C569.517 29.4766 570.988 29.7565 572.277 30.3164C573.579 30.8633 574.608 31.6901 575.363 32.7969C576.118 33.8906 576.496 35.2708 576.496 36.9375V45.7852C576.496 47.0612 576.568 48.0638 576.711 48.793C576.867 49.5091 577.089 50.1341 577.375 50.668V51H571.223C570.936 50.388 570.721 49.6328 570.578 48.7344C570.435 47.8229 570.363 46.8984 570.363 45.9609ZM571.125 38.1094L571.164 41.4688H568.137C567.46 41.4688 566.874 41.5534 566.379 41.7227C565.897 41.8919 565.507 42.1263 565.207 42.4258C564.908 42.7122 564.686 43.0508 564.543 43.4414C564.413 43.819 564.348 44.2357 564.348 44.6914C564.348 45.1211 564.452 45.5117 564.66 45.8633C564.868 46.2018 565.155 46.4688 565.52 46.6641C565.884 46.8594 566.307 46.957 566.789 46.957C567.583 46.957 568.26 46.8008 568.82 46.4883C569.393 46.1758 569.836 45.7982 570.148 45.3555C570.461 44.8997 570.617 44.4766 570.617 44.0859L572.082 46.625C571.848 47.1458 571.561 47.6862 571.223 48.2461C570.884 48.793 570.454 49.3073 569.934 49.7891C569.413 50.2578 568.781 50.6419 568.039 50.9414C567.31 51.2409 566.431 51.3906 565.402 51.3906C564.074 51.3906 562.87 51.1237 561.789 50.5898C560.708 50.043 559.842 49.2943 559.191 48.3438C558.553 47.3932 558.234 46.2995 558.234 45.0625C558.234 43.9557 558.436 42.9727 558.84 42.1133C559.243 41.2539 559.849 40.5247 560.656 39.9258C561.477 39.3268 562.505 38.8776 563.742 38.5781C564.979 38.2656 566.424 38.1094 568.078 38.1094H571.125ZM586.613 34.7891V51H580.52V29.8672H586.242L586.613 34.7891ZM592.922 29.7109L592.824 35.3945C592.564 35.3555 592.225 35.3229 591.809 35.2969C591.392 35.2578 591.034 35.2383 590.734 35.2383C589.953 35.2383 589.276 35.3359 588.703 35.5312C588.143 35.7135 587.674 35.987 587.297 36.3516C586.932 36.7161 586.659 37.1719 586.477 37.7188C586.294 38.2526 586.203 38.8711 586.203 39.5742L585.051 39.0078C585.051 37.6146 585.188 36.3385 585.461 35.1797C585.734 34.0208 586.132 33.0182 586.652 32.1719C587.173 31.3125 587.811 30.6484 588.566 30.1797C589.322 29.7109 590.181 29.4766 591.145 29.4766C591.457 29.4766 591.776 29.4961 592.102 29.5352C592.427 29.5742 592.701 29.6328 592.922 29.7109ZM607.141 29.8672V34.1445H594.602V29.8672H607.141ZM597.473 24.6328H603.586V44.3789C603.586 44.9648 603.658 45.4141 603.801 45.7266C603.944 46.0391 604.178 46.2604 604.504 46.3906C604.829 46.5078 605.246 46.5664 605.754 46.5664C606.118 46.5664 606.431 46.5534 606.691 46.5273C606.952 46.5013 607.193 46.4688 607.414 46.4297V50.8438C606.893 51.013 606.34 51.1432 605.754 51.2344C605.168 51.3385 604.53 51.3906 603.84 51.3906C602.525 51.3906 601.385 51.1758 600.422 50.7461C599.471 50.3164 598.742 49.6393 598.234 48.7148C597.727 47.7773 597.473 46.5599 597.473 45.0625V24.6328ZM616.047 34.3789V51H609.934V29.8672H615.676L616.047 34.3789ZM615.246 39.6914L613.723 39.7305C613.723 38.1419 613.918 36.7161 614.309 35.4531C614.699 34.1901 615.253 33.1159 615.969 32.2305C616.698 31.332 617.564 30.6484 618.566 30.1797C619.582 29.7109 620.702 29.4766 621.926 29.4766C622.915 29.4766 623.82 29.6198 624.641 29.9062C625.461 30.1927 626.164 30.6549 626.75 31.293C627.349 31.918 627.805 32.7513 628.117 33.793C628.43 34.8216 628.586 36.0911 628.586 37.6016V51H622.453V37.582C622.453 36.6966 622.329 36.013 622.082 35.5312C621.835 35.0495 621.47 34.7109 620.988 34.5156C620.52 34.3203 619.947 34.2227 619.27 34.2227C618.553 34.2227 617.941 34.3659 617.434 34.6523C616.926 34.9258 616.509 35.3099 616.184 35.8047C615.858 36.2995 615.617 36.8789 615.461 37.543C615.318 38.207 615.246 38.9232 615.246 39.6914ZM642.531 51.3906C640.852 51.3906 639.348 51.1237 638.02 50.5898C636.691 50.056 635.565 49.3203 634.641 48.3828C633.729 47.4323 633.033 46.3385 632.551 45.1016C632.069 43.8646 631.828 42.543 631.828 41.1367V40.3945C631.828 38.819 632.049 37.3672 632.492 36.0391C632.935 34.7109 633.579 33.5586 634.426 32.582C635.285 31.5924 636.34 30.8307 637.59 30.2969C638.84 29.75 640.266 29.4766 641.867 29.4766C643.365 29.4766 644.699 29.724 645.871 30.2188C647.043 30.7005 648.033 31.3971 648.84 32.3086C649.647 33.207 650.259 34.2943 650.676 35.5703C651.105 36.8333 651.32 38.2526 651.32 39.8281V42.3281H634.289V38.4023H645.344V37.9336C645.344 37.1914 645.207 36.5404 644.934 35.9805C644.673 35.4206 644.283 34.9909 643.762 34.6914C643.254 34.3789 642.609 34.2227 641.828 34.2227C641.086 34.2227 640.467 34.3789 639.973 34.6914C639.478 35.0039 639.081 35.4466 638.781 36.0195C638.495 36.5794 638.286 37.237 638.156 37.9922C638.026 38.7344 637.961 39.5352 637.961 40.3945V41.1367C637.961 41.957 638.072 42.7057 638.293 43.3828C638.514 44.0599 638.84 44.6393 639.27 45.1211C639.699 45.6029 640.22 45.9805 640.832 46.2539C641.444 46.5273 642.141 46.6641 642.922 46.6641C643.885 46.6641 644.803 46.4818 645.676 46.1172C646.548 45.7396 647.303 45.1536 647.941 44.3594L650.793 47.6211C650.363 48.2461 649.758 48.8516 648.977 49.4375C648.208 50.0104 647.284 50.4792 646.203 50.8438C645.122 51.2083 643.898 51.3906 642.531 51.3906ZM660.402 34.7891V51H654.309V29.8672H660.031L660.402 34.7891ZM666.711 29.7109L666.613 35.3945C666.353 35.3555 666.014 35.3229 665.598 35.2969C665.181 35.2578 664.823 35.2383 664.523 35.2383C663.742 35.2383 663.065 35.3359 662.492 35.5312C661.932 35.7135 661.464 35.987 661.086 36.3516C660.721 36.7161 660.448 37.1719 660.266 37.7188C660.083 38.2526 659.992 38.8711 659.992 39.5742L658.84 39.0078C658.84 37.6146 658.977 36.3385 659.25 35.1797C659.523 34.0208 659.921 33.0182 660.441 32.1719C660.962 31.3125 661.6 30.6484 662.355 30.1797C663.111 29.7109 663.97 29.4766 664.934 29.4766C665.246 29.4766 665.565 29.4961 665.891 29.5352C666.216 29.5742 666.49 29.6328 666.711 29.7109Z" fill="black"/>
<path d="M14.4159 22.5384L1 22.4219" stroke="black" stroke-width="2" stroke-linecap="round"/>
<path d="M15.9604 16.4377L4.5 8.92578" stroke="black" stroke-width="2" stroke-linecap="round"/>
<path d="M20.5621 13.2157L14.3535 1" stroke="black" stroke-width="2" stroke-linecap="round"/>
</svg>
